<?xml version="1.0" encoding="UTF-8" standalone="no"?>
<!-- Created with Inkscape (http://www.inkscape.org/) -->

<svg
   width="175.54639mm"
   height="175.54639mm"
   viewBox="0 0 175.5464 175.54639"
   version="1.1"
   id="svg5"
   inkscape:version="1.1 (c68e22c387, 2021-05-23)"
   sodipodi:docname="archiv.svg"
   xmlns:inkscape="http://www.inkscape.org/namespaces/inkscape"
   xmlns:sodipodi="http://sodipodi.sourceforge.net/DTD/sodipodi-0.dtd"
   xmlns="http://www.w3.org/2000/svg"
   xmlns:svg="http://www.w3.org/2000/svg">
  <sodipodi:namedview
     id="namedview7"
     pagecolor="#ffffff"
     bordercolor="#666666"
     borderopacity="1.0"
     inkscape:pageshadow="2"
     inkscape:pageopacity="0.0"
     inkscape:pagecheckerboard="0"
     inkscape:document-units="mm"
     showgrid="false"
     inkscape:zoom="0.77771465"
     inkscape:cx="183.87207"
     inkscape:cy="494.39727"
     inkscape:window-width="1920"
     inkscape:window-height="1017"
     inkscape:window-x="295"
     inkscape:window-y="1432"
     inkscape:window-maximized="1"
     inkscape:current-layer="layer1" />
  <defs
     id="defs2" />
  <g
     inkscape:label="Vrstva 1"
     inkscape:groupmode="layer"
     id="layer1"
     transform="translate(-17.970665,-15.146566)">
    <path
       style="fill:#000000;stroke-width:0.326139"
       d="m 184.42181,175.77477 c -0.3698,-0.0709 -0.92827,-0.56293 -1.24143,-1.09304 -0.32589,-0.55231 -0.84553,-0.96382 -1.21618,-0.96382 -0.89675,0 -3.08663,-1.16193 -4.20603,-2.23165 -0.53005,-0.50654 -1.82471,-1.15322 -2.9955,-1.49617 -1.13412,-0.3322 -2.28218,-0.77926 -2.55121,-0.99346 -0.51232,-0.408 -3.43587,-1.80151 -3.77931,-1.80151 -0.1094,0 -0.66101,-0.20023 -1.22657,-0.44491 -1.06578,-0.4614 -2.91391,-1.18416 -5.0229,-1.96437 -0.67257,-0.24884 -1.81007,-0.6748 -2.52756,-0.94663 -3.56106,-1.34901 -6.92003,-2.5146 -7.24661,-2.5146 -0.2003,0 -0.78035,-0.20908 -1.28812,-0.46456 -0.5077,-0.25554 -1.5838,-0.6469 -2.39097,-0.86983 -0.80723,-0.22288 -1.92524,-0.67426 -2.48456,-1.00303 -0.55931,-0.32881 -1.25145,-0.59784 -1.53804,-0.59784 -0.47611,0 -2.14343,-0.63035 -3.55574,-1.34438 -0.31125,-0.15747 -0.76117,-0.28636 -0.99868,-0.28636 -0.23805,0 -1.06117,-0.30377 -1.82972,-0.6751 -0.76886,-0.37135 -1.46994,-0.60254 -1.55861,-0.51379 -0.24114,0.24098 -3.01754,-0.65476 -3.63864,-1.17387 -0.53466,-0.44684 -2.58656,-1.00001 -5.10587,-1.37649 -1.27812,-0.19098 -3.10598,-0.8208 -4.729,-1.62937 -0.44838,-0.22342 -1.73265,-0.59453 -2.85375,-0.82476 -1.1211,-0.23019 -2.03834,-0.54521 -2.03834,-0.70014 0,-0.15485 -0.40215,-0.28158 -0.89352,-0.28158 -0.49152,0 -2.32401,-0.32258 -4.07237,-0.71687 l -3.17878,-0.71687 -1.04344,0.77149 c -0.99353,0.73459 -1.13042,0.75161 -2.85814,0.35624 -3.34743,-0.7661 -3.60844,-0.78451 -3.60844,-0.25508 0,0.64275 -0.41756,0.78126 -3.122991,1.03491 -1.242054,0.11649 -3.285639,0.41155 -4.54125,0.65577 -1.255687,0.24421 -3.677233,0.69429 -5.381299,1.0002 -1.704142,0.30594 -3.391875,0.68436 -3.750653,0.84102 -0.35901,0.15662 -0.945753,0.27566 -1.304532,0.2644 -1.159387,-0.0362 -4.20843,0.57843 -5.381299,1.08509 -0.627883,0.27119 -2.008992,0.59768 -3.069305,0.72557 -1.060313,0.12789 -2.160994,0.36171 -2.446045,0.51965 -0.758081,0.42017 -5.84963,1.2822 -6.377206,1.07975 -0.248071,-0.0951 -0.604769,0.11487 -0.793057,0.46664 -0.199536,0.37349 -0.854768,0.73543 -1.574175,0.86983 -0.677189,0.12665 -1.378568,0.35084 -1.557996,0.49829 -0.179504,0.14746 -1.059926,0.42396 -1.956836,0.61456 -1.652294,0.35107 -6.766877,1.74006 -7.664249,2.08142 -0.488439,0.18566 -1.57348,0.4369 -3.424462,0.79273 -0.538516,0.10346 -1.267938,0.38805 -1.621709,0.6325 -0.353618,0.24445 -0.914706,0.44444 -1.246366,0.44444 -0.331275,0 -0.819252,0.21627 -1.083579,0.48059 -0.264249,0.26433 -1.097754,0.63805 -1.851983,0.8305 -2.752129,0.70215 -4.983076,1.37743 -6.01889,1.82177 -0.583198,0.25007 -1.536963,0.65931 -2.119931,0.90936 -0.583198,0.25007 -1.940503,0.71 -3.016763,1.02207 -1.076259,0.3121 -2.188574,0.76787 -2.471776,1.01295 -0.283511,0.24506 -0.667174,0.44553 -0.852842,0.44553 -0.185669,0 -0.687974,0.26333 -1.115859,0.58512 -0.977494,0.73535 -4.296102,1.7665 -4.917667,1.52799 -0.739592,-0.28375 -1.343592,-2.29119 -0.92503,-3.07331 0.441445,-0.82563 1.446596,-1.37672 2.072167,-1.13664 0.558545,0.21441 1.604452,-1.09852 1.285656,-1.61431 -0.116331,-0.1889 -0.295836,-0.8621 -0.3983,-1.49601 -0.140985,-0.8739 -0.362863,-1.17776 -0.91563,-1.25678 -0.401383,-0.057 -0.729577,-0.24693 -0.729577,-0.42135 0,-0.17441 -0.293525,-0.63212 -0.652535,-1.01723 -0.870407,-0.93428 -0.822102,-1.7415 0.163326,-2.7267 0.931039,-0.93101 0.992286,-1.11183 0.37673,-1.11183 -0.85261,0 -1.667085,-1.34747 -1.837808,-3.04046 -0.137133,-1.36199 -0.293525,-1.70034 -0.821871,-1.77941 -2.788569,-0.4174 -3.026162,-0.89695 -2.712529,-5.47654 0.130198,-1.90063 0.110168,-4.13092 -0.04623,-4.95622 -0.161785,-0.86706 -0.156393,-1.82734 0.01541,-2.27467 0.161785,-0.4258 0.207239,-2.78366 0.100155,-5.23974 -0.238826,-5.50263 -0.205699,-7.43709 0.202617,-11.80374 0.344373,-3.68365 0.494603,-7.26218 0.806695,-19.24222 0.110168,-4.215356 0.324342,-8.251329 0.476112,-8.968834 0.15177,-0.717481 0.276576,-5.078968 0.276576,-9.692139 7.8e-5,-4.613172 0.0886,-9.089434 0.196455,-9.947253 0.200306,-1.590977 0.616326,-20.443097 0.5493,-24.878628 -0.05393,-3.438492 -0.380581,-6.500024 -0.719561,-6.709644 -0.157933,-0.09777 -0.287362,-0.600764 -0.287362,-1.1177 0,-0.516944 -0.147148,-1.030629 -0.325883,-1.14149 -0.36055,-0.222802 -0.437591,-1.776037 -0.127887,-2.582439 0.117873,-0.307161 0.582428,-0.515864 1.148447,-0.515864 0.733428,0 1.031268,-0.204621 1.304532,-0.896879 0.617097,-1.562942 0.833118,-1.875303 1.298214,-1.875303 0.249612,0 0.526959,-0.07627 0.616326,-0.169721 0.311245,-0.323495 1.990118,-0.971785 2.517309,-0.971785 0.291213,0 0.793905,-0.239058 1.116782,-0.531273 0.322801,-0.292216 1.141591,-0.644523 1.819396,-0.78292 0.677958,-0.138365 2.406523,-0.588668 3.841484,-1.00059 1.43504,-0.411937 3.602582,-0.773182 4.816745,-0.802795 1.551601,-0.03775 2.387648,-0.216794 2.81353,-0.602228 0.536203,-0.485204 0.929573,-0.508162 3.415834,-0.199152 1.545516,0.192064 3.875074,0.28536 5.17691,0.207318 4.323298,-0.259089 21.729509,0.736818 23.737962,1.358159 0.62326,0.192757 2.600204,0.510627 4.394021,0.706388 1.793741,0.195837 4.875758,0.66594 6.848927,1.04468 3.654352,0.701534 6.69415,1.448098 14.350081,3.524532 2.298744,0.623414 5.921034,2.344058 6.535054,3.104143 0.65176,0.806532 1.45538,1.102623 1.45538,0.536049 0,-0.157625 0.47688,-0.4634 1.05992,-0.6795 0.5832,-0.216099 1.35038,-0.549608 1.7053,-0.741209 0.87988,-0.474879 5.45126,-1.599844 5.65857,-1.392551 0.0917,0.09176 0.4738,-0.03467 0.84907,-0.280197 1.83287,-1.200965 11.19642,-2.877636 18.44895,-3.303555 1.88349,-0.110631 4.15828,-0.342061 5.05519,-0.514402 3.4331,-0.659623 9.80598,-0.814159 11.6377,-0.282277 0.59476,0.172725 2.62279,0.397453 4.5062,0.499379 4.22923,0.228733 9.2952,0.92475 10.5995,1.456209 0.53852,0.219258 1.19861,0.439903 1.46763,0.490365 1.62956,0.305313 4.7793,1.338182 5.05518,1.657679 0.17951,0.207702 0.83983,0.449917 1.46763,0.538206 1.46339,0.205777 3.4814,0.97187 4.21529,1.60023 0.3151,0.269643 1.69674,1.03096 3.07069,1.691823 1.37403,0.660856 2.49821,1.32692 2.49821,1.480108 0,0.153158 0.3667,0.370643 0.81531,0.4832 0.44838,0.112557 0.81541,0.34861 0.81541,0.524571 0,0.175961 0.23959,0.31995 0.53311,0.31995 0.29353,0 0.85901,0.351384 1.257,0.780886 0.59091,0.63782 0.79067,1.429668 1.08889,4.321341 0.41372,4.012453 0.72727,11.092818 0.89361,20.173569 0.0616,3.408154 0.26424,7.074633 0.44837,8.147726 0.18413,1.073094 0.26579,2.907628 0.18104,4.076745 -0.0848,1.169109 -0.22727,7.042214 -0.31663,13.051334 -0.15331,10.321068 0.15408,17.922008 0.75654,18.727208 0.28736,0.38375 0.25115,2.38478 -0.087,4.86822 -0.13174,0.96493 -0.0801,1.7447 0.1325,2.001 0.22342,0.26919 0.40524,4.13544 0.50616,10.76777 0.087,5.6913 0.25886,10.51092 0.38213,10.71028 0.12326,0.19937 0.2496,2.93448 0.28043,6.07807 0.0308,3.14357 0.16486,6.11821 0.2966,6.6103 0.20108,0.75176 0.054,1.07743 -0.904,2.03837 -0.74267,0.74244 -1.45252,1.14367 -2.02386,1.14367 -0.80345,0 -2.77262,1.60503 -2.77262,2.25986 0,0.12873 0.79768,1.05103 1.77264,2.04959 1.86075,1.90587 2.10936,2.95082 0.80091,3.36612 -1.03173,0.3275 -1.20885,1.13318 -1.15639,5.26041 l 0.054,3.96314 -0.97842,0.49691 c -1.21962,0.61941 -2.08911,0.80821 -2.95504,0.64168 z m -0.21263,-7.75118 c 0.23189,-2.79512 -0.81201,-4.81491 -2.70306,-5.23026 -0.53851,-0.11818 -1.27194,-0.34484 -1.63072,-0.5037 -0.35901,-0.15885 -1.45946,-0.50461 -2.44604,-0.76833 -0.98658,-0.2637 -2.38079,-0.70299 -3.09835,-0.97608 -0.71725,-0.27311 -1.63042,-0.50299 -2.02872,-0.51085 -0.3983,-0.008 -1.57232,-0.41232 -2.60906,-0.89882 -1.03674,-0.48643 -2.61878,-1.0586 -3.51568,-1.27138 -0.89691,-0.2128 -3.17169,-0.78306 -5.05519,-1.26727 -1.88342,-0.48419 -5.03885,-1.23605 -7.01194,-1.67078 -1.97317,-0.43474 -4.17461,-0.91969 -4.89209,-1.07769 -0.71725,-0.15801 -2.6727,-0.66856 -4.34487,-1.13457 -1.67225,-0.46602 -3.6535,-0.84086 -4.40288,-0.83298 l -1.36262,0.0146 1.14151,0.43958 c 0.62788,0.24176 2.02209,0.75847 3.09835,1.14815 1.07626,0.38968 2.1036,0.8879 2.28295,1.10712 0.1795,0.21918 0.59013,0.34445 0.91255,0.27827 0.32279,-0.0663 0.77079,0.0323 0.99613,0.21965 0.46841,0.38882 6.02028,2.32296 6.66781,2.32296 0.42604,0 2.95143,1.02604 4.08501,1.65963 0.92256,0.51564 5.97767,2.25404 6.55463,2.25404 0.28351,0 0.5154,0.12327 0.5154,0.27396 0,0.26732 1.52934,0.80828 3.35628,1.18714 0.50077,0.10377 0.82319,0.3295 0.71726,0.50161 -0.10632,0.17203 0.005,0.23674 0.2473,0.14367 0.24268,-0.093 1.314,0.27373 2.38141,0.81496 1.0674,0.54121 2.17956,0.98595 2.47154,0.98823 0.29199,0.002 0.7134,0.22426 0.93682,0.49337 0.22342,0.2691 0.66177,0.48921 0.97433,0.48921 0.31279,0 0.91841,0.26671 1.34613,0.59275 0.42758,0.32603 1.24421,0.7797 1.81424,1.00821 0.5701,0.2285 1.28981,0.6956 1.59967,1.03796 0.3097,0.34236 0.74267,0.62249 0.96209,0.62249 0.21956,0 0.58628,0.22635 0.81616,0.50299 0.63482,0.76541 1.05377,0.0961 1.22403,-1.95752 z M 33.063399,163.80666 c 2.3103,-1.01881 5.851479,-2.15591 6.713874,-2.15591 0.506158,0 1.077261,-0.18967 1.269632,-0.42142 0.613245,-0.73913 5.397246,-2.7133 7.394375,-3.05147 0.538515,-0.0912 1.293746,-0.36795 1.679104,-0.61518 0.385204,-0.24721 1.451834,-0.50869 2.369929,-0.58112 0.918172,-0.0724 1.923709,-0.34806 2.234568,-0.61262 0.311245,-0.26456 1.445901,-0.66787 2.522161,-0.89623 3.621148,-0.76849 6.845383,-1.74697 7.338136,-2.227 0.429887,-0.41902 0.231122,-0.45754 -1.643204,-0.31871 -1.172792,0.0868 -3.080706,0.45569 -4.239785,0.81971 -1.159079,0.36401 -3.575078,0.92444 -5.368819,1.24548 -1.79374,0.32103 -3.554893,0.76309 -3.913672,0.98244 -0.771101,0.47141 -4.469675,1.43631 -5.505489,1.43631 -0.3983,0 -0.87241,0.1486 -1.054149,0.33034 -0.181816,0.18167 -1.040667,0.40223 -1.90884,0.49006 -2.500051,0.25301 -5.09463,1.03155 -7.100233,2.13063 -0.311244,0.17073 -0.788512,0.31033 -1.060004,0.31033 -0.271184,0 -0.493832,0.14498 -0.493832,0.32225 0,0.17727 -0.583968,0.41564 -1.297675,0.52981 -0.714168,0.11411 -1.547441,0.39006 -1.852599,0.61318 -0.50847,0.37172 -0.488439,0.44059 0.238055,0.82236 0.436052,0.22919 0.910007,0.6154 1.053456,0.85827 0.334358,0.56648 1.324177,0.5621 2.625088,-0.0116 z m 149.984391,-5.26521 c 0.36517,-0.14021 0.38751,-0.45716 0.11556,-1.63069 -0.18567,-0.80117 -0.42296,-1.45666 -0.52773,-1.45666 -0.10401,0 -1.04267,-0.5137 -2.08526,-1.14148 -1.0426,-0.62781 -2.06531,-1.14149 -2.27278,-1.14149 -0.20725,0 -1.18027,-0.41094 -2.16193,-0.91329 -0.98157,-0.5023 -2.44442,-1.106 -3.25065,-1.34155 -1.9073,-0.55724 -9.82994,-1.99625 -10.09358,-1.83332 -0.1117,0.0693 -1.23736,-0.0717 -2.50112,-0.31224 -1.26386,-0.24083 -2.50646,-0.41702 -2.76138,-0.39152 -0.52773,0.0524 -3.17431,-0.50477 -6.98621,-1.47146 -1.43496,-0.36394 -4.37022,-0.77404 -6.52274,-0.91135 -2.15251,-0.13728 -4.86766,-0.33821 -6.03361,-0.44645 -1.96631,-0.18258 -3.41105,0.11356 -2.69958,0.5533 0.16795,0.10378 1.31855,0.35054 2.55706,0.54838 1.23851,0.19784 2.50098,0.58521 2.80559,0.86088 0.30431,0.27565 1.11417,0.55269 1.79906,0.61571 2.56531,0.23589 4.52861,0.57118 5.64163,0.96337 0.63172,0.2225 2.24874,0.58258 3.5941,0.80024 4.6377,0.75023 11.46406,2.39832 12.23022,2.95278 0.17951,0.12982 0.90092,0.3245 1.60353,0.43267 0.70261,0.10817 2.04698,0.57318 2.98757,1.0334 0.94067,0.46023 1.83349,0.80119 1.98403,0.75776 0.15023,-0.0431 0.56702,0.0822 0.9261,0.2792 0.35902,0.197 1.71439,0.61448 3.01261,0.92771 1.29814,0.31325 2.52694,0.77026 2.73055,1.01565 0.20339,0.24537 0.82928,0.45438 1.39029,0.46455 0.56085,0.0102 1.53364,0.21279 2.16153,0.45031 1.35183,0.51147 1.75075,0.56833 2.35698,0.33566 z M 30.340546,157.08039 c 1.242592,-0.40878 1.849519,-0.64668 3.587559,-1.40653 1.593589,-0.69669 5.688307,-1.7636 7.827344,-2.03942 0.986507,-0.12719 2.08326,-0.43027 2.437032,-0.67341 0.353616,-0.24323 1.170173,-0.44214 1.814079,-0.44214 0.644061,0 1.822015,-0.31679 2.618077,-0.70407 0.796063,-0.38722 2.144431,-0.77282 2.996502,-0.85686 0.852071,-0.0841 1.549136,-0.26417 1.549136,-0.40037 0,-0.13621 0.403694,-0.32173 0.896908,-0.41225 0.493062,-0.0905 2.58287,-0.48759 4.643558,-0.88234 2.708214,-0.51879 3.897415,-0.62356 4.290477,-0.37811 0.409087,0.25539 0.711858,0.19383 1.221945,-0.24853 0.627112,-0.54376 1.722246,-0.74638 6.395618,-1.18324 2.015079,-0.18837 4.171373,-0.64737 4.900795,-1.04327 0.526189,-0.28575 3.544262,-0.83075 6.129982,-1.10704 0.211092,-0.0224 -0.790053,-0.206 -2.225014,-0.4077 -1.754528,-0.24653 -3.123157,-0.2641 -4.178231,-0.0532 -1.257999,0.251 -1.626331,0.22057 -1.85753,-0.15346 -0.24422,-0.39484 -0.469949,-0.40108 -1.46732,-0.0401 -0.664091,0.24015 -2.131872,0.38475 -3.360749,0.33112 -6.652395,-0.29021 -16.673862,0.18105 -21.587061,1.01517 -3.904967,0.66293 -8.696519,1.39717 -9.685799,1.48417 -0.573954,0.0501 -1.454222,0.31771 -1.956836,0.59398 -1.000837,0.55007 -3.837248,1.18528 -5.292702,1.18528 -0.506929,0 -1.097832,0.21133 -1.312236,0.46964 -0.214174,0.25832 -0.709546,0.5151 -1.099912,0.57072 -0.577035,0.0822 -0.714938,0.32589 -0.734199,1.30265 -0.01541,0.66085 -0.20878,1.42431 -0.43451,1.69657 -0.22881,0.27566 -0.315867,0.79336 -0.197223,1.16811 0.117101,0.37018 0.04622,1.18154 -0.159476,1.80304 -0.204927,0.62148 -0.293524,1.25841 -0.196453,1.41536 0.194913,0.31594 2.661373,-0.0192 4.436009,-0.60315 z m 157.001884,-8.80653 c -0.0155,-1.88061 -0.13405,-7.38188 -0.25578,-12.22505 -0.53544,-21.30075 -0.65715,-24.04583 -1.12526,-25.33521 -0.15099,-0.41578 -0.23728,-2.884 -0.19183,-5.48496 0.38136,-21.8402 0.39137,-25.1478 0.0809,-27.232631 -0.18721,-1.255642 -0.37441,-4.92471 -0.41679,-8.153489 -0.0385,-3.22878 -0.1849,-8.14533 -0.31664,-10.925663 -0.13174,-2.78034 -0.28428,-6.302645 -0.3382,-7.827344 -0.054,-1.524707 -0.20185,-3.021478 -0.32743,-3.326175 -0.12634,-0.304696 -0.95014,-0.793466 -1.83133,-1.086167 -0.88128,-0.292678 -1.6023,-0.662551 -1.6023,-0.821864 0,-0.15932 -0.20955,-0.209474 -0.46456,-0.111324 -0.25576,0.09807 -2.05344,-0.631811 -3.99517,-1.622054 -1.94174,-0.990221 -4.55781,-2.122929 -5.81343,-2.517146 -1.2556,-0.394218 -3.24056,-1.06314 -4.41096,-1.486503 -1.17041,-0.423339 -2.71138,-0.774429 -3.42447,-0.780137 -0.7134,-0.0057 -3.20436,-0.228658 -5.5363,-0.495527 -8.5409,-0.977247 -11.26314,-1.12669 -14.8272,-0.813929 -1.92579,0.169029 -4.14726,0.453232 -4.93662,0.631658 -0.78936,0.178426 -3.01291,0.397993 -4.94124,0.487977 -3.13186,0.146145 -3.50998,0.104697 -3.5438,-0.388825 -0.0385,-0.515788 -0.0462,-0.515943 -0.18335,-0.0026 -0.10478,0.39776 -0.65794,0.610855 -2.00052,0.770669 -1.02049,0.121493 -2.65683,0.424495 -3.63625,0.673259 -0.97935,0.248766 -2.0697,0.452384 -2.42286,0.452384 -0.35284,0 -1.1295,0.146763 -1.72525,0.326114 -0.59552,0.179351 -1.63349,0.483431 -2.30614,0.675725 -0.67256,0.192293 -1.66331,0.546373 -2.20144,0.786787 -0.53851,0.240443 -1.63881,0.631195 -2.44605,0.868296 -1.89543,0.556773 -2.92578,1.660713 -2.96761,3.179611 -0.12789,4.636253 0.0463,38.274643 0.19723,38.52175 0.10555,0.170801 0.27273,3.285228 0.37134,6.920967 0.10169,3.751464 0.32357,6.786739 0.51386,7.018094 0.23266,0.28374 0.20492,0.563938 -0.0924,0.921746 -0.35131,0.423031 -0.35131,0.560701 -6.2e-4,0.777421 0.34977,0.21618 0.35131,0.76649 0.008,3.07148 -0.3174,2.13064 -0.32896,3.10439 -0.0539,4.03607 0.23113,0.77046 0.37673,4.50757 0.39137,10.03077 0.0385,14.69523 0.21264,24.43031 0.44607,24.95957 0.12173,0.27612 0.86247,0.69144 1.64628,0.92284 1.22742,0.3624 1.56493,0.34846 2.43311,-0.10044 0.91308,-0.47218 3.16384,-0.95252 10.96406,-2.33992 1.43503,-0.25523 4.73716,-0.52502 7.33813,-0.5996 4.60011,-0.13183 6.04617,-0.0102 15.16548,1.27755 3.40436,0.48066 4.27915,0.63721 8.16648,1.46133 3.05112,0.64683 8.45661,1.37303 9.97494,1.34006 0.82956,-0.0177 1.93025,0.13743 2.44604,0.34552 0.51617,0.20809 1.52479,0.48945 2.24227,0.62534 2.16738,0.41055 5.19856,1.30826 5.52806,1.63724 0.17026,0.17011 0.57395,0.30932 0.89691,0.30932 0.3228,0 0.58705,0.1178 0.58705,0.26171 0,0.14391 0.72572,0.52264 1.61255,0.84157 0.88689,0.31895 1.78541,0.78819 1.99673,1.04284 0.2111,0.25462 0.64483,0.46301 0.96333,0.46301 0.31817,0 1.21777,0.36718 1.99843,0.81595 2.27856,1.30985 2.40306,1.16357 2.36361,-2.77796 z m -13.54139,-7.11363 c -0.82964,-0.29999 -1.71023,-0.7043 -1.95683,-0.89848 -0.61787,-0.48659 -2.04975,-0.9681 -4.36205,-1.46705 -1.07626,-0.23229 -2.39713,-0.74368 -2.93525,-1.13645 -1.36386,-0.99551 -6.62991,-2.07632 -13.53484,-2.77791 -3.72369,-0.37835 -16.40121,-0.48096 -16.95738,-0.13721 -0.15947,0.0987 -3.08864,0.33028 -6.50878,0.51464 -5.72044,0.30839 -6.29655,0.28906 -7.19384,-0.24099 -0.53621,-0.31694 -0.97549,-0.8133 -0.97549,-1.10306 0,-0.8135 1.42039,-1.40345 2.90097,-1.20486 0.71879,0.0964 1.35053,0.047 1.40423,-0.1104 0.23574,-0.68921 5.59454,-1.08018 13.79553,-1.00658 11.6978,0.10501 13.72236,0.20971 16.04945,0.82991 1.11401,0.29691 2.77716,0.55678 3.69588,0.57749 0.99706,0.0224 1.73296,0.20062 1.82556,0.44191 0.0855,0.22234 0.84043,0.49823 1.67802,0.61302 1.98557,0.27219 6.92528,1.88375 6.73205,2.19636 -0.0824,0.13336 -6.9e-4,0.33458 0.18182,0.4473 0.18259,0.11271 0.33128,-0.017 0.33128,-0.28806 0,-0.3624 0.22803,-0.28119 0.86293,0.30686 0.47457,0.4399 1.09837,0.80192 1.38612,0.80452 1.55314,0.0138 4.92598,1.70025 4.92598,2.46261 0,0.23952 0.24037,0.57025 0.53467,0.73489 0.29429,0.16464 0.43219,0.46548 0.30662,0.66849 -0.27965,0.45261 -0.31972,0.44845 -2.18727,-0.22697 z m -50.24045,-12.08811 c -1.55545,-0.10909 -2.88826,-0.27173 -2.96191,-0.36147 -0.5755,-0.7007 -1.2221,-1.84291 -1.2221,-2.15759 0,-0.66763 1.05168,-0.83989 4.56597,-0.74798 1.88342,0.0493 4.8921,0.067 6.68584,0.0385 9.014,-0.14038 13.39076,-0.0355 16.92223,0.40593 2.13211,0.2664 3.95381,0.56162 4.04819,0.65592 0.0939,0.0943 0.0154,0.51817 -0.17951,0.94187 -0.33897,0.74367 -2.08379,1.401 -2.70305,1.01827 -0.59167,-0.36587 -18.73671,-0.12619 -21.51241,0.28413 -0.44837,0.0663 -2.08795,0.0316 -3.64333,-0.0778 z m 20.27644,-6.60572 c -1.91208,-0.56463 -2.82339,-0.60693 -9.29497,-0.43197 -10.41021,0.28144 -13.0182,-0.2174 -12.79886,-2.44808 0.0939,-0.95546 1.53418,-1.86065 1.93318,-1.21498 0.15408,0.24923 1.13774,0.39206 2.69982,0.39206 1.35168,0 2.45791,0.0732 2.45829,0.16309 3.1e-4,0.0897 2.67901,0.18775 5.95248,0.21787 7.39723,0.0678 9.53881,0.34985 11.24588,1.47951 1.08889,0.72064 1.28281,1.00815 1.14967,1.70464 -0.18798,0.98256 -0.44837,0.99331 -3.34549,0.1379 z m 10.98925,-6.68333 c -0.42604,-0.42612 -15.41455,-1.38153 -17.18587,-1.09545 -0.62788,0.10136 -2.02209,0.0508 -3.09835,-0.11171 -1.27195,-0.19245 -2.98418,-0.16926 -4.89209,0.0663 -5.95248,0.73443 -9.4828,0.83076 -10.269,0.28004 -1.05985,-0.74236 -1.6875,-2.06891 -1.17872,-2.49118 0.83928,-0.69653 25.66459,-0.96628 31.35313,-0.34067 5.9128,0.6503 7.3272,1.22842 7.3272,2.99499 0,0.77733 -0.13097,0.90594 -0.92403,0.90594 -0.50847,0 -1.01779,-0.0937 -1.13227,-0.20817 z m 12.81889,-6.831 c -0.44837,-0.24884 -1.07733,-0.45461 -1.39752,-0.45723 -0.32048,-0.003 -0.90731,-0.21494 -1.3046,-0.4718 -1.46285,-0.94577 -5.97598,-1.23467 -17.43649,-1.11615 -6.14338,0.0631 -11.16999,0.20061 -11.17022,0.30462 -7e-4,0.23621 -7.96502,0.95349 -10.5804,0.95285 -1.06547,-2.5e-4 -2.79473,0.17666 -3.84287,0.39314 -1.42657,0.29467 -2.14944,0.30153 -2.87562,0.0278 -0.53313,-0.20139 -0.88689,-0.23174 -0.78536,-0.0678 0.1017,0.16425 -0.42911,0.29868 -1.17918,0.29868 -1.15701,0 -1.304,-0.0717 -0.96957,-0.47495 0.453,-0.5463 0.19184,-1.15577 -0.49691,-1.15577 -0.25809,0 -0.46995,-0.1288 -0.46995,-0.2862 0,-0.62218 0.92395,-0.94147 3.32986,-1.15067 1.38304,-0.12027 2.92401,-0.36055 3.42447,-0.53389 1.54451,-0.53513 8.87217,-0.89177 11.60827,-0.56495 1.73704,0.20747 2.67655,0.19468 2.95976,-0.04 0.22803,-0.18936 1.28442,-0.37257 2.3472,-0.40708 1.06277,-0.0347 2.22493,-0.20893 2.58248,-0.38752 0.97741,-0.4882 13.39747,-0.28982 18.10289,0.28913 3.24565,0.39939 4.46359,0.70001 5.97436,1.47467 1.04367,0.53512 2.07101,0.9515 2.28294,0.9252 0.83035,-0.10301 1.11025,0.0609 1.47603,0.86344 0.26888,0.5896 0.28043,1.0197 0.0385,1.46762 -0.38907,0.7265 -0.50693,0.73506 -1.62071,0.11726 z m -50.51903,-8.57966 c -1.03751,-0.14384 -1.61516,-0.440991 -2.0848,-1.07269 -0.62788,-0.844359 -0.62943,-0.89375 -0.0539,-1.467627 0.62403,-0.625802 1.4241,-0.698991 13.80571,-1.263569 3.65096,-0.166485 5.07344,-0.126347 5.24286,0.147841 0.17334,0.280352 0.65484,0.285745 1.88958,0.0208 1.72001,-0.368872 10.41791,-0.229043 12.43223,0.199843 0.66408,0.141447 1.1761,0.09822 1.30483,-0.110091 0.32743,-0.529194 15.33412,0.250691 16.84444,0.875437 0.359,0.148381 1.05584,0.431661 1.54913,0.629578 1.14906,0.460935 1.25553,1.678298 0.14638,1.678298 -0.41295,0 -0.92974,-0.179662 -1.1493,-0.399228 -0.29814,-0.298533 -2.35151,-0.372955 -8.1372,-0.29522 -14.32189,0.192524 -34.61566,0.789948 -39.04735,1.149498 -0.71726,0.0586 -1.95036,0.0162 -2.73965,-0.0931 z M 169.439,94.911816 c -0.71726,-0.277192 -2.18519,-0.640363 -3.26145,-0.806964 -1.07626,-0.166639 -2.83741,-0.51286 -3.91368,-0.769329 -5.75617,-1.372012 -10.54827,-1.912207 -18.48508,-2.083753 -1.52495,-0.03313 -2.33681,-0.205699 -2.70714,-0.576111 -0.48767,-0.487899 -0.56163,-0.484741 -0.94591,0.04084 -0.45068,0.616635 -1.86461,0.754461 -3.83763,0.374111 -0.66641,-0.128505 -1.52648,-0.07912 -1.95684,0.112325 -0.42218,0.187826 -3.9736,0.600225 -7.89198,0.916408 -7.04699,0.568561 -7.12928,0.567868 -7.57349,-0.06625 -0.32974,-0.470411 -0.35439,-0.755616 -0.0924,-1.071044 0.19646,-0.236438 0.2473,-0.429887 0.11402,-0.429887 -0.13328,0 -0.0771,-0.201848 0.12943,-0.448532 0.41756,-0.502845 2.03819,-0.818798 5.41512,-1.05559 1.25561,-0.08806 2.50305,-0.245683 2.77216,-0.350305 0.26887,-0.104621 4.74532,-0.303155 9.94728,-0.441135 7.34468,-0.194837 9.85883,-0.156085 11.2518,0.173265 0.98651,0.23328 3.775,0.505079 6.19662,0.604 2.9187,0.119182 4.73269,0.343447 5.3813,0.665169 0.53852,0.266947 1.62394,0.558007 2.41292,0.646835 0.78897,0.08883 1.5412,0.334049 1.67156,0.544987 0.13019,0.210938 0.52002,0.293679 0.86555,0.183973 0.34591,-0.109706 0.91439,0.01695 1.2637,0.28089 0.34899,0.264174 0.89206,0.48505 1.20591,0.490751 0.31356,0.0057 0.57087,0.15539 0.57087,0.332661 0,0.177271 0.59708,0.417716 1.32673,0.534433 1.41932,0.226962 2.4878,1.342844 2.14389,2.23909 -0.22959,0.598376 -0.35516,0.595756 -2.00299,-0.04084 z m -15.57997,-4.88263 c -0.10862,-0.108396 -0.38982,-0.119952 -0.6248,-0.02542 -0.26039,0.104082 -0.18258,0.181354 0.19723,0.19707 0.3436,0.01387 0.5362,-0.06317 0.42835,-0.171262 z m -9.69589,-4.95353 c -0.62788,-0.292292 -1.58172,-0.563784 -2.11986,-0.603383 -2.41845,-0.177964 -9.96082,-0.115099 -15.32856,0.127811 -6.29763,0.284973 -7.04462,0.168642 -7.66557,-1.193146 -0.45377,-0.994551 -0.18566,-1.174549 2.61038,-1.756099 3.98339,-0.828443 20.22066,-0.204698 20.22066,0.776787 0,0.163635 0.30047,0.297454 0.66718,0.297454 0.36672,0 1.35646,0.366946 2.19881,0.815347 0.84245,0.448453 1.71624,0.815353 1.9419,0.815353 0.58936,0 0.50615,0.8717 -0.10555,1.10659 -0.72957,0.279889 -1.12248,0.217101 -2.41931,-0.386667 z m 28.2551,-1.864225 c -0.0816,-0.213018 -1.0708,-0.483739 -2.19797,-0.601535 -1.12711,-0.117794 -2.13095,-0.346144 -2.23064,-0.50739 -0.10014,-0.161246 -1.57564,-0.533199 -3.27971,-0.826579 -1.70406,-0.293371 -3.82207,-0.747757 -4.70665,-1.009781 -0.88458,-0.262015 -2.16015,-0.476343 -2.83448,-0.476343 -0.67411,0 -1.30454,-0.126964 -1.40045,-0.282123 -0.18182,-0.294142 -0.86864,-0.424341 -6.15441,-1.166613 -1.75553,-0.246531 -3.38348,-0.607236 -3.61753,-0.801479 -0.2342,-0.194297 -0.51078,-0.267948 -0.61478,-0.163789 -0.10401,0.104236 -4.93392,0.245067 -10.73263,0.313094 -5.79871,0.0678 -11.57045,0.272031 -12.82606,0.453539 -2.83394,0.409549 -6.78559,0.441907 -6.54562,0.05393 0.0986,-0.159089 -0.0385,-0.470565 -0.30661,-0.692212 -0.59245,-0.491828 -0.62327,-1.1077 -0.0778,-1.559105 0.22418,-0.185591 1.72848,-0.41317 3.34287,-0.505696 1.61439,-0.0926 4.07915,-0.3228 5.47722,-0.511705 1.93772,-0.261784 2.69349,-0.248687 3.17986,0.0547 0.51308,0.320336 0.78172,0.305698 1.37171,-0.07473 0.56932,-0.367254 2.12632,-0.482122 6.95486,-0.513091 3.4216,-0.02157 6.36672,-0.129969 6.54469,-0.239983 0.17796,-0.110014 0.94729,0.01464 1.70953,0.277424 0.76194,0.262632 1.50345,0.404772 1.64713,0.316021 0.14407,-0.08883 1.41817,0.07473 2.83202,0.362863 2.80868,0.572874 4.56367,0.791554 6.32143,0.787711 0.62788,-0.0013 1.65515,0.172416 2.28295,0.386205 0.62788,0.213788 1.72857,0.40847 2.44604,0.432584 1.58304,0.05316 4.40096,1.051861 4.40789,1.561995 0.003,0.202925 0.1433,0.150075 0.31279,-0.117488 0.24499,-0.387438 0.38982,-0.404079 0.71262,-0.08151 0.22265,0.222725 0.72265,0.404927 1.11109,0.404927 0.38828,0 1.07317,0.288748 1.52178,0.641596 0.44838,0.352846 0.90416,0.553152 1.01224,0.445064 0.10786,-0.108088 0.56317,0.04314 1.01063,0.336822 0.4476,0.293371 1.01185,0.533431 1.25368,0.533431 0.79513,0 3.64418,1.545531 4.45535,2.416938 l 0.79537,0.854375 -1.51432,-0.05701 c -0.83288,-0.03159 -1.58127,-0.231585 -1.663,-0.444679 z M 153.7991,71.78206 c -0.73112,-0.381197 -2.42363,-0.537821 -7.01203,-0.648837 -3.32661,-0.08051 -9.05698,-0.21949 -12.73422,-0.308934 -3.67724,-0.08944 -7.93335,-0.319565 -9.45806,-0.511474 -3.33434,-0.419564 -5.38492,-0.60893 -6.64392,-0.613553 -1.35708,-0.005 -1.86555,-0.838242 -1.25646,-2.059123 l 0.47995,-0.961839 5.42253,0.225576 c 2.98239,0.124036 6.30308,0.368023 7.37935,0.542058 2.14135,0.346376 2.16738,0.347763 5.70741,0.308627 1.34536,-0.01464 4.35396,0.02851 6.6859,0.09723 2.33187,0.06857 5.14579,0.133205 6.25302,0.144222 1.10731,0.01079 2.79504,0.235513 3.75066,0.498915 0.95554,0.263403 2.26522,0.566789 2.91044,0.674107 0.85731,0.142603 1.2815,0.43297 1.57564,1.078502 0.3567,0.783512 0.32203,0.948757 -0.31279,1.462203 -0.87525,0.708776 -1.4959,0.725108 -2.74773,0.07242 z m 7.26803,-7.810996 c -0.1017,-0.101386 -2.92339,-0.200537 -6.27112,-0.220413 -3.34773,-0.02003 -6.15572,-0.147765 -6.24008,-0.284127 -0.084,-0.13644 -1.43735,-0.17704 -3.00682,-0.09021 -2.90251,0.160553 -14.55655,0.213403 -21.17998,0.09607 -3.79372,-0.06702 -4.75827,-0.362939 -5.06982,-1.554475 -0.087,-0.333586 0.0308,-0.863727 0.25963,-1.178154 0.35669,-0.487822 1.00792,-0.576574 4.43924,-0.605233 2.21168,-0.01849 5.85579,0.07958 8.09799,0.217948 2.24227,0.138289 4.81058,0.251847 5.70749,0.25231 0.89683,3.3e-4 2.7314,0.01387 4.07668,0.03004 1.34537,0.01618 4.06044,0.0022 6.03361,-0.03158 1.97317,-0.03313 4.32137,0.08597 5.2182,0.265174 0.89691,0.179197 4.31059,0.372415 7.58591,0.429349 4.04463,0.0701 6.07966,0.228117 6.34338,0.491828 0.2134,0.213556 0.69028,0.388286 1.05992,0.388286 0.73035,0 1.65831,1.156389 1.16995,1.458243 -0.16333,0.101152 -1.37148,0.173187 -2.68403,0.16009 -1.31247,-0.01309 -2.67986,-0.02465 -3.03864,-0.0262 -0.35901,-0.0013 -0.79907,-0.01079 -0.97842,-0.0208 -0.1795,-0.01006 -0.55392,0.07704 -0.83235,0.193449 -0.27811,0.11664 -0.58936,0.129121 -0.69028,0.02773 z m -39.57062,-5.970662 c -1.88018,-0.116562 -2.40745,-0.464015 -1.80529,-1.189632 0.35053,-0.422723 0.31971,-0.503924 -0.19338,-0.508546 -0.47226,-0.0043 -0.38828,-0.147919 0.36825,-0.633044 1.01726,-0.652074 6.42259,-1.519184 7.05054,-1.13106 0.18568,0.114946 4.61945,0.247686 9.85214,0.295066 5.23276,0.047 10.10113,0.178119 10.8186,0.290599 2.69535,0.422491 2.82085,0.489132 2.71122,1.439915 -0.0894,0.77476 -0.22418,0.871154 -1.0805,0.77077 -0.53851,-0.06317 -1.22563,-0.246531 -1.52771,-0.4077 -0.30201,-0.161093 -1.58627,-0.292909 -2.85375,-0.292909 -1.86577,0 -2.30436,0.09637 -2.30436,0.506467 0,0.431504 -0.55085,0.498299 -3.72061,0.451381 -2.04628,-0.03004 -3.87923,0.04314 -4.07322,0.162865 -0.37288,0.230274 -10.46946,0.417714 -13.24217,0.245759 z m 49.94239,-5.18271 c -0.12558,-0.125731 -0.99407,-0.330582 -1.92964,-0.45508 -0.93551,-0.124575 -3.46214,-0.473416 -5.61466,-0.775331 -4.76583,-0.668406 -17.44258,-0.901832 -25.60197,-0.47149 -11.11452,0.586281 -16.4385,0.999581 -17.04311,1.323191 -0.45069,0.241061 -0.82866,0.185669 -1.43196,-0.20955 -0.45069,-0.295452 -1.02811,-0.457237 -1.28266,-0.35955 -0.30584,0.11741 -0.46301,-0.04622 -0.46301,-0.483663 0,-0.363708 0.14484,-0.571642 0.32203,-0.462013 0.17719,0.109783 0.24346,-0.0065 0.14638,-0.258625 -0.29507,-0.769561 1.17379,-1.402436 4.2599,-1.834966 3.36468,-0.471567 8.70075,-0.791633 11.08871,-0.665093 2.2304,0.118181 2.3133,0.115408 7.66432,-0.25539 6.51534,-0.451536 18.48024,-0.03081 19.73138,0.693983 0.39676,0.229967 1.38219,0.310397 2.51746,0.205545 1.25192,-0.115638 2.05399,-0.03389 2.43965,0.247918 0.3205,0.234357 0.95108,0.337438 1.42587,0.233125 0.55624,-0.12211 0.9963,-0.01232 1.26933,0.316714 0.22958,0.277039 0.69336,0.503693 1.03035,0.503693 0.33666,0 0.61324,0.110092 0.61478,0.244604 0.004,0.353541 1.6677,1.073988 2.0026,0.867026 0.43681,-0.269875 1.34267,0.801847 1.13512,1.342798 -0.18721,0.488669 -1.86038,0.673567 -2.2818,0.252154 z m -27.92799,96.113628 c 0,-0.17935 -0.14637,-0.32612 -0.32588,-0.32612 -0.1795,0 -0.32588,0.14677 -0.32588,0.32612 0,0.17935 0.14715,0.32611 0.32588,0.32611 0.17951,0 0.32588,-0.14676 0.32588,-0.32611 z M 26.124181,145.54839 c 0.794291,-0.24622 2.544889,-0.69883 3.890252,-1.00582 1.345286,-0.30702 2.983636,-0.84162 3.640794,-1.18805 0.764245,-0.40292 2.38811,-0.74359 4.506501,-0.94541 1.821475,-0.17357 3.42192,-0.38358 3.55651,-0.46679 0.304312,-0.18783 7.659087,-1.15805 10.310601,-1.36005 1.076259,-0.0819 3.497806,-0.31895 5.381299,-0.52657 1.883415,-0.20763 4.525145,-0.34468 5.870508,-0.30446 1.345286,0.04 6.188455,0.13689 10.762598,0.21494 9.380409,0.16009 9.120243,0.14953 9.78418,0.39506 0.268873,0.0994 0.953226,0.15047 1.520323,0.11318 0.703383,-0.0463 1.14082,0.12087 1.376179,0.52557 0.189521,0.32627 0.349766,0.40977 0.355158,0.18559 0.01541,-0.78785 6.369503,-0.2362 8.163397,0.70916 0.938048,0.4943 2.215231,0.74922 5.804859,1.15866 1.4063,0.1604 2.92963,0.3852 3.38517,0.49952 l 0.82835,0.20787 0.25115,-5.97586 c 0.21032,-4.99678 0.33051,-10.53272 0.43913,-20.15201 0.008,-0.8012 -0.10477,-1.6084 -0.25269,-1.79377 -0.34206,-0.42781 -0.25885,-9.97998 0.0917,-10.53527 0.14406,-0.22774 0.0924,-0.9262 -0.11402,-1.55215 -0.23498,-0.71278 -0.41525,-4.532479 -0.4815,-10.221618 -0.0616,-4.995932 -0.27735,-10.167974 -0.48768,-11.49343 -0.24884,-1.572864 -0.28274,-3.032941 -0.0956,-4.203676 0.15717,-0.98657 0.19569,-2.821103 0.0855,-4.076745 -0.17642,-2.00407 -0.1302,-11.929635 0.0616,-13.697852 0.0385,-0.358779 -0.0308,-3.073858 -0.15562,-6.033573 -0.12866,-3.054174 -0.0924,-6.296944 0.084,-7.49865 0.54314,-3.697387 0.42912,-3.789413 -5.858635,-4.731575 -4.09256,-0.613245 -5.646472,-1.04737 -6.459021,-1.804318 C 91.998607,39.645381 90.947617,39.339297 89.669588,39.204322 88.51829,39.082752 87.209444,38.849319 86.76099,38.68553 86.312612,38.521741 84.331277,38.168355 82.358108,37.900122 80.385017,37.631943 77.42588,37.197125 75.782369,36.933984 69.2678,35.890852 61.615415,35.283277 53.983986,35.203256 c -4.30504,-0.04545 -8.70792,-0.129121 -9.784181,-0.186594 -2.584873,-0.138057 -11.854035,1.739966 -12.976981,2.629295 -0.217255,0.171955 -1.201913,0.489132 -2.188498,0.704846 -0.986508,0.215714 -2.087266,0.515172 -2.446045,0.665401 -0.35901,0.150229 -0.924643,0.361245 -1.257614,0.46887 -0.47149,0.152464 -0.557005,0.388209 -0.386745,1.066915 0.897756,3.576742 1.391973,13.776042 1.03227,21.300169 -0.252694,5.279265 -0.475342,14.214603 -0.636357,25.485917 -0.07704,5.317486 -0.237286,9.828379 -0.358239,10.0242 -0.196455,0.317332 -0.419873,7.589885 -0.575496,18.727145 -0.03081,2.1168 -0.181816,3.92771 -0.337438,4.02424 -0.157934,0.0975 -0.147148,0.34384 0.02312,0.55415 0.194913,0.24038 0.146378,1.15291 -0.134822,2.49855 -0.291984,1.39998 -0.386743,3.33825 -0.278887,5.70744 0.09014,1.97315 0.160245,6.5045 0.156393,10.06967 -0.0038,3.56517 0.06933,6.61049 0.16949,6.76738 0.233433,0.37805 0.420642,0.36371 2.118082,-0.1624 z m 11.955112,-16.05664 c -0.08166,-0.0814 -1.064934,-0.20662 -2.185415,-0.27827 -2.183568,-0.13952 -3.596496,-1.00007 -3.596496,-2.19035 0,-0.62503 0.24345,-0.66686 4.565977,-0.78518 7.53821,-0.20631 13.427594,-0.45855 13.630211,-0.58382 0.132509,-0.082 0.949296,-0.017 1.814695,0.14484 1.064011,0.19876 1.791661,0.17712 2.247512,-0.067 0.879574,-0.47071 7.027275,-0.74783 8.046293,-0.3627 0.43374,0.16402 1.314548,0.18413 1.956837,0.0447 0.64252,-0.13945 2.635411,-0.57395 4.429151,-0.96548 1.793742,-0.39152 3.554894,-0.69098 3.913673,-0.6654 0.35901,0.0254 3.851423,0.0316 7.761474,0.0138 7.686051,-0.0355 8.163781,0.0609 7.763401,1.55795 l -0.229582,0.85723 -5.364812,0.08 c -2.950663,0.0439 -6.025284,0.23104 -6.832517,0.41556 -1.870705,0.42765 -9.222938,0.95063 -16.949668,1.2057 -3.313215,0.10939 -6.315418,0.35477 -6.671578,0.54536 -0.355927,0.19061 -1.607917,0.32566 -2.781711,0.30008 -1.173793,-0.0254 -3.01476,0.096 -4.09102,0.27019 -2.289498,0.37049 -7.212174,0.67702 -7.426809,0.46247 z m 0.09168,-8.60842 c -1.660307,-0.12789 -2.139886,-0.28366 -2.223167,-0.72218 -0.06933,-0.37026 0.16872,-0.62804 0.707235,-0.76325 0.447607,-0.11224 0.884737,-0.38998 0.971947,-0.61717 0.159474,-0.41579 4.046181,-0.92931 10.162065,-1.34261 1.61439,-0.10909 3.522305,-0.30154 4.239863,-0.42773 0.717249,-0.12612 1.984416,-0.12512 2.815378,0.002 0.830962,0.12742 2.005064,0.12134 2.609141,-0.0131 0.603999,-0.13475 1.465161,-0.14746 1.913616,-0.0285 0.448377,0.11925 1.549136,0.12957 2.446044,0.0231 2.307989,-0.2748 7.70069,0.44292 8.172102,1.08759 0.248842,0.3406 0.796756,0.48481 1.644975,0.4332 1.063317,-0.0648 1.271636,0.0254 1.271636,0.54868 0,0.59406 -0.342061,0.63066 -6.685831,0.71548 -9.939572,0.13289 -14.308323,0.32966 -16.306993,0.73459 -2.025248,0.41031 -8.545749,0.61579 -11.738089,0.36987 z M 36.292718,114.12 c -0.762703,-0.0678 -1.386118,-0.25685 -1.386118,-0.42025 0,-0.16341 -0.208781,-0.21703 -0.463785,-0.11904 -0.392909,0.15069 -1.445286,-1.08417 -1.111391,-1.30392 0.06164,-0.0393 0.694908,-0.30801 1.412543,-0.59761 1.040975,-0.42018 2.194044,-0.50138 5.707412,-0.40184 6.349163,0.17989 6.956167,0.17719 10.965447,-0.0478 2.686028,-0.15069 3.690947,-0.10034 3.872841,0.19399 0.191831,0.31063 0.301229,0.30817 0.498454,-0.0116 0.18875,-0.3054 0.570872,-0.32881 1.508458,-0.0923 0.847526,0.21371 2.103676,0.19515 3.864752,-0.057 1.511232,-0.21641 3.019921,-0.26086 3.585401,-0.10555 0.536974,0.14746 1.588966,0.2681 2.337802,0.2681 0.748837,0 1.593743,0.0891 1.877485,0.198 0.785431,0.30138 0.634816,1.39466 -0.218025,1.5789 -0.403694,0.0872 -4.476302,0.22034 -9.050367,0.29576 -4.574144,0.0755 -10.151126,0.22443 -12.393321,0.33113 -7.579195,0.36063 -9.616925,0.41448 -11.007203,0.29098 z m 1.101144,-8.14355 c -0.06164,-0.0655 -1.076877,-0.12642 -2.247511,-0.13536 -1.920704,-0.0146 -2.218313,-0.11025 -3.050199,-0.97852 -0.709546,-0.74036 -0.845599,-1.08299 -0.590903,-1.48617 0.400612,-0.63458 2.064,-0.86428 2.662453,-0.36755 0.315867,0.26193 0.660239,0.25531 1.274717,-0.0247 0.592443,-0.26979 0.964782,-0.28196 1.255225,-0.0409 0.290444,0.24083 0.691827,0.22989 1.349524,-0.037 0.958772,-0.38858 12.740235,-0.64498 30.615239,-0.66617 13.093391,-0.0155 13.208643,-0.009 13.208643,0.73444 0,0.34291 0.146378,0.62349 0.325883,0.62349 0.179505,0 0.325883,0.12781 0.325883,0.28397 0,0.47765 -6.69654,0.97563 -16.306916,1.21265 -3.139104,0.0775 -6.588067,0.21217 -7.664326,0.29938 -1.07626,0.0872 -4.671908,0.2272 -7.990363,0.31109 -3.318455,0.0839 -7.611938,0.20601 -9.541039,0.27149 -1.929024,0.0655 -3.560979,0.0655 -3.626464,-4e-5 z M 35.66738,98.379715 c -1.82371,-0.08967 -3.425927,-0.27311 -3.560286,-0.4077 -0.421413,-0.421953 -0.265791,-2.245123 0.217254,-2.551283 0.448378,-0.283819 2.726628,-0.483816 4.049573,-0.355467 0.35901,0.03467 1.312698,0.05162 2.119854,0.03621 0.807234,-0.01464 5.943928,-0.0842 11.414903,-0.154312 5.470974,-0.0701 11.047958,-0.236593 12.393321,-0.369951 2.165308,-0.214558 5.42005,-0.258009 7.826265,-0.104544 0.447608,0.02851 0.92264,0.222109 1.054997,0.430119 0.181816,0.285282 0.241908,0.28405 0.24576,-0.005 0.0077,-0.76648 15.196219,0.108781 16.214775,0.934527 0.215714,0.174806 0.693367,0.222108 1.062315,0.105084 0.37596,-0.119259 1.121252,0.01233 1.696438,0.299226 0.564709,0.281584 1.223794,0.511936 1.46524,0.511936 0.241907,0 0.439132,0.140138 0.439132,0.311322 0,0.426729 -2.09266,0.785539 -3.102664,0.532044 -0.795601,-0.19969 -2.211378,-0.213634 -15.650297,-0.15385 -3.408208,0.01541 -7.0537,-0.04777 -8.101147,-0.139059 -1.185272,-0.103697 -2.293736,-0.0072 -2.935254,0.255544 -0.6795,0.278426 -3.640254,0.495989 -8.695055,0.639053 C 42.03927,98.527172 39.25332,98.555678 35.667225,98.379332 Z M 33.180195,91.91526 c -0.65947,-0.400303 -0.882656,-0.795392 -0.882656,-1.564467 0,-0.975428 0.07936,-1.040828 1.527796,-1.258029 1.493359,-0.223958 13.662028,-0.248611 24.074167,-0.04853 2.870001,0.05469 5.95171,-0.0262 6.848233,-0.180969 1.280804,-0.220876 1.703141,-0.1812 1.971089,0.18536 0.279658,0.382585 0.939513,0.41941 3.670609,0.204851 1.924017,-0.151231 3.896569,-0.134205 4.672908,0.04006 0.738822,0.166024 2.880941,0.421876 4.760197,0.568485 1.879256,0.146686 3.516604,0.428116 3.638636,0.625494 0.121725,0.197301 0.58474,0.50377 1.027879,0.680964 0.569331,0.227578 -0.965091,0.310012 -5.227449,0.280659 -6.388299,-0.04392 -18.863515,0.337054 -19.27029,0.588438 -0.13251,0.08205 -6.021045,0.208626 -13.084992,0.281353 -11.483932,0.118103 -12.936998,0.0755 -13.726127,-0.403386 z m 50.647386,-4.590683 c -0.448378,-0.130045 -1.622557,-0.196531 -2.609141,-0.147764 -0.986584,0.04853 -4.582232,-0.04545 -7.99044,-0.210321 -9.075869,-0.437978 -17.76137,-0.752535 -31.398746,-1.137107 -3.816138,-0.107626 -7.134362,-0.270876 -7.373882,-0.362786 -0.239597,-0.09191 -0.639439,-0.550224 -0.888974,-1.018525 -0.35978,-0.675648 -0.368255,-0.880075 -0.03852,-0.990235 0.227271,-0.07627 0.619409,-0.345144 0.871948,-0.597221 0.369025,-0.368871 1.530261,-0.431813 5.946162,-0.322261 3.018304,0.07473 7.615868,0.144143 10.216842,0.15385 2.600974,0.01006 5.829753,0.174652 7.175039,0.366483 1.345364,0.191831 2.930786,0.341522 3.52323,0.332585 1.013625,-0.01541 9.8378,0.575187 11.96844,0.800955 0.538516,0.05701 2.781712,0.213326 4.985772,0.347453 2.203983,0.134051 4.083856,0.367639 4.17746,0.519102 0.09322,0.151462 0.961854,0.275343 1.929409,0.275343 1.775867,0 3.420534,0.506774 3.420534,1.054065 0,1.047423 -1.934725,1.510323 -3.913671,0.936368 z M 59.264278,78.925983 C 59.147946,78.809651 53.09593,78.672365 45.815422,78.620824 32.0423,78.523364 31.645232,78.481767 31.645232,77.135933 c 0,-1.108525 1.859611,-1.922854 4.402882,-1.928047 1.255687,-0.0026 2.649894,-0.02234 3.098349,-0.04314 0.448377,-0.02157 3.016763,0.07165 5.707413,0.207239 2.690649,0.135362 5.772666,0.280969 6.848926,0.323572 1.076259,0.04237 2.837412,0.315713 3.913672,0.606851 1.07626,0.291136 2.495197,0.534585 3.153202,0.540979 1.780259,0.01695 2.228097,0.288826 2.228097,1.351072 0,0.771025 -0.139444,0.943519 -0.761163,0.943519 -0.418331,0 -0.856154,-0.09514 -0.972486,-0.211477 z m 24.881016,-6.302529 c -0.264249,-0.144143 -1.288045,-0.368718 -2.274552,-0.499071 -0.986584,-0.130352 -2.063923,-0.379194 -2.394119,-0.552921 -0.402153,-0.211478 -0.904151,-0.19006 -1.519552,0.06472 -0.702613,0.291137 -1.088819,0.289981 -1.639506,-0.0048 -0.39599,-0.212017 -1.656531,-0.407777 -2.80074,-0.434973 -1.144287,-0.02696 -2.08095,-0.138519 -2.081489,-0.247301 -0.0041,-0.766093 -32.542029,-1.478166 -37.790433,-0.827056 -2.43341,0.301924 -2.773237,0.27858 -3.134251,-0.215174 -0.222648,-0.304542 -0.58782,-0.55377 -0.812009,-0.55377 -0.559316,0 -0.1302,-1.633996 0.561627,-2.140147 0.488439,-0.35693 4.387088,-0.927547 5.706103,-0.835107 0.314327,0.02235 0.900993,0.02696 1.304609,0.01156 3.765831,-0.1463 10.784632,-0.09646 13.290152,0.09437 1.704066,0.129813 3.380935,0.24861 3.72631,0.264096 0.345142,0.01541 0.785661,0.236514 0.978417,0.491289 0.518485,0.685432 2.603902,0.722488 3.268379,0.05778 0.578576,-0.578731 1.843585,-0.686434 2.952588,-0.251462 0.35901,0.140677 1.081114,0.133358 1.605299,-0.01617 0.527729,-0.150769 1.109773,-0.14476 1.304531,0.01309 0.193373,0.157009 1.784419,0.293294 3.53571,0.302924 1.751369,0.0093 3.334326,0.110245 3.51776,0.223572 0.183357,0.113404 1.612464,0.32804 3.175544,0.477114 1.563081,0.149074 3.545648,0.512091 4.405655,0.80671 0.860007,0.29468 2.18087,0.555387 2.935254,0.579423 0.754229,0.02388 1.665082,0.225267 2.023861,0.447222 0.35901,0.221955 1.202607,0.504078 1.875251,0.626958 1.009619,0.184513 1.223022,0.359472 1.223022,1.002547 0,0.56987 -0.181046,0.779052 -0.674107,0.779052 -0.370566,0 -0.924643,0.134282 -1.23142,0.298456 -0.306622,0.164174 -0.774106,0.180584 -1.03851,0.03621 z m -4.394483,-7.042499 c -1.765159,-0.652613 -6.901776,-1.542981 -7.852922,-1.361165 -0.791362,0.151308 -7.517717,-0.246993 -10.410907,-0.616481 -0.896832,-0.114559 -2.070933,-0.18898 -2.609063,-0.165406 -0.538516,0.02388 -3.987092,0.117641 -7.664326,0.209011 -3.677234,0.09137 -9.490886,0.247302 -12.919278,0.346531 L 32.060945,64.17372 31.842149,62.806 c -0.286592,-1.793048 0.449148,-2.731675 1.915542,-2.442193 0.542367,0.107085 1.132576,0.191061 1.311927,0.186669 0.179505,-0.0044 3.701656,-0.107164 7.827345,-0.228349 4.125688,-0.121185 8.308386,-0.209782 9.294971,-0.196839 6.124511,0.08035 11.80157,0.39753 13.208643,0.737974 0.896909,0.216946 3.61198,0.440673 6.033604,0.497067 8.294134,0.193141 13.353402,2.094176 11.228463,4.2191 -0.626341,0.626496 -1.220788,0.626804 -2.91191,0.0016 z m 2.032335,-4.251389 c -0.08321,-0.08328 -1.675328,-0.372107 -3.537866,-0.641749 -1.862538,-0.269644 -3.826694,-0.642366 -4.364823,-0.82825 -2.099053,-0.725031 -7.569335,-1.244002 -16.633107,-1.578035 -5.201948,-0.191677 -9.978476,-0.428578 -10.614603,-0.526342 -0.636356,-0.09777 -2.397201,-0.02542 -3.913671,0.161554 -4.664898,0.574108 -13.001173,0.778173 -13.539457,0.33143 -0.686433,-0.569717 -0.60323,-2.497986 0.124035,-2.887412 1.504608,-0.805254 9.960065,-1.290833 19.056348,-1.094365 1.031423,0.02235 2.278866,0.03698 2.772159,0.03236 0.49306,-0.0047 2.07101,0.08174 3.506049,0.191832 1.434962,0.110168 5.10403,0.339211 8.153458,0.509009 7.012561,0.390519 7.765634,0.470874 7.889207,0.842141 0.05393,0.168334 1.406226,0.252462 3.036255,0.189134 1.614544,-0.0624 2.935486,0.01772 2.935486,0.17912 0,0.367408 2.181949,1.177315 2.553362,0.947756 0.151,-0.09322 0.826571,3.1e-5 1.50168,0.207239 1.496517,0.459318 2.929245,2.3204 2.460528,3.196231 -0.312015,0.583584 -1.121174,1.032446 -1.38504,0.768559 z m -2.032181,-7.432148 c -0.538515,-0.206623 -1.298985,-0.556003 -1.690814,-0.77644 -0.392138,-0.220413 -1.227028,-0.400766 -1.856067,-0.400766 -0.628652,0 -1.238045,-0.152695 -1.353376,-0.339442 -0.115561,-0.186669 -0.480734,-0.25331 -0.812626,-0.148072 -0.331275,0.105238 -3.071,-0.02928 -6.087609,-0.298533 -6.750005,-0.602844 -13.466114,-0.738667 -14.270265,-0.288595 -0.328194,0.183665 -1.054149,0.23351 -1.613157,0.110785 -1.989656,-0.436822 -10.205517,0.02773 -17.555824,0.993479 -3.193572,0.419411 -4.31883,0.259474 -4.82468,-0.685817 -0.428346,-0.799868 0.0039,-1.725475 1.158308,-2.481861 0.841749,-0.551535 9.820545,-1.602626 11.045108,-1.292969 0.342831,0.08675 0.891207,0.01464 1.218399,-0.160783 0.460705,-0.246685 7.954462,-0.417099 13.812874,-0.314173 0.35901,0.0063 2.119855,0.01156 3.913673,0.01233 3.990327,6.47e-4 10.694417,0.570641 12.191165,1.03626 0.606312,0.188673 2.000596,0.39753 3.09835,0.464248 3.037256,0.184589 3.972146,0.411013 4.610737,1.116668 0.32126,0.355235 0.765015,0.64591 0.985198,0.64591 0.473801,0 0.885815,1.744103 0.449918,1.902483 -0.164868,0.06009 -0.298918,0.300922 -0.298918,0.53582 0,0.338825 -0.849837,0.952108 -1.086661,0.784151 -0.03081,-0.02157 -0.495372,-0.207933 -1.033271,-0.414557 z M 31.744923,47.179354 c -0.909929,-0.37542 -1.383807,-2.448473 -0.711857,-3.114628 0.718021,-0.711626 16.919313,-2.065518 16.919313,-1.413891 0,0.156854 1.021638,0.285204 2.270315,0.285204 1.915465,0 2.374166,0.111556 2.935254,0.713784 0.893288,0.958895 0.841748,1.13877 -0.335898,1.17226 -0.550841,0.01541 -1.182499,0.17912 -1.404376,0.36317 -0.393678,0.32673 -2.38919,0.522798 -8.683344,0.853119 -1.704066,0.08944 -3.978926,0.311861 -5.055186,0.494217 -1.07626,0.182355 -2.323704,0.382661 -2.772159,0.445064 -0.448377,0.0624 -1.182267,0.199767 -1.630722,0.305236 -0.448377,0.105545 -1.13743,0.05932 -1.531185,-0.103466 z"
       id="path2457" />
  </g>
</svg>
