<?xml version="1.0" encoding="UTF-8" standalone="no"?>
<!-- Created with Inkscape (http://www.inkscape.org/) -->

<svg
   width="175.54639mm"
   height="175.54639mm"
   viewBox="0 0 175.5464 175.54639"
   version="1.1"
   id="svg5"
   inkscape:version="1.1 (c68e22c387, 2021-05-23)"
   sodipodi:docname="tag.svg"
   xmlns:inkscape="http://www.inkscape.org/namespaces/inkscape"
   xmlns:sodipodi="http://sodipodi.sourceforge.net/DTD/sodipodi-0.dtd"
   xmlns="http://www.w3.org/2000/svg"
   xmlns:svg="http://www.w3.org/2000/svg">
  <sodipodi:namedview
     id="namedview7"
     pagecolor="#ffffff"
     bordercolor="#666666"
     borderopacity="1.0"
     inkscape:pageshadow="2"
     inkscape:pageopacity="0.0"
     inkscape:pagecheckerboard="0"
     inkscape:document-units="mm"
     showgrid="false"
     inkscape:zoom="0.77771465"
     inkscape:cx="183.87207"
     inkscape:cy="494.39727"
     inkscape:window-width="2560"
     inkscape:window-height="1377"
     inkscape:window-x="-8"
     inkscape:window-y="-8"
     inkscape:window-maximized="1"
     inkscape:current-layer="layer1" />
  <defs
     id="defs2" />
  <g
     inkscape:label="Vrstva 1"
     inkscape:groupmode="layer"
     id="layer1"
     transform="translate(-17.970665,-15.146566)">
    <rect
       style="fill:none;stroke-width:2.3;stroke:none"
       id="rect1760"
       width="175.54639"
       height="175.54639"
       x="17.970665"
       y="15.146566" />
    <path
       style="fill:#000000;stroke-width:0.23381"
       d="m 157.05307,187.74445 c -0.25487,-0.0687 -0.59123,-0.0346 -0.74746,0.0757 -0.21244,0.15013 -0.34252,0.0493 -0.51766,-0.40421 -0.52647,-1.36026 -3.71422,-6.78329 -5.7441,-9.77209 -1.19302,-1.75506 -3.02014,-4.71544 -4.06166,-6.57765 -2.8955,-5.1766 -3.08864,-5.37407 -4.56391,-4.66757 -0.79638,0.3816 -1.19165,0.53448 -3.40474,1.31971 -0.69235,0.24584 -1.79424,0.6729 -2.44821,0.94958 -0.65421,0.27637 -1.43923,0.53292 -1.74444,0.57006 -1.79496,0.21704 -5.05906,0.14072 -6.7751,-0.15855 -0.99162,-0.17291 -4.13381,-1.25811 -4.29233,-1.48241 -0.0421,-0.0596 -0.49748,-0.35652 -1.01281,-0.65983 -0.51488,-0.30365 -1.13114,-0.73637 -1.36911,-0.96188 -0.23784,-0.22552 -1.07862,-0.85537 -1.86841,-1.39946 -0.78969,-0.54416 -1.63114,-1.26249 -1.87023,-1.59602 -0.23902,-0.33358 -0.54682,-0.59954 -0.68413,-0.59096 -0.13738,0.008 -0.68095,-0.58361 -1.20888,-1.31526 -0.5298,-0.73042 -1.15345,-1.42823 -1.39106,-1.54721 -0.23754,-0.11891 -0.54533,-0.38214 -0.68436,-0.58459 -0.13889,-0.2028 -0.73353,-0.86566 -1.32107,-1.47403 -0.58796,-0.608 -1.48503,-1.58447 -1.99394,-2.16962 -0.50892,-0.58514 -1.24757,-1.41595 -1.64153,-1.8461 -0.39399,-0.4302 -2.41748,-3.12297 -4.49594,-5.98444 -2.07711,-2.86244 -4.111404,-5.56954 -4.517131,-6.01826 -0.405739,-0.44872 -1.583702,-2.193 -2.61771,-3.87614 -2.079817,-3.38589 -5.779093,-8.99144 -10.137586,-15.36219 -1.606566,-2.34976 -2.92934,-4.46828 -3.020303,-4.84102 -0.08918,-0.36447 -0.266949,-0.65619 -0.396569,-0.64724 -0.443829,0.0275 -4.949692,-7.08965 -5.244498,-8.27904 -0.109261,-0.44456 -0.788021,-1.48056 -1.923584,-2.93516 -0.964692,-1.23675 -1.983808,-2.73042 -2.262435,-3.32084 -0.279537,-0.58979 -0.886887,-1.89988 -1.349334,-2.911542 -0.462631,-1.011537 -1.526176,-2.901085 -2.364038,-4.198571 -0.837865,-1.297486 -1.651891,-2.791881 -1.809208,-3.3207 -0.157317,-0.52882 -0.904442,-2.126633 -1.660442,-3.550595 -1.225438,-2.308092 -1.67426,-3.346697 -2.506067,-5.797646 -0.129295,-0.381032 -0.573248,-1.548922 -0.986757,-2.59517 -1.234035,-3.123428 -1.58306,-4.330305 -1.444491,-4.994921 0.07226,-0.346558 -0.0076,-0.722732 -0.17709,-0.836225 -0.417477,-0.27874 -0.958556,-1.816595 -0.881274,-2.504582 0.07987,-0.711873 -0.336662,-2.166717 -0.817012,-2.854232 -0.204634,-0.292889 -0.519868,-1.383439 -0.700821,-2.42322 -0.180952,-1.039781 -0.396368,-1.946792 -0.479041,-2.01535 -0.343391,-0.284907 -1.187793,-2.276837 -1.190154,-2.807365 -0.0016,-0.31514 -0.147344,-0.777869 -0.324218,-1.028134 -0.176884,-0.25028 -0.539861,-1.027991 -0.806781,-1.728161 -0.266922,-0.700169 -0.602721,-1.512156 -0.746324,-1.80434 -0.144957,-0.291237 -0.309377,-0.690386 -0.368836,-0.884567 -0.05902,-0.194527 -0.364373,-1.202659 -0.677944,-2.240801 -0.313663,-1.038083 -0.675447,-2.034204 -0.803805,-2.213717 -0.128325,-0.179565 -0.314173,-0.692388 -0.413122,-1.139577 -0.303516,-1.374927 -0.715386,-2.520101 -1.232884,-3.429749 -0.911298,-1.601399 -1.622035,-3.211843 -1.903718,-4.312429 -0.153574,-0.600079 -0.553633,-1.734569 -0.888662,-2.521347 -2.531685,-5.943658 -3.419311,-8.530048 -3.87734,-11.298261 -0.03573,-0.216122 -0.21172,-0.735944 -0.391021,-1.155197 -0.179311,-0.419267 -0.321125,-0.89457 -0.315059,-1.056325 0.02676,-0.726742 -0.985741,-3.017287 -1.915984,-4.333524 l -1.019851,-1.443028 0.583341,-0.693758 c 1.366919,-1.625676 1.350279,-1.614659 2.18299,-1.444683 0.559612,0.114315 1.096109,0.48153 1.792088,1.226879 0.546187,0.585182 1.130051,1.108041 1.29736,1.161981 0.167332,0.05393 0.761939,0.418768 1.32125,0.81083 0.55918,0.392148 1.242246,0.811271 1.517296,0.931823 0.27519,0.120477 1.129763,0.676041 1.899577,1.234268 1.531911,1.111391 4.288666,2.588347 6.032676,3.232068 0.612001,0.225734 1.200357,0.534961 1.307777,0.686955 0.107429,0.151999 0.399914,0.292169 0.64971,0.311645 0.249829,0.0195 0.560966,0.186057 0.691246,0.370395 0.13028,0.184338 0.435858,0.350695 0.679682,0.369369 0.243379,0.01898 0.630823,0.17963 0.861025,0.357037 0.230201,0.177364 0.968832,0.513402 1.641271,0.746775 1.906326,0.661321 4.057136,1.701881 5.646375,2.731778 0.7997,0.518126 1.613587,1.031625 1.808868,1.140942 0.682653,0.382181 1.875065,1.136901 2.579731,1.632724 2.922656,2.056491 4.497694,3.12334 4.931735,3.340638 0.278378,0.139322 1.334946,0.860906 2.347974,1.603439 1.013059,0.742514 1.968179,1.389635 2.122555,1.438 0.154473,0.04827 0.599441,0.442429 0.988905,0.875795 1.016081,1.130512 2.29549,2.311118 3.425369,3.162178 1.537991,1.15825 4.30503,3.529783 5.162597,4.424704 0.428786,0.447903 1.071164,0.996971 1.426756,1.220679 0.355606,0.223728 1.068653,0.88146 1.584337,1.461824 0.515633,0.5804 1.769006,1.884852 2.784558,2.899286 1.015759,1.014286 2.231515,2.280908 2.702325,2.814246 1.0487,1.18909 2.81951,3.058319 4.06071,4.287849 0.51014,0.505546 1.2736,1.31879 1.69566,1.807852 0.4225,0.488744 1.71335,1.955377 2.86917,3.258726 2.15164,2.427207 3.52553,4.174059 8.18846,10.411905 3.32895,4.45381 7.36321,11.051052 10.08031,16.483948 0.7598,1.519096 1.46553,2.758806 3.02306,5.307519 0.57128,0.93474 1.23225,2.24308 1.46947,2.90697 0.23676,0.66419 0.52187,1.30015 0.63358,1.41323 0.19842,0.20429 0.45658,0.77996 1.03993,2.3394 0.26987,0.72059 1.18805,2.58437 2.34161,4.75133 0.23709,0.44558 0.43589,0.88759 0.44186,0.98216 0.006,0.0946 0.22899,0.59484 0.49556,1.11173 1.0151,1.96741 1.7049,3.52373 1.6889,3.81074 -0.01,0.16395 0.15082,0.63065 0.35511,1.0374 0.20472,0.40647 0.52126,1.14906 0.70358,1.65009 0.18231,0.501 0.53056,1.28565 0.7733,1.74394 0.94287,1.77813 3.05295,7.31598 3.52368,9.24836 0.0655,0.26886 0.17978,0.7032 0.25381,0.96583 0.84198,2.98336 1.58426,5.73067 1.81864,6.73133 0.287,1.22428 1.58925,6.36645 2.36807,9.34934 0.22578,0.86397 0.35794,1.73682 0.29407,1.93948 -0.0638,0.20262 0.089,0.78431 0.33956,1.2929 0.25058,0.50856 0.44392,1.33818 0.42988,1.84349 -0.014,0.50562 0.0537,1.44263 0.15047,2.08278 0.2047,1.35379 0.19737,2.7488 -0.0224,4.30218 -0.0861,0.60734 -0.0833,1.2075 0.006,1.33379 0.0892,0.12629 0.12958,0.61684 0.09,1.09003 -0.0696,0.82694 -0.004,0.95124 1.69708,3.18884 0.97284,1.28082 3.5231,4.80988 5.66714,7.84251 2.14392,3.03266 4.29651,5.90233 4.78308,6.37734 0.69589,0.67842 0.9286,1.05745 1.08768,1.7706 0.18272,0.81833 0.13155,0.95742 -0.5206,1.41833 -0.39783,0.28115 -0.74787,0.64891 -0.77814,0.81777 -0.0303,0.16873 -0.88858,0.95059 -1.90686,1.73789 -1.0183,0.78732 -2.02804,1.64839 -2.24377,1.91379 -0.27446,0.33796 -0.53112,0.44506 -0.85572,0.35792 z m -16.5338,-25.84443 c -0.45501,-0.78069 -1.64964,-2.7064 -2.65456,-4.2795 -1.00489,-1.57313 -2.25427,-3.71789 -2.77611,-4.76632 -0.52185,-1.04843 -1.65557,-3.01717 -2.51926,-4.37513 -0.86372,-1.35793 -2.06601,-3.2783 -2.67218,-4.26713 -0.60574,-0.98913 -1.35559,-2.19846 -1.66615,-2.68763 -1.08676,-1.71282 -2.17894,-3.76348 -2.34599,-4.40492 -0.21545,-0.82733 -0.85293,-1.30922 -1.54252,-1.16639 -0.29746,0.0614 -1.38546,0.19261 -2.41811,0.29115 -1.0325,0.0986 -2.33502,0.2636 -2.89417,0.36688 -0.55933,0.10335 -1.21969,0.13301 -1.46788,0.0662 -0.24811,-0.0668 -1.09587,-0.026 -1.88379,0.0905 -0.78786,0.11649 -1.8023,0.16272 -2.2542,0.10263 -0.78169,-0.10396 -2.80332,0.20742 -3.20916,0.49424 -0.17951,0.12687 -1.24327,0.0774 -4.19944,-0.19515 -2.21618,-0.20435 -5.06201,0.0804 -5.55207,0.55557 -0.33073,0.32057 -0.23572,0.47892 3.2919,5.49327 3.74146,5.32264 7.21272,9.60077 11.28877,13.92437 0.66806,0.70891 1.71949,1.83394 2.33558,2.50086 2.02401,2.18922 8.0842,6.19763 9.54062,6.31069 0.25338,0.0198 0.75757,0.18961 1.12031,0.37779 0.36278,0.18795 0.74987,0.27823 0.8602,0.20026 0.11046,-0.0781 0.95413,-0.11095 1.8749,-0.0737 3.3818,0.13741 8.07922,-1.151 10.11274,-2.77376 0.42964,-0.34426 0.40845,-0.44964 -0.36956,-1.78475 z m -12.87736,1.58402 c -0.52885,-0.3033 -0.59076,-0.41577 -0.45438,-0.82185 0.22079,-0.65652 1.47064,-1.49115 2.01465,-1.34468 0.34317,0.0923 0.47666,0.26775 0.56683,0.7446 0.0992,0.52231 -0.0146,0.71724 -0.69816,1.1985 -0.70256,0.49504 -0.90211,0.5259 -1.42928,0.22364 z m 1.6625,-6.77171 c -0.68263,0.24302 -0.92289,0.21332 -1.17778,-0.14734 -0.47274,-0.66888 0.2667,-1.80449 1.26526,-1.94318 0.72061,-0.10009 1.58966,0.40961 1.62311,0.95198 0.0217,0.34649 -0.54461,0.72304 -1.71053,1.13861 z m -11.07076,0.4932 -0.70724,-0.0467 0.18807,-0.89047 c 0.26368,-1.24845 1.37488,-1.91333 2.31647,-1.38623 0.59198,0.33139 0.64177,0.42003 0.4905,0.87011 -0.24713,0.73466 -1.46289,1.50663 -2.28803,1.45271 z m 0.94101,-5.27437 c -0.38854,-0.0311 -0.78168,-0.22276 -0.87388,-0.42595 -0.20302,-0.44899 0.5328,-1.39828 1.35943,-1.75424 0.76274,-0.32873 1.3401,0.3682 1.02718,1.23998 -0.27982,0.7794 -0.64928,1.00939 -1.5132,0.94022 z m 6.88659,-5.76543 c -0.81579,0.30402 -2.44377,-0.1404 -2.35735,-0.6433 0.0312,-0.18168 0.42295,-0.6567 0.87018,-1.05529 0.67706,-0.60299 0.94116,-0.70576 1.57209,-0.61803 0.61762,0.0864 0.77796,0.20889 0.86372,0.66038 0.15535,0.81791 -0.15571,1.36103 -0.94861,1.6563 z m -14.10072,1.70408 c -0.26086,-0.13081 -0.62,-0.13467 -0.79839,-0.008 -0.20387,0.14409 -0.18842,-0.13262 0.0411,-0.74477 0.20102,-0.53569 0.4937,-1.06474 0.65084,-1.17579 0.37616,-0.26585 1.39978,0.11324 1.78733,0.66157 0.26808,0.3793 0.21076,0.503 -0.44973,0.9698 -0.56163,0.39692 -0.87959,0.47354 -1.23141,0.29746 z m 4.9034,-4.71394 c -0.90677,0.33854 -1.71844,0.001 -1.46686,-0.60926 0.19448,-0.47223 1.29584,-1.23438 1.89013,-1.30881 0.32026,-0.0397 0.54449,0.0967 0.65897,0.40225 0.24698,0.65761 -0.10516,1.1506 -1.08264,1.51554 z m -10.90989,-0.29917 c -1.05869,-0.10106 -1.0751,-0.45764 -0.0655,-1.42513 0.89083,-0.85364 1.491,-0.85382 2.09398,-6.5e-4 0.2728,0.386 0.21775,0.50715 -0.44154,0.97309 -0.51395,0.36323 -1.01794,0.50697 -1.58695,0.45269 z m 40.74798,13.02747 c -0.17142,-1.02055 -0.336,-2.41804 -0.36591,-3.10555 -0.03,-0.68739 -0.15029,-1.40002 -0.26753,-1.58343 -0.11674,-0.18398 -0.16482,-0.44757 -0.10565,-0.58678 0.0592,-0.13919 -0.0286,-0.44515 -0.19504,-0.68078 -0.1664,-0.23543 -0.28435,-0.56301 -0.26281,-0.72783 0.0221,-0.16505 -0.0947,-0.72051 -0.25887,-1.23427 -0.16418,-0.51364 -0.45273,-1.85543 -0.64101,-2.98146 -0.18843,-1.12595 -0.44144,-2.1875 -0.56257,-2.35891 -0.12114,-0.17139 -0.17185,-0.49195 -0.1124,-0.71221 0.0592,-0.22045 -0.1606,-1.0148 -0.48895,-1.76524 -0.32817,-0.75049 -0.59639,-1.49365 -0.59573,-1.65156 5.7e-4,-0.15799 -0.12011,-0.58809 -0.26824,-0.95564 -0.14837,-0.36789 -0.6307,-2.15253 -1.07207,-3.96642 -0.44138,-1.81393 -1.03023,-3.9101 -1.30863,-4.65817 -0.27841,-0.74804 -0.70917,-1.92116 -0.95726,-2.60685 -0.81604,-2.25496 -1.52835,-2.83622 -2.91542,-2.37785 -0.62478,0.20641 -1.44476,-0.25464 -1.41092,-0.79339 0.0124,-0.20148 0.30111,-0.63835 0.64105,-0.97057 1.33089,-1.30074 1.33463,-1.30933 0.93467,-2.15211 -0.21047,-0.44324 -0.45388,-1.07764 -0.54112,-1.40967 -0.13247,-0.50418 -2.14323,-4.64596 -2.50199,-5.15358 -0.0611,-0.0865 -0.27401,-0.0422 -0.47246,0.098 -0.35632,0.25182 -0.70355,1.54656 -1.47297,5.49155 -0.21529,1.104 -0.64191,2.6939 -0.948,3.53308 -0.55096,1.5106 -1.1432,4.58989 -0.94056,4.89031 0.0576,0.0857 0.0507,1.05699 -0.0158,2.15853 -0.15571,2.57991 -0.11131,2.80838 0.81728,4.20277 1.63656,2.45729 7.01626,11.04508 8.32926,13.29604 1.04012,1.78271 3.32363,5.02809 5.44722,7.74573 0.75386,0.96323 1.6085,2.06634 1.89898,2.45153 0.29178,0.38422 0.61744,0.63728 0.72614,0.56046 0.10866,-0.0768 0.0572,-0.9745 -0.1142,-1.99503 z m -5.91029,-11.14486 c -0.76603,0.0109 -1.48922,-1.30522 -0.93309,-1.69826 0.14975,-0.10577 0.23093,-0.3546 0.1803,-0.55351 -0.0774,-0.30575 0.055,-0.37295 0.86676,-0.44012 1.04867,-0.0865 1.86006,0.42093 1.80511,1.12864 -0.0364,0.47006 -1.36881,1.55513 -1.91922,1.56335 z m -6.74137,-8.55545 c -0.39985,0.0601 -0.80731,-0.0814 -1.06687,-0.37079 -0.3662,-0.40803 -0.34766,-0.53977 0.13525,-1.02396 1.34793,-1.35099 1.852,-1.61053 2.33672,-1.20238 0.26094,0.22003 0.34584,0.58609 0.25633,1.10722 -0.14832,0.86325 -0.6834,1.343 -1.66167,1.48955 z m 0.42996,-6.53913 c -0.74739,-0.0386 -0.78475,-0.0724 -0.88624,-0.80516 -0.0921,-0.66531 5.2e-4,-0.84042 0.70987,-1.34175 0.9492,-0.67084 1.45227,-0.64899 1.97135,0.0855 0.66014,0.93404 -0.38441,2.13365 -1.79475,2.06127 z m -20.8412,-26.17972 c -0.0589,-0.42297 -0.21962,-0.92894 -0.35756,-1.12412 -0.13794,-0.19516 -0.24239,-0.61089 -0.2322,-0.92376 0.01,-0.31289 -0.0849,-0.72119 -0.2117,-0.90721 -0.12693,-0.18588 -0.13824,-0.4033 -0.0264,-0.48233 0.11505,-0.0813 0.038,-0.269682 -0.17746,-0.432892 -0.20972,-0.15883 -0.42554,-0.620917 -0.48358,-1.023979 -0.056,-0.404532 -0.34573,-1.269106 -0.64365,-1.921463 -0.29801,-0.652285 -0.72405,-1.83025 -0.94752,-2.617139 -0.22339,-0.78693 -0.51816,-1.738164 -0.65529,-2.113642 -0.13699,-0.375608 -0.40055,-1.284469 -0.58536,-2.01994 -0.18494,-0.735383 -0.60637,-1.725931 -0.9372,-2.200737 -0.33004,-0.475356 -0.59296,-1.119406 -0.58278,-1.432269 0.01,-0.312887 -0.21329,-0.897015 -0.49671,-1.298035 -0.34832,-0.492846 -0.4666,-0.922431 -0.36436,-1.326101 0.16434,-0.649766 -0.0659,-1.175376 -0.40861,-0.933179 -0.14389,0.101688 -0.20842,0.02949 -0.19577,-0.219547 0.0229,-0.474705 -0.24476,-1.22194 -0.96272,-2.683732 -0.31573,-0.642949 -1.02363,-2.268492 -1.57258,-3.612694 -0.54895,-1.344206 -1.37896,-3.372215 -1.84393,-4.507068 -0.83497,-2.03791 -1.09337,-2.395881 -1.32895,-1.842148 -0.13335,0.313715 0.24455,2.312652 0.7286,3.853638 0.17199,0.547669 0.24065,1.046741 0.15225,1.109216 -0.0884,0.06251 -0.057,0.265771 0.0697,0.451756 0.2519,0.366879 0.79306,2.209422 1.06558,3.613121 0.0942,0.48453 0.59709,2.255003 1.11774,3.934134 0.5206,1.679192 0.94272,3.184611 0.93777,3.345573 -0.005,0.160753 0.20344,0.722306 0.46301,1.24747 0.25953,0.525192 0.48784,1.201287 0.50774,1.502167 0.0199,0.3009 0.36672,1.247112 0.77155,2.102145 0.4048,0.85506 0.70201,1.634454 0.66018,1.732213 -0.0414,0.09742 0.13368,0.519286 0.38873,0.9376 0.25505,0.418349 0.61765,1.16964 0.80588,1.66946 0.18775,0.500128 0.65016,1.317076 1.02696,1.815794 0.42403,0.561735 0.66421,1.100493 0.63089,1.415144 -0.0475,0.444776 1.66921,3.814974 2.53532,4.977024 0.15338,0.20657 0.32111,0.57115 0.3721,0.8107 0.1706,0.80219 0.90015,-0.0346 0.7806,-0.89541 z m -16.70427,7.42105 c -0.19593,-0.43321 -0.940782,-0.33161 -1.021681,0.13929 -0.07817,0.4559 0.614418,0.84065 0.926861,0.51527 0.146169,-0.15204 0.189273,-0.44703 0.0952,-0.65479 z m 18.54199,-14.030787 c 0.0409,-1.270327 -0.0486,-1.600826 -0.67457,-2.488171 -0.3969,-0.562852 -0.95465,-1.650315 -1.23973,-2.416376 -0.28509,-0.76606 -0.60781,-1.587293 -0.71792,-1.824427 -0.1124,-0.235522 -0.42512,-0.916356 -0.70015,-1.509334 -0.27547,-0.592667 -0.63812,-1.560336 -0.80672,-2.149799 -0.16845,-0.589561 -0.45596,-1.288238 -0.6388,-1.55269 -0.1826,-0.264635 -0.49137,-0.959378 -0.68562,-1.544276 -0.19424,-0.584903 -0.71667,-1.697325 -1.16126,-2.47184 l -0.8085,-1.408095 -0.0714,0.689434 c -0.0392,0.379083 0.25739,1.457921 0.65921,2.397194 0.402,0.93914 0.76441,1.812698 0.8057,1.940981 0.0426,0.127344 0.10625,0.306218 0.14471,0.3951 0.0367,0.09014 0.17918,0.676524 0.31326,1.305468 0.13407,0.628942 0.3511,1.294881 0.48198,1.480072 0.13089,0.185194 0.29352,0.698583 0.36134,1.140946 0.0678,0.442344 0.41513,1.408448 0.77102,2.14743 0.3559,0.738981 0.70505,1.560298 0.77547,1.825483 0.31137,1.171682 0.62346,2.1794 0.80017,2.583887 0.10335,0.241926 0.38844,0.877863 0.62996,1.415775 0.24113,0.538214 0.54497,1.26872 0.67431,1.623977 0.21419,0.586334 0.27263,0.610634 0.63776,0.265049 0.24183,-0.229111 0.42092,-0.96366 0.44938,-1.845521 z m -9.97718,7.396447 c -0.30748,-0.83219 -2.89541,-4.597322 -5.722545,-8.325767 -2.726259,-3.595303 -2.455771,-3.274805 -2.648378,-3.138682 -0.451077,0.318797 5.820033,10.946059 7.004703,11.870429 0.29111,0.22718 0.64575,0.50125 0.78778,0.60937 0.43858,0.33347 0.82587,-0.34611 0.57853,-1.01543 z m -4.8779,-0.47984 c -1.587925,-2.62672 -2.463996,-4.124682 -2.427468,-4.150502 0.01802,-0.0128 -0.307521,-0.555677 -0.718566,-1.210004 -0.409271,-0.655569 -0.965801,-1.679478 -1.233605,-2.277554 -0.827613,-1.848553 -4.903444,-7.837621 -6.146987,-9.03255 -0.558277,-0.536343 -0.755254,-0.574841 -1.556738,-0.305627 -0.504959,0.169739 -0.934109,0.403781 -0.954143,0.520405 -0.05222,0.304116 0.742385,1.929873 2.14993,4.398506 0.671955,1.178533 1.588651,2.84977 2.037048,3.713894 1.062601,2.047067 5.667183,8.886682 6.063192,9.005852 0.479275,0.14416 1.37786,0.9666 1.785734,1.63388 0.303797,0.49684 0.495793,0.5771 1.058233,0.44162 1.32584,-0.31927 1.32303,-0.45512 -0.0569,-2.73766 z m -4.935916,1.5591 c -0.705601,-1.03667 -1.476825,-2.19871 -1.71179,-2.5838 -0.237209,-0.38349 -1.163404,-1.85477 -2.062855,-3.266202 -0.899448,-1.411426 -1.842018,-2.935538 -2.093794,-3.38748 -0.251761,-0.451928 -0.986766,-1.671817 -1.633216,-2.710909 -0.646445,-1.039091 -1.676186,-2.759271 -2.288809,-3.822269 -0.949429,-1.647697 -1.1941,-1.951787 -1.658022,-2.061789 -0.29958,-0.07077 -0.693689,0.01447 -0.875902,0.189574 -0.285581,0.2744 -0.209227,0.508755 0.553099,1.69745 0.487961,0.757426 1.3426,2.150421 1.902651,3.093101 1.704698,2.870428 1.872845,3.129398 5.786715,8.918974 3.257851,4.81924 3.874137,5.63958 4.391565,5.84346 1.074582,0.4236 1.009914,0.025 -0.30982,-1.90999 z M 116.60823,89.938964 c -0.2763,-0.290447 -0.65659,-1.034353 -0.84463,-1.653501 -0.18803,-0.619164 -1.08137,-2.728951 -1.98513,-4.688482 -0.90348,-1.959725 -1.79979,-3.967469 -1.99126,-4.462028 -0.19132,-0.494642 -0.50531,-1.110215 -0.69807,-1.367652 -0.71437,-0.953327 -1.91264,-3.826189 -1.84225,-4.408507 0.0538,-0.444527 -0.16663,-0.944872 -0.84242,-1.914477 -1.82895,-2.626092 -2.67159,-2.372754 -1.11511,0.334355 0.49241,0.856585 0.9226,1.740833 0.95546,1.965351 0.0616,0.417307 1.4664,3.651426 2.0292,4.670928 0.1725,0.311141 0.30917,0.601059 0.30472,0.64358 -0.004,0.0421 0.2681,0.500962 0.60519,1.019101 0.33848,0.517167 0.57186,1.060838 0.52119,1.206356 -0.0503,0.145194 -0.0334,0.351861 0.0381,0.458768 0.0713,0.107091 0.42444,0.759369 0.78404,1.450048 0.65527,1.258285 0.96288,2.01984 2.12439,5.259902 0.62919,1.756327 1.6991,3.751044 2.0429,3.810211 0.10239,0.01769 0.23795,-0.379108 0.30124,-0.881916 0.0868,-0.693398 -0.006,-1.041335 -0.38797,-1.441786 z M 93.261534,107.50972 c -0.157777,-0.64143 -0.387209,-1.07611 -0.633238,-1.19935 -0.457251,-0.22879 -9.688093,-13.525301 -10.550491,-15.197219 -0.327471,-0.634652 -1.093894,-1.767895 -1.702858,-2.518539 -1.03307,-1.273214 -1.13657,-1.344055 -1.543447,-1.056497 -0.428484,0.302828 -0.405598,0.354348 1.326105,2.990158 0.968921,1.475275 2.082081,3.329759 2.473184,4.121428 0.985371,1.99425 1.183979,2.342256 2.943367,5.158487 0.853315,1.365292 1.557452,2.554892 1.565141,2.643292 0.02486,0.28589 1.721527,3.15165 2.438157,4.11876 0.745522,1.00702 2.150105,2.26139 2.727865,2.43831 0.19425,0.0596 0.54486,-0.0271 0.778405,-0.19221 0.320687,-0.22665 0.364296,-0.54735 0.177734,-1.30654 z m -5.003518,1.06668 c -0.404206,-0.61978 -1.025881,-1.56544 -1.379387,-2.10295 -0.353054,-0.53784 -0.950218,-1.53302 -1.325173,-2.21284 -0.374959,-0.67983 -1.116546,-2.02389 -1.648183,-2.98664 -0.531636,-0.96277 -1.328982,-2.446956 -1.772631,-3.297665 -0.443197,-0.851021 -1.429208,-2.408848 -2.191033,-3.461903 -0.759161,-1.054946 -1.548534,-2.314532 -1.74889,-2.80281 -0.200341,-0.488266 -1.049031,-1.806812 -1.885644,-2.930278 -1.191951,-1.600411 -1.645128,-2.070339 -2.093996,-2.170523 -0.314894,-0.07043 -0.643944,-0.07763 -0.731399,-0.01582 -0.332863,0.23525 0.266124,2.040789 1.115782,3.362909 1.387838,2.159894 2.518239,4.179436 2.640327,4.719078 0.0614,0.271571 0.851816,1.838773 1.756197,3.482916 0.904338,1.644194 1.793827,3.270236 1.976344,3.613646 0.182063,0.34374 1.140442,1.96678 2.128823,3.60739 0.988383,1.64061 1.801835,3.06337 1.807714,3.16164 0.0077,0.0971 0.406402,0.51762 0.891752,0.93068 0.62967,0.53781 1.115262,0.74452 1.703125,0.72557 1.452383,-0.0472 1.591416,-0.34532 0.756317,-1.62243 z m -4.438061,1.94054 c 0.117341,-0.28469 -0.35179,-1.10256 -2.190771,-3.81562 -1.28783,-1.89876 -2.562802,-3.94008 -2.834222,-4.53562 -0.509446,-1.11509 -1.429677,-2.757842 -2.814685,-5.025305 -1.112668,-1.821252 -2.99656,-5.632991 -3.112351,-6.29741 -0.0534,-0.305224 -0.317325,-0.762876 -0.587219,-1.016534 -0.2699,-0.253659 -0.962565,-1.314122 -1.543175,-2.353839 -0.920132,-1.65409 -1.137158,-1.925763 -1.723635,-2.156538 -1.187736,-0.468214 -1.161616,0.112964 0.124486,2.773789 0.340226,0.704369 0.747526,1.562018 0.904812,1.906101 0.77053,1.685481 1.845539,3.491726 2.370174,3.982374 0.541053,0.506224 0.788551,1.039192 2.239772,4.815777 0.190422,0.49527 1.399331,2.539785 2.687146,4.542835 1.287358,2.00337 2.671528,4.24609 3.075021,4.98447 0.403945,0.73807 0.995678,1.73036 1.315411,2.20478 0.512182,0.76298 0.647335,0.83937 1.153396,0.65943 0.79259,-0.28153 0.768783,-0.26449 0.93535,-0.66844 z M 118.58965,85.288841 c -0.0277,-0.445921 -2.57395,-4.131956 -2.7643,-3.997426 -0.29633,0.209429 1.53834,4.39978 2.01469,4.602279 0.33839,0.143862 0.77259,-0.20657 0.74808,-0.603724 z m -16.10287,0.562269 c 0.21424,-0.151416 -0.20009,-1.497776 -0.66215,-2.151546 -0.21158,-0.299396 -0.45915,-0.491703 -0.55022,-0.427334 -0.25754,0.182014 0.95898,3.921728 1.35426,4.163133 0.255,0.156044 0.26288,-0.01657 0.0282,-0.630829 -0.17774,-0.464884 -0.25436,-0.893889 -0.17002,-0.953504 z m -6.166164,5.424396 c -0.183912,-0.212374 -0.415594,0.01772 -0.323729,0.321859 0.04849,0.154697 0.164727,0.175616 0.260873,0.04469 0.09619,-0.130876 0.124823,-0.296118 0.06289,-0.366511 z m -0.785467,-1.227149 c -0.171815,-0.114809 -0.346293,-0.184725 -0.387341,-0.155714 -0.04058,0.02868 0.01626,0.181804 0.127568,0.339307 0.111348,0.157545 0.285833,0.227452 0.387341,0.155712 0.101483,-0.07173 0.04421,-0.224541 -0.127568,-0.339305 z m -1.129997,-1.716518 c -0.594782,-0.957342 -1.156497,-1.466913 -1.284439,-1.165723 -0.0941,0.220914 1.194652,2.15831 1.53418,2.306592 0.376733,0.16463 0.276119,-0.295447 -0.249257,-1.14121 z m 13.653528,-9.58461 c -0.0698,-0.09882 -0.21265,-0.11909 -0.31775,-0.04481 -0.10504,0.07428 -0.0961,0.268793 0.0197,0.432517 0.11565,0.163727 0.25903,0.183695 0.31774,0.04481 0.0592,-0.139175 0.0503,-0.333696 -0.0195,-0.432518 z m -6.8516,3.069795 c -0.0908,-0.29017 -0.23431,-0.595636 -0.3184,-0.679239 -0.0854,-0.08266 -0.0917,-0.301769 -0.0163,-0.485158 0.10347,-0.251681 0.0575,-0.278351 -0.18753,-0.10843 -0.39672,0.275056 -0.38706,0.667975 0.0357,1.443105 0.38234,0.700842 0.7223,0.581825 0.48638,-0.170202 z m -8.308416,4.242536 c -0.06984,-0.09882 -0.250689,-0.171877 -0.401179,-0.16284 -0.150962,0.0094 -0.179627,0.150623 -0.06382,0.314481 0.115714,0.163727 0.296068,0.237129 0.401171,0.162848 0.105089,-0.07428 0.133635,-0.215718 0.06383,-0.314489 z m 7.702086,-6.319224 c -0.01,-0.15094 -0.15749,-0.174983 -0.32572,-0.05608 -0.17003,0.120176 -0.19502,0.266656 -0.0558,0.325759 0.1392,0.05906 0.28557,0.08446 0.32571,0.05609 0.0406,-0.02868 0.0651,-0.174856 0.0558,-0.325765 z m -0.52689,-1.512051 c -0.137906,-0.542477 -0.175231,-0.56851 -0.496829,-0.341226 -0.159201,0.112517 -0.166449,0.372136 -0.01652,0.584304 0.321743,0.455242 0.651119,0.29929 0.513319,-0.243079 z m -15.155146,5.85798 c -0.24631,-0.348514 -0.859181,-0.236524 -1.040564,0.190094 -0.09327,0.219237 0.01924,0.305695 0.404535,0.312101 0.696995,0.01122 0.890617,-0.141676 0.635861,-0.502141 z M 103.77695,66.687402 c 0.14038,-0.560256 0.074,-0.68479 -0.83166,-1.559542 -0.54178,-0.522559 -1.08173,-0.881778 -1.20081,-0.79762 -0.11903,0.08415 0.0437,0.747882 0.36098,1.475374 0.31734,0.727489 0.61763,1.481557 0.66705,1.675892 0.12834,0.505061 0.81506,-0.03776 1.00482,-0.794354 z m -4.510241,-4.607255 c 0.413831,-0.615144 0.157368,-1.084335 -1.395209,-2.552144 -0.767041,-0.725499 -1.058773,-0.874166 -1.333908,-0.679715 -0.401876,0.284023 -0.291753,0.600693 0.939309,2.700277 0.937086,1.598672 1.0497,1.631735 1.78976,0.531617 z M 83.914658,64.03054 c -0.144051,-0.203822 -0.390925,-0.279448 -0.548333,-0.168202 -0.283251,0.200186 0.01374,0.869236 0.416905,0.93824 0.339613,0.05851 0.41307,-0.371531 0.131422,-0.770046 z m 0.041,-1.157318 c -0.0742,-0.105004 -0.220615,-0.130367 -0.325718,-0.05609 -0.105088,0.07428 -0.130071,0.220762 -0.05586,0.325766 0.0742,0.105004 0.221107,0.13002 0.325728,0.05608 0.105077,-0.07426 0.130062,-0.220753 0.05585,-0.325759 z m -6.469959,2.210552 c -0.171922,-0.232816 -0.942465,-1.073243 -1.710902,-1.868649 -0.768429,-0.795416 -1.406109,-1.535024 -1.417177,-1.643503 -0.0098,-0.109454 -0.117667,-0.05157 -0.236398,0.125813 -0.118608,0.177633 -0.131368,0.44284 -0.02799,0.589111 0.135189,0.191284 -0.07587,0.45245 -0.751073,0.929643 -0.51653,0.365055 -1.111844,0.707609 -1.323034,0.761231 -0.561293,0.142664 -1.005343,-0.639701 -0.835387,-1.471968 0.173132,-0.848059 1.028968,-1.843749 1.436029,-1.670665 0.4421,0.188228 0.66178,-0.101615 0.379544,-0.500963 -0.145453,-0.205807 -0.768897,-0.375016 -1.427678,-0.387424 -0.64305,-0.01225 -1.859439,-0.269621 -2.702738,-0.572197 -0.843427,-0.302486 -1.980569,-0.64197 -2.527238,-0.75422 -0.546659,-0.11224 -1.062082,-0.299605 -1.1453,-0.416397 -0.08333,-0.116679 -0.454972,-0.304996 -0.825915,-0.418367 -0.370956,-0.113386 -0.907815,-0.40889 -1.192909,-0.656776 -0.284885,-0.248075 -1.21553,-0.670797 -2.067764,-0.939702 -2.172466,-0.685546 -2.855753,-0.983159 -3.156596,-1.374671 -0.455381,-0.596484 -0.642282,0.120031 -0.263708,1.019332 0.200569,0.476134 0.406968,1.095461 0.459089,1.375912 0.05211,0.280433 0.221644,0.740413 0.376771,1.022112 0.373098,0.677186 1.08921,3.018321 1.039415,3.398301 -0.08465,0.64484 0.485058,0.963846 1.7371,0.973274 0.71904,0.0054 1.68114,0.168822 2.138044,0.363055 0.4571,0.194131 1.155399,0.369824 1.552198,0.390211 0.396622,0.02051 0.761054,0.093 0.809417,0.161432 0.04835,0.06842 0.427532,0.1944 0.842035,0.280409 0.414946,0.08568 0.919861,0.206123 1.122155,0.26757 2.290557,0.695791 2.817497,0.807781 3.211492,0.682473 0.251831,-0.08004 0.56651,0.0082 0.699361,0.196234 0.132863,0.187991 1.093778,0.453845 2.135412,0.590814 1.041627,0.136981 1.951247,0.330255 2.021389,0.429501 0.15406,0.217985 1.147,0.07382 1.622884,-0.235641 0.232017,-0.15113 0.241411,-0.359852 0.02936,-0.645535 z M 66.678077,62.631756 c -0.905997,0.188999 -1.247001,-0.09895 -1.065068,-0.899346 0.22457,-0.9882 2.587724,-1.706168 3.122954,-0.948848 0.295497,0.41811 -1.06658,1.641425 -2.057873,1.848212 z m -5.419946,-1.515594 c -0.958733,-0.19988 -1.11706,-0.672426 -0.501758,-1.495617 0.619749,-0.829053 0.878813,-0.911304 1.651659,-0.524388 1.26247,0.632042 0.300327,2.322298 -1.149846,2.019987 z m 19.359047,-0.130951 c -0.062,-0.08773 -0.0034,-0.824855 0.130558,-1.638258 0.133773,-0.813317 0.164751,-1.589896 0.06878,-1.725699 -0.09598,-0.135807 0.200842,-2.291081 0.659538,-4.789471 0.813503,-4.430468 0.854598,-4.557098 1.66552,-5.130211 L 83.97301,47.11396 83.217458,46.287975 c -0.415672,-0.454211 -1.647401,-1.484067 -2.737523,-2.288335 -3.595052,-2.652965 -6.215675,-4.478574 -6.51829,-4.540817 -0.163874,-0.03378 -0.394153,-0.193101 -0.511461,-0.354299 -0.117016,-0.161386 -0.533275,-0.38899 -0.924045,-0.506488 l -0.710812,-0.213409 -0.07002,0.908413 c -0.03848,0.499609 0.0071,1.023977 0.101242,1.165254 0.09402,0.141386 0.179813,0.789366 0.190531,1.440041 0.01073,0.650655 0.111408,1.633445 0.223942,2.183795 0.334182,1.633913 0.573107,3.576508 0.496318,4.035895 -0.03948,0.236012 0.03736,0.583024 0.170495,0.771394 0.133117,0.188353 0.222012,0.724665 0.198114,1.191334 -0.05168,0.993795 0.292307,2.323112 0.783134,3.026211 0.242492,0.347291 0.245117,0.670287 0.0092,1.074908 -0.291785,0.500078 -0.262725,0.650853 0.212697,1.112443 0.302331,0.293841 1.057559,1.077242 1.678129,1.740948 3.801127,4.067627 4.31175,4.539886 4.650025,4.300813 0.149293,-0.105511 0.220355,-0.263333 0.158353,-0.351063 z m -4.373585,-6.062154 c -0.490499,-0.09498 -0.933266,-0.231892 -0.984223,-0.303994 -0.05098,-0.07212 -0.0036,-0.587922 0.105631,-1.146532 0.14856,-0.760822 0.354478,-1.104406 0.821126,-1.370165 0.527354,-0.300344 0.692817,-0.272546 1.079578,0.181402 0.562,0.659378 0.695447,2.228436 0.21839,2.565594 -0.192144,0.135796 -0.750165,0.168814 -1.240497,0.0737 z m 6.130504,-7.251695 c -0.0742,-0.105004 -0.0059,-0.282096 0.151479,-0.393344 0.157408,-0.111251 0.347125,-0.116497 0.421337,-0.01146 0.0742,0.105004 0.0059,0.282088 -0.151469,0.393335 -0.157408,0.111251 -0.347135,0.116497 -0.421347,0.01146 z m -5.538015,2.273285 c -0.1954,0.04794 -0.622147,0.05081 -0.94845,0.0064 -0.552632,-0.07473 -0.60135,-0.135062 -0.703319,-0.870826 -0.257378,-1.853278 1.490459,-2.244352 2.564761,-0.573852 0.392626,0.613005 0.0134,1.211324 -0.913067,1.438263 z m -0.60684,-5.296427 c -0.616461,0.286619 -1.55287,0.233447 -1.789671,-0.101615 -0.08833,-0.124983 -0.100434,-0.496181 -0.02703,-0.824837 0.121242,-0.542338 0.226605,-0.625798 1.137067,-0.900934 0.775406,-0.234336 1.123891,-0.202995 1.533434,0.137921 0.83652,0.696536 0.697802,0.968544 -0.853918,1.689517 z m -5.263571,9.339241 C 70.9553,53.821468 70.635986,53.63193 70.255714,53.566665 l -0.69128,-0.118777 0.344857,0.487953 c 0.492019,0.696176 1.097991,0.725824 1.056433,0.05161 z m -3.036502,1.244398 c -0.407107,-1.28992 -1.321648,-2.817444 -1.929701,-3.223248 -0.448996,-0.299411 -0.631406,-0.609182 -0.81821,-1.391202 -0.188434,-0.788168 -0.342894,-1.048824 -0.712478,-1.204318 -0.259642,-0.109009 -0.621182,-0.409085 -0.803355,-0.66685 -0.182175,-0.257767 -0.473233,-0.460015 -0.647384,-0.44902 -0.461364,0.02855 -0.401276,0.96823 0.104654,1.639869 0.239524,0.320106 0.590093,0.988109 0.77649,1.486252 0.369963,0.987601 2.90764,4.79549 3.309697,4.966279 0.557042,0.236985 0.957592,-0.406514 0.720517,-1.157947 z m -6.687597,-4.242841 c -0.593779,-0.840162 -0.66253,-1.088639 -0.451154,-1.62516 0.184665,-0.468874 0.114025,-0.891999 -0.273028,-1.629399 -0.287672,-0.547663 -0.562931,-1.242461 -0.612599,-1.54336 -0.06483,-0.394129 -0.295946,-0.691491 -0.82734,-1.061562 -0.818363,-0.57038 -1.402984,-0.403011 -0.930246,0.266261 0.166952,0.236332 0.457651,1.029369 0.646653,1.761882 0.18855,0.732826 0.673548,1.871707 1.077595,2.53097 0.404721,0.658786 0.889145,1.588236 1.078149,2.064282 0.189008,0.476055 0.485655,0.960861 0.65973,1.077029 0.610457,0.40825 0.369937,-0.797638 -0.367535,-1.841116 z m 8.887313,-6.060032 c -0.05967,-0.08443 -0.134626,-0.772316 -0.166358,-1.5287 -0.03195,-0.756235 -0.174517,-1.498432 -0.317116,-1.649113 -0.14107,-0.151755 -0.204506,-0.477005 -0.138201,-0.72474 0.0668,-0.248072 0.03224,-0.577364 -0.07685,-0.731709 -0.109081,-0.154343 -0.180898,-0.62056 -0.159422,-1.036121 0.02147,-0.415553 -0.10621,-0.960809 -0.283588,-1.211788 -0.219822,-0.311034 -0.211332,-0.62152 0.02657,-0.97516 0.191956,-0.285336 0.29421,-0.596546 0.227142,-0.691444 -0.200823,-0.284152 -2.592781,-1.620849 -2.869825,-1.603741 -0.141191,0.0088 -0.360669,-0.128506 -0.487969,-0.304804 -0.263383,-0.364315 -1.775676,-0.652731 -1.745652,-0.332719 0.01109,0.115074 0.415496,0.896025 0.89952,1.73497 0.484061,0.838917 1.174203,2.219333 1.534074,3.067283 0.359862,0.847958 0.743878,1.67169 0.853405,1.830487 0.10937,0.158939 0.354217,0.694479 0.543286,1.190741 0.681208,1.787812 1.439399,3.424633 1.598424,3.451931 0.260957,0.04484 0.681335,-0.317793 0.562783,-0.485537 z m -11.724882,6.01154 c -0.20671,-0.954695 -1.135268,-3.101576 -1.967801,-4.550188 -0.446024,-0.776551 -1.001345,-2.380208 -1.625441,-4.695633 -0.340549,-1.263695 -1.10662,-2.249079 -1.520679,-1.956446 -0.281897,0.199229 0.154662,1.698479 0.898436,3.087053 0.182063,0.343738 0.464428,1.094463 0.624114,1.670656 0.159683,0.576187 0.431303,1.247599 0.603899,1.491811 0.295082,0.417524 1.097764,2.406874 1.296864,3.212902 0.04955,0.201216 0.397475,0.9538 0.773395,1.672308 0.797989,1.526243 1.240433,1.558953 0.917436,0.06738 z m -2.321139,-1.102228 c -0.111444,-0.253381 -0.231409,-0.260438 -0.381659,-0.03379 -0.257435,0.38504 0.09363,1.008099 0.361931,0.643207 0.100337,-0.136507 0.109382,-0.410796 0.01972,-0.609433 z m 5.195019,-12.166521 c -0.0742,-0.105005 -0.220615,-0.130368 -0.325717,-0.05609 -0.105089,0.07428 -0.130072,0.22076 -0.05586,0.325765 0.0742,0.105005 0.221108,0.13002 0.325728,0.05608 0.105089,-0.07426 0.130063,-0.220753 0.05585,-0.325758 z m 1.420312,-2.600555 c -0.348665,-0.640653 -0.663044,-1.400392 -0.698738,-1.688206 -0.08217,-0.659819 -0.855117,-1.343042 -1.224553,-1.081947 -0.153349,0.108381 -0.183155,0.419315 -0.06577,0.690679 0.398423,0.920699 2.054952,3.537314 2.262078,3.572954 0.422548,0.07253 0.34337,-0.361037 -0.272918,-1.49355 z m -2.945752,0.74398 c -0.408426,-0.695537 -1.090386,-2.159118 -1.515268,-3.252549 -0.561927,-1.444876 -0.870869,-2.004498 -1.131161,-2.049337 -0.197068,-0.03386 -0.460401,-0.206474 -0.585453,-0.383415 -0.237417,-0.335931 -1.58245,-0.406305 -1.717944,-0.08989 -0.04284,0.100072 0.853132,1.372621 1.991113,2.827753 1.13798,1.455132 2.357686,3.053689 2.711124,3.551882 0.935416,1.319379 1.117341,0.875692 0.248169,-0.604855 z m -7.724983,2.577672 c -0.226076,-1.362859 -0.401668,-1.629889 -0.856897,-1.308159 -0.387439,0.27382 -0.01534,2.331069 0.458292,2.532411 0.480579,0.204385 0.584941,-0.114942 0.400727,-1.225753 z M 54.411849,29.3004 c -0.168511,-0.109298 -0.181674,-0.03216 -0.03394,0.196984 0.133402,0.207561 0.258002,0.288581 0.277244,0.179822 0.01877,-0.108429 -0.09092,-0.277831 -0.245153,-0.375505 z"
       id="path3267" />
  </g>
</svg>
