<?xml version="1.0" encoding="UTF-8" standalone="no"?>
<!-- Created with Inkscape (http://www.inkscape.org/) -->

<svg
   width="175.54639mm"
   height="175.54639mm"
   viewBox="0 0 175.5464 175.54639"
   version="1.1"
   id="svg5"
   inkscape:version="1.1 (c68e22c387, 2021-05-23)"
   sodipodi:docname="facebook.svg"
   xmlns:inkscape="http://www.inkscape.org/namespaces/inkscape"
   xmlns:sodipodi="http://sodipodi.sourceforge.net/DTD/sodipodi-0.dtd"
   xmlns="http://www.w3.org/2000/svg"
   xmlns:svg="http://www.w3.org/2000/svg">
  <sodipodi:namedview
     id="namedview7"
     pagecolor="#ffffff"
     bordercolor="#666666"
     borderopacity="1.0"
     inkscape:pageshadow="2"
     inkscape:pageopacity="0.0"
     inkscape:pagecheckerboard="0"
     inkscape:document-units="mm"
     showgrid="false"
     inkscape:zoom="0.77771465"
     inkscape:cx="183.87207"
     inkscape:cy="494.39727"
     inkscape:window-width="1920"
     inkscape:window-height="1017"
     inkscape:window-x="295"
     inkscape:window-y="1432"
     inkscape:window-maximized="1"
     inkscape:current-layer="layer1" />
  <defs
     id="defs2" />
  <g
     inkscape:label="Vrstva 1"
     inkscape:groupmode="layer"
     id="layer1"
     transform="translate(-17.970665,-15.146566)">
    <path
       style="fill:#000000;stroke-width:0.350061"
       d="m 49.943811,188.35457 c -2.988923,-0.38978 -6.559703,-1.28028 -7.01572,-1.74968 -0.202131,-0.20832 -0.639808,-0.37879 -0.971939,-0.37879 -0.332536,0 -0.727832,-0.20991 -0.879836,-0.46648 -0.1516,-0.25655 -1.362752,-0.76269 -2.691108,-1.12478 -2.471697,-0.6737 -4.804102,-1.97985 -5.13884,-2.87779 -0.103511,-0.27677 -0.499622,-0.5032 -0.88049,-0.5032 -0.38144,0 -0.966234,-0.43954 -1.300237,-0.97671 -0.334169,-0.53718 -0.803633,-1.18789 -1.043092,-1.446 -0.239622,-0.25815 -0.436047,-0.62118 -0.436047,-0.80675 0,-0.18558 -0.354544,-0.50364 -0.788147,-0.70691 -0.433601,-0.20321 -0.994433,-0.87905 -1.247095,-1.50183 -0.446643,-1.10049 -1.373835,-3.07601 -2.061568,-4.39154 -0.566454,-1.08297 -1.009757,-2.47527 -1.22452,-3.84404 -0.05705,-0.3907 -0.142634,-0.71035 -0.18094,-0.71035 -0.04075,0 -0.136112,-0.36813 -0.216801,-0.81799 -0.08151,-0.44994 -0.378178,-1.27656 -0.659368,-1.83698 -0.480875,-0.9576 -0.815124,-1.9386 -1.909237,-5.60759 -0.248588,-0.83301 -0.658553,-1.69162 -0.912276,-1.90809 -0.253479,-0.21645 -0.460499,-0.66169 -0.460499,-0.98937 0,-0.32769 -0.172789,-0.77385 -0.384701,-0.99152 -0.266519,-0.27458 -0.28934,-0.97575 -0.07336,-2.29078 0.171158,-1.04229 0.20539,-2.53436 0.07336,-3.31573 -0.298304,-1.80941 -0.08884,-7.64909 0.288526,-8.03703 0.157303,-0.16166 0.146707,-1.53602 -0.02445,-3.0541 -0.169529,-1.51808 -0.2926,-3.86573 -0.273855,-5.217 0.0163,-1.35125 -0.137742,-2.66979 -0.347209,-2.93007 -0.277928,-0.34483 -0.277928,-0.60128 -0.0014,-0.94485 0.245328,-0.30447 0.276299,-0.8462 0.08559,-1.52835 -0.30727,-1.1044 -0.237178,-6.06309 0.144262,-10.16434 0.147523,-1.58792 0.100251,-2.39734 -0.140186,-2.39734 -0.35536,0 -0.246143,-2.92208 0.133667,-3.55355 0.09699,-0.16149 0.02445,-0.70096 -0.158118,-1.19875 -0.220877,-0.59693 -0.215988,-0.98066 0.0163,-1.12691 0.207836,-0.13196 0.224951,-0.38877 0.04075,-0.63409 -0.311346,-0.42039 -0.360249,-3.96457 -0.05705,-4.27462 0.250217,-0.25714 0.09047,-6.425256 -0.189091,-7.332973 -0.157303,-0.511265 -0.117367,-0.710854 0.114106,-0.563783 0.453978,0.288687 0.954007,-0.494235 0.511032,-0.800121 -0.603132,-0.416377 -0.846177,-1.620199 -1.050915,-5.198917 -0.269779,-4.72003 -0.249403,-5.19063 0.374103,-8.670837 0.328463,-1.832205 0.418117,-3.213601 0.232287,-3.570748 -0.166268,-0.320401 -0.189089,-0.771595 -0.0489,-1.002697 0.138556,-0.231134 0.297489,-2.140357 0.353727,-4.2428 0.329278,-12.463977 0.548523,-15.215973 1.435534,-17.995939 0.369215,-1.157108 0.67078,-2.703411 0.67078,-3.436221 0,-0.732834 0.118181,-1.385666 0.263258,-1.450787 0.270594,-0.121566 1.821863,-5.732893 1.849494,-6.688868 0.0081,-0.293049 0.101065,-0.772434 0.206206,-1.065483 0.105139,-0.293051 0.258367,-1.169794 0.341502,-1.948411 0.08232,-0.778642 0.258369,-1.497818 0.389591,-1.598228 0.132037,-0.100426 0.440122,-0.979607 0.68545,-1.953778 0.245328,-0.974172 0.669965,-2.025603 0.943087,-2.336514 0.273039,-0.310921 0.497175,-0.740219 0.497175,-0.953962 0,-0.418811 1.971913,-2.574093 2.355553,-2.574554 0.386331,-3.52e-4 2.695426,-2.258986 3.08575,-3.018592 0.2005,-0.390705 0.960609,-1.028436 1.688524,-1.417246 0.727831,-0.388776 1.401139,-0.788374 1.496009,-0.887909 0.09455,-0.0995 0.754729,-0.485844 1.466423,-0.858437 0.711534,-0.372584 1.293881,-0.812117 1.293881,-0.976696 0,-0.164605 0.298304,-0.29926 0.661814,-0.29926 0.364324,0 1.101692,-0.229959 1.638886,-0.511012 1.817871,-0.951008 3.493761,-1.619956 4.058422,-1.619956 0.308901,0 1.484274,-0.399514 2.611477,-0.8879 1.716805,-0.743826 2.599822,-0.88791 5.44114,-0.88791 1.865469,0 3.540381,-0.153026 3.722135,-0.340116 0.181754,-0.187005 1.676053,-0.409834 3.320727,-0.495157 1.644673,-0.08531 3.138483,-0.249339 3.319586,-0.364529 0.180939,-0.115191 2.073222,-0.232897 4.204638,-0.261589 2.960398,-0.03943 3.94774,0.06376 4.182227,0.438275 0.250218,0.399345 0.361064,0.404379 0.597426,0.02685 0.19235,-0.30597 1.509295,-0.537524 3.881638,-0.682329 4.784869,-0.29196 30.583161,-0.263685 42.234831,0.04614 13.49751,0.359075 18.28213,0.333907 19.07029,-0.100255 0.3798,-0.209238 2.06686,-0.364279 3.74894,-0.344479 1.68209,0.02014 5.15442,-0.07299 7.71633,-0.205462 5.7366,-0.297329 18.82406,0.892499 20.60428,1.873179 0.40834,0.224928 1.13168,0.408996 1.60742,0.408996 0.47599,0 0.94847,0.139184 1.05059,0.309242 0.10188,0.170142 0.66589,0.408156 1.25328,0.52905 0.58684,0.120896 1.59684,0.780825 2.24382,1.466519 0.64714,0.685686 1.34229,1.246734 1.54524,1.246734 0.20295,0 0.51836,0.441547 0.70174,0.981151 0.18421,0.545075 0.77757,1.184038 1.33415,1.437658 0.58357,0.265699 1.15036,0.89478 1.35704,1.504983 0.19561,0.576621 0.52572,1.048463 0.73436,1.048463 0.42545,0 2.0438,1.780701 2.06067,2.267829 0.006,0.17291 0.36027,0.677295 0.78733,1.120822 1.66677,1.731295 2.67399,3.342014 2.67399,4.276083 0,0.26419 0.54365,1.039685 1.20765,1.723365 0.66427,0.683673 1.20764,1.554911 1.20764,1.936054 0,0.38114 0.40997,1.534029 0.91196,2.561978 0.50126,1.027957 0.9871,2.599352 1.07896,3.492011 0.092,0.89265 0.38632,1.882427 0.65447,2.199504 0.30238,0.357902 0.46132,1.233311 0.41812,2.308552 -0.088,2.211829 0.35455,10.802954 0.57542,11.171084 0.0922,0.153362 0.0488,0.354462 -0.0971,0.447 -0.31297,0.19875 -0.27223,5.685995 0.0488,6.215507 0.12062,0.200428 0.0652,0.459668 -0.11411,0.576032 -0.18339,0.116366 -0.33743,1.286142 -0.34395,2.599456 -0.006,1.313314 -0.0163,2.787398 -0.0245,3.275751 -0.0163,1.70641 0.0408,2.130968 0.31134,2.130968 0.14915,0 0.28446,0.479469 0.30076,1.065486 0.0163,0.586016 -0.11982,1.065484 -0.30238,1.065484 -0.34559,0 -0.19562,3.278865 0.23309,5.09883 0.15812,0.672094 0.0896,1.10947 -0.20376,1.296005 -0.28607,0.182055 -0.34313,0.513951 -0.16138,0.93892 1.06453,2.48892 1.14693,3.815256 0.47109,7.583026 -0.51836,2.889988 -0.6618,5.207794 -0.63736,10.299678 0.0408,8.47642 0.0571,8.87904 0.3627,8.87904 0.141,0 0.26897,1.71809 0.28281,3.81799 0.0327,5.17782 0.0571,5.41621 0.43036,5.41621 0.19886,0 0.22657,0.80339 0.0733,2.04217 -0.28689,2.27367 -0.3097,7.4094 -0.0408,9.323 0.0962,0.68366 0.11166,1.35463 0.0327,1.49099 -0.0733,0.13632 -0.21435,1.97433 -0.30646,4.08436 -0.092,2.11003 -0.33823,5.11501 -0.54688,6.67772 -0.20864,1.56271 -0.41731,3.72031 -0.46458,4.79468 -0.15485,3.55338 -1.22736,7.45715 -2.04901,7.45942 -0.20703,7.2e-4 -0.3896,0.52 -0.40508,1.15429 -0.0163,0.67066 -0.48659,1.84355 -1.12133,2.80296 -0.60068,0.90735 -1.09199,1.97539 -1.09199,2.37341 0,0.41176 -0.2975,0.82084 -0.69035,0.94912 -0.37981,0.124 -0.69034,0.53433 -0.69034,0.91184 0,0.37753 -0.11655,0.68651 -0.25917,0.68677 -0.46377,7.2e-4 -4.57174,4.44648 -4.57174,4.94766 0,0.19507 -0.4662,0.90074 -1.03512,1.56818 -0.5697,0.66739 -1.03508,1.3278 -1.03508,1.46751 0,0.13967 -1.16454,1.4683 -2.58777,2.95246 -1.42331,1.48417 -2.58776,2.82713 -2.58776,2.98437 0,0.15721 -0.15976,0.28592 -0.35536,0.28592 -0.19561,0 -0.85448,0.55941 -1.46406,1.24305 -0.60964,0.68369 -1.27301,1.24307 -1.47425,1.24307 -0.20132,0 -0.89271,0.55943 -1.53651,1.24308 -0.64388,0.68367 -1.4414,1.24306 -1.77247,1.24306 -0.33091,0 -0.7042,0.17072 -0.82979,0.37937 -0.12551,0.20866 -0.44503,0.29356 -0.71073,0.18869 -0.26571,-0.10487 -0.4825,-0.0679 -0.4825,0.0823 0,0.62871 -2.62671,1.1685 -5.77342,1.18646 -2.05579,0.0118 -4.11011,0.24507 -5.26771,0.59819 -1.68379,0.5137 -4.95023,0.57889 -28.9829,0.57805 -14.89685,-3.6e-4 -28.249701,-0.11871 -29.672928,-0.2626 -8.213914,-0.8304 -23.065043,-1.08351 -26.275005,-0.44775 -0.692786,0.13725 -3.410138,0.29556 -6.038159,0.35177 -2.627941,0.0563 -6.175494,0.18659 -7.883415,0.28961 -1.707921,0.10302 -4.114496,0.0553 -5.347981,-0.10512 z m 95.057079,-5.09567 c 2.08739,-0.11007 4.30888,-0.35799 4.93645,-0.55087 0.6276,-0.19296 1.3498,-0.26838 1.60474,-0.16762 0.25511,0.1008 1.36365,0.0118 2.46363,-0.1974 1.20512,-0.2293 2.12506,-0.25179 2.31473,-0.0562 0.1899,0.19523 0.7156,0.18029 1.32264,-0.0378 0.55422,-0.19891 1.34783,-0.27014 1.76326,-0.15831 0.83599,0.22501 4.26919,-0.68829 4.58885,-1.22079 0.11167,-0.18572 0.34721,-0.24598 0.52326,-0.1339 0.17605,0.11209 1.01645,-0.4678 1.86718,-1.28866 0.85083,-0.82084 2.09335,-1.87462 2.76121,-2.34175 0.69686,-0.48728 1.21425,-1.14661 1.21425,-1.54683 0,-0.38366 0.2331,-0.69752 0.51754,-0.69752 0.28446,0 0.51756,-0.16376 0.51756,-0.36394 0,-0.20018 0.39121,-0.51722 0.87006,-0.70447 0.57541,-0.22518 0.94088,-0.70499 1.07911,-1.41646 0.14101,-0.7263 0.46538,-1.14219 0.9977,-1.2797 0.45723,-0.11822 0.87763,-0.56856 1.00062,-1.07296 0.11655,-0.47805 0.55667,-1.03279 0.9787,-1.23271 0.802,-0.38005 2.66455,-2.81795 2.66455,-3.48707 0,-0.21293 0.23309,-0.38719 0.51753,-0.38719 0.28447,0 0.51756,-0.15251 0.51756,-0.33902 0,-0.18642 0.3521,-0.70591 0.78326,-1.15427 0.43115,-0.44842 1.01684,-1.29472 1.30244,-1.88074 0.28526,-0.58602 1.0977,-1.97679 1.80458,-3.09061 0.70664,-1.11382 1.28532,-2.35244 1.28532,-2.7525 0,-0.4001 0.16545,-0.72737 0.36676,-0.72737 0.20215,0 0.33255,-0.27973 0.29098,-0.62152 -0.0408,-0.34187 0.10351,-1.07145 0.32357,-1.62135 0.21925,-0.54994 0.39937,-1.45944 0.39937,-2.02121 0,-0.56176 0.1353,-1.10728 0.29994,-1.21225 0.16463,-0.10494 0.32846,-2.69777 0.36351,-5.7618 0.0327,-3.06403 0.22333,-5.87874 0.41894,-6.2549 0.48901,-0.94066 0.48331,-11.53865 -0.007,-12.80969 -0.21272,-0.55101 -0.36514,-2.62874 -0.33906,-4.61709 0.0408,-3.20581 -0.0864,-5.60904 -0.60232,-11.25118 -0.0815,-0.87902 -0.14995,-1.87791 -0.15567,-2.21976 -0.0245,-1.51923 -0.0163,-2.46521 0.008,-3.37402 0.0163,-0.5372 0.0327,-2.33519 0.0408,-3.995567 0.004,-3.272073 0.53794,-8.271686 1.00447,-9.411789 0.56645,-1.38455 0.61618,-2.287552 0.14752,-2.687947 -0.30564,-0.261423 -0.37166,-0.613115 -0.18584,-0.989752 0.15895,-0.321323 0.20947,-1.143617 0.11249,-1.827305 -0.0971,-0.683673 -0.15161,-2.281907 -0.12064,-3.551612 0.0978,-4.070134 0.0245,-7.952583 -0.18094,-9.363855 -0.1141,-0.78938 -0.0488,-1.469134 0.15812,-1.599594 0.21925,-0.139352 0.26082,-0.774363 0.10922,-1.646148 -0.13612,-0.780572 -0.13774,-1.818841 -0.004,-2.307185 0.37737,-1.370874 0.35455,-5.259088 -0.0326,-5.505006 -0.47518,-0.302026 -0.43768,-2.66371 0.0408,-2.66371 0.28201,0 0.28445,-0.127774 0.008,-0.469148 -0.20784,-0.257983 -0.36106,-0.937265 -0.33987,-1.509439 0.0245,-0.572175 3.3e-4,-2.53572 -0.0488,-4.363444 -0.0652,-2.638904 -0.21108,-3.453856 -0.70094,-3.958007 -0.33905,-0.349176 -0.72456,-1.291056 -0.85611,-2.093072 -0.14834,-0.902758 -0.42463,-1.458212 -0.72702,-1.458212 -0.28689,0 -0.4874,-0.357063 -0.4874,-0.866935 0,-0.476784 -0.14182,-0.957175 -0.31541,-1.067456 -0.3839,-0.244306 -1.75503,-3.105417 -1.75503,-3.662599 0,-0.220227 -0.27794,-0.609339 -0.61781,-0.864568 -0.33987,-0.255214 -1.02271,-1.183293 -1.51729,-2.062317 -0.49471,-0.879024 -1.37847,-2.157606 -1.96416,-2.841286 -0.58601,-0.683671 -1.06746,-1.351471 -1.07048,-1.48396 -0.008,-0.396913 -4.57287,-5.017022 -5.83545,-5.907498 -0.96371,-0.679729 -1.69929,-0.844391 -4.14042,-0.927013 -1.81991,-0.06124 -3.56924,-0.344983 -4.52113,-0.732499 -1.13567,-0.462271 -2.75719,-0.662279 -6.03807,-0.74475 -2.46697,-0.06208 -5.33943,-0.257729 -6.38316,-0.434918 -1.89172,-0.321156 -2.94654,-0.310166 -12.42125,0.129536 -5.74979,0.266875 -6.00083,0.265868 -17.07921,-0.06796 -8.73082,-0.262932 -9.21274,-0.274425 -16.9929,-0.403962 -4.105114,-0.0688 -4.916735,-0.169806 -4.916735,-0.614624 0,-0.632999 -0.401001,-0.688371 -0.943004,-0.130292 -0.369214,0.379883 -1.935237,0.430221 -5.698939,0.18323 -0.901435,-0.05956 -1.638887,0.03271 -1.638887,0.204707 0,0.171736 -2.134921,0.293721 -4.744279,0.271069 -2.609276,-0.02266 -7.538978,0.131718 -10.954819,0.343137 -3.415842,0.211419 -9.927051,0.540041 -14.469445,0.730149 -5.957307,0.249425 -8.333481,0.470324 -8.526972,0.79257 -0.147523,0.245733 -1.321916,0.630986 -2.609846,0.856105 -3.255361,0.569153 -5.481893,1.262808 -6.261074,1.950733 -0.364323,0.321324 -1.261277,0.793913 -1.993999,1.050191 -0.732724,0.256219 -1.565371,0.66144 -1.850391,0.900435 -0.285266,0.239021 -0.954171,0.605144 -1.487127,0.813712 -0.533036,0.208566 -0.884727,0.519569 -0.781625,0.691054 0.102695,0.171485 -0.463759,0.771176 -1.259321,1.332518 -1.651684,1.165388 -3.7148,3.298302 -3.721238,3.847178 -0.0025,0.203451 -0.467835,1.311461 -1.035105,2.462184 -0.566454,1.150732 -1.030784,2.469265 -1.030784,2.930083 0,0.460842 -0.12307,0.837872 -0.273855,0.837872 -0.384698,0 -2.600146,7.358202 -2.428173,8.064032 0.04075,0.155208 -0.141002,1.241196 -0.396925,2.413229 -0.58683,2.687269 -0.599056,2.76171 -0.892227,5.327421 -0.133666,1.172033 -0.358618,2.290792 -0.498805,2.486137 -0.383071,0.531903 -0.76125,6.977311 -0.849111,14.460753 -0.05706,4.666252 -0.205391,6.805492 -0.506143,7.178353 -0.424636,0.527205 -0.528961,7.917632 -0.19561,13.877037 0.35862,6.408544 0.396111,9.316904 0.131221,10.272044 -0.158118,0.57083 -0.160563,1.2101 -0.0055,1.42066 0.387962,0.5276 0.422193,10.85382 0.04075,11.59258 -0.183384,0.35229 -0.184199,1.0513 -0.0025,1.70346 0.185832,0.66706 0.181755,1.18676 -0.0081,1.30938 -0.371658,0.23642 -0.431971,2.05804 -0.08151,2.42008 0.131221,0.13532 0.269779,1.96 0.308086,4.05475 0.04075,2.09478 0.161379,4.5224 0.27467,5.3947 0.424637,3.26173 0.243697,15.11847 -0.242883,15.90569 -0.156489,0.25345 -0.117367,0.44398 0.09128,0.44398 0.201315,0 0.365139,0.48458 0.365139,1.07689 0,0.59232 0.246142,1.6711 0.547709,2.39734 0.301566,0.72621 0.594165,1.72002 0.650403,2.20834 0.05706,0.48838 0.275484,1.40734 0.487395,2.04219 0.98286,2.9483 1.158827,3.54452 1.395189,4.72609 0.138558,0.69483 0.513477,1.8018 0.832647,2.46001 0.318682,0.65825 0.493916,1.47633 0.388775,1.81804 -0.10514,0.34171 0.0163,0.75305 0.275485,0.91403 0.811782,0.50849 1.633263,2.01353 1.633263,2.99197 0,0.51865 0.233102,1.14195 0.517553,1.38512 0.284449,0.24312 0.517551,0.64332 0.517551,0.88923 0,0.24589 0.555859,0.88344 1.235033,1.41676 0.67893,0.53332 1.974358,1.75096 2.877996,2.70586 1.263804,1.33561 1.887882,1.73622 2.704636,1.73622 1.278964,0 2.153179,0.31075 2.153179,0.76538 0,0.4188 1.775487,2.04957 2.247886,2.06471 0.19235,0.006 0.968922,0.36311 1.725119,0.79308 2.593871,1.47495 9.896242,1.81741 18.281722,0.85738 2.669426,-0.30563 7.936801,-0.5173 13.009949,-0.52284 9.339487,-0.0103 10.142956,-0.1516 9.57642,-1.68542 -0.185014,-0.50121 -0.219246,-1.09761 -0.07336,-1.3254 0.143447,-0.22777 0.316236,-5.84812 0.38307,-12.48964 0.168713,-16.79933 0.165453,-18.4229 -0.0489,-21.84243 -0.104325,-1.66038 -0.20213,-3.95799 -0.216801,-5.10579 l -0.02445,-2.08691 -5.951847,0.18113 c -3.628486,0.11041 -6.986786,0.41343 -8.603177,0.77621 -2.370225,0.53198 -2.757126,0.53878 -3.648048,0.0646 -1.717457,-0.91421 -1.945018,-1.42144 -1.483621,-3.30759 0.579494,-2.36831 0.651218,-14.26531 0.08802,-14.63667 -0.177679,-0.11746 -0.409152,-1.04387 -0.512661,-2.05871 -0.141003,-1.37176 -0.05705,-1.95601 0.316236,-2.27719 0.398556,-0.34063 0.413226,-0.49091 0.06521,-0.7102 -0.770215,-0.48987 1.295836,-1.99286 2.582542,-1.87879 4.512156,0.40003 16.988578,-0.0235 17.327636,-0.58811 0.432787,-0.721 0.908608,-4.45242 1.061673,-8.32767 0.09292,-2.34407 0.325202,-4.77131 0.515921,-5.393864 0.191537,-0.622515 0.345579,-1.981041 0.343134,-3.018873 -0.0028,-1.037824 0.143448,-2.726031 0.325202,-3.751554 0.800371,-4.519324 1.114162,-5.971805 1.360305,-6.304118 0.144263,-0.195312 0.37492,-1.154272 0.511847,-2.13097 0.136927,-0.976696 0.620247,-2.587004 1.075285,-3.578467 0.454794,-0.991461 0.920672,-2.286924 1.035674,-2.878796 0.114922,-0.591889 0.835663,-1.778461 1.601396,-2.636855 0.765324,-0.858405 1.747287,-2.120105 2.181215,-2.803794 0.433602,-0.683671 1.276846,-1.722526 1.873212,-2.308543 0.596611,-0.586016 1.579547,-1.558678 2.184803,-2.161465 1.17652,-1.171614 4.39039,-3.34354 4.94756,-3.34354 0.42952,0 3.24924,-1.381472 3.87006,-1.895866 0.45398,-0.375941 0.92939,-0.585178 4.06943,-1.789888 2.33696,-0.896617 3.21127,-1.00856 7.01783,-0.898564 1.99262,0.05789 4.08866,0.07383 4.65797,0.03607 3.94595,-0.261505 13.90339,-0.2881 14.36463,-0.03859 0.32601,0.176518 0.67811,1.019669 0.83582,2.001843 0.30565,1.90257 0.30483,1.539634 0.0327,8.800122 -0.11166,2.962398 -0.0488,6.273436 0.14018,7.45839 0.73435,4.578185 0.75637,5.322596 0.20214,6.689379 l -0.54445,1.341672 -4.75374,-0.282228 c -5.28481,-0.313688 -6.51829,-0.316457 -8.58802,-0.0193 -2.34511,0.336844 -4.14367,1.010902 -5.18594,1.943695 -0.54201,0.485173 -1.63645,1.435409 -2.43168,2.111588 -0.89908,0.764547 -1.87762,2.126322 -2.58777,3.601304 -0.62839,1.304539 -1.31383,2.53171 -1.52396,2.727045 -0.21029,0.19531 -0.56564,1.79357 -0.78896,3.551617 -0.22414,1.75805 -0.55667,4.17381 -0.73925,5.36837 -0.18257,1.19455 -0.33253,3.44636 -0.33253,5.00403 0,2.73831 0.0327,2.84777 0.94887,3.30447 0.52164,0.25975 2.03565,0.5163 3.36409,0.56999 9.06693,0.36671 10.2221,0.47864 11.22313,1.08734 0.87111,0.52973 1.02557,0.84206 1.02557,2.07422 0,0.79785 -0.13857,1.60245 -0.30809,1.78803 -0.16953,0.18558 -0.39936,1.7758 -0.51104,3.53386 -0.11165,1.75805 -0.30156,4.18951 -0.42218,5.40326 -0.26082,2.62825 0.008,4.00851 0.78406,4.00851 0.51022,0 0.50615,0.0662 -0.0408,0.68358 -0.37573,0.42754 -0.56482,1.12592 -0.50532,1.8646 0.1573,1.94771 -0.33173,3.02966 -1.66374,3.68029 -1.38469,0.67629 -4.73075,0.74375 -7.71625,0.15547 -1.02802,-0.20261 -2.72314,-0.27032 -3.76681,-0.1506 -3.53255,0.40539 -3.24345,-0.26293 -2.96683,6.85989 0.42545,10.95928 0.73598,14.82043 1.21556,15.12553 0.14915,0.0948 0.31297,2.93411 0.36432,6.30974 0.19724,12.91047 0.40588,15.55443 1.30334,16.47803 0.40508,0.4168 0.99818,0.48937 2.63217,0.3219 1.16013,-0.11887 6.58741,-0.2667 12.06067,-0.32845 7.67403,-0.0866 10.04279,-0.0103 10.35104,0.33501 0.22006,0.24607 0.55504,0.32022 0.74495,0.16493 0.1899,-0.15537 2.05292,-0.37249 4.14042,-0.48256 z M 185.71492,35.992773 c 0.11737,-0.19531 0.0488,-0.355134 -0.15241,-0.355134 -0.20131,0 -0.36513,0.159824 -0.36513,0.355134 0,0.195311 0.0652,0.355133 0.15241,0.355133 0.084,0 0.24777,-0.159822 0.36513,-0.355133 z M 104.45929,21.075992 c 0,-0.195311 -0.0652,-0.355134 -0.1524,-0.355134 -0.084,0 -0.24778,0.159823 -0.36515,0.355134 -0.11736,0.195311 -0.0488,0.355133 0.15241,0.355133 0.20132,0 0.36514,-0.159822 0.36514,-0.355133 z"
       id="path1033" />
  </g>
</svg>
