<?xml version="1.0" encoding="UTF-8" standalone="no"?>
<!-- Created with Inkscape (http://www.inkscape.org/) -->

<svg
   width="175.54639mm"
   height="175.54639mm"
   viewBox="0 0 175.5464 175.54639"
   version="1.1"
   id="svg5"
   inkscape:version="1.1 (c68e22c387, 2021-05-23)"
   sodipodi:docname="domu.svg"
   xmlns:inkscape="http://www.inkscape.org/namespaces/inkscape"
   xmlns:sodipodi="http://sodipodi.sourceforge.net/DTD/sodipodi-0.dtd"
   xmlns="http://www.w3.org/2000/svg"
   xmlns:svg="http://www.w3.org/2000/svg">
  <sodipodi:namedview
     id="namedview7"
     pagecolor="#ffffff"
     bordercolor="#666666"
     borderopacity="1.0"
     inkscape:pageshadow="2"
     inkscape:pageopacity="0.0"
     inkscape:pagecheckerboard="0"
     inkscape:document-units="mm"
     showgrid="false"
     inkscape:zoom="0.77771465"
     inkscape:cx="183.87207"
     inkscape:cy="494.39727"
     inkscape:window-width="1920"
     inkscape:window-height="1017"
     inkscape:window-x="295"
     inkscape:window-y="1432"
     inkscape:window-maximized="1"
     inkscape:current-layer="layer1" />
  <defs
     id="defs2" />
  <g
     inkscape:label="Vrstva 1"
     inkscape:groupmode="layer"
     id="layer1"
     transform="translate(-17.970665,-15.146566)">
    <path
       style="fill:#000000;stroke-width:0.138397"
       d="m 168.50301,189.75417 c -0.38257,-0.0539 -1.62889,-0.0566 -2.76966,-0.007 -1.14073,0.0507 -2.54231,0.0641 -3.11462,0.0294 -0.57232,-0.0333 -1.8819,-0.0647 -2.91017,-0.069 -1.02834,-0.003 -2.30638,-0.0262 -2.84018,-0.0448 -0.53376,-0.0196 -2.90095,-0.003 -5.26038,0.036 -2.35947,0.0396 -4.30874,0.0229 -4.33176,-0.0405 -0.0229,-0.0621 -0.36579,-0.0601 -0.76176,0.007 -0.396,0.0644 -1.4687,0.0879 -2.38379,0.0523 -0.91509,-0.0356 -2.28617,-0.0419 -3.04689,-0.0131 -0.76065,0.0262 -2.13124,0.0366 -3.04568,0.0196 -0.91447,-0.0163 -2.78404,-0.0229 -4.15466,-0.0163 -1.40907,0.007 -2.56926,-0.0477 -2.66972,-0.12587 -0.12292,-0.0955 -0.23015,-0.0915 -0.34723,0.0131 -0.10461,0.0928 -0.70082,0.14417 -1.5534,0.13371 -0.76111,-0.01 -2.47409,-0.007 -3.80649,0.003 -1.33248,0.01 -3.82435,0.0294 -5.53752,0.0422 -1.71317,0.0131 -3.98816,-0.003 -5.05547,-0.0379 -1.06737,-0.0337 -2.06474,-0.0451 -2.21644,-0.0262 -0.32267,0.0399 -7.107,0.0801 -9.62199,0.0553 -0.95232,-0.01 -2.29244,-0.0229 -2.97807,-0.0294 -0.685685,-0.007 -2.648334,-4.9e-4 -4.361474,0.0131 -4.926138,0.0373 -7.780337,0.0458 -12.46125,0.0379 -2.399188,-0.003 -5.551051,0.0163 -7.00419,0.0471 -1.453041,0.0327 -2.717251,0.01 -2.809149,-0.0412 -0.09186,-0.0526 -0.585649,-0.085 -1.097251,-0.0719 -0.511601,0.0131 -1.004372,-0.0327 -1.094995,-0.0987 -0.102981,-0.0765 -0.196807,-0.0667 -0.249769,0.0262 -0.05329,0.0928 -0.485186,0.13666 -1.150866,0.11737 -0.586238,-0.0163 -2.620744,-0.0131 -4.521211,0.007 -2.24341,0.0229 -3.489378,-0.0163 -3.552507,-0.11018 -0.06342,-0.0951 -0.113442,-0.0968 -0.143846,-0.007 -0.02615,0.0781 -0.650184,0.18373 -1.387787,0.2344 -1.211052,0.0834 -1.362189,0.0677 -1.559225,-0.17719 -0.19125,-0.23637 -0.217731,-0.24029 -0.214788,-0.0327 0.0019,0.13076 -0.07519,0.21511 -0.171308,0.18765 -0.09611,-0.0262 -1.358626,-0.0484 -2.805586,-0.0464 -1.446993,0.002 -3.129795,-0.01 -3.739539,-0.0229 -3.289431,-0.0834 -9.337535,-0.0131 -9.818667,0.11541 -0.366873,0.0974 -0.633446,0.0961 -0.831038,-0.007 -0.159865,-0.0814 -0.413296,-0.16412 -0.562961,-0.18406 -0.324307,-0.0428 -0.494274,-0.26187 -0.510196,-0.65738 -0.01635,-0.37524 0.340981,-0.70367 0.917575,-0.84627 0.34487,-0.0853 0.502382,-0.22754 0.632889,-0.57133 0.09579,-0.25173 0.413002,-0.84487 0.705402,-1.31812 0.292269,-0.47351 0.529418,-0.92599 0.526803,-1.00578 -0.0026,-0.0797 0.04512,-0.14672 0.10625,-0.14872 0.06113,-0.002 0.211519,-0.31509 0.334409,-0.69566 0.122923,-0.38057 0.309269,-0.76823 0.414407,-0.86142 0.10527,-0.0931 0.187981,-0.26101 0.184385,-0.3732 -0.0033,-0.11207 0.105269,-0.37285 0.241596,-0.57949 0.466617,-0.70587 1.837829,-3.55441 1.829688,-3.80103 -0.0024,-0.0742 0.04413,-0.15683 0.103962,-0.18429 0.138615,-0.0635 0.681176,-1.20233 0.67418,-1.41514 -0.0029,-0.0886 0.132731,-0.32493 0.30175,-0.52495 0.168692,-0.20018 0.442457,-0.71102 0.607978,-1.13536 0.16575,-0.42433 0.40715,-1.02836 0.536938,-1.34226 0.129788,-0.31404 0.233423,-0.65004 0.230154,-0.74695 -0.0032,-0.097 0.116384,-0.28384 0.265788,-0.41507 0.149404,-0.13152 0.447394,-0.58734 0.662443,-1.01331 0.366579,-0.72622 0.486985,-0.99608 0.955988,-2.14319 0.216423,-0.52963 0.74898,-1.55072 0.86324,-1.65544 0.07879,-0.0722 0.92712,-1.86518 2.211272,-4.67327 0.379198,-0.82911 1.030853,-2.22144 1.44817,-3.09404 0.417284,-0.87257 0.937909,-1.96629 1.15698,-2.43046 0.219038,-0.46416 0.508659,-0.92899 0.643645,-1.03296 0.13502,-0.1039 0.242577,-0.27132 0.239308,-0.37172 -0.0033,-0.10062 0.08435,-0.26281 0.194192,-0.36041 0.110173,-0.0978 0.164442,-0.23175 0.120308,-0.29802 -0.04414,-0.0659 -0.01962,-0.12201 0.04969,-0.1243 0.07127,-0.002 0.203673,-0.20919 0.293903,-0.4597 0.09056,-0.25058 0.272,-0.56829 0.403815,-0.70621 0.131423,-0.1378 0.301096,-0.51738 0.377139,-0.84325 0.07552,-0.32601 0.183076,-0.6563 0.23898,-0.73428 0.05558,-0.078 0.134038,-0.29881 0.17425,-0.4904 0.04021,-0.19171 0.278865,-0.59351 0.53004,-0.89283 0.251077,-0.2994 0.489894,-0.75894 0.530269,-1.02136 0.04054,-0.26235 0.126846,-0.47889 0.191903,-0.48103 0.06538,-0.002 0.179154,-0.19825 0.253038,-0.43595 0.07421,-0.23764 0.258923,-0.46889 0.410517,-0.51391 0.151693,-0.0449 0.243231,-0.13067 0.203673,-0.18988 -0.07748,-0.11651 0.278538,-0.91219 0.550179,-1.22982 0.09154,-0.10703 0.162807,-0.30989 0.15823,-0.45035 -0.0098,-0.31499 0.345917,-1.03992 0.746267,-1.5182 0.164769,-0.1971 0.297173,-0.43576 0.293903,-0.53061 -0.0031,-0.0948 0.08664,-0.21123 0.199096,-0.25909 0.112462,-0.0475 0.202039,-0.1702 0.198769,-0.27216 -0.0033,-0.10227 0.109846,-0.44759 0.251731,-0.76755 0.141884,-0.32 0.256307,-0.63483 0.254019,-0.69982 -0.0021,-0.065 0.144827,-0.33414 0.326596,-0.59822 0.181769,-0.26405 0.326269,-0.60856 0.321038,-0.76561 -0.0098,-0.25421 0.565936,-1.33824 1.345418,-2.53979 0.150057,-0.2313 0.259904,-0.54019 0.244211,-0.68605 -0.01308,-0.14574 0.111808,-0.38341 0.283442,-0.52792 0.171962,-0.14466 0.341733,-0.43998 0.377694,-0.65659 0.03596,-0.21674 0.22525,-0.56449 0.42039,-0.77303 0.195173,-0.20858 0.315154,-0.43942 0.266115,-0.51308 -0.04871,-0.0736 0.09219,-0.3543 0.313519,-0.62369 0.221327,-0.26929 0.398388,-0.61007 0.39355,-0.75698 -0.0033,-0.14705 0.226557,-0.68812 0.514282,-1.2027 0.287692,-0.51457 0.519088,-1.0583 0.514151,-1.20828 -0.0065,-0.14999 0.03694,-0.29495 0.0935,-0.32231 0.229827,-0.11125 1.098657,-1.32458 1.092053,-1.52512 -0.0065,-0.24246 0.84503,-2.21032 1.100913,-2.53966 0.331238,-0.42627 0.841826,-1.54198 0.832672,-1.81959 -0.0065,-0.1565 0.05133,-0.28661 0.125538,-0.28903 0.07421,-0.002 0.256635,-0.27342 0.405613,-0.60185 0.515656,-1.13781 0.656004,-1.37011 0.919667,-1.52258 0.146788,-0.085 0.259903,-0.29773 0.254019,-0.4772 -0.0065,-0.17807 0.0801,-0.40455 0.19125,-0.50302 0.110826,-0.0985 0.198769,-0.26726 0.195499,-0.37537 -0.0033,-0.10815 0.104943,-0.32368 0.240616,-0.47957 0.135999,-0.15591 0.408718,-0.63082 0.606409,-1.05566 0.197788,-0.42483 0.417284,-0.81086 0.487997,-0.85788 0.07062,-0.0468 0.385115,-0.66354 0.6987,-1.37013 0.313519,-0.70658 0.619518,-1.37982 0.679901,-1.49603 0.314173,-0.60468 0.408261,-0.86504 0.400284,-1.10755 -0.0033,-0.14672 0.03727,-0.28939 0.0935,-0.31643 0.235384,-0.11406 0.825382,-1.22212 0.817078,-1.53443 -0.0098,-0.40675 0.104615,-0.60952 0.420259,-0.73783 0.129789,-0.0527 0.359713,-0.38372 0.511177,-0.73546 0.151365,-0.35177 0.329178,-0.6754 0.395053,-0.71917 0.06604,-0.0437 0.112789,-0.29319 0.103962,-0.55449 -0.01308,-0.35328 0.08729,-0.57308 0.387174,-0.8583 0.234404,-0.22296 0.398258,-0.52116 0.391948,-0.71292 -0.0065,-0.18135 0.126846,-0.47131 0.295211,-0.64459 0.168365,-0.17333 0.525561,-0.78958 0.793998,-1.36963 0.620205,-1.34003 0.743749,-1.55965 1.046349,-1.85988 0.135999,-0.13466 0.207269,-0.30512 0.15823,-0.3784 -0.04871,-0.0733 -0.02615,-0.17448 0.04904,-0.22502 0.07585,-0.0502 0.133711,-0.2278 0.129134,-0.39461 -0.0098,-0.40009 0.596405,-1.8157 0.843657,-1.96495 0.106904,-0.0644 0.191904,-0.19276 0.188961,-0.28459 -0.003,-0.0921 0.13175,-0.32718 0.299789,-0.52226 0.349088,-0.40572 1.180027,-2.13254 1.305043,-2.712291 0.0461,-0.21381 0.274615,-0.68866 0.508038,-1.05526 0.738682,-1.16082 1.157633,-2.0044 1.325704,-2.66946 0.04381,-0.17284 0.137308,-0.31594 0.20825,-0.31826 0.07094,-0.002 0.125211,-0.1222 0.120307,-0.26598 -0.0033,-0.14411 0.07487,-0.29718 0.176866,-0.34009 0.102,-0.0429 0.219365,-0.28164 0.260557,-0.53033 0.04119,-0.24863 0.196154,-0.54303 0.344315,-0.654214 0.148096,-0.111186 0.265788,-0.315578 0.261211,-0.454007 -0.0033,-0.13855 0.08271,-0.332435 0.193539,-0.430881 0.110827,-0.0985 0.197134,-0.317246 0.191577,-0.486458 -0.0065,-0.168921 0.110826,-0.424195 0.258269,-0.566897 0.147769,-0.142571 0.266115,-0.333566 0.263172,-0.424074 -0.003,-0.09052 0.100366,-0.266966 0.229827,-0.392105 0.129461,-0.125277 0.347355,-0.546958 0.484303,-0.937445 0.136981,-0.390515 0.2975,-0.711616 0.356837,-0.713567 0.0595,-0.002 0.104615,-0.097 0.101019,-0.211029 -0.0033,-0.114031 0.05525,-0.209525 0.131423,-0.212042 0.07617,-0.0025 0.134692,-0.10844 0.130769,-0.235875 -0.0033,-0.127107 0.07454,-0.332232 0.174577,-0.455773 0.343432,-0.423025 0.825185,-1.492765 0.904464,-2.00846 0.04381,-0.283736 0.304365,-0.821583 0.579242,-1.195644 0.274942,-0.374026 0.670715,-1.05957 0.879389,-1.523395 0.208904,-0.463832 0.425392,-0.865607 0.481623,-0.892839 0.05623,-0.02812 0.09742,-0.19684 0.09154,-0.376694 -0.0065,-0.180036 0.13927,-0.500172 0.322673,-0.711665 0.183404,-0.211453 0.330911,-0.464348 0.327708,-0.561915 -0.0032,-0.09768 0.085,-0.274288 0.196153,-0.392954 0.232769,-0.248723 0.713575,-1.422984 0.703832,-1.719245 -0.0033,-0.110107 0.08729,-0.240026 0.202039,-0.288607 0.202692,-0.08549 0.590618,-0.886876 0.773335,-1.597201 0.04937,-0.192002 0.226231,-0.509414 0.393223,-0.70528 0.167058,-0.19586 0.48803,-0.736142 0.713705,-1.200529 0.481852,-0.991433 0.628771,-1.261971 0.995349,-1.832886 0.150058,-0.233587 0.398879,-0.805234 0.553317,-1.270742 0.154308,-0.465509 0.508463,-1.168615 0.786674,-1.562508 0.278216,-0.39389 0.599086,-1.031046 0.712986,-1.415932 0.11377,-0.384854 0.29293,-0.820913 0.39731,-0.96896 0.10462,-0.148031 0.18831,-0.378178 0.18668,-0.511379 -0.002,-0.133385 0.0585,-0.24431 0.13469,-0.246827 0.0762,-0.0025 0.13534,-0.0882 0.13207,-0.190465 -0.003,-0.102262 0.11574,-0.303744 0.26416,-0.447342 0.21021,-0.203182 0.24781,-0.363057 0.16869,-0.719969 -0.0722,-0.325549 -0.0327,-0.571405 0.13665,-0.846746 0.40355,-0.65685 0.4558,-2.736307 0.0755,-2.995806 -0.1275,-0.08673 -0.32005,-0.433372 -0.4283,-0.769991 -0.10821,-0.336593 -0.30469,-0.733072 -0.43657,-0.88105 -0.13175,-0.147998 -0.33062,-0.48416 -0.44141,-0.747074 -0.11083,-0.262912 -0.37881,-0.723137 -0.5954,-1.022726 -0.21675,-0.299592 -0.580709,-1.035355 -0.809097,-1.635039 -0.228519,-0.599678 -0.504311,-1.21031 -0.613111,-1.356952 -0.108866,-0.146657 -0.202039,-0.394517 -0.207269,-0.550825 -0.0065,-0.156302 -0.202692,-0.482512 -0.439286,-0.724876 -0.236693,-0.242381 -0.433925,-0.562468 -0.438829,-0.711329 -0.0033,-0.14888 -0.179807,-0.5725 -0.388253,-0.941436 -0.208904,-0.368923 -0.538475,-1.082209 -0.732961,-1.585065 -0.194519,-0.502857 -0.414833,-0.950316 -0.489632,-0.994356 -0.07454,-0.04404 -0.229173,-0.441581 -0.342746,-0.88343 -0.113769,-0.441852 -0.38201,-1.02929 -0.596275,-1.305419 -0.214134,-0.276119 -0.43703,-0.636394 -0.49519,-0.800585 -0.05819,-0.16418 -0.162153,-0.296682 -0.231134,-0.294394 -0.153654,0.0049 -0.624978,-0.808496 -0.47479,-0.819608 0.05917,-0.0042 -0.0098,-0.09144 -0.155288,-0.193375 -0.1445,-0.102 -0.222962,-0.254346 -0.17425,-0.338561 0.04838,-0.08422 -0.04806,-0.357363 -0.213808,-0.607024 -0.165749,-0.249638 -0.305999,-0.586637 -0.31123,-0.74883 -0.0065,-0.162186 -0.05754,-0.293315 -0.115731,-0.291386 -0.05819,0.0019 -0.230153,-0.312669 -0.381747,-0.699033 C 92.5128,42.860445 92.26532,42.420364 92.114576,42.268872 91.963864,42.117376 91.718443,41.744658 91.569301,41.4406 c -0.652734,-1.330475 -0.767647,-1.596122 -0.773989,-1.789105 -0.0033,-0.112559 -0.06931,-0.310805 -0.146462,-0.440522 -0.07683,-0.129723 -0.250423,-0.465874 -0.386553,-0.746995 -0.136,-0.281121 -0.302077,-0.50933 -0.369554,-0.507107 -0.06735,0.0022 -0.125865,-0.09255 -0.129461,-0.210636 -0.0065,-0.240942 -0.564923,-1.237795 -0.859382,-1.53809 -0.108538,-0.110794 -0.175558,-0.393033 -0.154308,-0.649631 0.01962,-0.249573 -0.0033,-0.425951 -0.05525,-0.391974 -0.139596,0.09265 -0.276249,-0.314794 -0.189615,-0.564828 0.05035,-0.145906 -0.02288,-0.240779 -0.221326,-0.285796 -0.163462,-0.03704 -0.300116,-0.152542 -0.303385,-0.256601 -0.0033,-0.104093 -0.202692,-0.486615 -0.443372,-0.850023 -0.240616,-0.363407 -0.438502,-0.701226 -0.440137,-0.750702 -0.0033,-0.117922 -0.497707,-1.144789 -1.122881,-2.334863 -0.275269,-0.524054 -0.549459,-1.138159 -0.609286,-1.364667 -0.05983,-0.226525 -0.254346,-0.593983 -0.432682,-0.816595 -0.178173,-0.222601 -0.42791,-0.635005 -0.555017,-0.916423 -0.127173,-0.281415 -0.296519,-0.509512 -0.376485,-0.506881 -0.0801,0.0026 -0.148096,-0.08193 -0.151692,-0.187882 -0.0033,-0.105956 -0.105269,-0.22695 -0.225903,-0.268829 -0.145808,-0.05061 -0.193539,-0.170098 -0.140904,-0.356355 0.04544,-0.160977 0.01635,-0.278212 -0.06865,-0.275368 -0.0814,0.0027 -0.150384,-0.07895 -0.153654,-0.181376 -0.0065,-0.177487 -0.296845,-0.819811 -0.620303,-1.369006 -0.08271,-0.140478 -0.185038,-0.417516 -0.227865,-0.615621 -0.0425,-0.198148 -0.203346,-0.485961 -0.357425,-0.639661 -0.297499,-0.297009 -0.304038,-0.575619 -0.02942,-1.198933 0.136327,-0.308419 0.265135,-0.389529 0.63763,-0.401785 0.256962,-0.0085 0.612817,-0.118085 0.791284,-0.24359 0.391785,-0.275531 0.829175,-0.118118 0.994303,0.357767 0.05885,0.16951 0.228846,0.469586 0.377498,0.666841 0.14875,0.197265 0.275596,0.512595 0.281807,0.700753 0.0065,0.188144 0.117039,0.424136 0.2465,0.524397 0.129135,0.1003 0.329309,0.366144 0.444746,0.590821 0.115404,0.224694 0.331238,0.622608 0.479628,0.884287 0.14875,0.261669 0.359158,0.722078 0.46799,1.023138 0.108866,0.30103 0.302404,0.637407 0.429544,0.747459 0.127173,0.110043 0.272981,0.32336 0.323981,0.473989 0.225576,0.66943 0.513791,1.284709 0.699974,1.494623 0.173596,0.195794 0.174577,0.247807 0.0098,0.371041 -0.143846,0.106217 -0.114096,0.118051 0.114423,0.0456 0.269711,-0.08552 0.310249,-0.04662 0.322018,0.309564 0.0065,0.22404 0.10952,0.481763 0.226558,0.572719 0.117038,0.09095 0.216096,0.255261 0.219692,0.365143 0.0033,0.109879 0.168692,0.398673 0.367298,0.64177 0.198442,0.243099 0.365009,0.572497 0.370273,0.731999 0.0065,0.159506 0.07388,0.326985 0.152999,0.372163 0.164116,0.09409 0.632171,0.996715 0.655382,1.263801 0.0098,0.09808 0.07846,0.220444 0.155943,0.271837 0.07715,0.05139 0.264807,0.338593 0.416663,0.638228 0.152019,0.299625 0.371613,0.713019 0.488095,0.918624 0.116385,0.205601 0.1615,0.377465 0.100366,0.381904 -0.06146,0.0046 -0.01308,0.08075 0.104942,0.16964 0.21773,0.162644 1.02621,1.797742 1.035201,2.093928 0.0026,0.08748 0.222961,0.461183 0.489567,0.830495 0.52409,0.726049 0.692128,1.036793 0.786609,1.454819 0.03433,0.1479 0.112461,0.301096 0.17523,0.340418 0.06277,0.0393 0.462171,0.71432 0.887367,1.5 0.425228,0.785684 0.832508,1.485756 0.905118,1.555718 0.07258,0.06996 0.136654,0.270365 0.142538,0.445344 0.0065,0.174969 0.0729,0.316102 0.14875,0.313617 0.07617,-0.0025 0.144827,0.135444 0.153,0.306523 0.0065,0.171111 0.115731,0.432381 0.238654,0.580654 0.20923,0.251796 0.218057,0.224105 0.132076,-0.419763 -0.116384,-0.872821 -0.346538,-1.803547 -0.746887,-3.021806 -0.377236,-1.147861 -0.789453,-3.290392 -0.829076,-4.309074 -0.01635,-0.404328 -0.09187,-0.844297 -0.16902,-0.977724 -0.07715,-0.133418 -0.194845,-0.63953 -0.261538,-1.124687 -0.06669,-0.48516 -0.184384,-0.99394 -0.261538,-1.130629 -0.07748,-0.136687 -0.109192,-0.338696 -0.07127,-0.448891 0.03825,-0.110206 -0.0023,-0.368831 -0.08729,-0.574816 -0.278212,-0.664523 -0.469167,-1.723693 -0.501762,-2.786343 -0.01635,-0.570621 -0.135673,-1.470263 -0.262845,-1.999205 -0.126846,-0.528934 -0.275269,-1.334122 -0.329081,-1.789307 -0.181442,-1.52377 -0.287365,-2.053065 -0.427942,-2.133697 -0.07683,-0.04404 -0.178173,-0.573498 -0.225577,-1.176576 -0.0461,-0.603116 -0.16248,-1.269398 -0.25598,-1.480718 -0.256634,-0.580082 -0.266442,-1.876736 -0.01635,-1.982881 0.112461,-0.04753 0.202365,-0.158002 0.19975,-0.245454 -0.0065,-0.155419 0.885503,-0.532701 1.288827,-0.545974 0.111808,-0.0036 0.364094,0.06035 0.560738,0.142244 0.308288,0.128383 0.360531,0.237313 0.378708,0.789274 0.01308,0.352193 0.125865,0.994839 0.254019,1.428106 0.128153,0.433264 0.287692,1.235592 0.354384,1.782949 0.06669,0.54736 0.184711,1.070211 0.261865,1.161896 0.07715,0.0917 0.105596,0.267717 0.06277,0.391222 -0.04283,0.123479 0.01635,0.387175 0.131423,0.585944 0.304692,0.526502 0.434644,0.881491 0.404305,1.104946 -0.04511,0.33238 0.353077,1.991019 0.547433,2.281359 0.100692,0.150613 0.228192,0.520304 0.282788,0.821524 0.0546,0.301227 0.162154,0.894503 0.23898,1.318401 0.07683,0.423895 0.257615,0.938435 0.401756,1.143423 0.283442,0.402938 0.575645,1.648593 0.646326,2.754824 0.02615,0.379956 0.09546,0.767105 0.158885,0.860222 0.06277,0.09311 0.08533,0.170294 0.04969,0.171471 -0.03563,0.0012 0.03694,0.325942 0.16248,0.721633 0.439254,1.389811 0.691736,2.369105 0.696444,2.700971 0.0028,0.184286 0.107558,0.481004 0.232769,0.659351 0.186019,0.264513 0.197129,0.364303 0.0595,0.541655 -0.138942,0.179088 -0.126192,0.239242 0.07127,0.341455 0.139599,0.07225 0.245519,0.291157 0.253039,0.523982 0.007,0.219953 0.0804,0.438481 0.16248,0.485607 0.0821,0.04711 0.11867,0.252614 0.0804,0.456643 -0.0435,0.235646 0.0454,0.587509 0.24258,0.964628 0.20335,0.388276 0.26579,0.642187 0.18013,0.733879 -0.15332,0.163527 0.40993,1.797095 0.58033,1.683865 0.2514,-0.167057 0.47828,-7.442279 0.37831,-12.131241 -0.10265,-4.82266 -0.0772,-8.621303 0.0601,-8.899338 0.0857,-0.173465 0.0804,-0.396564 -0.0131,-0.642436 -0.0801,-0.207171 -0.10004,-0.466927 -0.0451,-0.577205 0.0553,-0.110271 0.11377,-0.977378 0.13012,-1.926879 0.0164,-0.949485 0.0742,-1.766537 0.12913,-1.815657 0.0546,-0.04914 0.36161,-0.173269 0.68189,-0.275858 0.32039,-0.102588 0.58055,-0.242086 0.57833,-0.309988 -0.007,-0.243394 0.53252,-0.306653 1.02441,-0.119915 0.4219,0.160192 0.50686,0.26229 0.53763,0.646156 0.0556,0.692298 0.01,1.127916 -0.13895,1.319408 -0.0739,0.0952 -0.0902,0.239406 -0.0363,0.320482 0.0539,0.08104 0.0369,0.226656 -0.0386,0.323523 -0.0752,0.0969 -0.0837,0.25585 -0.0164,0.353136 0.0647,0.09736 0.11116,0.592237 0.10298,1.099745 -0.01,0.507554 -0.0196,1.91989 -0.0262,3.138622 -0.007,1.218732 -0.0262,2.434489 -0.0448,2.701687 -0.0196,0.267226 -0.0164,2.198813 0.003,4.292499 0.0229,2.093688 0.0294,4.461293 0.0196,5.261351 -0.0262,1.848941 0.0163,6.838855 0.0876,9.93229 0.0294,1.312653 0.007,2.388282 -0.0494,2.390266 -0.0572,0.002 -0.1007,0.097 -0.0971,0.211094 0.003,0.114129 0.0654,0.205569 0.13698,0.203215 0.19844,-0.0065 0.335,-0.311819 0.34598,-0.772986 0.0163,-0.625864 0.24552,-1.72557 0.45946,-2.192605 0.10461,-0.228062 0.25075,-0.800657 0.32463,-1.272459 0.0742,-0.471802 0.18831,-0.971529 0.25337,-1.110498 0.15692,-0.334268 0.58457,-2.194374 0.57816,-2.514971 -0.003,-0.138648 0.0837,-0.346796 0.19223,-0.462592 0.10854,-0.115796 0.2586,-0.474578 0.3335,-0.7973 0.0752,-0.322738 0.18503,-0.650674 0.24421,-0.728786 0.0592,-0.0781 0.1409,-0.392356 0.18111,-0.698323 0.0402,-0.305967 0.12129,-0.682513 0.18046,-0.836772 0.0588,-0.154275 0.16772,-0.765388 0.24193,-1.358063 0.0739,-0.592678 0.18798,-1.079349 0.25336,-1.0815 0.0654,-0.0021 0.11377,-0.151725 0.10789,-0.332415 -0.0196,-0.58665 0.12946,-1.196181 0.272,-1.114457 0.086,0.04927 0.0974,-0.03789 0.0294,-0.228225 -0.0598,-0.169411 -0.0503,-0.348869 0.0196,-0.398829 0.0716,-0.04999 0.21349,-0.498623 0.31581,-0.99703 0.18635,-0.908887 0.52609,-2.096228 0.72812,-2.545391 0.0595,-0.132109 0.19093,-0.720119 0.29195,-1.30669 0.10102,-0.586572 0.2308,-1.169792 0.28802,-1.296047 0.0572,-0.126257 0.23015,-0.701027 0.38439,-1.277303 0.28704,-1.072536 0.44762,-1.576154 0.62988,-1.97361 0.0569,-0.123936 0.13666,-0.514034 0.17818,-0.866855 0.0412,-0.352809 0.15561,-0.713009 0.25402,-0.800432 0.0984,-0.08745 0.1458,-0.238032 0.10526,-0.334641 -0.0409,-0.09664 0.0592,-0.796377 0.22199,-1.554995 0.1628,-0.758618 0.32659,-1.698145 0.36422,-2.08784 0.0376,-0.389692 0.18242,-0.892967 0.32235,-1.118383 0.13959,-0.225413 0.37769,-0.616436 0.52879,-0.868928 0.22133,-0.369989 0.36606,-0.462086 0.74526,-0.474568 0.25892,-0.0085 0.4726,0.05041 0.47528,0.130998 0.003,0.08059 0.0575,0.111383 0.12227,0.06846 0.0647,-0.04292 0.221,0.02942 0.34794,0.160453 0.19092,0.197658 0.20825,0.332805 0.0994,0.789686 -0.0723,0.303188 -0.18013,0.615893 -0.24028,0.694946 -0.18995,0.250684 -0.60837,1.656181 -0.68628,2.305701 -0.0412,0.344077 -0.15431,0.837498 -0.25108,1.096486 -0.0968,0.258988 -0.19288,0.814584 -0.2138,1.234653 -0.0196,0.42007 -0.12489,0.868481 -0.23081,0.996458 -0.10592,0.12799 -0.28279,0.609528 -0.39224,1.070087 -0.10952,0.460562 -0.24847,1.025955 -0.30862,1.25641 -0.0602,0.230447 -0.25206,1.109147 -0.42663,1.95265 -0.17425,0.843497 -0.38018,1.691489 -0.45701,1.884416 -0.0768,0.192917 -0.15888,0.538268 -0.18275,0.767432 -0.0261,0.229205 -0.0964,0.485454 -0.16183,0.569541 -0.0654,0.08409 -0.19844,0.606746 -0.29651,1.161469 -0.0978,0.554722 -0.23604,1.126916 -0.30764,1.271559 -0.0716,0.144631 -0.12456,0.422679 -0.11802,0.617871 0.007,0.195206 -0.0435,0.356722 -0.11082,0.358935 -0.0674,0.0022 -0.15693,0.298448 -0.19877,0.658246 -0.0821,0.702319 -0.59392,2.858705 -0.78864,3.320712 -0.0651,0.154471 -0.2246,0.782833 -0.35389,1.396369 -0.12946,0.613545 -0.29783,1.292992 -0.37371,1.509892 -0.0758,0.216914 -0.1324,0.564596 -0.12554,0.772656 0.007,0.208087 -0.0389,0.439185 -0.10167,0.513599 -0.0628,0.07441 -0.20727,0.605719 -0.32136,1.180665 -0.1141,0.574956 -0.31974,1.422935 -0.45668,1.884406 -0.13698,0.461465 -0.26514,0.933025 -0.2841,1.047892 -0.0922,0.552493 -0.43922,2.053239 -0.53272,2.302328 -0.19779,0.527352 -0.37099,1.258329 -0.48725,2.058989 -0.0641,0.440293 -0.17653,0.922824 -0.25009,1.072293 -0.0739,0.149469 -0.13012,0.393233 -0.12521,0.541692 0.003,0.148488 -0.0785,0.451277 -0.18471,0.672921 -0.10658,0.221654 -0.18929,0.552716 -0.18341,0.735691 0.01,0.32179 0.0164,0.324405 0.27331,0.0781 0.14483,-0.140021 0.44242,-0.672578 0.66133,-1.183467 0.21904,-0.510895 0.47773,-1.025956 0.57525,-1.144593 0.0974,-0.11864 0.21185,-0.409392 0.2537,-0.646117 0.0422,-0.236725 0.26644,-0.742611 0.4979,-1.124166 0.23179,-0.381562 0.70834,-1.295164 1.0592,-2.030227 0.81361,-1.704444 0.85333,-1.78185 1.2815,-2.49731 0.19648,-0.32863 0.35344,-0.723252 0.34837,-0.876915 -0.007,-0.153654 0.0431,-0.281121 0.10723,-0.283246 0.0641,-0.0021 0.19419,-0.269515 0.28966,-0.594208 0.21773,-0.740755 0.92555,-2.195208 1.25175,-2.572147 0.136,-0.156792 0.32692,-0.505795 0.42464,-0.775575 0.0977,-0.269777 0.30469,-0.712774 0.45959,-0.98443 0.24617,-0.431482 0.46737,-1.113175 0.43265,-1.332733 -0.007,-0.04018 0.13273,-0.372205 0.30927,-0.737777 0.36965,-0.766068 0.60049,-1.360319 0.9112,-2.345772 0.40672,-1.290139 1.65082,-3.626852 2.30022,-4.320435 0.136,-0.145055 0.24422,-0.352874 0.24062,-0.461801 -0.007,-0.231625 0.78772,-1.952546 0.93565,-2.024473 0.0553,-0.02713 0.21871,-0.312701 0.36302,-0.635073 0.3824,-0.854181 0.57698,-1.191526 0.89733,-1.555842 0.15693,-0.178598 0.28312,-0.399728 0.28018,-0.491434 -0.003,-0.148978 0.27265,-0.708588 0.74747,-1.506751 0.0909,-0.152411 0.19812,-0.371685 0.23866,-0.487265 0.566,-1.607496 0.97763,-2.38874 1.30838,-2.483426 0.43784,-0.125342 1.61758,0.01962 1.75161,0.215344 0.0589,0.08578 0.1177,0.451768 0.13077,0.813256 0.0196,0.579615 -0.0346,0.716079 -0.47041,1.155077 -0.27167,0.273798 -0.45206,0.53719 -0.40064,0.585316 0.0513,0.04812 -0.0262,0.247219 -0.16738,0.442398 -0.14352,0.195206 -0.25795,0.439872 -0.25468,0.543725 0.003,0.103831 -0.0487,0.190629 -0.11605,0.192852 -0.0674,0.0022 -0.25206,0.366588 -0.4101,0.809716 -0.3756,1.051318 -1.11703,2.41577 -1.52728,2.810731 -0.19615,0.188929 -0.30862,0.439983 -0.28344,0.632452 0.0461,0.349909 -0.0163,0.589739 -0.38819,1.456265 -0.13567,0.317442 -0.24552,0.610453 -0.24421,0.651132 0.001,0.04067 -0.17785,0.280042 -0.39793,0.531844 -0.22035,0.251861 -0.39568,0.599292 -0.38999,0.772123 0.007,0.172811 -0.0808,0.394805 -0.19158,0.493264 -0.11082,0.09847 -0.19811,0.292367 -0.19353,0.430891 0.003,0.13855 -0.0987,0.336816 -0.22983,0.440646 -0.1311,0.103798 -0.3109,0.34695 -0.39911,0.54026 -0.0886,0.193309 -0.27396,0.542133 -0.41228,0.775166 -0.13829,0.233031 -0.25206,0.543428 -0.25271,0.689775 -0.002,0.146363 -0.0824,0.367131 -0.18177,0.490636 -0.0991,0.123511 -0.34915,0.572821 -0.55561,0.998497 -0.20661,0.42567 -0.4214,0.796233 -0.47763,0.823473 -0.0562,0.02746 -0.0991,0.135574 -0.0958,0.240778 0.0131,0.366186 -0.43088,1.192997 -0.60647,1.132157 -0.1007,-0.03478 -0.14352,0.01406 -0.10102,0.115403 0.0409,0.0968 -0.0164,0.258989 -0.13371,0.360485 -0.11443,0.101477 -0.20204,0.355944 -0.19518,0.565547 0.007,0.209623 -0.0785,0.461657 -0.18928,0.56012 -0.11083,0.09844 -0.1991,0.264775 -0.1955,0.36957 0.003,0.104779 -0.10266,0.195075 -0.23572,0.200665 -0.15659,0.0065 -0.18438,0.04423 -0.0788,0.106577 0.11344,0.06692 0.01,0.381823 -0.34233,1.028381 -0.27821,0.512547 -0.57466,1.238848 -0.65914,1.614008 -0.0843,0.375157 -0.26055,0.767056 -0.39136,0.870873 -0.13077,0.103798 -0.23505,0.270987 -0.23178,0.371473 0.003,0.100463 -0.0847,0.263107 -0.1955,0.361433 -0.22329,0.198246 -2.01418,4.054359 -2.00489,4.317414 0.003,0.09131 -0.0736,0.218482 -0.17033,0.282559 -0.27527,0.182096 -0.70432,0.914089 -0.86759,1.48045 -0.0817,0.283377 -0.19255,0.536271 -0.24649,0.562 -0.12064,0.0578 -1.0014,1.896989 -1.11972,2.33874 -0.0474,0.177421 -0.31776,0.697356 -0.60091,1.155443 -0.28279,0.458088 -0.51252,0.894866 -0.51003,0.970614 0.003,0.121714 -0.13306,0.417079 -0.85543,1.842351 -0.0981,0.193636 -0.17556,0.453373 -0.17164,0.577192 0.003,0.123838 -0.0889,0.309759 -0.20563,0.413318 -0.26938,0.239144 -0.12717,0.972635 0.31875,1.641757 0.3824,0.573972 0.84585,1.495989 0.75349,1.49903 -0.0369,0.0012 0.10004,0.279322 0.30404,0.618028 0.20367,0.338708 0.37361,0.698588 0.37694,0.799751 0.003,0.10128 0.13567,0.338103 0.29456,0.526525 0.15856,0.188406 0.29031,0.404583 0.29292,0.480387 0.002,0.07581 0.2295,0.50694 0.50454,0.958152 0.27494,0.451215 0.54927,0.962241 0.60942,1.135651 0.0605,0.173334 0.22133,0.467366 0.35827,0.653267 0.13698,0.185856 0.28933,0.461275 0.33909,0.611967 0.24584,0.746783 0.54629,1.362284 0.6849,1.403482 0.085,0.02648 0.15856,0.161598 0.16314,0.302764 0.003,0.141492 0.0647,0.289326 0.13371,0.32891 0.069,0.03959 0.17327,0.239275 0.23179,0.443539 0.0585,0.204491 0.37821,0.895419 0.7105,1.535736 0.33215,0.640292 0.71056,1.378761 0.84065,1.641064 0.13011,0.262323 0.28376,0.49606 0.34192,0.519533 0.0582,0.02419 0.10756,0.105727 0.10985,0.182815 0.003,0.07712 0.13927,0.316625 0.30371,0.532368 0.16804,0.220477 0.23016,0.394592 0.14156,0.397509 -0.087,0.0029 -0.0229,0.164997 0.1409,0.360203 0.16412,0.195434 0.30143,0.440009 0.30469,0.543882 0.003,0.103896 0.0683,0.186803 0.1445,0.184319 0.0762,-0.0025 0.1432,0.141492 0.14908,0.319894 0.007,0.178402 0.13142,0.42669 0.27919,0.551754 0.14777,0.124982 0.3096,0.402314 0.35965,0.616063 0.0503,0.213579 0.19092,0.481914 0.31254,0.595902 0.12194,0.114063 0.22623,0.289228 0.23179,0.389832 0.007,0.100562 0.10559,0.30041 0.22231,0.444475 0.11671,0.144009 0.21838,0.389914 0.22557,0.546448 0.007,0.156432 0.10919,0.402471 0.22558,0.546451 0.1664,0.205504 0.17556,0.286646 0.0418,0.377305 -0.11573,0.07905 -0.0814,0.113246 0.10952,0.108604 0.20793,-0.0052 0.34543,0.162644 0.541,0.660629 0.14417,0.367232 0.26546,0.768291 0.26938,0.891214 0.003,0.122858 0.0696,0.221425 0.14613,0.21894 0.0765,-0.0025 0.28508,0.302339 0.46368,0.67711 0.1785,0.374902 0.37534,0.679986 0.43716,0.677953 0.0618,-0.002 0.11737,0.148226 0.12358,0.333961 0.007,0.185594 0.0745,0.374072 0.15202,0.418585 0.0778,0.04456 0.1458,0.228421 0.15169,0.408687 0.007,0.180363 0.0955,0.407336 0.19877,0.504549 0.1033,0.09736 0.47296,0.728227 0.82126,1.402202 0.34827,0.673974 1.05792,2.021494 1.57694,2.994507 0.51899,0.972985 0.98878,1.966135 1.04397,2.206965 0.0549,0.24091 0.17719,0.46453 0.27134,0.49712 0.0942,0.0327 0.29489,0.41228 0.44645,0.84378 0.15169,0.43149 0.37933,0.88422 0.50624,1.00605 0.26742,0.25647 0.89367,1.42811 0.90221,1.68754 0.01,0.2516 0.35674,0.90987 0.47989,0.90712 0.0572,-10e-4 0.10625,0.0639 0.10886,0.14493 0.003,0.081 0.17164,0.482251 0.37554,0.891811 0.204,0.40952 0.37341,0.82776 0.37678,0.92935 0.003,0.10161 0.13567,0.33889 0.29423,0.52731 0.15856,0.18844 0.29063,0.41059 0.29325,0.49369 0.003,0.083 0.067,0.14891 0.14319,0.14639 0.0762,-0.002 0.14123,0.0837 0.14483,0.19184 0.007,0.23068 0.47364,1.08268 0.62618,1.14456 0.0582,0.0242 0.1092,0.1544 0.11345,0.29099 0.003,0.13659 0.10428,0.32271 0.22132,0.41353 0.11704,0.091 0.21643,0.26994 0.22068,0.39742 0.003,0.12776 0.0745,0.29489 0.15659,0.37131 0.0817,0.0765 0.30339,0.53352 0.49264,1.0154 0.39695,1.01128 1.06152,2.24642 1.27431,2.36849 0.0804,0.0461 0.11247,0.14283 0.071,0.21518 -0.0415,0.0723 -0.01,0.12916 0.0713,0.12655 0.0807,-0.003 0.15136,0.14711 0.15757,0.33281 0.007,0.18559 0.0693,0.37119 0.14123,0.41221 0.0716,0.0412 0.25043,0.36592 0.39748,0.72207 0.14711,0.35611 0.31025,0.67726 0.36196,0.71363 0.14549,0.10151 0.72263,1.19047 0.72868,1.37424 0.003,0.0895 0.49385,1.08841 1.09091,2.21976 1.40888,2.6696 1.7222,3.31477 1.73037,3.56264 0.003,0.11207 0.0703,0.20177 0.1481,0.19922 0.0778,-0.003 0.2174,0.16425 0.31057,0.37059 0.44893,0.99535 0.75261,1.621 0.87658,1.80592 0.0749,0.11168 0.17687,0.29544 0.22623,0.40798 0.0494,0.11252 0.18308,0.39804 0.29685,0.63428 0.11377,0.23634 0.20923,0.49793 0.21217,0.58151 0.003,0.0837 0.0572,0.15022 0.12129,0.14809 0.0641,-0.002 0.20792,0.25811 0.32071,0.57797 0.11213,0.32012 0.28998,0.67734 0.3945,0.79413 0.10461,0.11694 0.19321,0.30865 0.19713,0.42659 0.003,0.11796 0.10298,0.28871 0.22035,0.37962 0.11704,0.091 0.21577,0.24934 0.21936,0.35233 0.003,0.10291 0.24716,0.63242 0.54158,1.17684 0.29456,0.54444 0.70416,1.32706 0.91042,1.73915 0.20629,0.41206 0.43072,0.84086 0.49885,0.95288 0.068,0.1119 0.19746,0.35697 0.28737,0.54441 0.0899,0.18743 0.23374,0.46314 0.31973,0.61261 0.69091,1.20273 1.43819,2.68404 1.59839,3.16853 0.10592,0.32101 0.27853,0.65018 0.38318,0.73132 0.10462,0.0813 0.19387,0.26739 0.19877,0.41384 0.003,0.1464 0.16902,0.40541 0.36511,0.57543 0.19583,0.17019 0.36007,0.42152 0.36462,0.55898 0.003,0.13757 0.10886,0.35375 0.23146,0.48071 0.12259,0.12714 0.2465,0.39857 0.27527,0.60353 0.0294,0.20512 0.11148,0.41156 0.18405,0.45902 0.2416,0.15853 1.82257,3.29066 1.83384,3.63339 0.003,0.0964 0.10037,0.20766 0.21577,0.24803 0.11541,0.04 0.21316,0.16896 0.21708,0.28658 0.007,0.19508 0.13567,0.47644 0.47159,1.02551 0.0683,0.11191 0.1628,0.2959 0.20955,0.40851 0.0471,0.11263 0.16183,0.32701 0.25533,0.47623 0.59578,0.94942 1.53801,2.86495 1.42996,2.90701 -0.0713,0.0284 -0.1275,0.11115 -0.12521,0.18533 0.002,0.0742 0.0582,0.0992 0.1239,0.0554 0.0657,-0.0437 0.27396,0.1323 0.46293,0.39108 0.18863,0.25873 0.39021,0.46927 0.44726,0.46792 0.0572,-0.002 0.10821,0.12956 0.11377,0.29063 0.007,0.1614 0.31286,0.87143 0.6835,1.57814 0.37059,0.70667 0.79605,1.54594 0.94539,1.86498 0.1494,0.31891 0.36547,0.66798 0.48025,0.77542 0.25108,0.23509 0.88606,1.72432 0.88903,2.08544 0.001,0.14191 0.12391,0.28475 0.27396,0.31875 0.14941,0.0337 0.27364,0.12151 0.27593,0.19471 0.003,0.13626 0.95124,2.06017 1.19389,2.42622 0.11965,0.18089 0.24584,0.42221 0.74489,1.42945 0.0742,0.14999 0.19583,0.36396 0.26971,0.47578 0.67376,1.01613 1.00614,1.64219 1.10258,2.07697 0.0624,0.28253 0.1736,0.51199 0.24617,0.5096 0.0726,-0.002 0.12358,0.0427 0.11312,0.1 -0.0261,0.13197 0.28246,0.85801 0.47508,1.12676 0.0801,0.11151 0.45541,0.78467 0.83415,1.49575 0.3787,0.71105 0.74107,1.31184 0.80521,1.33512 0.0644,0.0242 0.11932,0.1305 0.12292,0.23832 0.003,0.10782 0.0686,0.194 0.14483,0.19151 0.0762,-0.002 0.1409,0.0811 0.1445,0.1853 0.01,0.24964 0.57479,1.42033 0.73064,1.50969 0.0667,0.0384 0.16869,0.2401 0.22655,0.44832 0.12391,0.44611 0.71603,1.64494 1.66103,3.36297 0.20237,0.36819 0.34327,0.7795 0.31254,0.91406 -0.033,0.14466 0.007,0.2179 0.0997,0.17922 0.18341,-0.0773 1.10497,1.44265 1.11821,1.84412 0.007,0.15225 0.0716,0.27504 0.14744,0.27252 0.0762,-0.002 0.14058,0.0674 0.14352,0.15523 0.003,0.0879 0.15169,0.34784 0.33039,0.57764 0.40516,0.52026 0.72665,1.13533 1.14521,2.19094 0.17883,0.45107 0.45132,1.01027 0.60546,1.24264 0.15431,0.23241 0.28312,0.5145 0.28704,0.62686 0.003,0.1124 0.13567,0.31316 0.2926,0.44661 0.15757,0.13319 0.36553,0.47878 0.46259,0.76782 0.0971,0.2889 0.21806,0.52416 0.26939,0.52247 0.0909,-0.003 0.53317,0.85555 0.89433,1.73609 0.10036,0.24431 0.23669,0.44227 0.30371,0.44006 0.067,-0.002 0.12455,0.0872 0.12815,0.1989 0.01,0.33741 0.48613,1.20037 0.98842,1.79561 0.26317,0.31189 0.4792,0.72326 0.48584,0.92501 0.007,0.20857 0.17294,0.51428 0.39018,0.71749 0.31287,0.29293 0.39489,0.51314 0.47443,1.27288 0.083,0.79494 0.0579,0.96553 -0.18667,1.26646 -0.24062,0.29554 -0.41241,0.35413 -1.14665,0.39012 -0.47518,0.0229 -1.17686,-0.001 -1.55946,-0.0556 z m 0.45906,-2.22131 c 0.0621,-0.0608 0.0131,-0.25434 -0.10788,-0.42971 -0.12162,-0.17554 -0.34016,-0.59555 -0.48564,-0.93346 -0.14549,-0.33797 -0.4492,-0.90709 -0.67484,-1.26478 -0.22558,-0.35767 -0.41408,-0.76843 -0.41882,-0.91272 -0.003,-0.14444 -0.0745,-0.30045 -0.15529,-0.34662 -0.3024,-0.17356 -0.83061,-1.1065 -0.94477,-1.66902 -0.0651,-0.32038 -0.20891,-0.66764 -0.31941,-0.77127 -0.11082,-0.10365 -0.20367,-0.26118 -0.20661,-0.34981 -0.003,-0.0889 -0.20335,-0.49548 -0.44517,-0.90385 -0.24192,-0.40834 -0.44279,-0.83104 -0.44635,-0.93936 -0.007,-0.19867 -0.76706,-1.44337 -1.12246,-1.8372 -0.10559,-0.11691 -0.15169,-0.25572 -0.10232,-0.30803 0.0494,-0.0526 0.0196,-0.0932 -0.0621,-0.0905 -0.0837,0.003 -0.17621,-0.13452 -0.20629,-0.30459 -0.0458,-0.26147 -0.16542,-0.3197 -0.76951,-0.37324 -0.39325,-0.0348 -0.80089,-0.11332 -0.9058,-0.17396 -0.10494,-0.0606 -0.59562,-0.10664 -1.09052,-0.1018 -0.49489,0.003 -1.36882,-0.0439 -1.94215,-0.10815 -0.57332,-0.0642 -1.6983,-0.16653 -2.50001,-0.22747 -0.80165,-0.0606 -1.82093,-0.18769 -2.26502,-0.28174 -0.44739,-0.0948 -1.01545,-0.12489 -1.27405,-0.0676 -0.25663,0.0568 -0.67516,0.0451 -0.93,-0.0265 -0.255,-0.0714 -1.39834,-0.14041 -2.54117,-0.15286 -2.30444,-0.0252 -2.46519,-0.0333 -3.95321,-0.20548 -0.57339,-0.0662 -1.54128,-0.12884 -2.15089,-0.13887 -0.60962,-0.009 -1.70085,-0.0336 -2.42499,-0.0523 -0.72413,-0.0186 -2.42351,-0.0203 -3.77641,-0.004 -2.12739,0.0255 -2.4753,0.0586 -2.57426,0.25088 -0.0634,0.12247 -0.0579,0.35632 0.01,0.52318 0.0696,0.16584 0.1785,0.69535 0.24258,1.17631 0.0641,0.48102 0.17882,0.99714 0.25467,1.14694 0.30437,0.59993 0.70445,2.25562 0.55924,2.31444 -0.0991,0.0402 -0.0876,0.15074 0.0376,0.34614 0.10037,0.15797 0.18962,0.50219 0.19812,0.76499 0.01,0.26272 0.0791,0.51429 0.15659,0.5588 0.0778,0.0445 0.14679,0.25879 0.15398,0.47626 0.007,0.21727 0.14712,0.68168 0.31091,1.03161 0.16411,0.34996 0.30796,0.8956 0.32005,1.21259 0.0131,0.31689 0.14941,0.83436 0.30535,1.14972 0.15594,0.31545 0.33653,0.863 0.40169,1.21689 0.187,1.01784 0.34647,1.09529 2.32514,1.12955 0.94575,0.0163 2.23726,-0.01 2.87009,-0.0549 0.76506,-0.0579 1.17234,-0.0327 1.21556,0.069 0.0454,0.10756 1.09284,0.12521 3.48742,0.0589 1.88232,-0.0523 3.54708,-0.0938 3.69946,-0.0922 0.15234,10e-4 0.46357,-0.01 0.69157,-0.0229 0.45589,-0.0294 5.67946,-0.086 11.07376,-0.12358 1.90354,-0.0131 3.71142,0.0131 4.01752,0.0553 0.64652,0.0922 2.29826,-0.0494 2.46382,-0.21152 z m -33.70211,0.29292 c 0.14385,-0.0981 0.16379,-0.37717 0.0844,-1.19183 -0.0569,-0.58515 -0.16706,-1.10218 -0.24486,-1.14895 -0.0778,-0.0468 -0.2416,-0.79835 -0.36439,-1.67016 -0.1226,-0.87181 -0.35615,-2.01564 -0.51899,-2.54185 -0.16281,-0.52625 -0.30044,-1.09018 -0.306,-1.25323 -0.007,-0.16304 -0.13829,-0.56493 -0.29489,-0.89312 -0.15692,-0.32818 -0.33205,-0.92582 -0.38917,-1.32807 -0.0572,-0.40225 -0.16705,-0.84074 -0.24421,-0.97443 -0.0775,-0.13385 -0.17752,-0.54751 -0.22263,-0.91958 -0.14352,-1.18412 -0.10037,-1.15761 -1.84002,-1.12606 -2.71728,0.0492 -7.59376,0.27282 -8.66123,0.39792 -0.56904,0.0665 -1.18771,0.20164 -1.37484,0.30037 -0.24062,0.12698 -0.81976,0.17092 -1.97288,0.14967 -0.8979,-0.0167 -1.78856,0.0177 -1.97929,0.075 -0.1906,0.058 -0.67183,0.0483 -1.0693,-0.0216 -0.85114,-0.14992 -8.5999,0.0515 -8.76545,0.228 -0.0615,0.0655 -0.0948,0.62723 -0.0745,1.2487 l 0.0373,1.12992 0.76173,0.004 c 2.55918,0.0134 3.08464,0.15362 3.13718,0.83761 0.0454,0.58974 -0.34255,0.84371 -1.07191,0.70188 -0.62956,-0.12256 -2.59002,-0.0486 -2.82321,0.10599 -0.0706,0.0471 -0.11344,0.46324 -0.0941,0.92477 0.0464,1.11313 0.30371,1.29196 1.65913,1.15007 1.03788,-0.10874 1.13217,-0.084 1.38612,0.36201 0.14744,0.25879 0.12815,0.33148 -0.13535,0.51673 -0.30207,0.2121 -0.9416,0.37497 -1.89049,0.48107 -0.26579,0.0284 -0.59154,0.0666 -0.7243,0.0817 -0.13992,0.0177 -0.23767,0.13999 -0.23277,0.29616 0.003,0.1477 -0.0425,0.30267 -0.10527,0.3442 -0.0628,0.0416 -0.11835,0.34316 -0.12325,0.67 -0.007,0.32696 -0.0131,0.75014 -0.0164,0.9407 -0.0262,1.03213 0.10135,1.67139 0.38398,1.93594 0.26317,0.2465 0.39547,0.26317 1.19742,0.15071 0.54485,-0.0765 0.93807,-0.0742 0.99414,0.007 0.13436,0.19092 1.13664,0.29456 1.13079,0.11671 -0.003,-0.0899 0.1409,-0.11148 0.37887,-0.0575 0.21086,0.0481 1.81599,0.0598 3.56656,0.0262 4.47881,-0.085 12.54321,-0.0804 12.69611,0.007 0.0703,0.0402 1.54112,0.0262 3.26838,-0.0294 2.57331,-0.0847 3.89362,-0.0618 4.60052,0.0811 0.0382,0.01 0.15431,-0.0435 0.25762,-0.11377 z m -30.65146,-0.0131 c 0.18537,-0.119 0.28377,-0.35135 0.29979,-0.70799 0.0131,-0.29194 0.0987,-0.73093 0.19027,-0.9756 0.0919,-0.24486 0.1749,-0.88043 0.18438,-1.41284 l 0.0164,-0.96799 -1.11199,-0.12793 c -0.61158,-0.0705 -1.55992,-0.11776 -2.10731,-0.10563 -0.86524,0.0186 -1.02481,-0.017 -1.2208,-0.27808 -0.29881,-0.39783 -0.30371,-0.92324 -0.0131,-1.16074 0.29783,-0.24205 2.23354,-0.32669 3.18613,-0.13953 1.29889,0.25523 1.67927,-0.10498 1.44689,-1.3694 l -0.11083,-0.60265 -1.06612,0.0252 c -1.3447,0.0278 -2.82223,-0.19625 -3.05111,-0.46667 -0.22852,-0.26988 -0.238,-0.69854 -0.0229,-1.00308 0.15464,-0.21835 0.32983,-0.2346 1.7557,-0.16375 2.24583,0.11154 2.19274,0.11886 2.35303,-0.3231 0.14058,-0.388 0.18798,-1.85408 0.0729,-2.27144 -0.087,-0.31607 -0.83577,-0.34513 -7.309497,-0.28495 -3.434618,0.032 -5.723012,-0.003 -6.02656,-0.0915 -0.269057,-0.0785 -0.626515,-0.15829 -0.794128,-0.17699 -0.167711,-0.0173 -0.3706,-0.0719 -0.451023,-0.11796 -0.08042,-0.0461 -0.265788,-0.0141 -0.411432,0.0695 -0.204654,0.11861 -0.321692,0.10021 -0.515067,-0.0805 -0.222961,-0.20854 -0.622297,-0.2242 -3.71855,-0.14551 -4.712723,0.12011 -8.489008,0.14005 -9.082928,0.0477 -0.270692,-0.0421 -0.705892,-0.0137 -0.967168,0.0645 -0.440235,0.12899 -0.484696,0.19489 -0.603729,0.89699 -0.07062,0.41676 -0.232115,1.0104 -0.358634,1.31922 -0.126519,0.30872 -0.213807,0.64471 -0.193538,0.74647 0.01962,0.10174 -0.08337,0.46278 -0.2295,0.80224 -0.146135,0.3395 -0.261538,0.74327 -0.256308,0.8973 0.0065,0.15391 -0.04511,0.38998 -0.111153,0.52444 -0.161827,0.3285 -0.518663,1.6755 -0.479367,1.80975 0.04675,0.16003 -0.144827,1.06157 -0.260231,1.22447 -0.05525,0.078 -0.130115,0.32974 -0.166403,0.55935 -0.03629,0.2295 -0.117366,0.75218 -0.180462,1.16116 -0.0631,0.40896 -0.172615,0.8182 -0.24323,0.90945 -0.07094,0.0912 -0.159539,0.5526 -0.197462,1.02529 -0.07519,0.93958 -0.05067,0.96482 0.938334,0.96593 0.36089,0.001 1.866958,0.0163 2.864105,0.0294 0.417644,0.007 0.593234,0.0719 0.630994,0.23866 0.04806,0.21217 0.07127,0.21054 0.290307,-0.0229 0.204,-0.21806 0.410615,-0.24977 1.446666,-0.221 0.664732,0.0196 2.516946,0.0262 4.116023,0.0196 1.599078,-0.007 5.275161,-0.0196 8.169048,-0.0262 5.440453,-0.01 5.719678,-0.0163 6.643038,-0.11081 0.604677,-0.0628 5.783365,0.0886 5.879185,0.17163 0.11507,0.10004 0.50035,0.0262 0.77327,-0.15006 z m -52.095794,1.33875 c -0.0025,-0.0762 -0.06702,-0.13632 -0.142865,-0.13372 -0.07617,0.002 -0.136,0.0667 -0.133712,0.14287 0.0025,0.0762 0.06669,0.13633 0.142866,0.13371 0.07617,-0.003 0.136326,-0.0667 0.133711,-0.14286 z m 7.31287,-0.79459 c -0.0025,-0.0762 -0.06669,-0.13632 -0.142865,-0.13371 -0.07617,0.003 -0.136327,0.0667 -0.133712,0.14286 0.0025,0.0762 0.06702,0.13633 0.142866,0.13373 0.07617,-0.003 0.136326,-0.067 0.133711,-0.14288 z m -7.137672,0.15071 c 0.118673,-0.05 0.214134,-0.15103 0.211846,-0.22459 -0.0065,-0.19255 -0.59258,-0.0579 -0.653519,0.14973 -0.0559,0.19027 0.103635,0.21708 0.441902,0.0745 z m 18.257067,-1.27842 c 0.07127,-0.30698 0.197462,-0.7358 0.280173,-0.95295 0.08271,-0.21707 0.14875,-0.45432 0.146135,-0.52713 -0.0024,-0.0729 0.17,-0.55256 0.382499,-1.06611 0.212827,-0.51358 0.417317,-1.1888 0.454521,-1.50051 0.03727,-0.31166 0.146788,-0.73757 0.243557,-0.9464 0.09677,-0.20894 0.170654,-0.53477 0.164443,-0.72422 -0.0065,-0.18952 0.04936,-0.38503 0.123903,-0.43455 0.07454,-0.0496 0.129789,-0.31993 0.12325,-0.60075 -0.0065,-0.28076 0.07487,-0.63453 0.181769,-0.78587 0.106904,-0.15136 0.189942,-0.41524 0.184058,-0.5864 -0.0065,-0.17121 0.05198,-0.35239 0.1275,-0.40272 0.07585,-0.0503 0.105269,-0.14018 0.06571,-0.19975 -0.03956,-0.0595 0.06931,-0.5068 0.241923,-0.99395 0.172615,-0.48714 0.311231,-0.98284 0.307634,-1.10156 -0.0033,-0.1186 0.07846,-0.39196 0.181769,-0.60716 0.320712,-0.66774 0.0065,-0.94999 -0.993452,-0.88943 -1.416066,0.0858 -7.232676,0.12815 -7.362857,0.0533 -0.08663,-0.0498 -0.832999,-0.0733 -1.658643,-0.0524 -0.82561,0.0206 -1.814879,-0.0291 -2.198392,-0.11081 -0.659501,-0.14055 -1.772215,-0.11145 -7.194328,0.18902 -0.836203,0.0471 -2.361755,0.0801 -3.390091,0.0749 -2.011294,-0.0101 -2.199602,0.0528 -2.18744,0.71985 0.003,0.16477 -0.04839,0.32248 -0.113769,0.34992 -0.157904,0.0664 -0.932449,1.65536 -0.924505,1.89623 0.0033,0.10325 -0.07388,0.19053 -0.171961,0.19374 -0.09808,0.003 -0.183731,0.13884 -0.190596,0.30132 -0.0065,0.16252 -0.126846,0.43121 -0.266115,0.59728 -0.2125,0.25298 -0.360073,0.53855 -0.481819,0.93256 -0.0474,0.153 -0.193212,0.56985 -0.256962,0.73544 -0.03727,0.0964 -0.271345,0.52473 -0.51948,0.95179 -0.248134,0.42705 -0.621317,1.16415 -0.828684,1.63804 -0.207596,0.47386 -0.443732,0.90592 -0.525332,0.96016 -0.08173,0.054 -0.144173,0.22129 -0.139269,0.37136 0.0065,0.14996 -0.08337,0.31185 -0.195827,0.35925 -0.112461,0.0475 -0.200076,0.23163 -0.194192,0.40932 0.0065,0.17742 -0.05035,0.36324 -0.124557,0.41257 -0.172289,0.11475 -0.77994,1.55956 -0.770917,1.83332 0.0033,0.11377 0.14875,0.25369 0.321692,0.31156 0.280827,0.0932 7.846898,0.0709 12.426661,-0.0366 2.47304,-0.0585 7.227347,-0.0575 7.289724,8.2e-4 0.02942,0.0294 1.686137,-0.01 3.682426,-0.0827 l 3.629627,-0.13241 0.129461,-0.55818 z m 98.134829,-3.09154 c -0.003,-0.11404 -0.0294,-0.20675 -0.0611,-0.20571 -0.0294,9.7e-4 -0.087,0.0964 -0.12717,0.21189 -0.0399,0.11546 -0.0131,0.20812 0.0611,0.2057 0.0739,-0.002 0.13076,-0.0978 0.12717,-0.21188 z m -50.69229,-10.86508 c 0.0742,-0.062 0.81806,-0.17837 1.65315,-0.25884 2.18414,-0.21025 3.71375,-0.69677 3.81075,-1.21183 0.0327,-0.16588 0.001,-1.48373 -0.067,-2.92851 -0.11279,-2.39975 -0.26677,-3.41059 -0.61661,-4.04837 -0.0664,-0.12112 -0.23833,-0.65234 -0.38211,-1.18071 -0.14352,-0.52838 -0.33251,-1.20761 -0.41911,-1.50941 -0.0866,-0.30169 -0.19877,-0.73429 -0.24945,-0.9611 -0.0503,-0.22697 -0.14678,-0.4777 -0.21446,-0.55753 -0.0677,-0.0799 -0.20367,-0.60497 -0.30207,-1.16706 -0.18406,-1.04937 -0.39277,-1.85989 -0.63384,-2.46095 -0.0755,-0.18788 -0.17164,-0.52745 -0.21446,-0.75452 -0.0425,-0.22725 -0.15235,-0.72197 -0.24421,-1.09975 -0.3011,-1.24017 -0.64466,-2.86653 -0.85687,-4.05673 -0.11475,-0.64358 -0.26285,-1.22756 -0.32892,-1.29774 -0.066,-0.0701 -0.1288,-0.39159 -0.13927,-0.71422 -0.01,-0.3225 -0.083,-0.62304 -0.16051,-0.66756 -0.0778,-0.0446 -0.14712,-0.26566 -0.15464,-0.49175 -0.007,-0.22577 -0.21021,-0.94779 -0.45066,-1.60405 -0.38123,-1.04055 -0.62109,-2.1092 -0.74731,-3.32935 -0.0196,-0.18975 -0.10429,-0.46736 -0.18831,-0.61692 -0.084,-0.14966 -0.19746,-0.64429 -0.25206,-1.09946 -0.0546,-0.45517 -0.27592,-1.22346 -0.49153,-1.70734 -0.21577,-0.48387 -0.46354,-1.2453 -0.55063,-1.69203 -0.087,-0.44673 -0.23375,-0.897 -0.32529,-1.00058 -0.0922,-0.10361 -0.11279,-0.19223 -0.0464,-0.19671 0.0664,-0.005 0.0229,-0.0812 -0.0925,-0.17 -0.11704,-0.0891 -0.23637,-0.34783 -0.26481,-0.57539 -0.0262,-0.22775 -0.10919,-0.53644 -0.17883,-0.68647 -0.07,-0.15012 -0.24748,-0.53658 -0.39463,-0.85901 -0.14711,-0.32244 -0.33598,-0.6278 -0.41973,-0.67855 -0.0837,-0.0509 -0.26971,-0.32597 -0.41343,-0.61158 -0.19517,-0.38811 -0.42928,-0.58999 -0.9264,-0.7992 -0.67902,-0.28576 -0.97106,-0.30469 -5.72226,-0.37055 -0.87625,-0.0121 -1.81207,-0.047 -2.07965,-0.0778 -0.93759,-0.10717 -6.567883,0.13374 -7.121298,0.30469 -0.301423,0.093 -0.920026,0.23506 -1.374351,0.31542 -1.891085,0.33439 -1.904423,0.33973 -2.560982,1.02584 -0.348892,0.36462 -0.632922,0.78752 -0.631222,0.93976 0.0018,0.15238 -0.08435,0.4007 -0.19125,0.55203 -0.106904,0.15136 -0.192558,0.37229 -0.190269,0.49092 0.0022,0.11868 -0.112462,0.37536 -0.255,0.57045 -0.142538,0.19504 -0.255981,0.49479 -0.251731,0.66602 0.0033,0.17128 -0.05525,0.31323 -0.131096,0.31571 -0.07617,0.003 -0.13175,0.20256 -0.123576,0.44429 0.0065,0.24179 -0.04119,0.64848 -0.108539,0.90362 -0.06767,0.25506 -0.180788,0.67935 -0.251403,0.94266 -0.07062,0.26334 -0.145154,0.65519 -0.166077,0.87091 -0.0631,0.64826 -0.210212,1.22376 -0.335881,1.31268 -0.06506,0.046 -0.177192,0.47034 -0.248788,0.94288 -0.07192,0.47253 -0.182096,0.86083 -0.244865,0.8629 -0.06277,0.002 -0.109846,0.12956 -0.104942,0.28311 0.0065,0.15356 -0.105596,0.76474 -0.246173,1.35821 -0.140577,0.59346 -0.251731,1.23317 -0.247481,1.42161 0.0033,0.18827 -0.06735,0.47117 -0.158557,0.62834 -0.09154,0.15709 -0.145154,0.48758 -0.119,0.73424 0.02289,0.24679 0.0065,0.44986 -0.04708,0.45157 -0.141231,0.005 -0.392863,0.67602 -0.383676,1.02307 0.0033,0.16764 -0.132077,0.93253 -0.303385,1.69975 -0.171307,0.76723 -0.343628,1.73876 -0.382924,2.15893 -0.03923,0.42018 -0.152346,0.9224 -0.251077,1.11602 -0.09873,0.19361 -0.187327,0.50814 -0.197135,0.69887 -0.0098,0.19069 -0.07127,0.89634 -0.136653,1.56807 -0.06539,0.67173 -0.08533,1.27235 -0.04381,1.33473 0.04119,0.0624 -0.01635,0.3129 -0.127827,0.55645 -0.111807,0.24375 -0.236692,0.95635 -0.277884,1.58377 -0.07944,1.21266 -0.518075,4.75343 -0.632203,5.10555 -0.03727,0.11537 -0.07912,0.45956 -0.09252,0.76466 -0.04642,1.05247 -0.151039,1.72968 -0.2805,1.81571 -0.07127,0.0475 -0.08533,0.15359 -0.02942,0.2362 0.0546,0.0823 0.143192,0.90717 0.196807,1.83287 0.108866,1.89055 0.189942,2.16046 0.825709,2.76194 0.526182,0.4977 1.156784,0.62542 2.656738,0.53808 1.203991,-0.0691 3.119301,0.0995 3.535539,0.31293 0.329734,0.16905 3.537566,0.26343 5.480762,0.16114 0.7223,-0.0368 1.62465,-0.0731 2.00512,-0.0824 3.95171,-0.0689 6.90938,-0.22086 7.81064,-0.39707 0.37495,-0.0738 1.24924,-0.0575 2.21683,0.0389 0.87874,0.0885 2.12699,0.14914 2.77388,0.13472 0.70324,-0.0167 1.51309,0.0631 2.01433,0.19668 0.79655,0.21224 1.50316,0.18965 1.79824,-0.057 z m -33.360962,-3.92029 c 0.01635,-0.8512 0.385704,-3.64727 0.497937,-3.77153 0.06179,-0.0684 0.07617,-0.21021 0.03269,-0.31506 -0.04446,-0.10484 -0.01962,-0.36296 0.05885,-0.57358 0.07683,-0.21057 0.159865,-0.66398 0.184711,-1.00752 0.0546,-0.75449 0.223289,-2.51608 0.359158,-3.75136 0.0546,-0.49729 0.160192,-1.08121 0.234403,-1.2976 0.07421,-0.21636 0.128154,-0.59421 0.120308,-0.83954 -0.0065,-0.24538 0.06833,-0.81463 0.17,-1.26512 0.101673,-0.45049 0.208576,-1.13695 0.237999,-1.52551 0.02942,-0.38854 0.108539,-0.76744 0.175885,-0.84202 0.06767,-0.0745 0.115077,-0.37209 0.105596,-0.66121 -0.0098,-0.28916 0.03269,-0.52725 0.09154,-0.52922 0.05983,-0.002 0.117366,-0.19978 0.127827,-0.43957 0.01308,-0.23983 0.107558,-0.74082 0.215769,-1.11333 0.108539,-0.3725 0.160519,-0.76347 0.116385,-0.86877 -0.08467,-0.20132 0.142865,-1.24618 0.310576,-1.42556 0.05394,-0.0577 0.09121,-0.3121 0.08271,-0.56579 -0.0098,-0.25355 0.05362,-0.46333 0.137961,-0.46611 0.08435,-0.003 0.117365,-0.0899 0.07389,-0.19314 -0.04381,-0.10357 -0.02289,-0.2515 0.05263,-0.32913 0.08664,-0.0925 0.05525,-0.21247 -0.09154,-0.35015 -0.27625,-0.25847 -0.286384,-0.36544 -0.03531,-0.37371 0.110827,-0.004 0.214789,-0.19779 0.245519,-0.45813 0.05558,-0.47413 0.549492,-2.03076 0.721192,-2.27389 0.05492,-0.078 0.129788,-0.59907 0.166404,-1.15801 0.0376,-0.57693 0.13698,-1.04609 0.229826,-1.08532 0.09644,-0.0408 0.154635,-0.34839 0.141558,-0.75009 -0.01962,-0.61164 0.05362,-0.90636 0.426307,-1.70605 0.06179,-0.13221 0.190269,-0.7284 0.285731,-1.3249 0.24748,-1.54509 0.392569,-2.01844 1.22256,-3.9868 0.218384,-0.51822 0.478811,-0.97658 0.578424,-1.01862 0.09971,-0.0419 0.178173,-0.1717 0.17425,-0.28835 -0.0033,-0.11664 0.05133,-0.21364 0.121943,-0.21596 0.07094,-0.002 0.164442,-0.13005 0.207595,-0.28387 0.05133,-0.18226 0.200404,-0.28364 0.428171,-0.29116 0.219692,-0.007 0.370469,-0.10445 0.406071,-0.26163 0.03661,-0.1618 0.451448,-0.41667 1.174895,-0.72202 1.59862,-0.67472 1.647135,-0.69241 1.834135,-0.66887 0.09285,0.0101 0.80423,-0.15241 1.580443,-0.36472 2.321023,-0.63462 2.503843,-0.65905 4.588593,-0.61358 l 0.5543,0.0111 0.0566,-0.9712 c 0.13796,-2.36349 0.16183,-2.18233 -0.30305,-2.30674 -0.23081,-0.0618 -0.6514,-0.10057 -0.93533,-0.0866 -0.50728,0.0265 -1.4837,-0.34604 -1.77559,-0.67505 -0.23244,-0.26222 -0.0163,-0.84254 0.47555,-1.28398 0.40954,-0.36658 0.49003,-0.38941 0.90152,-0.25568 0.65577,0.21295 1.56187,0.15695 1.65168,-0.10214 0.0402,-0.11648 0.10167,-0.62323 0.13665,-1.12602 0.0752,-1.08354 0.007,-1.15648 -1.06688,-1.12429 -0.95778,0.0288 -1.22949,-0.12112 -1.45944,-0.80596 -0.18373,-0.54733 -0.17752,-0.5742 0.20629,-0.90143 0.25826,-0.22048 0.66486,-0.37676 1.17273,-0.45121 0.42745,-0.0628 0.86089,-0.16964 0.96318,-0.23744 0.21969,-0.1459 0.2684,-2.3107 0.0582,-2.60109 -0.0801,-0.11119 -0.50529,-0.19632 -1.08561,-0.21744 -1.53114,-0.0562 -1.96811,-0.68095 -1.20396,-1.72109 0.2622,-0.35672 0.35236,-0.38596 1.20187,-0.38935 0.50506,-0.004 0.98037,-0.016 1.05612,-0.0281 0.22296,-0.04 0.0562,-3.5371 -0.18144,-3.80516 -0.14973,-0.16875 -0.23833,-0.18186 -0.38034,-0.0558 -0.27396,0.24323 -1.40368,0.11553 -1.6606,-0.18772 -0.47881,-0.56481 -0.51991,-0.85782 -0.17229,-1.22917 0.28965,-0.30949 0.44827,-0.35389 1.37131,-0.38427 1.04128,-0.0343 1.04373,-0.0352 1.05229,-0.41544 0.007,-0.37036 0.0262,-0.50961 0.0994,-0.79946 0.0906,-0.3575 -0.003,-1.53919 -0.13469,-1.66957 -0.16543,-0.16562 -0.70171,-0.2821 -1.57263,-0.34145 -0.32784,-0.0222 -0.87766,-0.16575 -1.22211,-0.31875 -0.57401,-0.2549 -0.627295,-0.32044 -0.638607,-0.78466 -0.01635,-0.66769 0.466187,-1.08162 1.116767,-0.9583 0.24324,0.0463 0.84742,0.0794 1.34228,0.0739 0.82336,-0.008 0.89639,-0.0328 0.86004,-0.28573 -0.0229,-0.15172 0.0163,-0.43322 0.0807,-0.62578 0.1154,-0.33532 0.13469,-5.551911 0.0294,-7.790011 -0.0294,-0.59693 0.007,-1.073391 0.0807,-1.075801 0.0768,-0.0025 0.083,-0.161696 0.0131,-0.381257 -0.0641,-0.207236 -0.1056,-1.436619 -0.0915,-2.731803 0.0131,-1.295186 0.0196,-3.756712 0.0131,-5.470111 -0.007,-1.713369 -0.0131,-3.956429 -0.0131,-4.984565 -7.9e-4,-1.028113 -0.036,-4.111446 -0.0781,-6.851807 -0.0422,-2.740365 -0.0229,-5.020936 0.0464,-5.06798 0.0673,-0.04704 0.0229,-0.162383 -0.0971,-0.256209 -0.12096,-0.09383 -0.22329,-0.11596 -0.22721,-0.04943 -0.0262,0.42512 -0.0961,0.74934 -0.27592,1.289704 -0.11214,0.336943 -0.20073,0.713737 -0.19746,0.837334 0.003,0.123511 -0.0804,0.406028 -0.187,0.627678 -0.10658,0.221687 -0.18766,0.582623 -0.18047,0.802161 0.007,0.219561 -0.0494,0.401206 -0.1252,0.403704 -0.0762,0.0025 -0.13208,0.191446 -0.12456,0.419514 0.007,0.228388 -0.0431,0.416839 -0.11246,0.419118 -0.0693,0.0023 -0.15725,0.270136 -0.19518,0.594947 -0.0379,0.325092 -0.14253,0.811282 -0.23244,1.080797 -0.32728,0.983665 -0.69781,2.3651 -0.69088,2.575818 0.003,0.118934 -0.0471,0.217763 -0.11345,0.219954 -0.0664,0.0022 -0.15038,0.300965 -0.187,0.663882 -0.0366,0.362972 -0.14548,0.824731 -0.24225,1.026138 -0.0968,0.201417 -0.210211,0.659286 -0.25173,1.017453 -0.04185,0.35818 -0.213481,1.073735 -0.381846,1.590139 -0.168365,0.51641 -0.300442,1.105185 -0.293903,1.308387 0.0065,0.203248 -0.03727,0.391847 -0.09742,0.419246 -0.14875,0.06771 -0.660973,1.812888 -0.698994,2.381394 -0.06179,0.923671 -0.208577,1.526471 -0.390705,1.603317 -0.118019,0.04969 -0.153654,0.194127 -0.0971,0.392474 0.04937,0.172387 0.02942,0.354731 -0.0474,0.404943 -0.07552,0.05025 -0.198769,0.450513 -0.273961,0.88957 -0.07519,0.439054 -0.184385,0.862181 -0.24225,0.940237 -0.05819,0.07813 -0.09775,0.373587 -0.08794,0.656702 0.0098,0.282952 -0.07127,0.6098 -0.180135,0.72604 -0.108865,0.116091 -0.230154,0.488678 -0.269711,0.827645 -0.03956,0.338966 -0.182423,0.95345 -0.318096,1.365474 -0.135673,0.412031 -0.239634,0.952323 -0.231134,1.200643 0.0065,0.24834 -0.0425,0.45338 -0.112135,0.45568 -0.06996,0.002 -0.181769,0.27092 -0.248134,0.59669 -0.06669,0.32604 -0.237673,0.9643 -0.37995,1.41874 -0.142211,0.45442 -0.255,0.93586 -0.25075,1.06985 0.0033,0.13398 -0.05427,0.26674 -0.130442,0.29476 -0.07617,0.0288 -0.184384,0.40794 -0.240942,0.84389 -0.05623,0.43592 -0.160192,0.90944 -0.230807,1.052221 -0.07062,0.14296 -0.241923,0.79002 -0.380637,1.43829 -0.138942,0.64827 -0.301749,1.30488 -0.361707,1.45919 -0.06015,0.1544 -0.176538,0.56315 -0.258923,0.90861 -0.08206,0.3454 -0.197134,0.78538 -0.255327,0.9777 -0.05819,0.19229 -0.11998,0.53705 -0.137307,0.7661 -0.01962,0.22924 -0.09579,0.5432 -0.17425,0.69811 -0.07879,0.15503 -0.233423,0.76777 -0.344413,1.36193 -0.110827,0.59416 -0.256634,1.11669 -0.323654,1.16122 -0.06702,0.0444 -0.11573,0.25896 -0.108538,0.4765 0.0065,0.2176 -0.06963,0.57475 -0.170654,0.79367 -0.101019,0.21887 -0.330224,1.05716 -0.509116,1.86274 -0.178827,0.80555 -0.432748,1.76016 -0.564106,2.12132 -0.131423,0.36116 -0.233423,0.83184 -0.226884,1.04601 0.0065,0.21404 -0.08369,0.57943 -0.200404,0.81175 -0.116711,0.23247 -0.25075,0.67292 -0.297826,0.97911 -0.04675,0.30606 -0.266116,1.0923 -0.486429,1.74692 -0.220673,0.65462 -0.398976,1.28362 -0.396426,1.39776 0.0065,0.25725 -0.344806,1.68682 -0.902569,3.68069 -0.233423,0.83525 -0.389103,1.57242 -0.345426,1.63814 0.04381,0.0656 -0.0065,0.29394 -0.112789,0.50689 -0.206615,0.41619 -0.530399,1.54459 -0.621676,2.16594 -0.05885,0.40077 -0.135346,0.70586 -0.556651,2.21856 -0.141885,0.50971 -0.255,1.01436 -0.251731,1.1214 0.0033,0.10716 -0.103308,0.42857 -0.237346,0.71442 -0.134038,0.28573 -0.276903,0.8059 -0.317769,1.15567 -0.07029,0.60427 -0.915514,3.72835 -1.170024,4.32522 -0.06604,0.15459 -0.143192,0.46857 -0.171634,0.69798 -0.02942,0.22957 -0.143519,0.76288 -0.255981,1.18547 -0.112461,0.42258 -0.311884,1.27035 -0.443242,1.88396 -0.253038,1.18117 -0.545241,2.21429 -0.740839,2.61884 -0.06506,0.1343 -0.113116,0.40164 -0.106577,0.59389 0.0065,0.19214 -0.04119,0.45948 -0.105596,0.59388 -0.143846,0.30011 -0.318096,1.09452 -0.480184,2.18542 -0.06735,0.45398 -0.19975,0.87801 -0.293904,0.94224 -0.130115,0.089 -0.121288,0.11651 0.03662,0.11622 0.163789,-0.002 0.15725,0.031 -0.02942,0.14848 -0.130769,0.0818 -0.234403,0.25468 -0.23048,0.38418 0.0033,0.12939 -0.134692,0.61375 -0.307308,1.0764 -0.173269,0.46266 -0.307634,1.09332 -0.299461,1.4015 0.0098,0.30819 -0.03988,0.62132 -0.106904,0.69589 -0.06735,0.0745 -0.137961,0.29175 -0.157249,0.4829 -0.01962,0.19102 -0.09154,0.39079 -0.160193,0.44391 -0.06898,0.053 -0.139269,0.21587 -0.156596,0.36159 -0.06113,0.51325 -0.385932,1.83197 -0.516243,2.09601 -0.07258,0.14698 -0.164116,0.59199 -0.203673,0.98898 -0.03923,0.39699 -0.124558,0.75695 -0.189288,0.79994 -0.06473,0.043 -0.113443,0.19674 -0.108866,0.34196 0.0033,0.14509 -0.08631,0.4809 -0.202038,0.74623 -0.200731,0.45898 -0.1955,0.5117 0.104942,1.08349 0.173923,0.33061 0.319404,0.70614 0.323654,0.83455 0.0033,0.12841 0.139923,0.46165 0.301423,0.74051 0.161499,0.27893 0.29848,0.64801 0.304038,0.82034 0.0065,0.17219 0.07552,0.31119 0.154634,0.30858 0.07944,-0.003 0.134365,0.0734 0.121288,0.16905 -0.03629,0.27563 0.206943,0.97675 0.417612,1.20513 0.105923,0.11458 0.219365,0.3291 0.252384,0.47635 0.134692,0.6025 0.302731,1.02132 0.408555,1.01783 0.06179,-0.002 0.160519,0.18576 0.219366,0.41755 0.05885,0.23163 0.199749,0.58531 0.313192,0.78589 0.113115,0.2007 0.208249,0.42106 0.210865,0.48993 0.0027,0.0689 0.175557,0.33438 0.384232,0.58997 0.208577,0.25546 0.47479,0.74799 0.591534,1.09421 0.116712,0.34625 0.260885,0.66229 0.320058,0.70234 0.05917,0.0399 0.225903,0.24575 0.370632,0.45703 0.30698,0.44859 0.417382,0.38833 0.429478,-0.23428 z m 66.341192,-2.92521 c 0.0294,-0.42825 0.13764,-1.07049 0.23997,-1.42722 0.10167,-0.35675 0.24649,-0.93105 0.32103,-1.27621 0.0745,-0.3452 0.19485,-0.81648 0.26677,-1.04733 0.0719,-0.23099 0.17196,-0.67032 0.22166,-0.97661 0.0497,-0.30617 0.21053,-0.90263 0.35693,-1.32528 0.14646,-0.42263 0.26154,-0.90565 0.25598,-1.0734 -0.007,-0.16762 0.0474,-0.34318 0.11769,-0.38986 0.07,-0.0468 0.16019,-0.36499 0.20008,-0.70736 0.0539,-0.46167 0.0131,-0.7087 -0.16183,-0.95589 -0.12913,-0.1835 -0.24029,-0.50852 -0.24715,-0.72263 -0.007,-0.23069 -0.12815,-0.46687 -0.29619,-0.57959 -0.15595,-0.10478 -0.28704,-0.30359 -0.29162,-0.44221 -0.003,-0.13855 -0.13731,-0.38139 -0.29488,-0.53971 -0.15758,-0.15836 -0.29096,-0.41998 -0.29619,-0.58145 -0.007,-0.1614 -0.14418,-0.42883 -0.30829,-0.59404 -0.16444,-0.16532 -0.26775,-0.39072 -0.2295,-0.50112 0.0392,-0.11282 -0.0477,-0.25847 -0.19812,-0.33285 -0.17588,-0.0868 -0.30829,-0.3529 -0.38613,-0.77635 -0.086,-0.46793 -0.2295,-0.73177 -0.52477,-0.964 -0.22362,-0.17582 -0.41003,-0.42967 -0.41448,-0.56401 -0.003,-0.1343 -0.27298,-0.72752 -0.59666,-1.31814 -0.32366,-0.59065 -0.59311,-1.20151 -0.5986,-1.35745 -0.007,-0.15585 -0.087,-0.35577 -0.18144,-0.44405 -0.0941,-0.0882 -0.11704,-0.16232 -0.0507,-0.16451 0.0667,-0.002 -0.01,-0.13996 -0.17,-0.30582 -0.31483,-0.32688 -0.63508,-0.84254 -0.98956,-1.59449 -0.12391,-0.26252 -0.28704,-0.56867 -0.36233,-0.6804 -0.57866,-0.85596 -1.43627,-2.75905 -1.37654,-3.05468 0.0131,-0.0678 -0.10299,-0.25111 -0.2586,-0.40691 -0.30012,-0.29957 -1.47874,-2.39234 -1.48688,-2.63985 -0.003,-0.0801 -0.10559,-0.2399 -0.22884,-0.35532 -0.12325,-0.11535 -0.24454,-0.35853 -0.27037,-0.54034 -0.0262,-0.18199 -0.15431,-0.43153 -0.28573,-0.55487 -0.13175,-0.12325 -0.24258,-0.31388 -0.24617,-0.42373 -0.007,-0.19966 -0.29587,-0.74825 -0.46011,-0.87317 -0.0481,-0.0363 -0.13993,-0.22044 -0.20466,-0.40867 -0.0644,-0.18824 -0.23898,-0.50372 -0.38792,-0.70096 -0.14875,-0.19727 -0.27364,-0.45038 -0.27723,-0.56245 -0.003,-0.11207 -0.10266,-0.27826 -0.22002,-0.36914 -0.11704,-0.091 -0.21643,-0.26078 -0.22002,-0.37746 -0.003,-0.11664 -0.17491,-0.41796 -0.38044,-0.66964 -0.20564,-0.25163 -0.3416,-0.5496 -0.30241,-0.6621 0.0402,-0.11583 -0.0497,-0.27446 -0.20759,-0.36587 -0.153,-0.0888 -0.2805,-0.22757 -0.28312,-0.30829 -0.003,-0.081 -0.17555,-0.48082 -0.3842,-0.88874 -0.20857,-0.40792 -0.46733,-0.92572 -0.57492,-1.15066 -0.10756,-0.22512 -0.39486,-0.80747 -0.63835,-1.29448 -0.24323,-0.48703 -0.48493,-0.97757 -0.53648,-1.09014 -0.0513,-0.11245 -0.15202,-0.29626 -0.22362,-0.40805 -0.32728,-0.51213 -0.48806,-0.93949 -0.40685,-1.08118 0.049,-0.085 0.0262,-0.15268 -0.0484,-0.15019 -0.0755,0.002 -0.18602,-0.1342 -0.24584,-0.30332 -0.0598,-0.16941 -0.22689,-0.3855 -0.37132,-0.48026 -0.1445,-0.0947 -0.26971,-0.27765 -0.27854,-0.40623 -0.007,-0.12865 -0.19387,-0.55091 -0.41166,-0.93826 -0.94229,-1.67612 -1.9499,-3.61785 -2.03905,-3.92936 -0.0533,-0.18569 -0.15202,-0.33544 -0.22002,-0.3332 -0.068,0.002 -0.12652,-0.09 -0.13044,-0.20538 -0.007,-0.20749 -0.29227,-0.75553 -0.46041,-0.88306 -0.0481,-0.0364 -0.13698,-0.22054 -0.19811,-0.40889 -0.12096,-0.37504 -0.48548,-1.12548 -1.35716,-2.79401 -0.31286,-0.599 -0.59068,-1.20218 -0.6172,-1.34043 -0.0262,-0.13812 -0.1445,-0.34128 -0.26153,-0.45113 -0.11737,-0.10997 -0.2586,-0.36522 -0.3145,-0.5675 -0.13045,-0.47467 -0.49859,-1.14711 -0.72116,-1.31668 -0.0958,-0.0731 -0.22068,-0.30643 -0.27756,-0.51861 -0.0566,-0.21205 -0.69886,-1.50564 -1.42672,-2.87428 -0.72786,-1.36864 -1.32574,-2.56024 -1.32862,-2.64801 -0.003,-0.0879 -0.0575,-0.15774 -0.12161,-0.15561 -0.0641,0.002 -0.19943,-0.24268 -0.30044,-0.54399 -0.10135,-0.30119 -0.24356,-0.54589 -0.31679,-0.54348 -0.0732,0.002 -0.13666,-0.11521 -0.14156,-0.26095 -0.003,-0.14607 -0.11933,-0.46936 -0.255,-0.7186 -0.45446,-0.83694 -0.49169,-0.92501 -0.50019,-1.18304 -0.003,-0.14149 -0.14189,-0.36997 -0.30469,-0.50794 -0.2112,-0.17883 -0.27854,-0.35741 -0.23441,-0.62238 0.0477,-0.28779 3.9e-4,-0.38547 -0.21086,-0.43333 -0.15725,-0.0357 -0.27658,-0.180301 -0.28181,-0.341511 -0.007,-0.15389 -0.0991,-0.36388 -0.2089,-0.46673 -0.11018,-0.10302 -0.41402,-0.58022 -0.67592,-1.06082 -0.26186,-0.48056 -0.53828,-0.91065 -0.61428,-0.95578 -0.0762,-0.0452 -0.10037,-0.21554 -0.0546,-0.37901 0.0494,-0.17631 0.0229,-0.29518 -0.0641,-0.29227 -0.0814,0.003 -0.15071,-0.0886 -0.15463,-0.20263 -0.003,-0.11403 -0.0693,-0.20543 -0.14516,-0.20292 -0.0762,0.002 -0.14188,-0.10491 -0.14613,-0.23888 -0.003,-0.13397 -0.16902,-0.40616 -0.36609,-0.60503 -0.19681,-0.19893 -0.36282,-0.50602 -0.36864,-0.68262 -0.007,-0.17644 -0.10036,-0.44104 -0.20923,-0.58765 -0.10919,-0.14656 -0.24944,-0.467452 -0.31123,-0.712938 -0.0621,-0.245584 -0.17,-0.444429 -0.23996,-0.442127 -0.07,0.0023 -0.12946,-0.06313 -0.1324,-0.145121 -0.007,-0.155844 -1.0747,-2.399692 -1.4246,-2.98863 -0.11083,-0.186738 -0.60638,-1.105104 -1.10098,-2.040848 -0.49454,-0.935715 -1.06021,-1.985601 -1.25698,-2.333048 -0.19681,-0.347474 -0.3607,-0.719816 -0.36423,-0.827448 -0.007,-0.180364 -0.27723,-0.708828 -0.9197,-1.792953 -0.13829,-0.233259 -0.32202,-0.642746 -0.40836,-0.909731 -0.0863,-0.267031 -0.28246,-0.611767 -0.43618,-0.76617 -0.15365,-0.154242 -0.32898,-0.504255 -0.38956,-0.777452 -0.0608,-0.273078 -0.15888,-0.495101 -0.21806,-0.493156 -0.0595,0.002 -0.14809,-0.136425 -0.1968,-0.307863 -0.049,-0.171406 -0.20629,-0.430907 -0.34922,-0.577025 -0.1432,-0.146069 -0.42906,-0.716651 -0.63557,-1.267921 -0.20662,-0.5513 -0.47237,-1.10379 -0.59065,-1.227824 -0.26318,-0.275923 -1.76209,-3.050369 -1.76951,-3.275462 -0.007,-0.182979 -0.58388,-1.272011 -0.72874,-1.373223 -0.0961,-0.06715 -0.59578,-1.00585 -0.59977,-1.12668 -10e-4,-0.03626 -0.11541,-0.303352 -0.25337,-0.593849 -0.13796,-0.290504 -0.25663,-0.574475 -0.26317,-0.631376 -0.007,-0.05708 -0.0585,-0.102098 -0.1154,-0.100202 -0.0572,0.0019 -0.16608,0.0056 -0.24225,0.0078 -0.17033,0.0056 -0.15922,0.790767 0.0131,0.889256 0.0683,0.03897 0.16935,0.428906 0.22493,0.866208 0.17424,1.372595 0.28474,1.9442 0.42408,2.196944 0.30796,0.558499 0.48675,1.288288 0.48692,1.988047 -3e-4,0.686855 0.15529,1.309767 0.54151,2.173745 0.084,0.187621 0.18406,0.551748 0.22264,0.809118 0.0379,0.257484 0.14809,0.596497 0.24355,0.753599 0.0955,0.157152 0.19256,0.518228 0.21577,0.802537 0.0229,0.284161 0.187,0.919539 0.36407,1.411587 0.17719,0.492081 0.35163,1.063146 0.38815,1.269062 0.0363,0.205863 0.18013,0.742347 0.31908,1.192088 0.13894,0.449731 0.23996,0.945068 0.22492,1.100778 -0.0131,0.155517 0.0543,0.467111 0.15496,0.692079 0.21054,0.471328 0.65725,2.424456 0.78619,3.435527 0.0484,0.379185 0.19223,1.057569 0.31973,1.50748 0.12782,0.449879 0.30763,1.249208 0.40025,1.77626 0.0925,0.527019 0.22394,1.023546 0.29292,1.103322 0.0683,0.07987 0.17556,0.361491 0.23767,0.626 0.29489,1.25053 0.77746,3.01175 0.97642,3.5637 0.19648,0.54486 0.19746,0.62945 0.01,0.77656 -0.26611,0.20861 -0.26546,0.34411 10e-4,0.33533 0.21577,-0.007 0.22263,0.006 0.29194,0.5039 0.0229,0.16742 0.11116,0.4761 0.19518,0.68592 0.15332,0.382141 0.47894,1.539401 0.59889,2.128251 0.035,0.17255 0.14417,0.65365 0.24192,1.06931 0.0981,0.41566 0.20727,1.03519 0.24356,1.37674 0.0373,0.34147 0.13926,0.79392 0.22982,1.00535 0.0902,0.21129 0.16869,0.50483 0.1736,0.65202 0.003,0.14738 0.0788,0.2653 0.16411,0.26249 0.10396,-0.003 0.0978,0.0691 -0.0196,0.21881 -0.14091,0.1816 -0.1396,0.24369 0.007,0.32764 0.0994,0.0569 0.28671,0.59134 0.41594,1.18738 0.12946,0.59604 0.29913,1.23739 0.37707,1.42523 0.0781,0.18782 0.17098,0.57027 0.20629,0.84982 0.0353,0.27949 0.13208,0.58793 0.21446,0.68531 0.19354,0.22816 0.39604,1.89981 0.23081,1.90524 -0.069,0.002 -0.11508,0.1752 -0.10298,0.38416 0.0164,0.3043 0.0402,0.32856 0.1141,0.12119 0.0834,-0.23401 0.11017,-0.23849 0.28115,-0.0456 0.10396,0.11727 0.15856,0.30129 0.12096,0.40898 -0.0373,0.10785 0.0229,0.31947 0.13862,0.47059 0.11344,0.1513 0.17555,0.36391 0.13763,0.47284 -0.0376,0.10886 0.01,0.47073 0.10004,0.80415 0.0928,0.3334 0.19713,0.82333 0.23211,1.08873 0.11868,0.90198 1.21276,4.85443 1.38975,5.02013 0.0588,0.055 0.11344,0.29263 0.12096,0.52765 0.007,0.23493 0.0889,0.64264 0.18014,0.9057 0.0915,0.26291 0.19419,0.60195 0.22819,0.75316 0.17294,0.76682 0.41715,1.95681 0.45194,2.20067 0.0229,0.15171 0.0847,0.34112 0.14025,0.4211 0.0553,0.08 0.0879,0.32323 0.0719,0.54037 -0.0163,0.21704 0.0602,0.55277 0.16902,0.74574 0.10919,0.19298 0.20367,0.50954 0.21054,0.7035 0.007,0.19405 0.0745,0.41074 0.15038,0.48167 0.0755,0.0711 0.25304,0.59165 0.39424,1.15711 0.25435,1.01913 0.31973,1.34022 0.49153,2.40513 0.0487,0.30293 0.18831,0.85925 0.30959,1.23608 0.12129,0.37681 0.27593,1.02599 0.34317,1.44265 0.0674,0.41668 0.17654,0.79061 0.24291,0.83099 0.0664,0.0403 0.13829,0.34956 0.16019,0.68709 0.0196,0.33753 0.0866,0.67444 0.1445,0.7487 0.0572,0.0743 0.15627,0.41064 0.21904,0.74751 0.0628,0.33687 0.16477,0.67625 0.22688,0.75415 0.10658,0.1342 0.35216,1.17895 0.59889,2.54887 0.0611,0.34072 0.15464,0.6492 0.20727,0.68555 0.0526,0.0362 0.17752,0.43727 0.27723,0.89095 0.46198,2.09878 0.93118,3.85461 1.0508,3.93261 0.0722,0.047 0.10069,0.3266 0.0634,0.62105 -0.0464,0.36553 -0.0294,0.46816 0.0575,0.32358 0.0984,-0.16646 0.12815,-0.13669 0.13894,0.13934 0.007,0.19308 0.12064,0.71238 0.2514,1.15372 0.13077,0.44134 0.27822,1.14528 0.32758,1.56433 0.0494,0.41903 0.17915,0.85772 0.28769,0.97488 0.19681,0.21237 0.42922,1.14152 0.44949,1.79715 0.007,0.19017 0.0624,0.40642 0.12586,0.48049 0.0631,0.0742 0.16739,0.39747 0.23147,0.71865 0.0637,0.32107 0.17392,0.6172 0.24519,0.65784 0.0709,0.0405 0.13175,0.15561 0.13502,0.25591 0.003,0.1 0.23015,0.41109 0.50414,0.69112 0.34775,0.35543 0.47908,0.59738 0.43498,0.80131 -0.049,0.22764 0.24682,0.59279 1.33845,1.65091 0.77092,0.74731 1.50012,1.51067 1.62049,1.69633 0.33529,0.51752 2.05004,2.24361 2.22301,2.23792 0.0844,-0.003 0.26546,0.21139 0.40218,0.47568 0.13698,0.26438 0.34366,0.51352 0.45926,0.55358 0.11573,0.04 0.21381,0.17517 0.21839,0.29995 0.007,0.18331 0.60608,1.1214 1.27526,1.99482 0.0605,0.0791 0.25205,0.38445 0.42513,0.67838 0.37998,0.64496 0.94121,0.74176 1.00251,0.17307 0.0196,-0.1871 0.23767,-0.67835 0.48335,-1.09177 0.24585,-0.41344 0.44547,-0.78966 0.44393,-0.83603 -0.002,-0.0464 0.26448,-0.6926 0.59108,-1.43609 0.32659,-0.74349 0.73868,-1.69929 0.91567,-2.12397 0.17687,-0.42471 0.40362,-0.94244 0.5036,-1.1505 0.10003,-0.20805 0.16869,-0.42846 0.153,-0.4897 -0.0163,-0.0613 0.0376,-0.28909 0.119,-0.50605 0.0814,-0.21694 0.14515,-0.47639 0.14188,-0.57624 -0.003,-0.1 0.085,-0.2622 0.19583,-0.36057 0.11082,-0.0985 0.2004,-0.28037 0.19877,-0.40429 -0.002,-0.1239 0.15332,-0.34736 0.34451,-0.49656 0.29815,-0.23257 0.42205,-0.2517 0.87017,-0.13332 0.52386,0.13845 0.56162,0.17974 1.87411,2.04998 0.19975,0.28455 0.43128,0.51714 0.51448,0.51663 0.083,-5.1e-4 0.27593,0.21302 0.42788,0.47463 0.15235,0.26157 0.32463,0.47398 0.38355,0.47204 0.0588,-0.002 0.11049,0.11217 0.1154,0.25363 0.003,0.14149 0.26677,0.53182 0.58241,0.86753 0.31548,0.33569 0.57846,0.7453 0.58389,0.91024 0.007,0.16499 0.10036,0.38467 0.21086,0.48831 0.11083,0.10363 0.25271,0.44047 0.31515,0.74853 0.0657,0.32395 0.22689,0.62576 0.38241,0.71583 0.14777,0.0858 0.272,0.25566 0.27592,0.37762 0.003,0.1222 0.16869,0.3976 0.36619,0.61238 0.19746,0.21462 0.36259,0.50139 0.36716,0.63691 0.003,0.13562 0.10266,0.27924 0.21806,0.31928 0.1154,0.04 0.21283,0.15947 0.21642,0.26536 0.003,0.10586 0.12194,0.18896 0.2635,0.18432 0.21087,-0.007 0.2671,-0.14944 0.31189,-0.78709 z m -80.0948,2.75521 c 0.112462,-0.13718 0.243231,-0.39235 0.290308,-0.56746 0.04708,-0.17526 0.288019,-0.64896 0.53563,-1.053 0.247481,-0.40403 0.447263,-0.81386 0.444092,-0.91067 -0.0032,-0.0967 0.05035,-0.17798 0.119,-0.18023 0.06865,-0.002 0.186019,-0.17752 0.26023,-0.38938 0.07454,-0.21181 0.400023,-0.92156 0.723219,-1.57704 0.323326,-0.65548 0.585028,-1.27165 0.581824,-1.36925 -0.0032,-0.0977 0.04479,-0.17909 0.106577,-0.18111 0.06179,-0.002 0.236038,-0.31395 0.386946,-0.69343 0.151038,-0.37934 0.337973,-0.73189 0.415551,-0.78345 0.07748,-0.0516 0.137308,-0.21451 0.132404,-0.3622 -0.0033,-0.14769 0.05721,-0.27074 0.137635,-0.2734 0.08075,-0.003 0.108865,-0.0615 0.06277,-0.13093 -0.0461,-0.0695 -0.01962,-0.16883 0.05885,-0.2211 0.153,-0.10187 0.780397,-1.4454 0.773434,-1.6567 -0.0023,-0.0699 0.142865,-0.25069 0.322346,-0.40182 0.17948,-0.15114 0.361217,-0.46201 0.403651,-0.69094 0.05427,-0.29191 0.159212,-0.41899 0.352161,-0.42534 0.198443,-0.007 0.251731,-0.0756 0.191577,-0.24869 -0.120961,-0.34843 0.05133,-0.53238 0.523077,-0.55703 0.829108,-0.0436 0.989824,-0.0842 0.995937,-0.25454 0.034,-0.95034 0.178827,-1.66043 0.470965,-2.31076 0.19125,-0.42613 0.334115,-0.90225 0.317115,-1.05801 -0.01961,-0.15575 0.04904,-0.38105 0.146788,-0.50068 0.09742,-0.11966 0.206289,-0.40536 0.241269,-0.63499 0.128808,-0.84255 0.215116,-1.25964 0.315481,-1.53359 0.05688,-0.15432 0.170981,-0.56298 0.253692,-0.90844 0.08271,-0.34542 0.210211,-0.84812 0.283115,-1.11707 0.0729,-0.26899 0.138288,-0.55153 0.144827,-0.6279 0.05558,-0.62023 0.216096,-1.3226 0.303057,-1.32546 0.102981,-0.003 0.338529,-1.21775 0.438338,-2.25932 0.02615,-0.2835 0.134039,-0.5907 0.237673,-0.68249 0.103635,-0.0917 0.185365,-0.25667 0.181442,-0.36605 -0.0065,-0.19377 0.287039,-1.36452 0.483388,-1.92898 0.08794,-0.25249 0.355169,-1.24453 0.64005,-2.37511 0.05819,-0.23055 0.243557,-0.95631 0.412576,-1.61316 0.168692,-0.65684 0.303712,-1.29553 0.299462,-1.4193 -0.0033,-0.12384 0.08565,-0.32434 0.199095,-0.44562 0.113443,-0.12115 0.226558,-0.55008 0.251077,-0.95282 0.09252,-1.53279 0.282788,-2.19741 0.694744,-2.4279 0.40898,-0.22868 0.505292,-0.48873 0.177192,-0.47794 -0.261865,0.008 -0.219038,-0.50708 0.08206,-1.00111 0.142865,-0.23398 0.232769,-0.68054 0.230807,-1.14718 -0.0022,-0.4647 0.06408,-0.79294 0.167711,-0.83753 0.09383,-0.0404 0.164116,-0.26807 0.156269,-0.50584 -0.0065,-0.23787 0.09612,-0.60155 0.230481,-0.80816 0.134365,-0.20658 0.244211,-0.46905 0.243884,-0.58326 -0.0018,-0.25441 0.602715,-2.17415 0.836367,-2.65852 0.0935,-0.19344 0.136327,-0.43578 0.09579,-0.53842 -0.04054,-0.10269 -0.01635,-0.41502 0.05067,-0.69404 0.06865,-0.279 0.243231,-1.13438 0.388156,-1.90077 0.258923,-1.36889 0.30698,-1.55875 0.593463,-2.34544 0.07846,-0.21554 0.138288,-0.52974 0.13273,-0.69805 -0.0065,-0.16826 0.116712,-0.39099 0.271346,-0.4948 0.214135,-0.14378 0.243231,-0.23177 0.122596,-0.36762 -0.116057,-0.13093 -0.118346,-0.35165 -0.0065,-0.82283 0.08206,-0.35418 0.192884,-0.64541 0.245846,-0.64715 0.142865,-0.005 0.373084,-0.82656 0.358176,-1.27871 -0.0065,-0.21695 0.101346,-0.5165 0.240942,-0.66577 0.168039,-0.17954 0.205962,-0.31656 0.112462,-0.40426 -0.09383,-0.0878 -0.09383,-0.23011 -7.52e-4,-0.42013 0.07781,-0.15793 0.138288,-0.3955 0.134038,-0.52764 -0.0033,-0.13201 0.08761,-0.35307 0.204327,-0.49099 0.116711,-0.13797 0.228846,-0.5515 0.249115,-0.91917 0.01962,-0.36766 0.114423,-0.95142 0.209884,-1.29725 0.09513,-0.34587 0.284096,-1.18332 0.420358,-1.86107 0.136,-0.67771 0.363865,-1.40758 0.506109,-1.6219 0.158557,-0.23911 0.283115,-0.74611 0.322673,-1.31247 0.03531,-0.50755 0.146461,-0.99597 0.247153,-1.08544 0.100693,-0.0893 0.178827,-0.3029 0.173269,-0.47457 -0.0065,-0.17154 0.07683,-0.3891 0.183077,-0.48336 0.112135,-0.0996 0.182423,-0.40431 0.167385,-0.72605 -0.01308,-0.30508 0.04152,-0.62655 0.123576,-0.7145 0.08206,-0.0877 0.143519,-0.35282 0.135673,-0.58866 -0.0065,-0.23591 0.05067,-0.497881 0.129789,-0.582291 0.07912,-0.0844 0.161173,-0.30198 0.18275,-0.48374 0.100365,-0.85344 0.408391,-2.18309 0.593659,-2.56408 0.113115,-0.23237 0.201057,-0.55991 0.196153,-0.72823 -0.0065,-0.1683 0.111154,-0.66395 0.258923,-1.10136 0.147442,-0.43741 0.263173,-0.94319 0.257288,-1.12395 -0.0065,-0.18069 0.0425,-0.364156 0.107558,-0.407476 0.06538,-0.04335 0.11475,-0.193833 0.109846,-0.334779 -0.0033,-0.140838 0.155942,-0.820749 0.356444,-1.510991 0.20073,-0.690245 0.402017,-1.496989 0.447394,-1.792743 0.04512,-0.295865 0.164115,-0.75223 0.263172,-1.014399 0.09938,-0.261996 0.340066,-1.204747 0.534683,-2.094679 0.194846,-0.889907 0.439776,-1.81722 0.544816,-2.060673 0.10527,-0.243558 0.188962,-0.500532 0.186673,-0.571304 -0.0023,-0.07091 0.100693,-0.5321 0.228519,-1.025165 0.128154,-0.493032 0.299789,-1.272507 0.38165,-1.732157 0.08173,-0.459647 0.196807,-0.904337 0.255981,-0.988187 0.05917,-0.08372 0.136326,-0.397989 0.172615,-0.698055 0.03596,-0.300148 0.155942,-0.697241 0.266769,-0.88259 0.110827,-0.185169 0.21348,-0.546742 0.229173,-0.803076 0.01308,-0.256275 0.119326,-0.665915 0.231461,-0.91015 0.112134,-0.244113 0.199096,-0.576234 0.193865,-0.737809 -0.0065,-0.161728 0.08271,-0.435448 0.195827,-0.60854 0.213153,-0.326596 0.148423,-0.589347 -0.142212,-0.579775 -0.09252,0.003 -0.445563,0.591047 -0.784647,1.306681 -0.339084,0.715637 -0.788865,1.618385 -0.999501,2.006129 -0.445988,0.820913 -0.470899,0.872857 -0.641161,1.336597 -0.07094,0.192689 -0.276576,0.60452 -0.457169,0.915096 -0.180788,0.310479 -0.383153,0.700665 -0.449976,0.866839 -0.06669,0.166077 -0.186346,0.345103 -0.265134,0.397686 -0.07912,0.05263 -0.14025,0.212009 -0.135673,0.354194 0.0033,0.142146 -0.07192,0.344214 -0.169673,0.448839 -0.09808,0.104615 -0.217077,0.37075 -0.264808,0.591413 -0.04773,0.220738 -0.232442,0.605886 -0.410582,0.856057 -0.178173,0.250194 -0.321692,0.52021 -0.319077,0.600162 0.0026,0.08006 -0.144827,0.296878 -0.327903,0.482374 -0.214462,0.217404 -0.32846,0.490862 -0.320711,0.770541 0.0098,0.316036 -0.06244,0.455583 -0.262519,0.514923 -0.163462,0.04855 -0.270693,0.197625 -0.264808,0.3699 0.0065,0.158459 -0.112461,0.37025 -0.261538,0.470278 -0.164442,0.110402 -0.266115,0.331608 -0.258596,0.563563 0.0065,0.210113 -0.04381,0.383556 -0.112135,0.385815 -0.06865,0.0023 -0.180134,0.180919 -0.24748,0.397332 -0.06735,0.216128 -0.204654,0.486824 -0.305346,0.60125 -0.100692,0.114521 -0.380048,0.618329 -0.621349,1.119831 -0.241269,0.501503 -0.50611,0.976372 -0.588396,1.055229 -0.08206,0.07892 -0.162154,0.299395 -0.177192,0.490266 -0.01635,0.190923 -0.204981,0.582799 -0.421371,0.871197 -0.216423,0.288444 -0.389463,0.652463 -0.384298,0.809104 0.0065,0.156498 -0.05263,0.286642 -0.128807,0.289132 -0.07617,0.003 -0.135346,0.0912 -0.13175,0.19668 0.0033,0.10553 -0.228519,0.62639 -0.515786,1.15714 -0.287038,0.53078 -0.518761,1.06831 -0.514609,1.1945 0.0033,0.12613 -0.08467,0.2684 -0.197135,0.31594 -0.112461,0.0475 -0.201711,0.18164 -0.197788,0.29828 0.0033,0.11665 -0.05558,0.21378 -0.131423,0.21629 -0.07617,0.002 -0.133384,0.14702 -0.127827,0.32117 0.0065,0.17416 -0.16673,0.53804 -0.383153,0.80884 -0.216423,0.27076 -0.3927,0.59723 -0.391556,0.72534 5.89e-4,0.21652 -1.096172,2.282671 -1.479358,2.783641 -0.0935,0.12247 -0.2465,0.41192 -0.339574,0.64346 -0.09317,0.23137 -0.213154,0.51795 -0.266769,0.63646 -0.05362,0.11855 -0.134366,0.41284 -0.178827,0.65408 -0.04479,0.24123 -0.168039,0.51571 -0.274615,0.60995 -0.10625,0.0941 -0.189942,0.27347 -0.185692,0.39824 0.0033,0.12482 -0.144173,0.34886 -0.329833,0.49794 -0.185365,0.14905 -0.333428,0.38685 -0.328786,0.52836 0.0033,0.14149 -0.0716,0.25977 -0.169673,0.26301 -0.09808,0.003 -0.183404,0.13132 -0.189942,0.28462 -0.0065,0.15336 -0.105923,0.37909 -0.220673,0.5018 -0.115077,0.12286 -0.204981,0.34091 -0.200404,0.48494 0.0098,0.30878 -0.556226,1.44806 -0.905347,1.82093 -0.134365,0.14342 -0.280827,0.4595 -0.325942,0.70239 -0.04511,0.24287 -0.168365,0.478 -0.273961,0.52256 -0.105596,0.0447 -0.189288,0.16094 -0.186019,0.25899 0.0032,0.0977 -0.100039,0.22244 -0.229173,0.27707 -0.201384,0.0851 -0.205634,0.11667 -0.02615,0.22135 0.114423,0.0672 0.136981,0.12535 0.05002,0.12953 -0.08696,0.004 -0.24748,0.25412 -0.35664,0.55597 -0.109519,0.30159 -0.262519,0.59091 -0.340098,0.64249 -0.07781,0.0516 -0.135019,0.27691 -0.127826,0.50064 0.0098,0.26696 -0.05688,0.40911 -0.191577,0.41354 -0.112788,0.004 -0.240942,0.17935 -0.285077,0.39019 -0.04413,0.2108 -0.190269,0.53568 -0.324961,0.72172 -0.134692,0.18595 -0.24225,0.41364 -0.23898,0.50568 0.003,0.0921 -0.115404,0.28413 -0.262846,0.42686 -0.147769,0.14257 -0.263827,0.40025 -0.258269,0.57232 0.0065,0.17219 -0.03694,0.33515 -0.09513,0.36248 -0.05787,0.0281 -0.330453,0.52437 -0.605461,1.10463 -0.274942,0.58023 -0.64067,1.25798 -0.812599,1.50609 -0.171961,0.24803 -0.308942,0.55911 -0.304692,0.69118 0.0033,0.13201 -0.167712,0.57713 -0.382859,0.98906 -0.215116,0.4119 -0.387894,0.83657 -0.384363,0.94371 0.0033,0.10716 -0.07781,0.23022 -0.181116,0.27386 -0.10298,0.0436 -0.321365,0.38448 -0.484793,0.75775 -0.163789,0.37328 -0.331925,0.71099 -0.374066,0.75045 -0.07879,0.0735 -0.218711,0.37921 -0.59817,1.30535 -0.119654,0.2921 -0.33199,0.59732 -0.471717,0.67813 -0.139596,0.0808 -0.249769,0.27187 -0.244865,0.42419 0.0098,0.31369 -0.433271,1.32466 -0.642207,1.46349 -0.07552,0.0502 -0.134365,0.1853 -0.130442,0.30064 0.0033,0.11501 -0.08337,0.30564 -0.193866,0.42352 -0.110173,0.11779 -0.196807,0.33436 -0.191903,0.48107 0.0033,0.14672 -0.08467,0.26971 -0.198769,0.27347 -0.114096,0.004 -0.203673,0.12283 -0.199096,0.26497 0.0033,0.14182 -0.110827,0.42038 -0.256635,0.61882 -0.145807,0.19844 -0.262846,0.42688 -0.26023,0.50766 0.0065,0.20848 -0.493654,1.15691 -0.794782,1.50605 -0.139596,0.16193 -0.249769,0.41069 -0.245192,0.55302 0.0033,0.14247 -0.09938,0.39101 -0.231462,0.5526 -0.131749,0.16166 -0.380211,0.6411 -0.551911,1.06563 -0.171961,0.42451 -0.389005,0.82421 -0.48293,0.88821 -0.09415,0.0639 -0.166077,0.26582 -0.159865,0.44841 0.0065,0.18265 -0.07094,0.38459 -0.170981,0.44879 -0.285403,0.18275 -0.649857,0.86602 -0.545797,1.02268 0.05165,0.0778 0.02942,0.14355 -0.04871,0.14617 -0.07879,0.003 -0.239634,0.2074 -0.357326,0.45501 -0.117693,0.24758 -0.296846,0.53844 -0.397702,0.64613 -0.100692,0.10766 -0.180134,0.28822 -0.176538,0.40095 0.0033,0.11272 -0.231135,0.6302 -0.521736,1.14969 -0.290635,0.51945 -0.561359,1.10137 -0.601571,1.29307 -0.04021,0.19167 -0.253692,0.5353 -0.474397,0.76349 -0.220673,0.22806 -0.415814,0.58876 -0.4335,0.80124 -0.03269,0.37894 -0.796253,2.12092 -0.969261,2.20793 -0.04838,0.0245 -0.275596,0.468 -0.505422,0.98593 -0.2295,0.51793 -0.47904,1.06834 -0.554298,1.22315 -0.07519,0.15489 -0.237346,0.50284 -0.360073,0.77344 -0.122923,0.27062 -0.333036,0.62342 -0.467238,0.78402 -0.34608,0.41422 -0.524416,0.7851 -0.616543,1.28195 -0.04381,0.23728 -0.255654,0.64175 -0.470475,0.89886 -0.214788,0.25699 -0.425326,0.59871 -0.467826,0.75909 -0.171635,0.64738 -1.379909,3.1808 -1.833416,3.84433 -0.163461,0.23927 -0.294884,0.50755 -0.291942,0.59636 0.0029,0.0889 -0.149404,0.4467 -0.338626,0.7953 -0.399925,0.73697 -0.708834,2.4074 -0.491267,2.65642 0.07781,0.0893 0.106903,0.22316 0.06408,0.2975 -0.139923,0.24405 -0.157577,1.40073 -0.02289,1.47816 0.07258,0.0418 0.14025,0.30547 0.150384,0.58611 0.0098,0.28064 0.121616,0.84983 0.247808,1.26457 0.126192,0.4147 0.240615,1.08282 0.255,1.48462 0.01308,0.40183 0.131096,0.9588 0.259576,1.23771 0.128481,0.27902 0.278212,0.87466 0.333069,1.32383 0.05427,0.44919 0.166404,0.97517 0.248788,1.16882 0.148096,0.34878 0.152673,0.34556 0.476556,-0.34181 0.179807,-0.38168 0.411269,-0.78408 0.514347,-0.89418 0.102981,-0.11 0.304692,-0.46355 0.447754,-0.78544 0.328132,-0.73769 0.914566,-1.83115 1.033043,-1.92618 0.04936,-0.0396 0.280827,-0.4368 0.514348,-0.88237 0.233749,-0.44561 0.472567,-0.81178 0.531445,-0.81372 0.151366,-0.005 0.92614,-1.64553 0.91643,-1.94023 -0.0033,-0.1343 0.113442,-0.33793 0.262192,-0.45259 0.14875,-0.11482 0.265788,-0.33864 0.260558,-0.4977 -0.0065,-0.15911 0.09513,-0.41682 0.223615,-0.57285 0.128154,-0.156 0.296192,-0.40383 0.373378,-0.55072 0.07715,-0.14679 0.287692,-0.38367 0.467336,-0.52622 0.283443,-0.22456 0.399042,-0.2395 0.866836,-0.11128 0.360563,0.0987 0.590194,0.26353 0.691311,0.49564 0.08304,0.19121 0.205635,0.4706 0.271673,0.62072 0.06604,0.15026 0.213807,0.7061 0.328492,1.23544 0.114423,0.52937 0.252711,0.99215 0.307307,1.02843 0.0546,0.0362 0.141885,0.43845 0.194519,0.89367 0.05264,0.45523 0.207923,1.0824 0.345492,1.39372 0.137962,0.31143 0.237673,0.65076 0.221981,0.75431 -0.01635,0.10357 0.121942,0.62621 0.305673,1.16148 0.18373,0.5353 0.338103,1.09898 0.343138,1.25262 0.0065,0.15356 0.105269,0.3538 0.222307,0.44476 0.117039,0.091 0.216096,0.25883 0.220019,0.37273 0.0098,0.28524 0.791055,2.0865 0.903778,2.08279 0.05002,-0.002 0.183077,-0.11494 0.295539,-0.25212 z m 54.22612,-5.24653 c 0.0262,-0.37299 0.10723,-0.64798 0.23114,-0.78038 0.0788,-0.084 0.13959,-0.26497 0.13502,-0.40177 -0.003,-0.13692 0.0471,-0.25078 0.11475,-0.25301 0.0677,-0.002 0.15888,-0.23878 0.20269,-0.52594 0.0438,-0.28701 0.12587,-0.58573 0.18242,-0.66374 0.0566,-0.0781 0.1311,-0.29871 0.16608,-0.49013 0.10265,-0.56449 0.61,-2.01067 0.78638,-2.24142 0.0896,-0.11711 0.26252,-0.53048 0.3844,-0.9184 0.21511,-0.68576 0.21151,-0.74898 -0.13208,-2.28044 -0.19419,-0.86631 -0.41696,-1.82229 -0.49473,-2.12436 -0.0778,-0.30198 -0.20498,-0.80122 -0.28279,-1.10914 -0.0778,-0.30787 -0.18177,-0.62013 -0.23016,-0.69373 -0.0487,-0.0736 -0.11344,-0.44054 -0.14253,-0.81544 -0.0513,-0.66478 -0.25991,-1.28948 -0.47757,-1.43684 -0.0595,-0.0402 -0.14843,-0.48906 -0.19812,-0.99735 -0.0494,-0.50825 -0.16019,-1.12436 -0.2465,-1.36907 -0.18111,-0.51485 -0.86794,-3.87249 -0.88576,-4.3303 -0.007,-0.16987 -0.0589,-0.2774 -0.11573,-0.23954 -0.0569,0.0379 -0.1432,-0.13168 -0.19158,-0.37699 -0.17719,-0.89831 -0.60785,-2.23734 -0.81639,-2.53713 -0.11769,-0.16948 -0.21512,-0.54003 -0.21642,-0.82371 -0.003,-0.28351 -0.0795,-0.78507 -0.1736,-1.11411 -0.1275,-0.44351 -0.1324,-0.64912 -0.0196,-0.79479 0.119,-0.1534 0.0857,-0.24781 -0.15103,-0.42966 -0.26285,-0.202 -0.28704,-0.29638 -0.18145,-0.709 0.0971,-0.37953 0.0781,-0.50559 -0.0935,-0.62261 -0.11834,-0.0808 -0.23832,-0.31237 -0.26676,-0.51506 -0.0294,-0.2025 -0.12162,-0.44766 -0.20727,-0.54455 -0.0857,-0.097 -0.20335,-0.42383 -0.26122,-0.72655 -0.14057,-0.73034 -0.42509,-1.60754 -0.58682,-1.80882 -0.0716,-0.0892 -0.0932,-0.29392 -0.0477,-0.45508 0.0454,-0.16111 0.0163,-0.36657 -0.0628,-0.45654 -0.13502,-0.15191 -0.22264,-0.55001 -0.43046,-1.95051 -0.0448,-0.30307 -0.12783,-0.70544 -0.18438,-0.89398 -0.0566,-0.1885 -0.12554,-0.46669 -0.15366,-0.61806 -0.17131,-0.92296 -0.44831,-1.94258 -0.55747,-2.05184 -0.07,-0.07 -0.13371,-0.32907 -0.14188,-0.57563 -0.007,-0.2467 -0.0706,-0.48047 -0.1396,-0.51979 -0.0686,-0.0393 -0.18111,-0.42875 -0.24944,-0.8654 -0.0687,-0.43668 -0.21413,-0.98946 -0.32267,-1.2284 -0.10854,-0.23914 -0.28737,-0.91852 -0.39705,-1.51014 -0.10985,-0.59161 -0.2259,-1.16826 -0.25794,-1.28142 -0.033,-0.11308 -0.13568,-0.5148 -0.23016,-0.89251 -0.0941,-0.3777 -0.30992,-1.21953 -0.47962,-1.87073 -0.16968,-0.6512 -0.31516,-1.39586 -0.32366,-1.65481 -0.01,-0.25912 -0.1069,-0.59236 -0.21838,-0.74093 -0.11148,-0.14842 -0.2125,-0.48623 -0.22427,-0.75041 -0.0131,-0.26424 -0.0938,-0.75832 -0.18275,-1.0981 -0.0886,-0.33981 -0.20564,-0.80329 -0.26023,-1.02997 -0.0546,-0.22686 -0.15594,-0.53492 -0.22558,-0.68495 -0.0693,-0.15016 -0.16738,-0.5505 -0.21773,-0.88994 -0.05,-0.33942 -0.15823,-0.63702 -0.23996,-0.66138 -0.0817,-0.0235 -0.15594,-0.25981 -0.16477,-0.52369 -0.01,-0.2637 -0.10625,-0.64475 -0.21675,-0.84677 -0.11083,-0.2021 -0.22329,-0.73529 -0.25108,-1.185 -0.0294,-0.44973 -0.18013,-1.17441 -0.33954,-1.61042 -0.15921,-0.43598 -0.34232,-1.08939 -0.40711,-1.45205 -0.0647,-0.36265 -0.16837,-0.72 -0.23016,-0.79411 -0.11181,-0.13371 -0.27233,-0.83384 -0.64714,-2.817401 -0.10723,-0.56765 -0.26383,-1.16597 -0.34795,-1.32953 -0.0843,-0.16372 -0.12128,-0.43703 -0.0827,-0.60761 0.0386,-0.17072 -0.034,-0.53062 -0.16052,-0.80004 -0.21577,-0.45787 -0.57505,-1.55455 -0.76706,-2.34158 -0.0461,-0.18886 -0.12226,-0.435633 -0.16901,-0.548314 -0.0468,-0.112625 -0.0759,-0.348705 -0.0644,-0.524479 0.01,-0.175655 -0.0559,-0.406152 -0.14973,-0.51199 -0.0938,-0.105825 -0.19223,-0.519882 -0.21806,-0.920183 -0.0262,-0.400258 -0.084,-0.788878 -0.1288,-0.863589 -0.0451,-0.07474 -0.17066,-0.506714 -0.27985,-0.960081 -0.10919,-0.45337 -0.29946,-1.217555 -0.4234,-1.698138 -0.12423,-0.480613 -0.19419,-0.928301 -0.15561,-0.994885 0.0379,-0.06666 -0.0386,-0.275465 -0.17164,-0.463904 -0.19452,-0.276544 -0.20923,-0.384029 -0.0762,-0.555294 0.1141,-0.147017 0.11704,-0.210898 0.01,-0.207367 -0.0853,0.0028 -0.15725,-0.06025 -0.15987,-0.139956 -0.003,-0.07974 -0.13763,-0.398584 -0.30044,-0.708491 -0.16248,-0.309955 -0.29946,-0.680355 -0.30404,-0.823243 -0.003,-0.1428 -0.0683,-0.363094 -0.14156,-0.48943 -0.0732,-0.126486 -0.18078,-0.601607 -0.23963,-1.056173 -0.0588,-0.454567 -0.13992,-0.981177 -0.18079,-1.170233 -0.23408,-1.089094 -0.4265,-1.825083 -0.50934,-1.949761 -0.052,-0.0781 -0.19681,-0.61367 -0.3217,-1.190323 -0.12521,-0.576675 -0.29194,-1.326757 -0.37053,-1.666907 -0.21315,-0.921945 -0.74682,-2.703399 -0.86144,-2.8759 -0.0549,-0.08291 -0.0262,-0.244081 0.0601,-0.357866 0.12848,-0.165489 0.11933,-0.205733 -0.0461,-0.200306 -0.13666,0.0046 -0.24487,-0.191805 -0.31843,-0.578039 -0.12946,-0.678619 -0.53746,-1.986876 -0.72469,-2.324855 -0.0709,-0.128187 -0.13992,-0.708772 -0.15267,-1.290518 -0.0131,-0.596297 -0.0922,-1.1216 -0.18013,-1.204109 -0.086,-0.08059 -0.16085,-0.289425 -0.16673,-0.464489 -0.007,-0.175132 -0.0794,-0.31597 -0.16379,-0.313192 -0.0935,0.0031 -0.12456,-0.127728 -0.0798,-0.335076 0.0722,-0.332974 -0.1226,-0.609773 -0.25991,-0.370034 -0.0383,0.06669 -0.0422,2.077457 -0.01,4.468273 0.0337,2.390812 0.0333,4.50254 6e-5,4.692701 -0.0762,0.432869 -0.0732,3.339942 0.007,7.825852 0.0333,1.902889 0.007,3.663303 -0.0641,3.912098 -0.086,0.308027 -0.0801,0.478729 0.0163,0.535071 0.15888,0.09128 0.18569,2.647261 0.0294,2.918345 -0.0507,0.08866 -0.0131,0.195075 0.084,0.236332 0.14091,0.06012 0.14221,0.09281 0.007,0.161696 -0.21511,0.109127 -0.21119,0.439509 0.007,0.504135 0.10265,0.03073 0.12227,0.122563 0.052,0.245257 -0.0618,0.108016 -0.0955,1.164771 -0.0745,2.348315 0.0229,1.18349 0.0229,2.869 0.003,3.74548 -0.0333,1.52852 0.0262,3.902561 0.12129,4.773301 0.0464,0.41321 0.0468,0.41408 1.15495,0.48116 1.53523,0.0931 1.73566,0.14535 1.7459,0.45638 0.003,0.14639 0.0719,0.30185 0.14875,0.34612 0.15954,0.0916 -0.31973,0.64976 -0.79279,0.92339 -0.17196,0.0995 -0.75565,0.20446 -1.29723,0.23339 l -0.98456,0.052 0.002,1.36744 c 0.002,0.75207 0.0294,1.43855 0.07,1.52539 0.0461,0.10968 0.35674,0.12335 1.01356,0.0445 1.17764,-0.1408 1.82174,0.005 1.82609,0.41227 0.002,0.1612 0.0474,0.38507 0.10167,0.49753 0.0539,0.11237 -0.0229,0.41716 -0.16934,0.67712 l -0.26808,0.47261 -1.13638,-0.01 c -0.62501,-0.006 -1.19778,0.0329 -1.27281,0.0847 -0.21185,0.14663 -0.13764,3.33878 0.0834,3.59652 0.15398,0.17942 0.36501,0.18818 1.39426,0.0575 1.13812,-0.14444 1.76875,-0.0844 1.94608,0.18258 0.0399,0.0605 0.12292,0.38873 0.18438,0.72945 l 0.11148,0.61946 -0.58679,0.30518 c -0.52252,0.272 -0.72289,0.2979 -1.82949,0.23719 -0.92784,-0.0509 -1.26912,-0.0242 -1.34712,0.10451 -0.0572,0.0951 -0.0683,0.79467 -0.0229,1.55479 l 0.0804,1.3821 0.48348,-0.0355 c 0.26612,-0.0186 0.79809,-0.0606 1.18255,-0.0913 0.91411,-0.0726 1.20163,0.0219 1.4262,0.46785 0.24094,0.47854 0.24159,0.86969 0.002,1.209 -0.16542,0.23408 -0.38302,0.28213 -1.508,0.33356 -0.76048,0.0349 -1.37784,0.12743 -1.46422,0.21959 -0.20792,0.22241 -0.34408,2.41544 -0.16248,2.62018 0.0935,0.10553 0.60337,0.14238 1.48557,0.10713 2.0486,-0.0805 2.72847,0.23778 2.42031,1.13624 -0.11867,0.34655 -0.26089,0.47506 -0.6377,0.57732 -0.1324,0.0371 -0.48423,0.13368 -0.78193,0.21708 -0.29783,0.0834 -0.60321,0.11635 -0.67892,0.0727 -0.238,-0.13643 -1.66825,0.0255 -1.77941,0.20217 -0.0585,0.0925 -0.0592,0.41589 -0.003,0.71865 0.22591,1.19073 0.27985,2.32671 0.11508,2.43598 -0.1056,0.0702 -0.0428,0.12832 0.17785,0.1649 1.09614,0.18177 5.81922,0.47353 6.80954,0.42059 0.63122,-0.0339 1.93008,0.42108 2.1895,0.76666 0.10821,0.14397 0.27069,0.25964 0.36141,0.25732 0.2975,-0.008 1.4738,1.52625 1.74515,2.2758 0.14613,0.40325 0.41542,0.95519 0.59869,1.22654 0.1834,0.27135 0.38936,0.83349 0.45795,1.24917 0.0687,0.41571 0.21446,0.94058 0.32431,1.16636 0.18831,0.3875 0.27167,0.66986 0.48587,1.64735 0.0497,0.22669 0.18798,0.6762 0.30731,0.99863 0.11933,0.32249 0.22296,0.77386 0.23048,1.0032 0.007,0.22937 0.10233,0.58237 0.20989,0.78447 0.10821,0.20222 0.21478,0.6161 0.23734,0.92001 0.052,0.68879 0.36841,2.24899 0.53151,2.61347 0.23277,0.5196 0.44302,1.23285 0.44514,1.50856 0.002,0.15237 0.0758,0.52367 0.16575,0.82537 0.0902,0.30155 0.1736,0.76624 0.18602,1.03242 0.0131,0.26618 0.14613,0.6345 0.2975,0.81859 0.1991,0.24205 0.23636,0.3846 0.13535,0.51481 -0.0942,0.12152 -0.0922,0.23496 0.007,0.34846 0.19158,0.22234 0.31254,0.77184 0.4455,2.0203 0.0657,0.61794 0.19387,1.11479 0.32137,1.24659 0.1324,0.13695 0.221,0.50202 0.23636,0.97283 0.0131,0.41451 0.11214,0.87372 0.21937,1.0204 0.22361,0.30698 0.56178,1.67271 0.58444,2.36077 0.01,0.25716 0.14842,0.72132 0.3109,1.03122 0.16248,0.30999 0.30306,0.79041 0.31221,1.06775 0.01,0.27739 0.0647,0.54935 0.12358,0.6045 0.19909,0.18644 0.4846,1.5135 0.35569,1.65467 -0.17981,0.19727 -0.14515,0.35789 0.0762,0.35059 0.19877,-0.007 0.37005,0.27468 0.38162,0.62633 0.0131,0.39625 0.44337,1.14665 0.65358,1.13973 0.11802,-0.004 0.21773,-0.0539 0.22166,-0.11099 z m -4.83607,-14.85642 c -0.0477,-0.10899 -0.0798,-0.0749 -0.0807,0.0864 -0.002,0.14594 0.0337,0.22656 0.0785,0.17928 0.0445,-0.0476 0.0454,-0.16702 10e-4,-0.26533 z m -57.776109,-1.2025 c -0.04773,-0.0446 -0.167058,-0.0455 -0.265461,-0.001 -0.108866,0.0478 -0.07487,0.0797 0.08631,0.0809 0.145808,0.002 0.226558,-0.0336 0.179154,-0.0785 z m 60.997479,-9.53991 c 0.0445,-0.0777 -0.0196,-0.13768 -0.14287,-0.13368 -0.12325,0.004 -0.18307,0.0682 -0.13371,0.14277 0.0497,0.0746 0.11377,0.13462 0.14287,0.13368 0.0294,-9.7e-4 0.0893,-0.0654 0.13371,-0.14277 z m -38.311883,-3.61154 c -0.04773,-0.10899 -0.07944,-0.0749 -0.08075,0.0864 -0.0017,0.14594 0.03367,0.22656 0.07846,0.17928 0.04446,-0.0476 0.04544,-0.16702 0.0011,-0.26533 z m 1.783494,-8.92094 c -0.04773,-0.10899 -0.07944,-0.0749 -0.08075,0.0864 -0.0017,0.14594 0.03367,0.22655 0.07846,0.17928 0.04446,-0.0476 0.04544,-0.16702 0.0011,-0.2653 z m 3.347722,-11.88031 c -0.04773,-0.109 -0.07944,-0.0749 -0.08075,0.0864 -0.0017,0.14594 0.03367,0.22656 0.07846,0.17929 0.04446,-0.0476 0.04544,-0.16703 0.0011,-0.2653 z M 114.7062,101.38989 c -0.003,-0.0761 -0.0981,-0.13515 -0.21217,-0.13139 -0.1141,0.004 -0.20531,0.0689 -0.20302,0.14505 0.003,0.0761 0.0981,0.13515 0.21217,0.13139 0.1141,-0.004 0.20531,-0.0692 0.20302,-0.14502 z M 89.695823,93.150158 c 0.04675,-0.135641 0.0033,-0.175133 -0.1275,-0.119458 -0.108865,0.0461 -0.195827,0.139269 -0.193865,0.206877 0.0065,0.198998 0.244865,0.133907 0.321365,-0.08745 z M 104.66849,49.986453 c -0.0477,-0.04446 -0.16705,-0.04544 -0.26546,-0.0021 -0.10886,0.0478 -0.0749,0.07948 0.0863,0.08082 0.14581,0.0011 0.22656,-0.03429 0.17915,-0.07862 z M 96.868607,32.740852 c -0.04969,-0.07451 -0.14875,-0.133581 -0.220346,-0.131227 -0.0716,0.0024 -0.127827,0.06653 -0.125539,0.142604 0.0025,0.07607 0.101673,0.135117 0.220346,0.131226 0.118673,-0.0039 0.174904,-0.06807 0.125539,-0.142603 z m 22.878713,-1.168419 c -0.003,-0.07607 -0.0631,-0.136392 -0.1347,-0.134038 -0.0716,0.0024 -0.1664,0.0678 -0.21119,0.145415 -0.0445,0.07761 0.0163,0.137896 0.13469,0.134038 0.11868,-0.0039 0.21348,-0.06934 0.2112,-0.145415 z"
       id="path914" />
  </g>
</svg>
