<?xml version="1.0" encoding="UTF-8" standalone="no"?>
<!-- Created with Inkscape (http://www.inkscape.org/) -->

<svg
   width="175.54639mm"
   height="175.54639mm"
   viewBox="0 0 175.5464 175.54639"
   version="1.1"
   id="svg5"
   inkscape:version="1.1 (c68e22c387, 2021-05-23)"
   sodipodi:docname="infinity.svg"
   xmlns:inkscape="http://www.inkscape.org/namespaces/inkscape"
   xmlns:sodipodi="http://sodipodi.sourceforge.net/DTD/sodipodi-0.dtd"
   xmlns="http://www.w3.org/2000/svg"
   xmlns:svg="http://www.w3.org/2000/svg">
  <sodipodi:namedview
     id="namedview7"
     pagecolor="#ffffff"
     bordercolor="#666666"
     borderopacity="1.0"
     inkscape:pageshadow="2"
     inkscape:pageopacity="0.0"
     inkscape:pagecheckerboard="0"
     inkscape:document-units="mm"
     showgrid="false"
     inkscape:zoom="0.77771465"
     inkscape:cx="183.87207"
     inkscape:cy="494.39727"
     inkscape:window-width="2560"
     inkscape:window-height="1377"
     inkscape:window-x="-8"
     inkscape:window-y="-8"
     inkscape:window-maximized="1"
     inkscape:current-layer="layer1" />
  <defs
     id="defs2" />
  <g
     inkscape:label="Vrstva 1"
     inkscape:groupmode="layer"
     id="layer1"
     transform="translate(-17.970665,-15.146566)">
    <rect
       style="fill:none;stroke-width:2.3;stroke:none"
       id="rect1760"
       width="175.54639"
       height="175.54639"
       x="17.970665"
       y="15.146566" />
    <path
       style="fill:#000000;stroke-width:0.227153"
       d="m 58.845101,159.14059 c -0.963757,-0.0816 -1.823202,-0.21947 -1.909914,-0.30639 -0.08693,-0.0869 -0.269364,-0.0714 -0.405657,0.0322 -0.136292,0.10571 -1.558774,0.0853 -3.160743,-0.0429 -2.052699,-0.16634 -3.181401,-0.16473 -3.822779,0.005 -0.564969,0.15078 -1.183166,0.16742 -1.630355,0.0429 -0.993483,-0.27419 -16.847638,-0.98275 -20.532516,-0.91767 -3.195567,0.0563 -3.832599,-0.0944 -4.681527,-1.1072 -0.397072,-0.47413 -1.130634,-2.49912 -0.964991,-2.66479 0.04293,-0.0435 -0.06224,-0.55023 -0.23556,-1.12568 -0.464681,-1.54404 -0.407267,-2.40242 0.187267,-2.79795 1.233068,-0.82038 1.769222,-1.54282 1.794281,-2.41778 0.0161,-0.4781 0.06332,-1.22707 0.109999,-1.66434 0.137902,-1.28765 0.337511,-5.51623 0.449657,-9.54045 0.05741,-2.06142 0.216243,-4.17516 0.352535,-4.69719 0.144878,-0.55467 0.278487,-3.90626 0.320877,-8.06396 0.04293,-3.91314 0.09015,-7.31923 0.111609,-7.5691 0.02146,-0.24988 -0.02146,-1.73205 -0.100877,-3.29372 -0.07727,-1.56168 -0.143805,-5.46864 -0.148097,-8.68212 -0.0045,-3.37199 -0.09766,-5.898236 -0.220536,-5.974029 -0.197463,-0.121965 -0.09497,-1.898973 0.121804,-2.11586 0.05366,-0.05366 0.01073,-0.26255 -0.09068,-0.464735 -0.103024,-0.202238 -0.109463,-0.980965 -0.01073,-1.730572 0.09605,-0.749606 0.228048,-2.793988 0.293511,-4.543072 0.120731,-3.230682 0.163121,-3.495657 0.768924,-4.859437 0.18834,-0.423847 0.421218,-1.405145 0.517266,-2.180626 0.09605,-0.775475 0.275267,-1.604196 0.398145,-1.841596 0.122877,-0.237385 0.351462,-1.147172 0.508144,-2.021711 0.281706,-1.572645 0.769031,-3.435855 1.129186,-4.315916 0.363266,-0.888034 0.659782,-2.293475 0.814211,-3.861612 0.08639,-0.874539 0.30156,-1.755604 0.479169,-1.957912 0.177072,-0.202291 0.677704,-1.061694 1.112015,-1.909747 0.77724,-1.517763 1.64189,-2.637516 3.941793,-5.104908 0.64052,-0.687138 1.300732,-1.402671 1.46718,-1.590073 0.16634,-0.187428 0.475949,-0.494032 0.688168,-0.681461 0.21195,-0.187428 0.687202,-0.773581 1.055834,-1.302614 0.368633,-0.529018 1.002982,-1.100962 1.409658,-1.270946 0.40673,-0.169989 0.879674,-0.478203 1.051113,-0.68498 0.171706,-0.206746 0.483998,-0.375931 0.694124,-0.375931 0.21034,0 0.705821,-0.238672 1.101229,-0.530358 0.395462,-0.291687 1.120171,-0.711316 1.610662,-0.932518 0.81008,-0.365305 1.024284,-0.373193 2.335103,-0.08591 1.119903,0.245434 2.308327,0.276341 5.304822,0.137902 2.123904,-0.09809 6.621544,-0.229282 9.994774,-0.291472 3.37323,-0.06219 7.053117,-0.164087 8.177527,-0.22633 1.124411,-0.0623 2.197684,-0.121429 2.385113,-0.13141 0.187267,-0.01019 1.82288,0.04239 3.634439,0.115902 7.788934,0.317121 16.855633,0.160009 17.698498,-0.306711 0.401364,-0.222252 1.010386,-0.261745 2.271518,-0.147345 0.947713,0.08596 2.489799,0.205135 3.426781,0.26475 0.937026,0.05961 1.728975,0.180721 1.759885,0.26915 0.0322,0.08837 1.05315,0.130014 2.27157,0.09251 2.09187,-0.06444 5.00149,0.09884 12.09646,0.678686 3.73676,0.305424 8.90562,0.283424 10.90337,-0.04668 1.13777,-0.187858 1.94549,-0.170902 3.5209,0.07389 1.12441,0.174712 2.09546,0.245863 2.15792,0.158185 0.19961,-0.280365 8.8826,-0.806334 10.90337,-0.660491 1.0847,0.07829 3.08487,0.08575 6.36034,0.02361 5.74068,-0.108712 24.18138,0.06788 24.4419,0.234057 0.13736,0.08773 1.07638,0.207658 2.08628,0.266521 1.91046,0.111341 2.89224,0.372067 5.13387,1.363436 0.73244,0.323936 1.4638,0.588954 1.62526,0.588954 0.16151,0 0.32731,0.08102 0.36917,0.180024 0.0429,0.099 0.44858,0.407427 0.90382,0.685324 0.7825,0.477505 2.69279,3.216966 2.69279,3.861724 0,0.148688 0.0858,0.270277 0.19102,0.270277 0.10517,0 0.31176,0.402706 0.45932,0.894898 0.15131,0.504978 0.44965,0.95244 0.68419,1.026961 0.22912,0.07265 0.60994,0.513242 0.84684,0.979119 0.23717,0.465862 0.49741,0.898165 0.57881,0.960634 0.0816,0.06246 0.22215,0.624675 0.31283,1.249343 0.0907,0.624674 0.26507,1.262114 0.38795,1.416531 0.22053,0.277146 0.35575,6.925674 0.19961,9.82757 -0.0429,0.812075 -0.005,1.758758 0.0858,2.103738 0.14327,0.543613 0.10893,0.608899 -0.25756,0.489686 -0.31766,-0.103399 -0.34556,-0.08242 -0.11161,0.0844 0.30961,0.221072 0.28224,1.385345 -0.10463,4.407907 -0.0783,0.610938 -0.0215,1.420008 0.13683,1.894927 0.19263,0.584356 0.20229,0.899877 0.0322,1.069829 -0.14649,0.146219 -0.16366,0.385696 -0.0429,0.608856 0.11053,0.206209 0.11107,0.825656 0.002,1.409792 -0.10678,0.573081 -0.24146,2.461838 -0.29888,4.197239 -0.0574,1.735396 -0.22375,3.666366 -0.3697,4.29104 -0.25649,1.098686 -0.49527,6.070081 -0.42498,8.858991 0.0376,1.59133 0.0268,2.18848 -0.12824,7.04175 -0.0649,1.99895 -0.16259,6.42257 -0.21678,9.83026 -0.066,4.13452 -0.18405,6.2987 -0.35522,6.5051 -0.14112,0.17009 -0.25917,0.90855 -0.26239,1.641 -0.003,0.73243 -0.0622,2.02841 -0.13146,2.87994 -0.11107,1.36717 -0.18941,1.57241 -0.66917,1.75483 -0.29888,0.11359 -0.54335,0.34604 -0.54335,0.51646 0,0.17042 -0.25541,0.42631 -0.56786,0.56864 -0.3123,0.1423 -0.56792,0.36176 -0.56792,0.4877 0,0.12593 -0.33215,0.38934 -0.73823,0.58535 -1.40247,0.67703 -1.76043,0.89387 -1.76043,1.06651 0,0.0953 -0.14541,0.17331 -0.32302,0.17331 -0.17761,0 -0.627,0.25552 -0.99821,0.56788 -0.37131,0.31235 -0.78008,0.56789 -0.90859,0.56789 -0.12878,0 -0.52263,0.23346 -0.87581,0.51882 -0.35307,0.28535 -1.20431,0.799 -1.89146,1.14145 -0.68715,0.34245 -1.70934,0.97633 -2.27157,1.40862 -2.05914,1.58335 -3.58271,2.58594 -3.7204,2.44825 -0.0778,-0.0776 -0.14112,-0.0386 -0.14112,0.0872 0,0.22188 -2.78159,2.11889 -3.10692,2.11889 -0.27474,0 -1.94383,1.20547 -2.83112,2.04438 -0.46254,0.43726 -1.30508,1.1528 -1.87236,1.59007 -0.56727,0.43726 -1.03528,0.92281 -1.04,1.07898 -0.005,0.1562 -0.11054,0.28396 -0.23449,0.28396 -0.12449,0 -0.8654,0.52 -1.64688,1.15559 -0.78148,0.63557 -1.64211,1.24303 -1.91249,1.34991 -0.27044,0.10688 -0.55842,0.40463 -0.63998,0.66162 -0.0816,0.25702 -0.23395,0.46736 -0.33859,0.46736 -0.10463,0 -0.62286,0.36113 -1.15145,0.803 l -0.96113,0.803 -31.98449,-0.0268 c -19.37586,-0.0161 -32.012117,-0.10839 -32.05456,-0.23556 -0.04293,-0.12449 -0.347706,-0.13093 -0.751378,-0.0161 -0.791138,0.2259 -29.129598,0.26776 -31.736426,0.0483 z m 62.769879,-4.73616 c 0.10302,-0.27897 0.38258,-0.71639 0.62072,-0.97204 0.59603,-0.6398 0.66284,-1.32337 0.57527,-5.89004 -0.13361,-6.98057 -0.0961,-10.48075 0.12287,-11.32787 0.11698,-0.45368 0.27366,-2.30702 0.34771,-4.11856 0.074,-1.81156 0.19371,-3.68338 0.26507,-4.15961 0.0714,-0.47621 0.15829,-1.54952 0.19317,-2.38511 0.0993,-2.39864 0.32571,-4.8441 0.4958,-5.361 0.0859,-0.26078 0.18352,-0.88304 0.21678,-1.38277 0.0928,-1.39655 0.30693,-5.63913 0.41908,-8.29111 0.0553,-1.31181 0.16902,-3.266 0.25273,-4.34264 0.16151,-2.07637 0.0655,-2.32293 -0.924,-2.38289 -0.25005,-0.015 -1.11872,-0.15813 -1.93084,-0.31776 -0.81207,-0.15963 -2.17788,-0.31911 -3.03518,-0.35447 -0.8573,-0.0354 -1.8532,-0.18625 -2.21319,-0.33536 -0.36005,-0.14912 -0.87544,-0.21329 -1.14556,-0.14268 -0.2699,0.0706 -1.05288,-0.0177 -1.73954,-0.19676 -0.97712,-0.25451 -3.03063,-0.32217 -9.44843,-0.31122 -4.50998,0.007 -8.404447,-0.0193 -8.654281,-0.0603 -0.367022,-0.06 -0.468437,0.0703 -0.526388,0.67883 -0.03756,0.41419 0.03756,0.88443 0.170097,1.04495 0.401364,0.48362 -0.356828,1.67188 -1.408799,2.20867 -1.271702,0.64878 -1.390609,0.804 -1.738315,2.26867 -0.260779,1.09818 -0.255413,1.4178 0.03756,2.27154 0.747729,2.17532 0.83868,2.6911 0.975938,5.53661 0.240389,4.98829 0.481851,6.80882 0.954796,7.20115 0.370779,0.30751 0.412096,0.31347 2.582628,0.36965 1.276693,0.0333 1.624237,0.13597 2.316805,0.68637 0.44805,0.35613 0.733029,0.73945 0.633009,0.85182 -0.0998,0.11237 -0.314439,1.12429 -0.476489,2.2487 -0.16205,1.12441 -0.42443,2.36876 -0.582889,2.76521 -0.158292,0.39649 -0.296194,1.71972 -0.305852,2.94058 -0.01073,1.22085 -0.105707,2.30749 -0.213024,2.41473 -0.108389,0.10855 -0.101414,0.71011 0.0161,1.35703 0.140048,0.77002 0.12878,1.48951 -0.0322,2.13277 -0.381511,1.51591 -0.312828,4.5429 0.118585,5.20107 0.397608,0.60679 0.5683,1.88799 0.275804,2.06885 -0.101415,0.0626 -0.184048,0.2692 -0.184048,0.45899 0,0.18979 -0.416389,0.73324 -0.925016,1.20765 l -0.925016,0.86256 -4.242709,0.0177 c -2.333547,0.01 -4.804942,-0.0769 -5.49209,-0.19285 -1.319941,-0.22263 -4.797751,-0.53438 -5.56528,-0.49892 -0.250048,0.0118 -1.885339,0.0693 -3.634439,0.1283 -1.7491,0.059 -3.325152,0.14198 -3.502332,0.18437 -0.177072,0.0424 -0.441608,-0.15223 -0.588041,-0.43243 -0.145951,-0.28026 -0.446974,-0.70957 -0.668154,-0.95406 -0.426583,-0.47128 -0.411559,-1.04557 0.08639,-3.30553 0.142731,-0.64811 0.212487,-2.47066 0.163121,-4.25034 -0.05366,-1.86556 6.44e-4,-3.1448 0.130927,-3.18823 0.119658,-0.0397 0.258633,-1.44936 0.309072,-3.13214 0.04829,-1.68278 0.175999,-3.36582 0.279023,-3.74009 0.103024,-0.37427 0.114829,-1.08007 0.02683,-1.56845 -0.08907,-0.4884 -0.0601,-1.18093 0.06439,-1.53901 0.162585,-0.4664 0.149707,-0.74385 -0.04293,-0.97824 -0.370779,-0.44671 0.09605,-1.85058 0.727983,-2.18872 0.307462,-0.16468 1.254102,-0.20058 2.764476,-0.1049 1.263117,0.08 2.407756,0.0657 2.543673,-0.0317 0.434632,-0.31197 0.577095,-1.24005 0.687631,-4.4823 0.05956,-1.74308 0.209804,-3.2917 0.333755,-3.44138 0.124487,-0.14971 0.328389,-0.92123 0.453949,-1.71457 0.229121,-1.44597 0.618949,-2.83456 0.915572,-3.25965 0.08693,-0.12491 0.192634,-1.0449 0.23395,-2.04438 l 0.07566,-1.81723 -1.190142,-0.0686 c -0.658709,-0.0381 -1.190141,-0.17825 -1.190141,-0.31406 0,-0.13501 -0.190487,-0.41086 -0.423901,-0.61302 -0.390096,-0.33853 -0.538783,-0.75215 -0.824621,-2.29797 -0.21678,-1.17319 -0.598559,-1.5899 -1.45897,-1.59308 -0.44751,-0.002 -1.835651,-0.0717 -3.084977,-0.15577 -3.893341,-0.26185 -23.788557,-0.0625 -23.985483,0.24039 -0.01073,0.0177 -0.105707,1.05415 -0.209267,2.3035 -0.103561,1.24934 -0.348779,3.85593 -0.545115,5.79241 -0.250048,2.47251 -0.363267,6.10799 -0.378291,12.2095 -0.01073,4.77875 -0.09766,8.68863 -0.190487,8.68863 -0.09283,0 -0.132536,1.09885 -0.08907,2.4419 0.170097,5.23474 0.184048,7.55285 0.04293,7.55285 -0.07941,0 -0.135755,0.63887 -0.126097,1.41971 0.01073,0.78084 -0.05473,3.00411 -0.144341,4.94059 -0.08907,1.93649 -0.07834,3.82754 0.02683,4.20234 l 0.187267,0.68146 2.255796,0.18207 c 1.240687,0.10012 2.920193,0.20234 3.732258,0.22713 0.812065,0.0247 1.545359,0.14075 1.629549,0.25762 0.119122,0.16537 4.302753,0.30665 10.479792,0.35393 0.100877,6.8e-4 0.120731,0.10362 0.04293,0.22858 -0.07727,0.12492 -0.03219,0.22714 0.100341,0.22714 0.132536,0 0.24039,-0.11414 0.24039,-0.25364 0,-0.16103 0.228047,-0.19977 0.62469,-0.10604 0.343413,0.0812 1.953484,0.19732 3.577668,0.25805 1.62413,0.0607 4.486265,0.23154 6.360281,0.37952 1.874017,0.14799 7.138274,0.29341 11.698372,0.32309 4.560152,0.0295 8.904437,0.10812 9.654048,0.17422 3.008189,0.26523 5.636109,0.42733 9.368529,0.57796 2.15422,0.0869 3.96009,0.20138 4.01305,0.25429 0.0537,0.0531 1.9596,0.0933 4.23707,0.0896 4.07466,-0.006 4.14393,-0.0145 4.32857,-0.51383 z m 15.84551,-0.0515 c 0.54662,-0.0963 1.27315,-0.0949 1.61453,0.003 0.34126,0.0979 2.08698,0.13533 3.87917,0.0832 3.93144,-0.11445 3.99277,-0.14868 4.14731,-2.31578 0.0596,-0.83285 0.17063,-2.02537 0.24736,-2.65005 0.0767,-0.62467 0.17493,-2.28348 0.21893,-3.68625 0.0483,-1.62159 0.18458,-2.67726 0.36809,-2.89856 0.19639,-0.2369 0.3461,-1.75956 0.46737,-4.76654 0.0982,-2.43016 0.22805,-4.49903 0.28814,-4.59751 0.13254,-0.21678 0.36273,-4.17936 0.40566,-6.99365 0.0161,-1.12441 0.12449,-2.16091 0.23824,-2.30333 0.12288,-0.15405 0.12556,-0.77806 0.005,-1.54044 -0.12664,-0.8075 -0.11966,-1.33181 0.0215,-1.41751 0.12127,-0.0748 0.16849,-0.59278 0.10571,-1.15104 -0.0628,-0.55826 0.0215,-1.6015 0.18941,-2.31831 0.16742,-0.71681 0.30317,-1.49893 0.3021,-1.73802 -0.001,-0.2391 0.0107,-2.67212 0.0322,-5.40672 0.0268,-3.92719 -0.0322,-5.01241 -0.27043,-5.16427 -0.16688,-0.10576 -0.96779,-0.19585 -1.77985,-0.2003 -0.81207,-0.004 -2.14091,-0.10861 -2.95298,-0.23148 -0.81206,-0.12288 -3.11202,-0.28649 -5.11095,-0.36359 -1.99894,-0.0771 -3.89002,-0.15341 -4.20236,-0.16951 -0.52907,-0.0274 -0.57254,0.0515 -0.63655,1.16322 -0.0376,0.65591 -0.17815,1.19256 -0.31176,1.19256 -0.17117,0 -0.17224,0.0855 -0.003,0.28986 0.24468,0.29507 0.22805,1.27051 -0.0322,1.68685 -0.21786,0.35259 -0.51459,6.72856 -0.38849,8.35879 0.0537,0.6878 -9.1e-4,1.23954 -0.44483,4.54307 -0.13414,0.99948 -0.28975,3.1518 -0.34556,4.78293 -0.0558,1.63114 -0.20121,3.67164 -0.32356,4.53446 -0.12234,0.86281 -0.17653,1.61433 -0.12073,1.67004 0.0558,0.0557 -0.005,0.23197 -0.13951,0.3916 -0.1701,0.20525 -0.16688,0.42911 0.0107,0.76385 0.13951,0.26045 0.198,0.56352 0.12986,0.67351 -0.34342,0.55565 -0.45181,13.03555 -0.11859,13.6581 0.11268,0.21088 0.132,0.45674 0.0429,0.54632 -0.19907,0.19955 -0.31766,1.8788 -0.27849,3.93908 0.0107,0.63201 0.13522,1.02042 0.34985,1.10278 0.18244,0.0699 0.2801,0.20991 0.21786,0.31111 -0.0628,0.1012 0.16795,0.28391 0.51243,0.40609 0.61294,0.21748 1.67264,0.16323 3.66433,-0.18743 z m -97.279951,-3.0223 c 0.502241,-0.52827 0.762431,-1.72921 0.515656,-2.37704 -0.251121,-0.65806 -0.533364,-12.39358 -0.422291,-17.53912 0.08907,-4.10857 0.09068,-4.45815 0.02683,-5.90599 -0.06546,-1.50145 0.176,-5.88182 0.350389,-6.3603 0.187804,-0.51501 0.258633,-1.4061 0.385267,-4.85376 0.06385,-1.73256 0.230194,-3.90498 0.370242,-4.8276 0.140048,-0.92262 0.232877,-2.72498 0.207121,-4.00523 -0.02683,-1.28026 0.02683,-2.65087 0.120731,-3.0458 0.256487,-1.09566 -0.397071,-1.40115 -3.057665,-1.42933 -2.40282,-0.0252 -7.398892,0.26738 -7.571081,0.44376 -0.177073,0.18152 -0.261853,2.01026 -0.100341,2.17164 0.08049,0.0806 0.05634,0.38419 -0.05419,0.67459 -0.191024,0.50192 -0.606017,5.84693 -0.529071,6.80779 0.165267,2.05708 0.116975,3.158 -0.384731,8.74542 -0.213023,2.37338 -0.347705,6.39724 -0.534973,16.01432 -0.03756,1.87402 -0.139512,3.63344 -0.228584,3.90982 -0.08907,0.2764 -0.05473,0.70412 0.07727,0.95053 0.160438,0.29957 0.16634,0.64111 0.0161,1.03077 -0.133609,0.35109 -0.141658,0.79327 -0.02146,1.11235 0.110536,0.29126 0.272047,1.64568 0.357901,3.00979 0.08639,1.36411 0.177609,2.78685 0.203365,3.16165 0.08263,1.20012 0.697987,2.05069 1.700164,2.35096 0.867011,0.25976 4.822916,0.19998 5.72561,-0.0865 0.202292,-0.0642 0.503315,0.0467 0.669281,0.2465 0.33751,0.40641 1.719534,0.27983 2.174718,-0.19918 z M 155.1342,151.20877 c 0.15185,-0.2435 0.6563,-0.48518 1.19041,-0.57057 0.50975,-0.0815 0.92657,-0.2274 0.92657,-0.32426 0,-0.19531 2.17354,-1.49522 5.23668,-3.13181 0.31873,-0.17042 1.13675,-0.82448 1.81724,-1.45341 0.68045,-0.62894 1.5694,-1.26533 1.97544,-1.41421 0.40619,-0.14884 0.73828,-0.35758 0.73828,-0.46377 0,-0.10618 0.33215,-0.34276 0.73823,-0.52563 1.06646,-0.48035 1.5562,-0.80708 2.36091,-1.5751 0.85703,-0.81793 3.74101,-2.38511 4.38915,-2.38511 0.25434,0 0.46199,-0.14155 0.46199,-0.3146 0,-0.36928 0.95995,-1.04832 1.48194,-1.04832 0.19907,0 0.29888,-0.10222 0.22161,-0.22713 -0.0773,-0.12492 0.005,-0.22714 0.18566,-0.22714 0.17922,0 0.45824,-0.15926 0.61996,-0.35388 0.16152,-0.19461 0.60849,-0.48716 0.99322,-0.6501 1.10359,-0.46737 1.46144,-1.03473 1.59102,-2.52279 0.22537,-2.5881 0.37293,-4.54252 0.42176,-5.59721 0.0268,-0.58301 0.11429,-1.1247 0.19317,-1.20376 0.0789,-0.079 0.0665,-0.52204 -0.0268,-0.98437 -0.0939,-0.46237 -0.12985,-1.1984 -0.0794,-1.63567 0.242,-2.10786 0.33,-3.22782 0.40298,-5.11095 0.13039,-3.38214 0.6564,-8.52677 1.04473,-10.22191 0.11429,-0.49972 0.21087,-2.14376 0.21356,-3.65339 0.003,-1.50962 0.0687,-2.80775 0.14541,-2.88472 0.17654,-0.17675 0.35468,-4.986092 0.33644,-9.100537 -0.005,-1.729864 0.0821,-3.824459 0.20014,-4.654661 0.25327,-1.789386 0.0698,-2.092755 -0.86406,-1.427788 -0.37239,0.265233 -0.89142,0.482227 -1.15328,0.482227 -0.26185,0 -0.47594,0.13039 -0.47594,0.289755 0,0.159365 -0.89444,0.744627 -1.98756,1.300592 -1.09318,0.555959 -2.3431,1.294437 -2.77763,1.641053 -0.43463,0.346633 -0.89448,0.630689 -1.02219,0.631269 -0.1277,6.81e-4 -0.55885,0.307248 -0.95812,0.681461 -0.39922,0.374213 -0.96977,0.680409 -1.26773,0.680409 -0.34556,0 -0.65195,0.205779 -0.84576,0.567882 -0.16688,0.312345 -0.43571,0.567887 -0.59615,0.567887 -0.16097,0 -0.66885,0.255521 -1.12913,0.567882 -0.46039,0.312345 -0.97588,0.567882 -1.14582,0.567882 -0.1701,0 -0.30961,0.07668 -0.30961,0.170365 -4.8e-4,0.09369 -0.56266,0.473428 -1.24932,0.843863 -0.68672,0.370404 -1.24858,0.753739 -1.24858,0.851826 0,0.09809 -0.13414,0.178307 -0.29834,0.178307 -0.16419,0 -0.58144,0.295603 -0.92754,0.656853 -0.34609,0.361281 -0.90189,0.713285 -1.23505,0.782263 -0.58278,0.120677 -1.28662,0.596519 -2.4912,1.68424 -0.31121,0.28112 -0.63923,0.5111 -0.72873,0.5111 -0.16044,0 -1.27696,0.81466 -2.61037,1.9045 -0.37507,0.30634 -0.92029,0.74728 -1.21225,0.97983 -0.45556,0.36279 -0.54629,0.67998 -0.63944,2.23334 -0.0596,0.99579 -0.1583,2.62827 -0.21947,3.62774 -0.12341,2.02665 -0.32838,11.58774 -0.33107,15.44644 -9.1e-4,1.37428 -0.10517,3.26533 -0.2318,4.20235 -0.23824,1.76273 -0.34556,3.26386 -0.55123,7.72322 -0.066,1.43675 -0.19747,3.27669 -0.2919,4.08876 -0.0939,0.81208 -0.15025,3.00979 -0.12503,4.8838 0.0268,1.87402 0.0483,3.84174 0.0537,4.37271 0.005,0.77667 0.0875,0.9654 0.41746,0.9654 0.22537,0 0.52907,-0.19006 0.67395,-0.4224 z m -62.735318,-6.16659 c 0.749606,-0.003 1.494706,-0.0891 1.655842,-0.19129 0.299413,-0.18995 0.385266,-1.74854 0.563949,-10.25626 0.04293,-2.06142 0.128243,-4.54362 0.18834,-5.516 0.10839,-1.74757 0.103024,-1.76934 -0.4679,-1.88679 -0.317658,-0.0653 -1.224483,-0.26957 -2.015299,-0.45389 -0.983396,-0.22918 -2.473166,-0.31997 -4.713454,-0.28734 -4.175744,0.0609 -6.419896,0.0515 -7.137147,-0.0301 -0.822635,-0.0932 -2.496346,0.13017 -2.730618,0.3645 -0.302633,0.30247 -0.650607,3.06599 -0.746441,5.92539 -0.04829,1.40005 -0.194243,2.67779 -0.326779,2.83942 -0.264535,0.32179 -0.224292,2.99932 0.05473,3.65892 0.09605,0.2266 0.108926,1.04988 0.02683,1.82946 -0.07995,0.77958 -0.08156,1.88059 -0.0041,2.4467 0.138975,1.01514 0.15239,1.02879 0.967138,0.99325 0.454485,-0.0199 1.111639,0.0424 1.460633,0.13801 0.348779,0.0957 2.137801,0.1958 3.975169,0.22241 1.837368,0.0268 3.851755,0.12653 4.476445,0.22209 0.62469,0.0955 1.646881,0.13163 2.271517,0.0802 0.624691,-0.0515 1.749101,-0.0959 2.498707,-0.0989 z m -6.244755,-1.80971 c -0.186195,-0.11778 -0.901889,-0.2816 -1.590111,-0.36396 -1.074883,-0.12867 -1.443409,-0.31412 -2.61418,-1.31562 -2.476331,-2.11824 -2.735501,-2.62145 -2.70631,-5.25463 0.0322,-3.11465 1.183702,-4.66307 4.086349,-5.50596 1.969582,-0.57195 3.893179,-0.52736 4.788146,0.11107 0.393852,0.28111 0.835836,0.51109 0.981625,0.51109 0.266146,0 1.020421,0.6496 1.036089,0.89239 0.0046,0.0714 0.254877,0.39884 0.5559,0.72766 1.010869,1.10377 1.25759,4.23889 0.448583,5.70257 -0.119658,0.21694 -0.217852,0.59653 -0.217852,0.84351 0,0.3718 -2.278225,3.11996 -3.066573,3.69917 -0.319804,0.2348 -1.298531,0.2076 -1.70172,-0.0472 z m 1.185526,-3.72648 c 0.215707,-0.26502 0.394926,-0.64372 0.397609,-0.84153 0.0028,-0.19784 0.07512,-0.4297 0.160975,-0.51534 0.08585,-0.0856 0.287072,-0.53708 0.44751,-1.00326 0.545544,-1.58488 -0.474876,-3.45985 -1.883085,-3.45985 -0.295657,0 -0.537227,-0.0911 -0.537227,-0.20229 0,-0.42245 -1.696408,-0.41784 -2.545068,0.007 -0.923084,0.46205 -1.172702,1.13271 -1.19261,3.20447 -0.0054,0.59306 -0.09444,1.07859 -0.196926,1.07898 -0.46629,0.002 1.976505,1.84386 2.902808,2.18901 0.90865,0.33853 1.958153,0.14246 2.446444,-0.45706 z m -0.05688,-16.72336 c 3.578151,0 3.449478,0.0775 3.275947,-1.97352 -0.06117,-0.72611 -0.132536,-2.51774 -0.157755,-3.98139 -0.03756,-2.19058 -0.116439,-2.73145 -0.443754,-3.05846 -0.245219,-0.24495 -0.397609,-0.29153 -0.397609,-0.12143 0,0.49334 -2.52457,0.1892 -4.370792,-0.52655 -0.272047,-0.10544 -0.437851,-0.022 -0.531753,0.2677 -0.07459,0.23159 -0.222146,0.62553 -0.327316,0.8754 -0.342877,0.81512 -0.496876,2.002 -0.589276,4.54307 -0.08693,2.39561 0.08746,4.85381 0.302633,4.25913 0.07512,-0.20847 0.936284,-0.28396 3.239621,-0.28396 z m 0.335364,-15.71005 c 0.652915,-0.29748 0.757226,-0.75499 0.219463,-0.96143 -0.641164,-0.24602 -1.152098,-0.14697 -1.55856,0.3021 -0.725138,0.80131 0.117512,1.21607 1.339312,0.65931 z M 150.41425,96.823224 c 0.1803,-0.482763 0.49849,-4.120867 0.59078,-6.75072 0.0268,-0.687138 0.176,-1.862658 0.33805,-2.612264 0.26239,-1.215967 0.33429,-2.084181 0.43034,-5.181151 0.0161,-0.475895 0.10356,-0.818579 0.19692,-0.761562 0.0939,0.05704 0.17064,-0.626927 0.17064,-1.519877 0,-1.511753 0.19961,-2.976411 0.51565,-3.781511 0.0735,-0.187428 0.15776,-0.494032 0.18674,-0.68146 0.154,-0.988714 0.85188,-3.617156 1.13294,-4.266835 0.17761,-0.410271 0.32248,-0.903938 0.32248,-1.097028 0,-0.916403 1.76665,-4.795991 3.45345,-7.583889 1.47571,-2.438964 1.99824,-3.53523 1.99824,-4.192572 V 57.81814 l -2.10121,0.01985 c -1.15564,0.01073 -2.66338,0.002 -3.35048,-0.01985 -0.68714,-0.022 -2.53283,-0.0023 -4.10158,0.04346 l -2.85216,0.08301 -1.63411,1.344312 c -0.89872,0.739374 -1.63406,1.471988 -1.63406,1.628037 0,0.156038 -0.25541,0.559463 -0.56792,0.89648 -0.31229,0.337028 -0.56786,0.802267 -0.56786,1.033894 0,0.231643 -0.0955,0.421164 -0.21195,0.421164 -0.11644,0 -0.27849,0.210448 -0.36005,0.467686 -0.0816,0.257238 -0.53921,1.056017 -1.01688,1.775097 -0.47756,0.719081 -1.02058,1.671661 -1.20661,2.116853 -0.1862,0.445203 -0.44107,0.873128 -0.56717,0.950976 -0.1261,0.07786 -0.17439,0.350228 -0.10785,0.605352 0.0703,0.269418 -0.16849,1.054724 -0.57077,1.873791 -0.38043,0.775481 -0.86127,2.176612 -1.06807,3.11362 -0.20658,0.937009 -0.51565,2.316967 -0.68666,3.066573 -0.17064,0.749607 -0.3579,1.669579 -0.41532,2.044382 -0.0574,0.374804 -0.17707,0.861645 -0.26614,1.08187 -0.0891,0.221931 -0.0376,0.55099 0.11912,0.738247 0.19478,0.234702 0.20229,0.337833 0.0268,0.337833 -0.14595,0 -0.25488,0.388218 -0.25488,0.908612 0,0.49972 -0.0912,0.908613 -0.20229,0.908613 -0.11107,0 -0.2141,0.789426 -0.22859,1.754278 -0.0161,0.964852 -0.13199,2.890584 -0.26131,4.279406 -0.1481,1.588893 -0.15722,2.871418 -0.0268,3.459116 0.27527,1.225728 0.0622,3.042641 -0.39707,3.381198 -0.31498,0.232073 -0.27312,0.300863 0.31658,0.526013 1.21585,0.464037 3.08911,0.596981 8.92687,0.633436 5.74004,0.03595 5.74407,0.03542 5.93198,-0.468115 z m -24.794,-0.354037 c 0.20444,-0.02629 0.28385,-0.63122 0.28385,-2.156463 0,-1.16606 0.0682,-2.188085 0.15078,-2.271175 0.0832,-0.08312 0.176,-0.381242 0.20712,-0.66253 0.0322,-0.281277 0.16581,-1.329213 0.30049,-2.32869 0.13468,-0.999472 0.29619,-2.481649 0.35951,-3.293725 0.0633,-0.812075 0.21088,-1.987595 0.32839,-2.612264 0.11751,-0.624674 0.27741,-1.61893 0.35522,-2.209456 0.0778,-0.590526 0.22912,-1.12771 0.3359,-1.193742 0.10678,-0.06605 0.25756,-0.553958 0.33482,-1.084279 0.17064,-1.173711 0.76464,-3.257849 1.14861,-4.030781 0.15508,-0.312345 0.35361,-1.225819 0.44108,-2.029953 0.0875,-0.804139 0.30531,-1.744593 0.48346,-2.089889 0.17868,-0.345292 0.32517,-0.811786 0.32624,-1.03662 7e-4,-0.224828 0.154,-0.701588 0.34073,-1.059441 0.18673,-0.357847 0.33912,-0.822946 0.33912,-1.03355 0,-0.210609 0.0848,-0.480027 0.18888,-0.598703 0.17063,-0.195317 0.71644,-1.826326 0.85392,-2.553122 0.10946,-0.577868 0.89115,-2.317637 1.04188,-2.318469 0.16902,-9.12e-4 1.32262,-2.342443 1.32262,-2.684815 0,-0.117351 0.15347,-0.340677 0.34073,-0.496179 0.18727,-0.155501 0.34073,-0.425242 0.34073,-0.599368 0,-0.242321 -0.41316,-0.319697 -1.76042,-0.329784 -0.96826,-0.0075 -2.32265,-0.02415 -3.0098,-0.03756 -0.68715,-0.01341 -2.37374,-0.0161 -3.74803,-0.0054 -1.37425,0.01019 -2.80531,0.01288 -3.18012,0.0059 -0.37507,-0.007 -1.36871,0.09712 -2.20863,0.23159 -0.83991,0.134467 -1.80555,0.170097 -2.14579,0.07909 -0.3402,-0.091 -1.22953,-0.08188 -1.97619,0.02039 -1.55507,0.212648 -9.03348,0.102005 -9.42417,-0.139458 -0.14273,-0.08821 -0.2597,-0.04239 -0.2597,0.102058 0,0.182546 -0.36327,0.220912 -1.19256,0.12599 -0.65592,-0.07507 -1.39699,-0.15577 -1.64683,-0.179326 -0.25004,-0.02361 -1.63899,0.02737 -3.08696,0.113165 -1.44792,0.0858 -2.702179,0.08639 -2.787229,0.0013 -0.238241,-0.238082 -0.943794,-0.291311 -3.836084,-0.289379 -1.467663,9.77e-4 -2.904954,0.109517 -3.194012,0.241194 -0.389559,0.177502 -1.021386,0.13919 -2.442473,-0.148097 -2.880003,-0.582251 -4.955882,-0.750476 -6.346437,-0.514315 -2.375669,0.403511 -4.543035,0.488828 -4.543035,0.17879 0,-0.423311 -6.584842,-0.161351 -7.947763,0.316155 -0.560729,0.196496 -1.054815,0.463017 -1.097903,0.592307 -0.04293,0.129317 -0.207121,0.235077 -0.364876,0.235077 -0.157756,0 -0.471657,0.204438 -0.69772,0.454325 -0.225901,0.249887 -0.583909,0.454325 -0.795055,0.454325 -0.416925,0 -0.983128,0.559393 -1.207688,1.192556 -0.0778,0.218658 -0.246291,0.397501 -0.375071,0.397501 -0.12878,0 -0.234487,0.142248 -0.234487,0.316101 0,0.173853 -0.240926,0.376521 -0.534974,0.450408 -0.294584,0.07389 -0.819845,0.564512 -1.167765,1.090316 -0.348243,0.525797 -1.129347,1.432231 -1.736437,2.014279 -0.607037,0.582053 -1.103752,1.226903 -1.103752,1.433005 0,0.206101 -0.08156,0.374696 -0.181365,0.374696 -0.0998,0 -0.310682,0.357793 -0.468974,0.795039 -0.158292,0.437261 -0.38312,0.795039 -0.500095,0.795039 -0.116975,0 -0.212487,0.199341 -0.212487,0.442896 0,0.243609 -0.306926,0.897301 -0.681461,1.452654 -0.375071,0.555353 -0.68146,1.178063 -0.68146,1.383805 0,0.205726 -0.208195,0.597759 -0.463072,0.871148 -0.254877,0.273389 -0.518876,0.754661 -0.586861,1.069485 -0.14595,0.674426 -0.23556,0.908779 -0.524778,1.36744 -0.618466,0.981384 -1.434609,3.158162 -1.848583,4.930421 -0.256487,1.098772 -0.555578,2.304421 -0.664236,2.679224 -0.108926,0.374804 -0.319804,1.141447 -0.46951,1.703652 -0.149707,0.562205 -0.451803,1.533286 -0.672124,2.15796 -0.80187,2.27456 -0.905485,2.79826 -1.021816,5.166121 -0.143268,2.913062 -0.42873,2.717708 4.092842,2.800621 6.132663,0.112468 10.860605,0.32254 11.560202,0.513671 0.388486,0.106083 1.166102,0.17219 1.72828,0.146917 4.576894,-0.205887 16.527782,0.125292 20.812345,0.576741 1.139702,0.120087 3.015597,0.161082 4.168768,0.09111 1.573101,-0.09546 2.055489,-0.06063 1.931861,0.139405 -0.09068,0.146648 0.08585,0.102326 0.392242,-0.09852 0.306389,-0.200789 0.614066,-0.308213 0.683553,-0.238726 0.06922,0.06949 2.31015,0.183834 4.97922,0.254072 6.44195,0.169561 6.00024,0.169936 7.80589,-0.007 2.40937,-0.23599 4.56493,-0.156951 5.59066,0.204921 0.62711,0.221287 1.18837,0.266735 1.75447,0.142194 0.48829,-0.10737 1.34929,-0.08065 2.08178,0.06461 1.0289,0.204063 4.50886,0.303974 5.62205,0.161351 z m -83.543695,-2.74729 c 0.129317,-0.241677 0.243072,-1.391623 0.252731,-2.555477 0.02683,-3.270126 0.933064,-9.212033 1.593115,-10.445322 0.113756,-0.212486 0.206585,-0.642563 0.206585,-0.95574 0,-0.31315 0.102487,-0.632589 0.226975,-0.709798 0.125023,-0.07721 0.226974,-0.444398 0.226974,-0.815998 0,-0.371584 0.255414,-1.179903 0.567866,-1.796271 0.312292,-0.616362 0.567866,-1.331408 0.567866,-1.588984 0,-0.631966 1.548901,-3.862701 1.85191,-3.862701 0.132536,0 0.183511,-0.150351 0.112682,-0.33413 -0.07029,-0.18378 -0.003,-0.464896 0.150243,-0.624669 0.152927,-0.159795 0.465755,-0.750503 0.694715,-1.312708 0.555954,-1.364622 0.999922,-2.311589 1.277926,-2.725842 0.125561,-0.187429 0.332145,-0.596278 0.459315,-0.908613 0.451803,-1.113415 2.715755,-4.183927 3.641951,-4.939318 0.763451,-0.622613 1.216542,-1.751193 0.824139,-2.052731 -0.255951,-0.19655 -6.755046,-0.178253 -9.126261,0.02576 -0.973845,0.08376 -1.297673,0.248492 -2.271517,1.155564 -2.856394,2.660498 -4.65663,4.620217 -4.65663,5.069155 0,0.158024 -0.09229,0.28734 -0.205512,0.28734 -0.289218,0 -1.611788,2.400706 -1.611788,2.925253 0,0.238404 -0.142195,0.487969 -0.316048,0.554656 -0.173852,0.06664 -0.591475,0.716467 -0.928342,1.444009 -0.336974,0.727543 -0.705822,1.500298 -0.819899,1.717238 -0.114292,0.216941 -0.208194,0.523598 -0.208731,0.681461 -6.98e-4,0.157863 -0.162585,0.593686 -0.358974,0.96849 -0.46951,0.893824 -0.994825,2.402712 -0.999011,2.868391 -0.0018,0.203365 -0.152389,0.493334 -0.334291,0.644485 -0.218389,0.181365 -0.285999,0.499558 -0.199072,0.935865 0.07244,0.363589 0.0161,0.79842 -0.121268,0.966279 -0.139512,0.167843 -0.358438,1.829169 -0.486681,3.691805 -0.128244,1.862641 -0.341267,4.69293 -0.473267,6.289538 -0.313364,3.800227 -0.23556,4.133971 1.042904,4.455835 0.548012,0.138009 1.225663,0.250906 1.50592,0.250906 0.280097,0 1.1294,0.153356 1.887002,0.340731 0.757602,0.187428 2.246298,0.429374 3.30825,0.537699 1.061952,0.108336 2.055006,0.210555 2.206752,0.227136 0.151853,0.01663 0.382047,-0.167522 0.510827,-0.409199 z M 157.76764,93.479791 c 0.31766,-0.249887 0.69386,-0.454325 0.836,-0.454325 0.14219,0 0.51458,-0.256219 0.82784,-0.569406 0.31336,-0.31315 0.99568,-0.66517 1.51665,-0.782231 0.52102,-0.117083 1.0523,-0.355218 1.1807,-0.529286 0.12824,-0.174014 0.48883,-0.452393 0.80139,-0.618551 0.75916,-0.403887 3.5011,-2.503177 3.59661,-2.75367 0.0429,-0.109195 0.31175,-0.19859 0.60033,-0.19859 0.28868,0 0.58004,-0.144287 0.64771,-0.320662 0.0676,-0.176375 0.48721,-0.452447 0.9329,-0.613513 0.44536,-0.161082 0.80986,-0.374535 0.80986,-0.474393 0,-0.09986 0.18674,-0.181526 0.41478,-0.181526 0.22805,0 0.64245,-0.242375 0.92078,-0.538644 0.27849,-0.296247 0.88386,-0.730686 1.3457,-0.965404 0.46199,-0.234702 0.94191,-0.553706 1.06689,-0.708869 0.12502,-0.15518 0.58492,-0.471067 1.02219,-0.702012 1.33582,-0.705537 3.49203,-2.051079 4.03118,-2.515636 0.28064,-0.241838 0.86846,-0.557875 1.30616,-0.702329 0.43785,-0.144448 0.7958,-0.356935 0.7958,-0.472193 0,-0.115258 0.17976,-0.209535 0.39976,-0.209535 0.22,0 0.67539,-0.255521 1.01226,-0.567883 0.33697,-0.312345 0.70958,-0.567882 0.82832,-0.567882 0.28171,0 0.58767,-4.095074 0.3579,-4.797182 -0.0971,-0.297535 -0.19638,-1.052025 -0.21999,-1.676694 -0.10517,-2.773496 -0.32893,-4.441996 -0.68957,-5.139082 -0.21356,-0.413276 -0.53658,-1.465232 -0.71687,-2.337646 -0.18029,-0.872415 -0.47327,-1.793063 -0.65029,-2.045874 -0.17707,-0.252838 -0.32195,-0.775561 -0.32195,-1.161665 0,-0.88643 -0.9652,-1.857366 -2.05259,-2.06474 -0.43249,-0.08253 -1.04237,-0.274569 -1.35471,-0.426798 -1.64302,-0.800695 -4.41071,-0.549509 -8.24444,0.748228 -1.35273,0.45792 -1.90498,0.775507 -2.33988,1.345724 -0.31336,0.410486 -0.6755,0.746365 -0.80525,0.746365 -0.27205,0 -1.08502,0.917434 -1.09629,1.236916 -0.004,0.118102 -0.25542,0.475842 -0.55864,0.795034 -0.55649,0.586045 -2.27586,3.646887 -2.04857,3.646887 0.0676,0 -0.19585,0.462857 -0.58493,1.028598 -0.38902,0.56573 -0.76527,1.383483 -0.83567,1.81723 -0.0875,0.538585 -0.24951,0.788632 -0.5119,0.788632 -0.30371,0 -0.39493,0.243341 -0.43678,1.162776 -0.0268,0.639527 -0.19424,1.380618 -0.36702,1.646865 -0.51459,0.794047 -1.54863,8.045153 -1.82084,12.770803 -0.0547,0.954759 -0.19478,1.851835 -0.31068,1.993514 -0.11591,0.141658 -0.26991,1.509779 -0.34288,3.040227 -0.14434,3.041342 -0.0665,3.212748 1.05776,2.32832 z"
       id="path2871" />
  </g>
</svg>
