<?xml version="1.0" encoding="UTF-8" standalone="no"?>
<!-- Created with Inkscape (http://www.inkscape.org/) -->

<svg
   width="175.54639mm"
   height="175.54639mm"
   viewBox="0 0 175.5464 175.54639"
   version="1.1"
   id="svg5"
   inkscape:version="1.1 (c68e22c387, 2021-05-23)"
   sodipodi:docname="instagram.svg"
   xmlns:inkscape="http://www.inkscape.org/namespaces/inkscape"
   xmlns:sodipodi="http://sodipodi.sourceforge.net/DTD/sodipodi-0.dtd"
   xmlns="http://www.w3.org/2000/svg"
   xmlns:svg="http://www.w3.org/2000/svg">
  <sodipodi:namedview
     id="namedview7"
     pagecolor="#ffffff"
     bordercolor="#666666"
     borderopacity="1.0"
     inkscape:pageshadow="2"
     inkscape:pageopacity="0.0"
     inkscape:pagecheckerboard="0"
     inkscape:document-units="mm"
     showgrid="false"
     inkscape:zoom="0.77771465"
     inkscape:cx="183.87207"
     inkscape:cy="494.39727"
     inkscape:window-width="1920"
     inkscape:window-height="1017"
     inkscape:window-x="295"
     inkscape:window-y="1432"
     inkscape:window-maximized="1"
     inkscape:current-layer="layer1" />
  <defs
     id="defs2" />
  <g
     inkscape:label="Vrstva 1"
     inkscape:groupmode="layer"
     id="layer1"
     transform="translate(-17.970665,-15.146566)">
    <path
       style="fill:#000000;stroke-width:0.344553"
       d="m 124.75333,189.62775 c -4.23925,-0.13835 -8.69125,-0.41996 -9.89332,-0.62708 -1.20215,-0.20712 -2.43538,-0.24886 -2.74053,-0.0933 -0.78816,0.40195 -15.145784,-0.2063 -20.252182,-0.85809 -2.355108,-0.30044 -5.823598,-0.60252 -7.707667,-0.67046 -1.88407,-0.0655 -5.198406,-0.24477 -7.36513,-0.39295 -2.166724,-0.14817 -7.484973,-0.28407 -11.81842,-0.30207 -8.928593,-0.0409 -16.243633,-0.55913 -19.001238,-1.35534 -1.030197,-0.29716 -2.369915,-0.54112 -2.977222,-0.54112 -0.606903,0 -1.183056,-0.12934 -1.279594,-0.28733 -0.09629,-0.158 -1.064912,-0.50347 -2.151916,-0.76706 -1.836649,-0.44616 -3.725574,-1.68451 -6.427343,-4.21515 -0.364951,-0.34219 -0.788974,-0.62216 -0.941994,-0.62216 -0.15294,0 -0.278367,-0.23413 -0.278367,-0.51984 0,-0.2857 -0.231431,-0.51982 -0.513843,-0.51982 -0.282413,0 -0.513845,-0.15473 -0.513845,-0.34466 0,-0.18991 -1.318679,-1.78608 -2.930451,-3.54804 -2.117443,-2.31468 -2.88295,-3.38717 -2.759223,-3.86574 0.111671,-0.43225 -0.125426,-0.89862 -0.684586,-1.34322 -0.470956,-0.37412 -1.550191,-2.18362 -2.399047,-4.02032 -0.848854,-1.83668 -1.687351,-3.65134 -1.863353,-4.03259 -0.471765,-1.02189 -1.007459,-8.88872 -0.651409,-9.56246 0.165887,-0.31354 0.191781,-0.68111 0.05665,-0.81699 -0.134328,-0.1359 -0.292123,-3.47053 -0.350385,-7.40979 -0.05665,-3.93935 -0.125427,-7.47438 -0.148894,-7.85561 -0.02428,-0.38148 0.08092,-2.7204 0.231432,-5.19833 0.151321,-2.47784 0.218485,-7.3903 0.148893,-10.91649 -0.261373,-13.3461 0.180453,-29.106604 0.828059,-29.531065 0.319635,-0.209566 0.307497,-0.343009 -0.04855,-0.577134 -0.380325,-0.24805 -0.396509,-0.742504 -0.08901,-2.685781 0.428069,-2.702883 0.687014,-17.818221 0.402174,-23.429216 -0.104387,-2.045852 -0.07283,-4.229147 0.07283,-4.851726 0.145657,-0.622975 0.3253,-1.940078 0.398129,-2.92768 0.125427,-1.694733 0.746086,-5.206995 1.122204,-6.34834 0.09387,-0.2857 0.241951,-1.445871 0.328536,-2.57771 0.08658,-1.131848 0.29455,-2.318292 0.463674,-2.636494 0.168315,-0.318449 0.338248,-1.18571 0.377898,-1.927561 0.04046,-0.741682 0.255709,-1.738781 0.479858,-2.215222 0.224958,-0.476441 0.677303,-1.99706 1.006649,-3.378908 0.570489,-2.394585 0.96975,-3.03075 1.30557,-2.079334 0.08415,0.238226 0.285649,0.307804 0.44668,0.154724 0.161841,-0.15309 0.08982,-0.406041 -0.159413,-0.562399 -0.366569,-0.229224 -0.372234,-0.442068 -0.03237,-1.107447 1.287362,-2.497902 5.853375,-6.786397 8.674584,-8.147381 0.687014,-0.331541 1.248439,-0.729402 1.248439,-0.8847 0,-0.155536 0.208774,-0.282422 0.464482,-0.282422 0.255709,0 2.007555,-0.68274 3.893808,-1.51742 1.886254,-0.834513 3.995363,-1.70628 4.686909,-1.937138 2.055135,-0.686017 8.336821,-1.826699 12.470234,-2.264172 0.811469,-0.08596 1.659273,-0.275886 1.884069,-0.42242 0.224958,-0.146534 2.72111,-0.309438 5.547253,-0.361835 2.826145,-0.04912 5.755058,-0.115428 6.508669,-0.139988 0.753369,-0.02456 4.838715,0.0409 9.07789,0.137532 7.147697,0.16946 10.341627,0.309448 19.354859,0.846961 3.54593,0.212022 4.75779,0.242315 6.50866,0.164547 0.56564,-0.02456 2.41508,0.03278 4.11076,0.122787 1.69569,0.09249 9.5575,0.210398 17.47072,0.261963 12.81649,0.08269 14.50545,0.158002 15.46646,0.686017 0.89919,0.493643 1.14292,0.514924 1.46313,0.124431 0.2905,-0.353645 1.23961,-0.437146 3.88822,-0.340543 1.92728,0.07368 5.56409,0.196465 8.08184,0.280788 4.03542,0.134255 4.66709,0.237404 5.33184,0.869143 0.41513,0.394584 0.91206,0.716301 1.10521,0.716301 0.1934,0 0.53327,0.404407 0.7558,0.89796 0.38113,0.84598 0.50413,0.884126 2.11955,0.659003 1.24787,-0.17355 1.92251,-0.101506 2.47664,0.264418 0.41917,0.276699 1.22409,0.596782 1.78931,0.711389 0.56483,0.114617 1.72143,0.348743 2.56923,0.519836 2.03215,0.410953 4.86371,1.956537 6.46586,3.529463 0.70886,0.696653 1.54849,1.366539 1.86513,1.489504 0.3164,0.122797 0.57535,0.563221 0.57535,0.979085 0,0.415865 0.53812,1.284275 1.19584,1.930503 0.65789,0.6459 1.291,1.558675 1.40737,2.027669 0.11653,0.469084 0.32368,0.852853 0.46124,0.852853 0.45235,0 2.0757,3.750497 1.86449,4.307251 -0.13433,0.354467 -0.0162,0.544386 0.33744,0.544386 0.3083,0 0.64575,0.412596 0.77845,0.95306 0.12867,0.523926 0.51142,1.342881 0.85088,1.819411 0.90429,1.270351 1.37111,3.469293 1.72902,8.144013 0.21525,2.817163 0.52923,4.605885 0.97089,5.544942 0.56402,1.198644 0.66597,2.356597 0.75256,8.559799 0.0728,5.244982 -0.008,7.285763 -0.31235,7.590616 -0.29536,0.298802 -0.31155,0.607428 -0.0567,1.085919 0.26623,0.502644 0.22092,0.816994 -0.18045,1.266023 -0.48471,0.54193 -0.48067,0.651625 0.0486,1.184067 0.31882,0.322539 0.41916,0.586958 0.22253,0.586958 -0.38681,0 -0.77361,9.766226 -0.56969,14.382014 0.10925,2.474234 -0.20229,10.91664 -0.42968,11.62157 -0.15133,0.4699 -0.22416,2.88175 -0.16265,5.3596 0.0647,2.47792 0.14403,6.06476 0.18369,7.97079 0.0404,1.90602 0.15131,3.95097 0.25004,4.54424 0.0987,0.59351 0.0647,1.72724 -0.0817,2.51992 -0.14322,0.79243 -0.12866,1.52396 0.0324,1.62498 0.16102,0.1007 0.28565,1.30622 0.27512,2.67833 -0.0243,3.58668 -0.0404,14.69325 -0.0162,16.53019 0.008,0.85776 0.12057,2.08498 0.24681,2.72727 0.12624,0.64264 0.0647,1.96775 -0.14162,2.9457 -0.64897,3.10508 -1.32329,8.77297 -1.4585,12.25421 -0.0404,1.09984 -0.18854,2.15571 -0.32288,2.34629 -0.33824,0.47808 -1.03723,2.72597 -1.15068,3.70137 -0.0486,0.44206 -0.1845,1.03778 -0.29536,1.32373 -0.11086,0.28571 -0.29212,0.93775 -0.40218,1.44857 -0.11004,0.51083 -0.4313,1.16255 -0.71371,1.44817 -0.28241,0.2857 -0.51304,0.67946 -0.51304,0.87487 0,0.19565 -0.34715,0.72122 -0.77117,1.16786 -0.42402,0.44698 -1.17836,1.27265 -1.67643,1.83522 -1.02761,1.1605 -2.35543,2.23569 -2.76091,2.23569 -0.14971,0 -0.27918,0.19483 -0.28728,0.43306 -0.008,0.23822 -1.00769,1.13495 -2.22151,1.99271 -1.27433,0.90042 -2.20912,1.81574 -2.21212,2.16594 -0.003,0.33401 -0.21362,0.60661 -0.46852,0.60661 -0.2549,0 -0.92711,0.44861 -1.49436,0.99702 -0.56725,0.54849 -1.57835,1.17973 -2.24716,1.40297 -0.6684,0.22349 -1.29618,0.61807 -1.39433,0.87643 -0.0979,0.25869 -0.6498,0.57468 -1.22531,0.70321 -0.57614,0.12771 -1.14024,0.38557 -1.25433,0.57222 -0.1141,0.18666 -1.00221,0.70403 -1.97366,1.1492 -1.942,0.89027 -9.8527,1.9603 -11.7006,1.58258 -0.56563,-0.11542 -1.79846,-0.10478 -2.74045,0.0246 -2.22231,0.3029 -18.06912,0.27916 -27.9189,-0.0409 z m 29.45648,-5.02822 c 4.42553,-0.11625 8.12521,-0.32172 8.22151,-0.45598 0.0963,-0.13425 0.98561,-0.44861 1.97615,-0.69911 2.16034,-0.54521 4.53648,-1.66092 4.53648,-2.13008 0,-0.18583 0.21929,-0.3381 0.48715,-0.3381 0.26784,0 0.92329,-0.36839 1.45591,-0.81896 0.53246,-0.45025 1.3152,-0.92882 1.73906,-1.063 0.42402,-0.13425 0.77118,-0.44697 0.77118,-0.6942 0,-0.24804 0.61661,-0.86325 1.3703,-1.36777 0.75336,-0.50428 1.37022,-1.07111 1.37022,-1.25898 0,-0.18829 0.1926,-0.34219 0.42807,-0.34301 0.23548,-9.9e-4 0.89061,-0.43142 1.45584,-0.95739 0.56563,-0.52556 1.45163,-1.23032 1.96977,-1.56589 0.56805,-0.36756 0.94207,-0.91842 0.94207,-1.38627 0,-0.4699 0.30183,-0.91122 0.7647,-1.11833 0.52841,-0.23659 0.83938,-0.77034 1.00672,-1.72831 0.13352,-0.76215 0.55998,-2.00401 0.94823,-2.75912 0.38841,-0.75478 0.70644,-1.71963 0.70644,-2.14342 0,-1.0806 0.61985,-2.64739 1.23428,-3.12113 0.28483,-0.2194 0.56968,-0.99947 0.63279,-1.73281 0.0647,-0.73349 0.22577,-2.81486 0.36172,-4.62561 0.13594,-1.81074 0.32692,-3.42728 0.42402,-3.59233 0.0971,-0.16536 0.16912,-3.32111 0.1586,-7.01356 -0.008,-3.83939 0.11896,-6.79973 0.30346,-6.91491 0.17721,-0.11052 0.22091,-0.36676 0.0979,-0.56896 -0.1238,-0.2022 -0.27916,-2.01483 -0.34634,-4.0285 -0.089,-2.65688 -0.005,-3.73788 0.30427,-3.94074 0.33501,-0.2194 0.32611,-0.34465 -0.0404,-0.58451 -0.29292,-0.19074 -0.52354,-1.19552 -0.6158,-2.68577 -0.26541,-4.26205 -0.29293,-26.587596 -0.0324,-28.545609 0.40785,-3.096393 0.48633,-5.180549 0.20069,-5.279282 -0.32854,-0.112972 -0.5009,-6.901578 -0.18774,-7.413382 0.12381,-0.202209 0.25005,-1.444723 0.28161,-2.761252 0.0324,-1.316528 0.14161,-2.540554 0.24518,-2.719995 0.36334,-0.629531 0.40379,-13.868645 0.0486,-14.975845 -0.19422,-0.601694 -0.36495,-3.557785 -0.37871,-6.569869 -0.0161,-3.012083 -0.15051,-5.717095 -0.30264,-6.010985 -0.25086,-0.483809 -0.97436,-3.806974 -1.15303,-5.292546 -0.0404,-0.329907 -0.17803,-0.706487 -0.3075,-0.837543 -0.12948,-0.130986 -0.23548,-0.472351 -0.23548,-0.759695 0,-0.286522 -0.20392,-0.767875 -0.45316,-1.068559 -0.24923,-0.301258 -0.66192,-1.217479 -0.91675,-2.036929 -0.25489,-0.819371 -0.63846,-1.599119 -0.85143,-1.73272 -0.21283,-0.133443 -0.74286,-1.019123 -1.17683,-1.967589 -0.81365,-1.777987 -3.68738,-5.726345 -4.1678,-5.726345 -0.1489,0 -0.75823,-0.450248 -1.3534,-1.000208 -0.93115,-0.860468 -3.17022,-2.122551 -5.63975,-3.179166 -0.37709,-0.16127 -1.76236,-0.618886 -3.07901,-1.016826 -1.31658,-0.397851 -2.72249,-0.941504 -3.12418,-1.207814 -0.40136,-0.266053 -1.25143,-0.467439 -1.8882,-0.446148 -0.63684,0.02456 -3.1618,-0.1449 -5.61109,-0.36839 -2.44938,-0.22349 -6.63936,-0.44288 -9.31119,-0.487087 -2.67183,-0.0409 -4.72931,-0.161269 -4.57216,-0.259507 0.15698,-0.09824 -5.17947,-0.182551 -11.85912,-0.186651 -10.32245,-0.0059 -12.19842,-0.08427 -12.5026,-0.519826 -0.29699,-0.424876 -0.32531,-0.408497 -0.16508,0.09418 0.14727,0.46335 -9.8e-4,0.606606 -0.62875,0.606606 -0.45154,0 -1.03846,-0.21939 -1.30396,-0.488721 -0.31073,-0.314359 -0.65464,-0.379025 -0.96651,-0.181739 -0.26785,0.16946 -3.76919,0.2153 -7.84887,0.101515 -4.0508,-0.112973 -7.848473,-0.188284 -8.439349,-0.167825 -0.83647,0.02456 -1.121961,-0.135066 -1.290036,-0.740038 -0.200682,-0.722856 -0.241139,-0.733502 -0.580999,-0.150634 -0.338255,0.580412 -0.804352,0.609062 -6.41756,0.394583 -3.328899,-0.127708 -6.165805,-0.300435 -6.30426,-0.383115 -0.423214,-0.254595 -15.469468,-0.106427 -22.014874,0.217756 -6.567174,0.324173 -8.709055,0.593504 -13.873798,1.744009 -1.789878,0.398684 -3.562681,0.736771 -3.939446,0.750694 -0.995241,0.0409 -3.689889,1.052268 -4.240633,1.595842 -0.259755,0.256229 -0.683778,0.383937 -0.941995,0.284066 -0.300214,-0.116241 -0.469337,0.06546 -0.469337,0.500188 0,0.374936 -0.216867,0.681918 -0.481477,0.681918 -1.728701,0 -7.232986,4.761262 -8.05182,6.964858 -0.241142,0.648357 -0.641698,1.725026 -0.890933,2.392129 -0.919903,2.464746 -1.531418,4.827404 -2.027217,7.832693 -0.279984,1.696129 -0.765507,4.409411 -1.079316,6.029564 -1.103349,5.695487 -1.336643,9.437785 -0.92929,14.90184 0.289696,3.879919 0.219295,5.660203 -0.212821,5.390298 -0.146466,-0.0917 -0.136755,0.646722 0.02428,1.640217 0.157795,0.993652 0.202301,3.755973 0.09953,6.138605 -0.102769,2.382552 -0.168315,5.462589 -0.145657,6.844438 0.02428,1.576442 -0.09468,2.512548 -0.324491,2.512548 -0.201491,0 -0.365759,0.234136 -0.365759,0.519836 0,0.2857 0.173169,0.519836 0.384371,0.519836 0.261373,0 0.243571,0.171915 -0.05665,0.534562 -0.321253,0.392127 -0.336628,0.636898 -0.05664,0.919489 0.24276,0.245593 0.267846,0.597604 0.07283,0.969757 -0.169933,0.321727 -0.320445,0.882492 -0.333392,1.246455 -0.01618,0.364291 -0.09063,1.51946 -0.172361,2.567807 -0.08092,1.048254 -0.149702,2.997671 -0.152939,4.331878 -0.0026,1.334293 -0.01618,2.815773 -0.03237,3.292303 -0.01618,0.47644 0.0061,2.42586 0.04046,4.33196 0.10196,5.19056 0.08497,19.83149 -0.02428,24.95196 -0.05665,2.47785 -0.03237,8.79378 0.05665,14.03549 0.155367,9.41093 0.439398,12.08803 1.502044,14.14894 0.262992,0.50919 0.478239,1.1289 0.479859,1.37661 0.0035,0.73842 1.006002,2.47638 2.092438,3.62647 0.55916,0.5927 0.933174,1.29844 0.830486,1.56925 -0.108433,0.28652 0.316399,0.95853 1.01547,1.6064 0.661119,0.61233 1.207331,1.2589 1.213563,1.43596 0.01618,0.3602 1.201424,1.88139 1.470566,1.88139 0.09549,0 1.553428,1.38717 3.240456,3.08257 2.78973,2.80341 3.296292,3.15992 5.595563,3.93722 8.369594,2.82969 7.802666,2.76256 23.08189,2.73341 9.541645,-0.0163 26.640765,0.9249 27.595866,1.5221 0.313978,0.19646 4.321722,0.3602 16.252208,0.6639 12.85865,0.32746 19.61106,0.58942 22.09531,0.85761 2.5604,0.27587 8.01856,0.23822 23.29034,-0.16291 z m -8.35819,-15.66317 c -0.0486,-0.0491 -1.22643,-0.16454 -2.62546,-0.26359 -7.2389,-0.51165 -8.19594,-0.61562 -8.19594,-0.89166 0,-0.16455 -0.24195,-0.20548 -0.53731,-0.0909 -0.29536,0.1146 -0.90639,0.008 -1.35784,-0.23576 -0.59558,-0.32255 -1.22336,-0.35611 -2.28924,-0.1228 -0.80758,0.17683 -2.08484,0.20629 -2.83844,0.0655 -3.40926,-0.6369 -25.17288,-1.85233 -27.52248,-1.53699 -2.268192,0.30454 -16.619991,1.04278 -20.436358,1.05138 -6.425967,0.0163 -13.761481,-0.57633 -19.526086,-1.5717 -1.130458,-0.19565 -2.363685,-0.39867 -2.74053,-0.45107 -1.154168,-0.16209 -2.226606,-0.61234 -2.226606,-0.93488 0,-0.16864 -0.192591,-0.30617 -0.428069,-0.30617 -0.235478,-8e-5 -1.58612,-0.75068 -3.001337,-1.66788 -2.499225,-1.62 -6.974203,-6.15457 -7.693909,-7.79642 -0.18288,-0.41751 -0.518699,-0.87718 -0.745276,-1.02166 -0.226578,-0.14408 -0.589909,-0.80717 -0.806776,-1.4728 -0.216867,-0.66555 -0.523555,-1.21027 -0.68135,-1.21027 -0.329346,0 -1.175773,-3.82097 -1.688808,-7.62427 -0.346339,-2.57067 -0.382754,-4.15718 -0.409457,-18.02083 -0.0074,-3.90742 -0.07283,-8.5079 -0.140801,-10.22336 -0.0874,-2.135 0.03237,-3.59306 0.37547,-4.62159 0.42645,-1.2742 0.608521,-4.2903 0.525983,-8.72083 -0.07283,-4.115274 -0.13271,-19.985065 -0.07283,-21.486353 0.04046,-1.048347 -0.03237,-2.870303 -0.160222,-4.048725 -0.127855,-1.178501 -0.108433,-2.426105 0.04046,-2.772461 0.38761,-0.885523 0.445063,-2.293574 0.111671,-2.735632 -0.437779,-0.581235 -0.09063,-5.364264 0.522746,-7.19129 0.303451,-0.903942 0.551876,-1.930997 0.551876,-2.282275 0,-0.897544 0.971531,-3.149199 1.358816,-3.149199 0.177215,0 0.576153,-0.584502 0.886725,-1.299585 0.310734,-0.714667 0.729093,-1.650694 0.930666,-2.079898 0.457199,-0.975164 3.627579,-4.244704 4.116014,-4.244704 0.199064,0 0.604476,-0.21939 0.902343,-0.487087 0.956721,-0.861122 4.562615,-2.547753 7.883344,-3.687207 2.445171,-0.839018 3.882722,-1.119728 5.906216,-1.153289 1.718831,-0.02456 2.675552,-0.183373 2.677412,-0.433066 0.0017,-0.234126 1.109338,-0.486265 2.794909,-0.634433 1.535627,-0.135898 3.115678,-0.370024 3.511298,-0.520658 0.395701,-0.150624 1.048485,-0.149812 1.450821,0.002 0.402174,0.152268 2.791672,0.05734 5.309753,-0.216934 3.985651,-0.428967 12.821428,-0.66637 21.192552,-0.568133 1.41303,0.01634 6.2689,0.0409 10.79074,0.04912 4.52183,0.0079 9.76304,0.176005 11.64711,0.365924 1.88407,0.189929 5.89205,0.505922 8.90666,0.702397 7.03999,0.458427 10.52184,0.965657 12.17455,1.773481 0.72829,0.35611 1.5434,0.646722 1.81213,0.646722 0.26866,0 1.00835,0.213666 1.64374,0.473995 0.63523,0.261141 2.28284,0.574679 3.66116,0.697475 1.41797,0.126065 3.08517,0.522282 3.84016,0.912122 0.73395,0.379026 1.56338,0.688463 1.84353,0.688463 0.77845,0 5.67162,5.074959 6.6404,6.887011 0.47177,0.881997 1.06491,1.993456 1.3186,2.469986 0.25409,0.476441 0.46205,1.154675 0.46368,1.507101 9.7e-4,0.352011 0.21525,1.132166 0.47581,1.7328 0.9309,2.14605 1.17852,3.200209 1.22878,5.230256 0.0243,1.132413 0.14403,2.212033 0.25894,2.39909 0.11409,0.186651 0.25004,1.365806 0.30183,2.61954 0.0486,1.253665 0.23224,4.072868 0.40137,6.264848 0.16912,2.19197 0.3172,4.375275 0.32934,4.851795 0.008,0.476451 0.11167,2.347842 0.22253,4.158667 0.35281,5.786268 0.67649,13.628366 0.64494,15.594976 -0.0162,1.04826 -0.12866,7.59815 -0.24843,14.55532 -0.11976,6.95708 -0.20554,12.80515 -0.19097,12.99581 0.0161,0.19074 0.10196,2.84173 0.1934,5.89138 0.13756,4.60351 0.25329,7.15625 0.46934,10.39666 0.0162,0.19074 -0.0567,0.89239 -0.15537,1.5595 -0.0979,0.66718 -0.23062,2.09071 -0.29536,3.16345 -0.0647,1.07281 -0.2379,2.14874 -0.38599,2.3909 -0.14808,0.24231 -0.30992,0.95936 -0.35929,1.59363 -0.0485,0.63444 -0.335,1.64865 -0.6336,2.25419 -0.29859,0.60579 -0.54297,1.44783 -0.54297,1.87173 0,0.42404 -0.23144,0.96483 -0.51385,1.20208 -0.28241,0.2374 -0.51385,0.61725 -0.51385,0.84401 0,0.22676 -0.46286,0.86079 -1.02768,1.40862 -0.56563,0.54767 -1.02769,1.1758 -1.02769,1.39545 0,0.21939 -0.38518,0.57713 -0.85638,0.79407 -0.47096,0.21694 -0.85638,0.53539 -0.85638,0.70649 0,0.1719 -0.46287,0.50591 -1.02769,0.74249 -0.56564,0.23659 -1.02769,0.54194 -1.02769,0.67702 0,0.13588 -0.80936,0.4134 -1.79845,0.61725 -0.98918,0.20384 -2.41508,0.60578 -3.16877,0.89263 -1.13353,0.43142 -9.23932,1.00389 -9.56106,0.67537 z m -8.37307,-11.78587 c 0.23628,-0.23823 0.75256,-0.43306 1.14859,-0.43306 0.39569,0 0.86916,-0.15144 1.05228,-0.33646 0.18288,-0.18501 1.33147,-0.48463 2.55207,-0.66473 1.22061,-0.1801 3.29831,-0.74332 4.61715,-1.25006 1.99776,-0.76787 2.81239,-1.34894 4.88153,-3.47992 1.36593,-1.40683 2.4836,-2.68529 2.4836,-2.84115 0,-0.15555 0.46287,-0.79572 1.02769,-1.42156 0.56563,-0.62626 1.02769,-1.44268 1.02769,-1.81467 0,-0.61806 0.59071,-1.97839 1.04201,-2.39982 0.61176,-0.57059 1.3381,-4.37888 1.58701,-8.31733 0.10277,-1.62015 0.31801,-3.02935 0.47905,-3.1316 0.16103,-0.10233 0.33663,-3.25996 0.39084,-7.01709 0.0567,-3.7572 0.22173,-6.83158 0.37224,-6.83191 0.30588,-6.5e-4 0.12543,-2.28161 -0.25004,-3.16991 -0.13271,-0.31353 -0.0825,-1.17129 0.11086,-1.90602 0.2112,-0.80063 0.23709,-1.84627 0.0647,-2.60874 -0.18206,-0.80554 -0.15698,-1.40446 0.0647,-1.63146 0.24438,-0.24723 0.24357,-0.49773 -0.002,-0.80635 -0.45478,-0.56978 -0.73557,-8.423834 -0.48795,-13.617 0.0567,-1.143633 -0.002,-3.87271 -0.12543,-6.06468 -0.1238,-2.191979 -0.21848,-4.375274 -0.21201,-4.851804 0.007,-0.476442 -0.13433,-1.338464 -0.31478,-1.915519 -0.17965,-0.577135 -0.40946,-2.916223 -0.5098,-5.19833 -0.10034,-2.282017 -0.39975,-5.61353 -0.66597,-7.403311 -0.40057,-2.69912 -0.64332,-3.423284 -1.42154,-4.245358 -0.51626,-0.545207 -1.19745,-0.991117 -1.51361,-0.991117 -0.3164,0 -0.96845,-0.313538 -1.44961,-0.695842 -0.48147,-0.383115 -1.38834,-0.794078 -2.01597,-0.913924 -0.62793,-0.119518 -1.37233,-0.417498 -1.65498,-0.660636 -0.28241,-0.243949 -1.20749,-0.718756 -2.05537,-1.054892 -0.84781,-0.336453 -1.61858,-0.720401 -1.71276,-0.853427 -0.54298,-0.766241 -12.04242,-2.158241 -17.12818,-2.073105 -2.44161,0.0409 -7.91806,-0.05734 -9.42051,-0.162092 -5.36963,-0.388849 -10.52572,-0.870697 -10.73894,-1.003971 -0.40865,-0.255417 -6.65781,-0.574679 -14.439433,-0.735958 -7.217366,-0.150624 -16.287974,0.263607 -19.010055,0.867598 -0.754986,0.166993 -2.759789,0.501 -4.455475,0.74086 -1.748528,0.247227 -3.771861,0.783433 -4.674365,1.238761 -0.875155,0.441236 -1.761556,0.802258 -1.969683,0.802258 -0.207966,0 -0.378708,0.127708 -0.378708,0.284066 0,0.156358 -0.77279,0.496911 -1.716725,0.75723 -0.944261,0.260329 -1.970089,0.756427 -2.279771,1.102298 -0.309924,0.346277 -0.699961,0.629531 -0.866818,0.629531 -0.653837,0 -1.597207,1.282551 -1.964019,2.671114 -0.212011,0.802269 -0.517082,1.54092 -0.678922,1.64194 -0.161841,0.100693 -0.397319,0.883631 -0.524364,1.739266 -0.127045,0.855636 -0.375471,1.646515 -0.553495,1.757528 -0.177216,0.111329 -0.322873,0.670459 -0.322873,1.243751 0,0.573045 -0.181262,1.382671 -0.402983,1.799031 -0.221722,0.415865 -0.369806,1.340345 -0.328537,2.053378 0.04046,0.713033 -0.0874,1.601328 -0.28484,1.973966 -0.197445,0.37248 -0.400556,2.518282 -0.453153,4.768224 -0.04855,2.249932 -0.178026,4.246744 -0.279985,4.437317 -0.10196,0.190741 -0.210393,2.199021 -0.240333,4.463034 -0.04855,3.40126 -0.153749,4.190011 -0.626324,4.539327 -0.331774,0.244772 -0.462864,0.601694 -0.312353,0.847525 0.14242,0.233314 0.308307,0.842124 0.368188,1.352136 0.05665,0.510012 0.182071,1.512587 0.272701,2.227828 0.09063,0.715491 0.02428,1.387179 -0.144038,1.493279 -0.169932,0.10642 -0.311543,1.62629 -0.315589,3.37809 -0.0037,1.75188 -0.158604,4.24937 -0.344721,5.5501 -0.553496,3.87402 -0.421595,16.63226 0.199064,19.29479 0.110861,0.47644 0.195827,1.36711 0.187736,1.97913 -0.0077,0.61151 0.135946,1.20626 0.318017,1.32061 0.21282,0.13262 0.214438,0.43061 0.0051,0.82691 -0.200682,0.37903 -0.204729,0.74332 -0.0081,0.93963 0.173979,0.17601 0.403792,1.72068 0.510608,3.43196 0.210393,3.38129 0.613376,6.08155 1.110713,7.44334 0.173978,0.47645 0.249234,1.52005 0.166695,2.31887 -0.107624,1.04515 0.06473,1.89203 0.623896,3.01945 0.650601,1.31751 1.132967,1.74573 3.03144,2.68995 1.241885,0.61725 2.335038,1.22992 2.42923,1.36057 0.312352,0.43305 2.887481,1.00389 4.538986,1.00585 0.894978,9.9e-4 1.627146,0.13262 1.627146,0.29143 0,0.56405 7.114681,1.22002 13.873798,1.27871 3.76822,0.0328 10.088506,0.18256 14.045103,0.33319 3.956604,0.15062 9.043651,0.31436 11.304571,0.36511 15.93889,0.35447 20.12012,0.47153 20.21715,0.56894 0.0647,0.0573 2.58103,0.11052 5.60066,0.11052 3.935,0 5.61199,-0.12279 5.91965,-0.43306 z M 106.08363,147.826 c -7.217373,-0.42896 -15.279061,-1.97323 -16.749707,-3.20798 -0.771172,-0.64753 -5.834845,-3.14601 -6.379358,-3.14764 -0.285649,-6.6e-4 -1.087166,-0.39131 -1.78033,-0.86784 -0.693487,-0.47645 -1.410765,-0.86644 -1.594697,-0.86644 -0.18369,0 -0.771171,-0.44207 -1.305812,-0.98269 -0.534075,-0.5403 -1.316898,-1.16983 -1.739142,-1.39847 -0.422403,-0.22841 -0.767933,-0.72695 -0.767933,-1.10745 0,-0.38066 -0.220104,-0.77689 -0.48876,-0.88159 -0.268655,-0.10396 -0.809204,-0.87921 -1.200696,-1.72183 -0.391655,-0.8427 -0.865282,-1.53216 -1.052693,-1.53216 -0.187735,0 -0.340675,-0.2194 -0.340675,-0.4879 0,-0.26851 -0.537311,-1.49417 -1.193818,-2.72409 -0.656264,-1.22983 -1.241885,-2.55455 -1.300553,-2.94381 -0.05665,-0.38885 -0.310734,-0.95674 -0.560778,-1.26126 -0.250044,-0.30454 -0.374662,-0.5534 -0.276747,-0.5534 0.09711,0 0.03237,-0.58451 -0.150512,-1.29958 -0.180453,-0.71467 -0.471766,-2.39123 -0.646555,-3.72545 -0.175596,-1.3342 -0.382753,-2.8937 -0.461246,-3.46552 -0.415121,-3.04483 0.08092,-9.51301 0.839064,-10.9471 0.179643,-0.33891 0.326109,-1.08584 0.326109,-1.65896 0,-0.57305 0.154558,-1.1384 0.342293,-1.25619 0.188545,-0.11789 0.342294,-0.67456 0.342294,-1.23811 0,-0.563222 0.138373,-1.294664 0.308306,-1.625643 0.371425,-0.72449 1.50083,-3.239491 2.246755,-5.00087 0.491186,-1.159834 4.103714,-5.833832 4.724697,-6.113065 0.141611,-0.06546 0.257327,-0.336463 0.257327,-0.606606 0,-0.270153 0.160223,-0.491187 0.356859,-0.491187 0.196637,0 0.697534,-0.326629 1.113384,-0.726124 0.41593,-0.399495 1.450092,-1.207646 2.297976,-1.796495 0.847803,-0.588592 1.618569,-1.176947 1.712761,-1.306943 0.58991,-0.812904 9.583236,-4.372244 12.503572,-4.94824 2.612838,-0.515736 12.022095,-0.52147 14.216325,-0.0079 1.03627,0.242315 2.88612,0.668004 4.11076,0.946257 2.28212,0.519014 3.04334,0.763785 6.77797,2.179363 1.90261,0.721223 4.7315,2.270154 5.21176,2.853676 0.26542,0.322549 2.08889,1.356893 3.5113,1.992148 0.71453,0.319271 1.28461,0.820272 1.28461,1.129472 0,0.305347 0.60447,1.205031 1.34319,1.998446 1.25419,1.34698 2.21342,2.754785 2.24159,3.289604 0.007,0.126886 0.32286,0.516558 0.70319,0.86636 1.13693,1.045306 3.59068,4.169299 3.59068,4.571488 0,0.205476 0.61257,1.642021 1.36108,3.191769 0.74851,1.54977 1.45964,3.3871 1.57997,4.08302 0.12057,0.69584 0.42241,1.59463 0.67083,1.99714 0.87718,1.41943 0.36495,9.16331 -0.721,10.89946 -0.17155,0.27424 -0.34148,0.88806 -0.37871,1.36458 -0.15456,1.98675 -1.38795,5.54485 -1.92266,5.54485 -0.1586,0 -0.19179,0.15718 -0.0728,0.34957 0.32449,0.53047 -1.79142,5.0377 -3.14263,6.69438 -0.4394,0.53866 -0.79868,1.12774 -0.79868,1.30883 0,0.18092 -0.5009,0.88469 -1.1133,1.56367 -0.61257,0.67865 -1.25783,1.49351 -1.43448,1.81016 -0.17641,0.31681 -0.6943,0.87307 -1.14996,1.23646 -0.45558,0.36348 -1.00511,0.88004 -1.22044,1.14806 -0.21525,0.26769 -0.84278,0.90631 -1.39434,1.41853 -0.55187,0.51246 -1.28016,1.20061 -1.61921,1.52978 -0.33906,0.32909 -1.15967,0.82805 -1.82339,1.1086 -0.66354,0.28078 -1.20692,0.67373 -1.20692,0.87438 0,0.20056 -0.31074,0.36429 -0.68945,0.36429 -0.37951,0 -0.99596,0.15554 -1.37022,0.34628 -0.37465,0.19075 -0.99062,0.50509 -1.36966,0.69829 -2.87931,1.47085 -10.41518,2.78565 -14.5549,2.53949 z m 4.47797,-11.47487 c 0.26704,-0.36921 0.59476,-0.45026 1.03918,-0.25705 1.07195,0.46662 1.63152,0.38721 2.57173,-0.36675 0.492,-0.39459 1.79724,-1.00504 2.89995,-1.35591 2.20548,-0.70156 4.25527,-1.80655 4.25527,-2.29348 0,-0.17192 0.23791,-0.31272 0.52922,-0.31272 0.68539,0 2.21107,-1.54361 2.21107,-2.23692 0,-0.2947 0.18773,-0.53538 0.41754,-0.53538 0.56807,0 1.95456,-1.68009 2.19877,-2.66449 0.10925,-0.44042 0.34473,-0.80063 0.52356,-0.80063 0.17883,0 0.64494,-0.74087 1.03732,-1.64618 0.39165,-0.90533 0.9776,-2.03603 1.30161,-2.51248 0.55673,-0.81863 0.68134,-1.33396 0.70805,-2.9298 0.006,-0.37248 0.13756,-0.84025 0.29131,-1.03967 0.67245,-0.87095 0.738,-3.44031 0.13271,-5.18671 -0.33582,-0.96819 -0.70319,-1.83832 -0.81705,-1.93361 -0.1837,-0.1539 -0.5268,-1.29009 -0.68054,-2.25263 -0.0324,-0.19074 -0.50575,-0.98089 -1.05585,-1.75621 -0.55026,-0.77526 -0.91221,-1.64285 -0.80435,-1.92789 0.10843,-0.28652 -0.1149,-0.8039 -0.5009,-1.15657 -0.38356,-0.35119 -0.69753,-0.79162 -0.69753,-0.97868 0,-0.43632 -3.72743,-4.881266 -4.23877,-5.054736 -0.52194,-0.177639 -2.1223,-1.925834 -2.37728,-2.598096 -0.11329,-0.298802 -0.63603,-0.647534 -1.16259,-0.776877 -0.52597,-0.12853 -1.36585,-0.523114 -1.86601,-0.876679 -0.5001,-0.353644 -1.06533,-0.642623 -1.25605,-0.642623 -0.19097,0 -0.39814,-0.122796 -0.46125,-0.272608 -0.18288,-0.435512 -3.69134,-1.995337 -6.02088,-2.676116 -1.55246,-0.453525 -2.34678,-0.531293 -2.89841,-0.28161 -0.48633,0.21939 -1.29845,0.226758 -2.25703,0.01634 -0.99427,-0.214478 -1.99881,-0.195653 -2.99114,0.05734 -0.821826,0.209566 -2.712526,0.38066 -4.20162,0.38066 -3.065916,0 -4.178736,0.42242 -5.935438,2.25108 -0.637648,0.663914 -1.318026,1.208716 -1.511911,1.210766 -0.194209,0.002 -0.57939,0.336452 -0.85638,0.742503 -0.740422,1.086573 -2.13023,2.359703 -2.816191,2.580331 -0.329346,0.105595 -0.599621,0.468251 -0.599621,0.805536 0,0.336453 -0.63927,1.534849 -1.420313,2.662441 -1.431725,2.066478 -3.579189,6.324598 -3.442435,6.825688 0.04046,0.14899 -0.181262,0.76951 -0.492804,1.37874 -0.422405,0.82559 -0.552686,1.92289 -0.511417,4.30233 0.109242,6.32125 0.549449,8.32682 2.908278,13.25074 0.725856,1.51464 3.346219,4.44322 4.894388,5.46937 0.442635,0.29308 0.804348,0.73186 0.804348,0.97394 0,0.49118 1.679099,1.38471 3.254294,1.73263 0.565631,0.12443 1.335996,0.37085 1.712838,0.54603 1.574796,0.73431 4.79704,1.70612 5.654801,1.70612 0.507365,0 1.369903,0.15308 1.916112,0.34055 2.805591,0.9623 9.934511,1.02034 10.609551,0.0868 z m 24.63993,-51.52491 c -2.83488,-1.263478 -4.84195,-4.429136 -4.49229,-7.085604 0.48794,-3.705627 0.62552,-4.196477 1.17682,-4.196477 0.30183,0 1.21,-0.656546 2.01791,-1.458399 1.44314,-1.432938 1.50973,-1.458071 3.80796,-1.436701 2.66672,0.02456 2.98021,0.157992 4.98898,2.127789 2.07294,2.032344 2.74975,3.709885 2.45609,6.087446 -0.19663,1.58995 -0.46772,2.149734 -1.66938,3.44203 -2.48887,2.676849 -5.72553,3.661173 -8.28609,2.519916 z M 92.759359,20.268501 c -0.347956,-0.35202 -0.63522,0.17764 -0.349571,0.645901 0.21606,0.353644 0.296163,0.353644 0.41269,9.9e-4 0.08095,-0.240671 0.04855,-0.532106 -0.06471,-0.646712 z"
       id="path836" />
  </g>
</svg>
