<?xml version="1.0" encoding="UTF-8" standalone="no"?>
<!-- Created with Inkscape (http://www.inkscape.org/) -->

<svg
   width="175.54639mm"
   height="175.54639mm"
   viewBox="0 0 175.5464 175.54639"
   version="1.1"
   id="svg5"
   inkscape:version="1.1 (c68e22c387, 2021-05-23)"
   sodipodi:docname="kontakt.svg"
   xmlns:inkscape="http://www.inkscape.org/namespaces/inkscape"
   xmlns:sodipodi="http://sodipodi.sourceforge.net/DTD/sodipodi-0.dtd"
   xmlns="http://www.w3.org/2000/svg"
   xmlns:svg="http://www.w3.org/2000/svg">
  <sodipodi:namedview
     id="namedview7"
     pagecolor="#ffffff"
     bordercolor="#666666"
     borderopacity="1.0"
     inkscape:pageshadow="2"
     inkscape:pageopacity="0.0"
     inkscape:pagecheckerboard="0"
     inkscape:document-units="mm"
     showgrid="false"
     inkscape:zoom="0.77771465"
     inkscape:cx="183.87207"
     inkscape:cy="494.39727"
     inkscape:window-width="1920"
     inkscape:window-height="1017"
     inkscape:window-x="295"
     inkscape:window-y="1432"
     inkscape:window-maximized="1"
     inkscape:current-layer="layer1" />
  <defs
     id="defs2" />
  <g
     inkscape:label="Vrstva 1"
     inkscape:groupmode="layer"
     id="layer1"
     transform="translate(-17.970665,-15.146566)">
    <path
       style="fill:#000000;stroke-width:0.214084"
       d="m 152.2685,188.32909 c -3.31175,-0.41468 -10.27134,-0.52745 -18.09013,-0.29382 -3.06142,0.0916 -5.99969,0.13199 -6.52958,0.0896 -1.09593,-0.0875 -2.20171,-0.087 -16.37745,0.0104 -10.86022,0.0744 -24.249061,-0.10369 -27.295663,-0.36309 -1.086621,-0.0926 -2.799058,-0.0515 -4.250499,0.10161 -1.663585,0.176 -3.251365,0.19774 -5.030961,0.0698 -1.430149,-0.10264 -4.936443,-0.16133 -7.791788,-0.13048 -2.970341,0.0304 -5.191524,-0.0253 -5.191524,-0.13603 0,-0.10569 -0.120359,-0.11429 -0.267521,-0.0203 -0.251843,0.16283 -1.612205,0.27611 -7.385752,0.61459 -2.522231,0.14767 -4.335357,-0.14361 -4.335357,-0.69727 0,-0.14818 -0.223523,-0.4162 -0.497112,-0.59516 -0.646704,-0.4238 -1.333357,-1.8189 -1.746017,-3.54768 -0.181551,-0.75988 -0.417212,-1.67056 -0.524271,-2.0238 -0.10721,-0.35298 -0.19571,-1.4612 -0.197227,-2.4621 -0.0015,-1.00091 -0.10721,-2.09496 -0.235155,-2.4312 -0.154747,-0.4071 -0.192171,-2.05329 -0.111762,-4.9238 0.09911,-3.5323 0.05765,-4.60294 -0.229593,-5.91809 -0.192676,-0.88311 -0.382823,-2.49426 -0.422774,-3.58043 -0.04046,-1.08611 -0.130979,-2.07053 -0.203802,-2.18761 -0.240717,-0.38888 -0.156264,-14.52075 0.08952,-14.97954 0.139577,-0.2607 0.210376,-1.66324 0.18155,-3.59487 -0.02528,-1.74206 0.02023,-4.3716 0.106706,-5.84342 0.08496,-1.47184 0.133002,-3.78395 0.10721,-5.13803 -0.09659,-5.05863 -0.06726,-7.4219 0.108223,-8.67041 0.32416,-2.30658 0.208858,-4.84711 -0.378778,-8.34929 -0.495596,-2.95301 -0.550668,-3.70577 -0.398499,-5.45914 0.0971,-1.11858 0.155252,-2.27463 0.129461,-2.569 -0.252856,-2.88677 -0.412659,-17.202705 -0.200767,-17.983077 0.07991,-0.294374 0.13452,-3.521683 0.12137,-7.171822 -0.01517,-3.650133 -0.01517,-6.92562 -0.0027,-7.278859 0.01009,-0.353239 0.06119,-3.147038 0.110245,-6.208442 0.05058,-3.061402 0.143621,-8.889843 0.210375,-12.95209 0.06676,-4.062248 0.218973,-8.156607 0.33832,-9.098579 0.317081,-2.503592 0.474357,-4.566587 0.438957,-5.76397 -0.01517,-0.579766 0.06979,-1.687651 0.192676,-2.461965 0.122888,-0.774319 0.267521,-2.03405 0.321127,-2.799401 0.0536,-0.765354 0.241729,-2.451267 0.418222,-3.746472 0.176493,-1.295212 0.371191,-2.74028 0.432889,-3.211264 0.659345,-5.037171 1.773678,-8.032177 3.330761,-8.951962 0.35855,-0.211691 0.651609,-0.468339 0.651609,-0.570285 0,-0.401686 1.58338,-0.673313 3.630193,-0.622738 1.179419,0.02933 2.198678,-0.0012 2.265027,-0.06761 0.06625,-0.06631 0.460703,-0.04399 0.876549,0.05007 0.415693,0.09381 1.380388,0.08208 2.143556,-0.0258 1.935759,-0.274146 10.118411,-0.375439 10.838391,-0.134165 0.416705,0.139728 0.68903,0.119247 0.91574,-0.06888 0.236673,-0.196367 0.877104,-0.230351 2.403997,-0.127438 1.144778,0.07712 6.127594,0.140486 11.072939,0.140788 4.945344,2.14e-4 10.147595,0.0965 11.560542,0.213714 3.497807,0.290176 12.076257,0.397489 13.915487,0.174015 0.82421,-0.100136 3.76249,-0.231261 6.52953,-0.29144 2.76705,-0.06014 5.1846,-0.157377 5.37237,-0.216091 0.18762,-0.05871 1.44012,-0.0012 2.78307,0.127793 3.61214,0.346968 7.51056,0.435569 14.53752,0.330431 1.82505,-0.02731 3.99264,0.02376 4.8169,0.11333 1.55779,0.169412 6.45251,0.431776 7.3859,0.395921 2.41345,-0.09275 4.79003,0.0015 4.90944,0.194598 0.0773,0.125315 0.48244,0.214977 0.9003,0.199249 0.41773,-0.01568 0.86084,0.03388 0.98453,0.110499 0.12389,0.07647 0.55835,-2.13e-4 0.9658,-0.170476 0.95307,-0.398197 1.5929,-0.212499 2.68674,0.779816 1.0575,0.959288 1.44087,1.5918 1.05845,1.746274 -0.16283,0.0658 -0.12692,0.113938 0.0931,0.124304 0.37524,0.0177 1.03255,1.112291 1.03255,1.719649 0,0.193839 0.0798,0.443963 0.17802,0.555842 0.0981,0.111863 0.29078,0.600865 0.42884,1.086681 0.20785,0.731672 0.18914,1.080795 -0.10772,2.033795 -0.19722,0.632777 -0.47891,1.29501 -0.62616,1.471629 -0.14717,0.176645 -0.33378,0.586053 -0.41469,0.909854 -0.0809,0.323807 -0.23263,0.588733 -0.33781,0.588733 -0.10519,0 -0.19066,0.105441 -0.19066,0.234297 0,0.237936 -1.75972,2.193191 -3.31832,3.68703 -0.47081,0.451397 -0.86962,0.982094 -0.8859,1.179281 -0.0754,0.91468 -0.49914,1.535985 -1.04813,1.535985 -0.30444,0 -0.92324,0.29751 -1.3757,0.6611 -0.71664,0.575925 -0.88428,0.628114 -1.30104,0.405074 -0.48851,-0.26135 -3.05631,-0.214117 -3.33167,0.06125 -0.0798,0.07964 -0.0253,0.579317 0.12542,1.110389 0.14868,0.531077 0.26196,1.376793 0.25185,1.879377 -0.12644,6.308428 -0.11126,8.462345 0.0617,8.768866 0.13453,0.238291 0.11327,0.719192 -0.0633,1.406173 -0.18964,0.739684 -0.20734,1.312719 -0.0608,1.965637 0.11379,0.506875 0.17093,1.030149 0.12643,1.162832 -0.15677,0.468743 -0.34387,3.493702 -0.42429,6.843535 -0.0455,1.865065 -0.18357,3.88816 -0.30899,4.495767 -0.14462,0.702184 -0.16738,1.96286 -0.0617,3.459667 0.0916,1.295211 0.13655,4.907882 0.1002,8.028156 -0.0354,3.120281 -0.0536,9.334075 -0.0404,13.808435 0.0151,4.474357 0.0151,9.243081 0.005,10.597168 -0.0104,1.354072 0.002,3.377172 0.0304,4.495752 0.0657,2.425 0.0541,3.92733 -0.10019,13.12119 -0.0905,5.38986 -0.0532,7.26485 0.16081,8.07521 0.15475,0.58705 0.21443,1.36705 0.13452,1.75766 -0.0793,0.38627 -0.13098,1.85829 -0.1158,3.27126 0.0151,1.41295 0.0354,4.11041 0.0455,5.99435 0.0104,1.88395 0.0253,3.56986 0.0304,3.74647 0.0152,0.5004 0.23617,10.73279 0.24933,11.45351 0.005,0.35323 -0.0304,2.42235 -0.084,4.59804 -0.0526,2.17567 -0.0253,4.19876 0.0577,4.49577 0.084,0.29686 0.085,1.45519 0.002,2.57377 -0.0831,1.11857 -0.087,2.08196 -0.0104,2.14083 0.26398,0.19772 0.91423,2.99062 0.77859,3.34401 -0.11934,0.31101 0.0617,0.33781 1.63573,0.24375 0.97344,-0.0582 1.92447,-0.17144 2.11346,-0.25235 0.59603,-0.25387 2.10928,1.12399 2.91943,2.65861 0.40405,0.76535 0.82506,1.50075 0.93566,1.63422 0.54768,0.66096 0.28167,6.17178 -0.31557,6.54667 -0.26903,0.1689 -0.28522,0.2387 -0.32366,1.4125 -0.0151,0.49003 -0.19773,0.99954 -0.45513,1.27555 -0.23566,0.25287 -0.42834,0.75397 -0.42834,1.11373 0,0.35956 -0.11884,0.84453 -0.26448,1.07726 -0.22151,0.3545 -0.18307,0.57212 0.23869,1.34352 1.03776,1.8997 0.13705,2.47935 -3.98308,2.5636 -1.50413,0.0304 -3.26461,-0.0104 -3.91223,-0.0916 z m -72.001706,-2.97488 c 1.499483,-0.48953 5.717413,-0.61591 6.802112,-0.2033 0.288255,0.10974 0.573021,0.10569 0.688221,-0.0104 0.119349,-0.11934 0.466771,-0.11884 0.883528,6.5e-4 0.377765,0.10824 2.53184,0.19724 4.786399,0.19724 2.911937,0 4.144304,0.0728 4.254899,0.25184 0.08549,0.13856 0.206831,0.16942 0.269035,0.0683 0.06219,-0.10067 1.158181,-0.14564 2.435202,-0.0991 3.36485,0.12188 15.19978,0.0354 19.48669,-0.14464 2.13374,-0.0891 3.80664,-0.0718 3.98499,0.0404 0.16891,0.10722 0.48902,0.11784 0.71119,0.0253 0.22201,-0.094 2.86035,-0.19117 5.86291,-0.21645 4.74482,-0.0404 7.0004,-0.12086 10.81123,-0.38737 0.47082,-0.0354 2.73493,0.0602 5.03097,0.20683 2.29606,0.14666 5.23021,0.29483 6.52037,0.32972 l 2.34574,0.0627 0.13401,-0.64227 c 0.17499,-0.83886 0.80211,-2.03381 1.06746,-2.03381 0.1148,0 0.20936,-0.12035 0.21038,-0.26752 0.001,-0.14716 0.355,-0.64023 0.78653,-1.09561 0.51299,-0.54131 0.80018,-1.06013 0.82957,-1.49858 0.0253,-0.36867 0.21441,-1.78744 0.42125,-3.15245 0.45818,-3.02429 0.35196,-3.80542 -0.59517,-4.37304 -0.85627,-0.51304 -2.76295,-0.52401 -4.4772,-0.0253 -0.87822,0.25538 -1.36088,0.28876 -1.90649,0.1325 -0.84883,-0.24325 -5.14696,-0.2559 -7.47708,-0.0203 -0.88313,0.0885 -1.94284,0.10068 -2.35495,0.0253 -0.41215,-0.0743 -3.01322,-0.0536 -5.78028,0.0455 -5.53332,0.19875 -7.87497,0.20077 -12.84504,0.0104 -1.82505,-0.0698 -8.13515,-0.14969 -14.02249,-0.17751 -11.466371,-0.0536 -20.97844,-0.19824 -27.188667,-0.41367 -2.119433,-0.0733 -5.972949,-0.11024 -8.563401,-0.0819 -5.059079,0.0557 -5.075463,0.0557 -9.740796,0.005 -3.49795,-0.0354 -4.415107,0.11885 -4.338036,0.73865 0.03035,0.22402 0.06119,0.84119 0.07434,1.37108 0.01517,0.52984 0.158793,1.17673 0.324159,1.43752 0.317586,0.50167 0.420752,2.63006 0.127439,2.63006 -0.09507,0 -0.344389,0.69843 -0.554056,1.55213 -0.62081,2.52729 -1.032509,3.79995 -1.22918,3.79995 -0.101652,0 -0.184585,0.10571 -0.184585,0.23466 0,0.12895 -0.182056,0.49053 -0.404569,0.80282 l -0.404567,0.56827 7.308732,0.0151 c 7.879831,0.0202 12.070049,0.17296 13.089056,0.48295 0.713861,0.21696 1.78981,0.14313 2.820702,-0.19368 z M 54.164438,184.0261 c 0.382823,-0.36713 0.695757,-0.8856 0.695757,-1.1516 0,-0.266 0.240718,-0.83862 0.535244,-1.27241 0.294324,-0.43391 0.535193,-1.01739 0.535193,-1.2969 0,-0.27966 0.111763,-0.68685 0.247799,-0.90517 0.287749,-0.46121 0.10974,-1.09588 -0.307979,-1.09588 -0.158286,0 -0.476379,0.17599 -0.707033,0.39092 -0.54728,0.50985 -1.823694,0.37675 -2.41406,-0.25185 -0.337309,-0.35905 -0.435923,-0.76565 -0.449071,-1.85181 -0.01517,-1.38651 0.303932,-3.4313 0.641847,-4.09646 0.09761,-0.19267 0.123394,-0.55866 0.05664,-0.81373 -0.15323,-0.58551 0.45615,-1.80869 1.41958,-2.85039 0.873868,-0.94483 1.70819,-1.05153 2.868442,-0.36716 0.755532,0.44554 1.685634,0.49561 6.671689,0.35755 1.966001,-0.0546 7.181192,0.20683 7.631881,0.38283 0.194194,0.0753 0.410638,0.0455 0.480425,-0.0687 0.07334,-0.11884 0.426821,-0.13907 0.832501,-0.0455 0.387881,0.0875 1.347113,0.0819 2.131925,-0.0152 0.784862,-0.0946 2.756123,-0.13452 4.380667,-0.0891 1.624545,0.0455 5.077336,0.12188 7.672896,0.16941 2.720267,0.0505 4.888958,0.18156 5.120016,0.31051 0.251339,0.1406 0.642253,0.15526 1.048794,0.0404 0.356525,-0.10213 3.013735,-0.12592 5.905288,-0.0527 2.891601,0.0733 7.087821,0.10418 9.324981,0.0682 6.47993,-0.10316 11.0556,-0.0253 12.09575,0.20786 0.88746,0.19824 9.5161,0.16587 14.77181,-0.0552 1.11857,-0.0455 3.47888,-0.0845 5.24507,-0.083 4.24771,0.003 4.91365,-0.0104 7.84201,-0.17952 l 2.48992,-0.14261 -0.0784,-0.99464 c -0.0455,-0.54703 -0.14665,-4.70361 -0.23009,-9.23686 -0.0834,-4.53321 -0.18004,-9.68728 -0.21442,-11.45348 -0.24477,-12.49301 -0.26601,-16.67271 -0.0901,-17.45754 0.12491,-0.55543 0.12137,-1.66193 -0.0104,-2.95464 -0.1148,-1.13666 -0.19621,-3.7044 -0.18053,-5.70609 0.0536,-6.93457 0.0304,-14.8326 -0.0824,-27.71497 -0.0784,-8.969977 -0.0455,-13.027203 0.11429,-13.21692 0.12492,-0.15055 0.16992,-0.500755 0.10068,-0.778264 -0.14364,-0.57304 -0.19724,-16.419852 -0.0647,-19.196791 0.0455,-1.000841 0.16334,-2.87943 0.25689,-4.174642 0.0936,-1.295205 0.15222,-2.836612 0.13047,-3.425345 -0.0203,-0.588733 0.0404,-1.503943 0.1411,-2.033801 0.0996,-0.529858 0.10418,-1.974926 0.0104,-3.211262 -0.20025,-2.649843 -0.22756,-3.659722 -0.17598,-6.529569 0.0404,-2.350792 -0.12694,-4.027025 -0.47941,-4.751703 -0.27865,-0.574052 -0.86366,-0.649591 -6.35926,-0.821477 -2.16854,-0.06782 -4.11355,-0.214674 -4.32221,-0.326335 -0.24426,-0.130676 -0.42682,-0.126529 -0.51204,0.01162 -0.1684,0.272225 -3.99709,0.278596 -6.95807,0.01162 -1.2363,-0.111509 -3.69911,-0.135479 -5.47285,-0.05336 -1.77374,0.08213 -3.74863,0.08304 -4.38871,0.002 -2.87359,-0.363859 -7.07024,-0.627188 -10.81548,-0.678704 -2.23626,-0.03085 -4.18779,-0.131283 -4.33682,-0.223372 -0.58147,-0.359409 -15.095255,-0.491754 -16.139243,-0.147213 -0.530997,0.175229 -0.994683,0.171992 -1.779647,-0.01265 -0.583843,-0.137149 -2.79562,-0.273842 -4.915052,-0.303629 -2.119434,-0.02984 -4.52788,-0.122635 -5.352088,-0.206229 -0.824207,-0.0836 -2.991835,-0.170677 -4.816894,-0.193535 -3.433877,-0.04299 -5.780273,-0.4162 -5.780273,-0.919306 0,-0.330937 -0.262464,-0.352683 -0.567862,-0.04703 -0.1239,0.12395 -0.456151,0.255687 -0.73859,0.292806 -0.282188,0.03692 -0.694594,0.143621 -0.916247,0.236623 -0.230603,0.09689 -0.564676,0.06817 -0.781424,-0.06716 -0.400017,-0.24967 -0.913061,-0.262313 -5.024034,-0.123647 -3.231136,0.108981 -3.079878,0.110902 -3.907019,-0.04956 -0.555928,-0.107819 -0.695807,-0.238949 -0.695807,-0.65255 0,-0.299228 -0.158288,-0.574173 -0.374731,-0.651634 -0.20633,-0.07369 -0.881758,-0.637457 -1.501557,-1.25278 -1.076304,-1.068553 -1.131983,-1.179647 -1.2398,-2.474741 -0.0622,-0.745777 -0.25336,-1.511235 -0.425303,-1.701014 -0.430865,-0.476328 -0.407601,-0.538683 0.389903,-1.031609 0.732421,-0.452662 3.932912,-1.215015 5.452573,-1.298782 0.3985,-0.02174 0.344895,-2.46328 -0.07334,-3.344755 -0.407602,-0.859145 -1.945924,-1.704467 -2.703831,-1.485893 -1.59567,0.460146 -2.309936,0.97332 -2.756022,1.980029 -0.783701,1.768728 -0.816724,1.859457 -0.915894,2.514748 -0.0536,0.353237 -0.245775,1.268448 -0.42783,2.033795 -0.181551,0.765353 -0.38333,2.547603 -0.44806,3.960559 -0.06473,1.412956 -0.21341,3.002531 -0.330735,3.532388 -0.512588,2.316334 -0.649383,3.50894 -0.748452,6.525424 -0.05765,1.763914 -0.203296,3.504477 -0.323654,3.867926 -0.119854,0.363455 -0.172953,1.012849 -0.117831,1.443118 0.05512,0.430258 0.01517,0.833315 -0.08344,0.895658 -0.100633,0.06236 -0.133002,0.306461 -0.0713,0.542446 0.06169,0.236015 0.0017,0.562371 -0.133508,0.725259 -0.173965,0.209719 -0.192171,0.746627 -0.06169,1.839073 0.222513,1.865238 0.138059,10.616759 -0.109739,11.357296 -0.0971,0.290227 -0.164356,1.250238 -0.14969,2.133334 0.03035,1.934899 0.05058,5.682201 0.0354,8.028157 -0.0051,0.941972 -0.0033,4.072954 0.0051,6.95774 0.01009,2.88478 -0.0051,6.015761 -0.03541,6.957734 -0.172953,5.695201 -0.06322,15.648234 0.217456,19.773259 0.09912,1.45937 0.06625,2.04763 -0.121876,2.16377 -0.200262,0.12389 -0.203296,0.82365 -0.01009,3.13375 0.135026,1.63583 0.340345,3.35959 0.456658,3.83058 0.347422,1.40943 0.488011,7.83359 0.216949,9.90622 -0.281681,2.15375 -0.282186,2.2626 -0.04046,6.6853 0.09963,1.82506 0.09861,4.42619 -0.0022,5.78027 -0.100633,1.35409 -0.235662,4.27905 -0.300392,6.49993 -0.06473,2.22087 -0.176493,4.13343 -0.24881,4.25012 -0.190653,0.30864 -0.142105,8.66953 0.05208,8.98403 0.09053,0.14616 0.196215,1.42555 0.235155,2.84321 0.09102,3.29749 0.187113,4.66957 0.502171,7.18039 0.140587,1.11857 0.22757,3.3344 0.193182,4.92395 -0.07535,3.48945 -0.06726,3.76087 0.196215,6.74365 0.114796,1.29522 0.312024,2.6261 0.438957,2.9576 0.126933,0.33123 0.232121,0.95766 0.233639,1.39156 0.0036,0.87771 0.432888,2.27387 0.817177,2.65826 0.137553,0.13756 0.249821,0.36716 0.249821,0.51052 0,0.76367 1.788901,0.49863 2.729573,-0.40456 z m 48.650632,-20.53528 c -0.76535,-0.11076 -1.53605,-0.2028 -1.71269,-0.20481 -0.17649,-0.002 -0.46577,-0.0516 -0.64226,-0.10975 -0.17649,-0.0587 -0.802821,-0.13098 -1.391511,-0.16082 -0.58874,-0.0304 -1.696603,-0.16182 -2.461999,-0.29382 -0.765345,-0.13147 -2.692102,-0.35247 -4.28165,-0.49154 -5.730411,-0.50066 -5.537127,-0.46475 -5.135948,-0.94821 0.183574,-0.22149 0.191158,-0.31859 0.02528,-0.31859 -0.13199,0 -0.240213,0.0926 -0.240213,0.20531 0,0.50419 -1.677189,0.71356 -3.896248,0.48649 -1.319095,-0.13501 -4.613698,-0.17801 -8.199491,-0.1067 -9.938933,0.19672 -11.052811,0.16841 -11.306374,-0.28471 -0.352987,-0.63058 -0.344896,-1.54587 0.01517,-1.68387 0.541161,-0.20784 11.19957,-0.23464 17.286101,-0.0455 7.671629,0.24022 9.812202,0.36412 12.160723,0.70259 1.272115,0.18307 2.456031,0.27814 2.631004,0.21138 0.174985,-0.0673 0.482957,-0.0354 0.684337,0.0698 0.201266,0.1057 1.281415,0.29433 2.399988,0.41923 1.11859,0.12492 3.045341,0.34085 4.281661,0.47942 1.23636,0.13906 2.37238,0.34945 2.52454,0.46779 0.1861,0.14462 0.34945,0.1421 0.49964,-0.0104 0.61389,-0.61393 2.01733,0.8894 1.45868,1.56249 -0.29281,0.35299 -2.44394,0.37626 -4.69703,0.0506 z m -5.566204,-5.80419 c -0.154755,-0.15526 -4.222132,-0.38334 -8.670414,-0.48651 -3.059701,-0.0708 -3.901203,-0.15373 -4.085181,-0.40254 -0.196722,-0.26601 -0.294323,-0.26954 -0.645944,-0.0253 -0.483459,0.33883 -4.006037,0.27965 -5.758983,-0.0966 -0.588748,-0.12644 -1.889284,-0.26348 -2.890136,-0.30495 -1.000851,-0.0404 -3.405101,-0.14008 -5.342832,-0.21897 -1.937682,-0.0789 -3.582505,-0.18054 -3.655126,-0.22555 -0.07283,-0.0455 -1.216082,-0.10518 -2.541044,-0.13452 -2.402733,-0.0527 -2.409812,-0.0546 -2.720369,-0.65495 -0.242741,-0.4693 -0.257408,-0.70304 -0.06625,-1.06055 0.239202,-0.4469 0.3277,-0.45524 3.523842,-0.33043 2.112355,0.0824 3.438428,0.22722 3.728251,0.40684 0.36917,0.229 0.480932,0.22905 0.623289,9e-5 0.127945,-0.20543 0.562654,-0.24695 1.652612,-0.15789 0.813487,0.0665 2.249806,0.16991 3.191742,0.22984 0.941987,0.0599 2.441217,0.20588 3.331621,0.32431 0.890405,0.11834 2.576343,0.26045 3.746457,0.31608 1.170164,0.0552 2.464733,0.1608 2.876837,0.23414 0.412154,0.0733 3.639448,0.15526 7.171837,0.18155 3.864291,0.0304 7.403188,0.16739 8.884474,0.34691 1.354091,0.16436 3.329051,0.26399 4.388761,0.221 4.02454,-0.16233 3.61441,-0.23364 3.83728,0.6684 0.10872,0.44048 0.14512,0.85374 0.0809,0.91806 -0.15424,0.15425 -2.74904,0.21645 -5.41685,0.12947 -1.17746,-0.0404 -2.815201,-0.003 -3.639401,0.0784 -0.824261,0.0814 -1.546767,0.1002 -1.605632,0.0404 z m 29.481094,-5.42051 c -0.0404,-0.0399 -0.83113,-0.12805 -1.75826,-0.19586 -0.92716,-0.0678 -1.76553,-0.17265 -1.86307,-0.23294 -0.0977,-0.0603 -1.45211,-0.19726 -3.01015,-0.30443 -1.558,-0.10717 -3.26628,-0.23733 -3.79612,-0.28931 -0.52989,-0.0521 -3.99805,-0.10762 -7.70703,-0.12355 -4.66315,-0.0203 -7.4611,-0.12794 -9.069151,-0.34965 -1.31874,-0.1818 -2.616298,-0.25118 -2.997197,-0.16031 -0.613781,0.1465 -3.060863,0.28416 -4.097014,0.23051 -0.589456,-0.0304 -16.704432,0.0587 -23.763345,0.13142 -3.179149,0.0329 -6.165624,-0.0121 -6.636591,-0.10019 -2.011616,-0.37545 -2.033816,-0.38552 -2.033816,-0.92041 0,-1.14788 -0.784459,-1.08922 13.543184,-1.0125 7.328404,0.0394 13.565233,0.0782 13.859606,0.0867 0.294323,0.008 2.510146,-7e-5 4.923954,-0.0188 9.76927,-0.0758 25.62318,0.34424 29.32949,0.77715 0.52983,0.0619 2.00509,0.12608 3.27827,0.14267 l 2.31494,0.0304 0.52958,0.6767 c 0.44857,0.57339 0.48953,0.74093 0.26701,1.09744 -0.23162,0.37085 -1.11766,0.73178 -1.31413,0.5353 z m -64.842259,-6.31501 c -0.802613,-0.22712 -1.107101,-0.60226 -0.908609,-1.11947 0.179526,-0.46828 2.22098,-0.83659 3.044934,-0.54935 0.51896,0.18088 0.767871,0.17947 0.991041,-0.005 0.193687,-0.16066 1.411235,-0.25346 3.474383,-0.26478 1.747029,-0.009 5.006789,-0.0288 7.243952,-0.0429 2.237214,-0.0141 4.64566,0.0207 5.352138,0.077 0.706478,0.0563 2.160851,0.0233 3.231997,-0.0736 1.90218,-0.17188 1.961196,-0.16333 2.533559,0.3671 0.322139,0.29872 0.553248,0.71337 0.513145,0.92149 -0.09053,0.4692 -1.328553,0.75658 -2.060619,0.47824 -0.288255,-0.10968 -0.825673,-0.15004 -1.193831,-0.0898 -0.629509,0.10316 -3.017222,0.16552 -16.083419,0.41999 -3.382749,0.0659 -5.641506,0.0223 -6.138671,-0.11834 z m 8.921799,-4.72116 c -2.114276,-0.20466 -6.03328,-0.39455 -8.456343,-0.40972 -2.771041,-0.0171 -3.211262,-0.11708 -3.211262,-0.72713 0,-0.28209 -0.0981,-0.57339 -0.217456,-0.64735 -0.516431,-0.31921 0.135025,-0.48665 2.088029,-0.53698 2.333804,-0.0601 2.57786,-0.0553 6.799938,0.13624 1.648464,0.0748 5.482207,0.17335 8.519505,0.21907 3.037247,0.0455 5.590176,0.10078 5.673213,0.12238 0.08295,0.0218 0.372203,-0.0359 0.642911,-0.12794 0.301403,-0.10245 0.608925,-0.0701 0.794066,0.0835 0.181044,0.1504 0.562603,0.19349 0.953264,0.10766 0.488517,-0.10726 0.683671,-0.0585 0.780969,0.19515 0.149185,0.38839 0.843628,0.45368 1.062297,0.0998 0.229592,-0.3716 2.364146,-0.11712 2.87183,0.34237 1.035291,0.93691 0.03541,1.62369 -1.816361,1.24743 -0.470817,-0.0957 -2.108764,-0.12582 -3.639449,-0.067 -1.530685,0.0589 -3.28909,0.0188 -3.907575,-0.0895 -0.829871,-0.14498 -1.259928,-0.12394 -1.641638,0.0802 -0.364112,0.19495 -0.917916,0.23207 -1.872697,0.12552 -1.916847,-0.21393 -2.39621,-0.27829 -2.640064,-0.35455 -0.117829,-0.0369 -0.40659,0.0304 -0.642251,0.14968 -0.268027,0.13548 -1.069478,0.15455 -2.140825,0.0508 z m 54.6125,-4.40137 c -0.16639,-0.16638 -4.33061,-0.50923 -5.97357,-0.4918 -0.91898,0.009 -1.76527,-0.0404 -1.88073,-0.11202 -0.22353,-0.13825 -3.498,-0.28284 -9.07942,-0.40087 -4.01261,-0.0849 -5.18612,-0.24749 -5.31648,-0.73689 -0.0754,-0.28385 -0.0977,-0.27486 -0.11783,0.0485 -0.0202,0.36648 -0.17044,0.38641 -1.89809,0.2561 -1.03028,-0.0777 -4.811533,-0.17766 -8.402786,-0.22216 -3.591253,-0.0445 -7.733783,-0.13402 -9.205653,-0.19891 -1.471821,-0.0649 -4.4101,-0.17041 -6.529535,-0.23449 -2.119432,-0.0642 -5.250439,-0.20107 -6.957768,-0.30443 -1.707279,-0.10328 -4.113753,-0.20148 -5.347637,-0.21812 -2.414971,-0.0324 -5.934262,-0.6745 -6.797106,-1.23984 -0.360066,-0.23607 -0.489527,-0.49551 -0.444014,-0.88999 0.05512,-0.47397 0.175988,-0.56154 0.813992,-0.58849 0.412153,-0.0171 1.151604,0.0537 1.643357,0.15793 0.905576,0.19203 1.966659,0.27395 6.598867,0.50928 1.412955,0.0718 3.965935,0.22088 5.673214,0.33139 1.707329,0.11049 4.934673,0.24916 7.171836,0.30813 2.237163,0.059 5.657184,0.20516 7.599972,0.32481 1.942838,0.11965 4.784781,0.21528 6.315517,0.21255 3.928053,-0.007 7.473694,0.11804 7.723964,0.27273 0.11733,0.0724 2.28061,0.19825 4.80779,0.27972 7.04849,0.22721 7.94628,0.26908 8.98364,0.41883 1.77232,0.25584 2.45619,0.2756 3.31124,0.0957 0.51017,-0.10738 0.94822,-0.0965 1.09715,0.0269 0.13654,0.11318 1.29558,0.2563 2.57609,0.31809 1.28051,0.0618 2.71354,0.15065 3.18455,0.19749 0.47083,0.047 1.43436,0.0923 2.14083,0.10098 0.70648,0.008 1.39607,0.087 1.53246,0.17371 0.13653,0.0868 0.31606,0.52193 0.3995,0.96699 l 0.15172,0.80921 -1.84533,-0.0429 c -1.01492,-0.0238 -1.88358,-0.0813 -1.93031,-0.12805 z m -8.47739,-1.46093 c 0,-0.18358 -0.0981,-0.27324 -0.21745,-0.1993 -0.11986,0.0739 -0.16234,0.22412 -0.0946,0.33377 0.18357,0.29695 0.31202,0.24157 0.31202,-0.13447 z m 9.51601,-4.98913 c -0.78491,-0.71346 -2.75395,-1.00446 -9.44859,-1.39633 -2.84766,-0.16668 -5.29014,-0.37266 -5.42775,-0.45767 -0.13756,-0.085 -2.09465,-0.1958 -4.34911,-0.24623 -2.25445,-0.0506 -4.46759,-0.18878 -4.91812,-0.30747 -0.52832,-0.13921 -0.90836,-0.14236 -1.07044,-0.009 -0.13806,0.11383 -0.9738,0.17234 -1.856871,0.13007 -0.88312,-0.0424 -3.773264,-0.13002 -6.422528,-0.19496 -2.649316,-0.0649 -6.502832,-0.19772 -8.5634,-0.29512 -2.060519,-0.0975 -8.209707,-0.15253 -13.664757,-0.12254 -8.027904,0.044 -10.141521,-0.003 -11.089324,-0.25043 -0.644023,-0.16774 -1.499079,-0.30499 -1.900107,-0.30499 -0.669914,0 -0.741119,-0.0637 -0.876143,-0.78357 -0.271567,-1.44906 0.179527,-1.52511 5.479677,-0.92313 1.118582,0.12702 2.900859,0.21006 3.960574,0.18447 4.154161,-0.10029 9.429583,-0.0768 14.236565,0.0631 2.767046,0.0806 7.535797,0.20856 10.597167,0.28431 3.06142,0.0758 6.134321,0.22351 6.828662,0.32836 0.694394,0.10478 1.337704,0.14402 1.429644,0.0873 0.33125,-0.2046 10.579511,0.37245 10.723431,0.6038 0.0784,0.12582 0.46374,0.20664 0.85637,0.17952 4.47312,-0.30884 11.66619,0.007 14.09421,0.61898 0.52988,0.13351 1.20425,0.29724 1.49862,0.36381 0.83512,0.18884 1.07039,0.48143 1.07039,1.33146 0,1.06282 -0.61318,1.63889 -1.18817,1.11624 z m -3.62872,-5.70906 c -0.70648,-0.14573 -1.34561,-0.22914 -1.4203,-0.18539 -0.0749,0.044 -0.65267,-0.009 -1.2845,-0.11804 -0.63178,-0.10867 -1.91943,-0.26256 -2.86136,-0.34201 -0.94199,-0.0793 -2.0499,-0.18787 -2.462,-0.24107 -0.41216,-0.0533 -1.23095,-0.1278 -1.8197,-0.16577 -0.58875,-0.0379 -1.64847,-0.13392 -2.35495,-0.21321 -0.70648,-0.0792 -2.87405,-0.17902 -4.81689,-0.22171 -5.19925,-0.11412 -10.521149,-0.32279 -11.132351,-0.43637 -0.57757,-0.10736 -3.664781,-0.31719 -6.132194,-0.41676 -0.841148,-0.0339 -1.621662,-0.11879 -1.734486,-0.18847 -0.112774,-0.0698 -1.351361,-0.14261 -2.75228,-0.16199 -1.400971,-0.0193 -2.606129,-0.12703 -2.678143,-0.23923 -0.08243,-0.12836 -0.431371,-0.12113 -0.940419,0.0193 -0.555725,0.15344 -0.938397,0.15451 -1.220786,0.003 -0.250327,-0.13408 -1.263923,-0.17255 -2.591969,-0.0984 -3.67677,0.20526 -16.427555,0.38186 -17.193808,0.23813 -0.674163,-0.12646 -0.722055,-0.1911 -0.722055,-0.97453 0,-1.18633 0.450589,-1.37887 2.767502,-1.18202 2.142646,0.18206 4.741139,0.21988 6.919841,0.10067 4.847237,-0.26515 20.904006,0.19693 23.388662,0.67311 0.588749,0.11282 2.708182,0.24709 4.709887,0.29837 2.001658,0.0512 4.361959,0.20401 5.245019,0.33939 0.88653,0.13588 4.76981,0.27363 8.67041,0.30756 4.90655,0.0425 7.26099,0.14073 7.70702,0.32093 0.72408,0.29251 4.00214,0.6816 6.10141,0.72417 1.67345,0.0339 2.28905,0.23015 2.46544,0.78586 0.25033,0.78786 -0.0779,1.27355 -0.86032,1.27355 -0.39647,0 -0.94396,0.0822 -1.21654,0.18271 -0.30088,0.11091 -1.00033,0.0786 -1.78014,-0.0822 z m 2.81271,-6.62999 c -0.0678,-0.1766 -0.35096,-0.32113 -0.62947,-0.32113 -0.27863,0 -0.55537,-0.0491 -0.61544,-0.10918 -0.26146,-0.26161 -10.07072,-0.40406 -16.87482,-0.24502 -2.27503,0.0532 -13.547814,-0.31106 -19.585443,-0.63285 -5.691876,-0.30332 -15.932567,-0.37756 -16.606628,-0.12035 -0.300897,0.11484 -0.927069,0.13967 -1.391564,0.0553 -0.464241,-0.0845 -1.374269,-0.11934 -2.021882,-0.0776 -3.563945,0.22963 -6.88171,0.3152 -7.527249,0.19409 -0.636842,-0.11951 -0.764939,-0.2523 -0.964492,-0.99997 -0.208859,-0.78276 -0.18863,-0.88443 0.220489,-1.10343 0.301405,-0.16143 2.966398,-0.26691 8.053847,-0.3188 4.181772,-0.0424 7.74769,-0.0702 7.924335,-0.0612 2.415932,0.12314 5.884146,0.2311 9.633787,0.29987 2.531537,0.0465 8.889837,0.19415 14.129549,0.32827 11.158601,0.28562 16.069661,0.31288 19.538031,0.10848 1.79208,-0.10565 2.60461,-0.0768 2.81751,0.0998 0.19773,0.1639 0.34489,0.17437 0.4334,0.0309 0.0738,-0.1196 0.39545,-0.17668 0.71487,-0.12682 1.99498,0.31146 4.2914,0.61857 4.71509,0.6306 0.28927,0.008 0.62986,0.23682 0.8188,0.54926 0.42226,0.69855 0.091,1.63677 -0.6819,1.9306 -0.83974,0.31926 -1.95873,0.26024 -2.10114,-0.1109 z m -45.1905,-6.51202 c -0.06321,-0.10223 -1.14144,-0.1993 -2.39621,-0.21584 -1.254767,-0.0167 -2.362072,-0.0798 -2.460635,-0.14083 -0.09861,-0.061 -1.938692,-0.15383 -4.089127,-0.20643 -8.201413,-0.20062 -10.282614,-0.34201 -12.522912,-0.85074 -0.462725,-0.10515 -1.127836,-1.07541 -1.127836,-1.64581 0,-0.15414 0.186607,-0.39683 0.414684,-0.53933 0.413165,-0.25817 1.288852,-0.10777 2.192912,0.37659 0.326689,0.17513 5.188895,0.62367 8.096428,0.74687 6.196269,0.26257 7.840639,0.35536 9.389377,0.52979 0.984112,0.11085 1.918818,0.309 2.077056,0.44027 0.158287,0.13134 0.476885,0.17872 0.708095,0.10534 0.23111,-0.0734 0.482448,-0.0334 0.558102,0.0894 0.07585,0.12253 0.321127,0.22281 0.545714,0.22281 0.349444,0 1.019714,0.78247 0.815053,0.95157 -0.213411,0.17623 -2.103858,0.2934 -2.200853,0.13643 z m 5.002286,-4.81 c -0.05057,-0.0455 -2.642135,-0.14236 -5.762419,-0.21538 -8.472728,-0.19834 -10.924919,-0.33236 -11.988731,-0.6552 -0.656363,-0.19918 -1.747989,-0.26705 -3.425331,-0.2129 -2.614271,0.0844 -7.13492,-0.25356 -7.760535,-0.58014 -0.206329,-0.10757 -0.374731,-0.41888 -0.374731,-0.69183 0,-0.46363 0.107717,-0.50536 1.637896,-0.63472 2.278226,-0.19258 6.083396,-0.15036 7.995891,0.0888 0.883074,0.1104 2.906169,0.23688 4.49577,0.28108 1.589548,0.044 3.323631,0.17518 3.853513,0.29114 0.529834,0.11596 1.445069,0.17442 2.033767,0.12997 1.330929,-0.10047 1.775196,-0.10923 5.887332,-0.11601 1.825059,-0.003 3.724761,-0.0324 4.22152,-0.0656 1.057441,-0.0705 1.663484,0.35491 1.72417,1.2102 0.03034,0.45119 -0.10721,0.6362 -0.683721,0.90985 -0.669763,0.31784 -1.644823,0.45505 -1.85444,0.2609 z m 2.693921,-5.51769 c -0.941986,-0.0776 -3.880267,-0.19247 -6.529584,-0.25518 -2.649266,-0.0627 -5.732079,-0.20729 -6.850709,-0.32117 -1.118582,-0.11394 -5.301315,-0.18899 -9.294912,-0.16684 -7.001211,0.0389 -7.275355,0.0253 -7.658128,-0.3858 -0.388892,-0.417416 -0.382317,-0.440831 0.320115,-1.143308 0.758515,-0.758546 0.795635,-0.76369 4.644143,-0.644154 0.176493,0.0055 1.429036,-0.002 2.783128,-0.01619 1.35409,-0.01466 3.039978,0.0182 3.746456,0.07277 1.670261,0.128755 1.699492,0.129867 2.515506,0.09846 0.382823,-0.01466 2.189019,0.07752 4.014079,0.205064 1.825058,0.127541 4.040829,0.195812 4.923901,0.151714 0.883122,-0.04399 1.703233,-0.0022 1.822531,0.09306 0.119348,0.09527 1.13082,0.222159 2.247884,0.282035 3.734572,0.200109 5.088713,0.421105 5.441447,0.887849 0.412154,0.54556 0.410636,0.58991 -0.04046,0.96778 -0.295335,0.24861 -0.736365,0.28537 -2.08732,0.17407 z M 59.463022,98.664851 c 0.07283,-0.11773 0.03034,-0.214067 -0.09457,-0.214067 -0.124911,0 -0.226559,0.09633 -0.226559,0.214067 0,0.117729 0.04046,0.214067 0.09457,0.214067 0.05208,0 0.153736,-0.09634 0.226559,-0.214067 z m 69.549868,-1.490946 c -1.19256,-0.09032 -2.25648,-0.21872 -2.3642,-0.285322 -0.10771,-0.06661 -2.74469,-0.183067 -5.85986,-0.258823 -3.11518,-0.07575 -6.67549,-0.237178 -7.91185,-0.3587 -2.05547,-0.202082 -2.45351,-0.222463 -3.26477,-0.167239 -0.14715,0.01009 -0.74931,-0.04299 -1.33801,-0.11773 -1.99967,-0.253917 -7.26098,-0.491955 -13.273223,-0.600465 C 87.86722,95.256872 80.088886,95.030668 78.302412,94.900042 75.789435,94.716318 66.695796,94.64916 63.85173,94.793338 c -2.380734,0.120713 -2.993858,0.0893 -3.478834,-0.178011 -0.648928,-0.357689 -0.724127,-0.622267 -0.321127,-1.129398 0.25943,-0.326537 1.690945,-0.548737 4.656331,-0.722807 0.647613,-0.03793 2.12439,-0.182511 3.28176,-0.321127 1.157369,-0.138614 2.843257,-0.192169 3.746455,-0.118993 1.797701,0.145644 3.839052,0.25589 8.653417,0.467378 2.493458,0.109536 3.157759,0.201576 3.157759,0.437591 0,0.375036 0.40558,0.392886 0.547078,0.02427 0.111256,-0.290126 4.591145,-0.31339 11.227536,-0.05826 1.707327,0.06563 4.501124,0.166934 6.208465,0.22504 1.70732,0.05816 4.45292,0.199908 6.10138,0.315058 1.64842,0.11515 4.39407,0.267116 6.1014,0.337713 1.70729,0.0706 3.97124,0.165318 5.03097,0.210477 1.0597,0.04501 3.66083,0.138514 5.78027,0.207443 6.77085,0.220136 8.62979,0.400523 8.98657,0.872183 0.41317,0.546027 0.40204,0.806665 -0.0571,1.373875 -0.46677,0.576211 -1.41316,0.669213 -4.46127,0.4383 z M 72.325569,89.512752 c -0.08849,-0.0883 -3.046097,-0.160563 -6.572469,-0.160563 -5.466023,0 -6.44164,-0.04754 -6.61515,-0.321125 -0.455138,-0.718221 -0.08395,-1.047257 1.909109,-1.691518 0.905121,-0.292553 3.522628,-0.30646 4.507855,-0.02376 0.45615,0.130828 0.784204,0.134874 0.860972,0.01062 0.159804,-0.258772 4.957229,0.09178 5.542487,0.404973 0.235661,0.126175 0.766758,0.229391 1.180025,0.229391 0.499137,0 0.953265,0.179983 1.352118,0.535689 0.585867,0.52249 0.590418,0.543594 0.185091,0.856335 -0.429854,0.331645 -2.066435,0.443104 -2.350038,0.160108 z m 61.531671,-3.495457 c -1.00085,-0.0893 -6.54025,-0.161726 -12.30986,-0.160967 -10.84107,0.0015 -13.9791,-0.0662 -14.37381,-0.310153 -0.12642,-0.07818 -0.53923,-0.05346 -0.91715,0.05496 -0.42884,0.12304 -0.89252,0.119044 -1.23377,-0.01062 -0.37576,-0.142812 -0.7702,-0.126933 -1.26191,0.05088 -0.71881,0.259935 -1.58348,0.197328 -6.190755,-0.448161 -2.561166,-0.358853 -10.377382,-0.693997 -18.197135,-0.780296 -4.121138,-0.04551 -7.637445,-0.105643 -7.814089,-0.133659 -0.176493,-0.02781 -1.942839,0.03035 -3.924922,0.12936 -6.102562,0.305348 -9.870005,0.25498 -10.472711,-0.13993 -1.141036,-0.747638 0.07383,-2.558653 1.47981,-2.205799 0.462219,0.116011 6.346568,0.145645 12.917823,0.06503 1.236361,-0.01518 4.126497,0.03893 6.422525,0.120511 2.296078,0.08146 5.83757,0.190804 7.870072,0.242993 2.03245,0.05218 3.811136,0.16648 3.952634,0.253918 0.141598,0.08744 2.187552,0.176796 4.546845,0.198542 4.488032,0.04146 6.825423,0.189136 7.964383,0.503535 0.37373,0.103213 2.43728,0.113938 4.60277,0.02376 2.47798,-0.103014 4.47771,-0.08146 5.42379,0.05846 0.82421,0.121927 1.69125,0.220591 1.92677,0.219327 0.23565,-0.0012 2.74028,-0.06473 5.56619,-0.140992 6.6235,-0.17882 11.39978,-0.201627 11.63606,-0.05558 0.10265,0.06352 1.18751,0.03338 2.41057,-0.06685 1.93358,-0.15854 2.2936,-0.134974 2.75896,0.180538 0.29432,0.199605 0.70379,0.425606 0.90986,0.502272 0.44453,0.165417 0.53343,1.615917 0.10722,1.747326 -0.68529,0.211186 -2.13693,0.250024 -3.80001,0.1016 z m 3.93909,-4.671623 c -1.36366,-0.746803 -4.05018,-1.04587 -8.86304,-0.986636 -1.82505,0.02224 -3.94449,-0.04703 -4.70983,-0.153887 -0.76535,-0.107111 -4.47438,-0.191918 -8.24222,-0.188429 -3.76791,0.0034 -7.91043,-0.08253 -9.20566,-0.191056 -2.01549,-0.168908 -3.2114,-0.211439 -5.56614,-0.197885 -0.51917,0.003 -5.156529,-0.12132 -12.630988,-0.338625 -3.06137,-0.089 -5.710686,-0.15768 -5.887281,-0.152573 -3.527938,0.101299 -8.195699,0.01972 -9.526778,-0.166429 -2.363844,-0.330684 -7.958724,-0.481386 -8.433637,-0.227216 -0.401028,0.214522 -7.00652,0.378525 -7.206124,0.17892 -0.06271,-0.06256 -0.164861,-0.438754 -0.227063,-0.836035 -0.20279,-1.294028 0.105187,-1.449215 3.235688,-1.63106 3.874957,-0.225091 11.368527,-0.129411 13.34085,0.170376 0.904766,0.137503 3.28282,0.232879 5.284473,0.211892 2.001704,-0.02074 4.89184,-0.05088 6.422526,-0.0665 2.83471,-0.02882 10.273003,0.240314 10.75621,0.389296 0.146155,0.04501 3.951674,0.132193 8.456304,0.193434 4.50464,0.06129 8.72009,0.159401 9.36771,0.218064 0.64762,0.05865 1.75553,0.08547 2.46201,0.05958 2.92897,-0.107311 8.95329,0.09527 17.876,0.601224 2.04146,0.115757 3.36031,0.399866 4.635,0.998475 0.25336,0.118893 0.63442,0.602246 0.84716,1.074095 0.38586,0.855433 0.38535,0.85906 -0.10924,1.259755 -0.63482,0.514029 -0.7624,0.500552 -2.07593,-0.218771 z m -0.12795,-4.845143 c -0.15121,-0.151309 -4.91555,-0.704232 -7.33978,-0.851829 -1.06184,-0.06463 -3.13485,-0.223524 -4.60668,-0.353037 -1.4718,-0.129512 -4.36194,-0.267672 -6.42251,-0.307016 -2.06057,-0.03945 -4.03548,-0.07823 -4.38871,-0.08637 -0.3535,-0.0081 -3.45442,-0.01214 -6.89148,-0.0081 -3.43705,0.0036 -6.48093,-0.08152 -6.76412,-0.189186 -0.42834,-0.162838 -3.218091,-0.283248 -6.789413,-0.292958 -0.991197,-0.0027 -8.523049,-0.336954 -13.487307,-0.598559 -2.178298,-0.114796 -4.972096,-0.249163 -6.208458,-0.298572 -1.23631,-0.04956 -3.54842,-0.167036 -5.138021,-0.261402 -1.58955,-0.09436 -3.130955,-0.151763 -3.425329,-0.12759 -0.294323,0.02427 -1.953105,-0.01062 -3.686125,-0.07742 -2.917748,-0.112419 -3.161046,-0.153382 -3.288181,-0.553914 -0.101652,-0.320621 -0.181551,-0.360978 -0.307978,-0.156012 -0.139576,0.2259 -0.293818,0.225698 -0.841097,-0.001 -0.852224,-0.353037 -1.178004,-0.924009 -0.862996,-1.512616 0.207341,-0.386919 0.374731,-0.42313 1.452603,-0.313996 3.295413,0.333668 5.51887,0.480324 5.692077,0.37544 0.3631,-0.219732 7.733681,-0.03438 11.368679,0.285777 2.001653,0.176341 5.228997,0.325172 7.171786,0.330684 1.942839,0.0055 4.640299,0.105845 5.994391,0.222917 1.354039,0.117072 3.262794,0.19839 4.241598,0.180792 0.978852,-0.0177 1.90152,0.06907 2.050503,0.192726 0.181048,0.150044 0.506971,0.157022 0.98169,0.02074 0.474356,-0.135986 2.785447,-0.08804 6.941078,0.144026 3.63195,0.202841 9.21136,0.339889 13.37882,0.328662 3.93179,-0.01062 8.26701,0.07171 9.63378,0.182916 1.36679,0.111205 3.97833,0.295183 5.80339,0.408866 4.91121,0.305955 6.36128,0.645005 7.22534,1.689569 0.6023,0.728087 0.10265,1.740258 -0.8589,1.740258 -0.2832,0 -0.56594,-0.05113 -0.62844,-0.113634 z M 69.632003,72.760663 c 0,-0.11773 -0.09608,-0.214068 -0.213915,-0.214068 -0.117831,0 -0.213917,0.09633 -0.213917,0.214068 0,0.117729 0.09659,0.214066 0.213917,0.214066 0.11783,0 0.213915,-0.09634 0.213915,-0.214066 z m 50.416817,-2.055097 c -0.31405,-0.241275 -0.7131,-0.295638 -1.49858,-0.204105 -0.58874,0.06857 -2.22649,0.02074 -3.63945,-0.10625 -1.41294,-0.127034 -5.18737,-0.303628 -8.38756,-0.392482 -3.53926,-0.09826 -5.92935,-0.25063 -6.10139,-0.388942 -0.15576,-0.125063 -1.180221,-0.233943 -2.277016,-0.241882 -1.096776,-0.0081 -2.975394,-0.166429 -4.174637,-0.352176 -1.766042,-0.273489 -7.217502,-0.729462 -12.670579,-1.059788 -0.470817,-0.02832 -0.952658,-0.07899 -1.070439,-0.112166 -0.11783,-0.03338 -0.379787,-0.0435 -0.582679,-0.02327 -0.20279,0.02023 -1.3106,-0.07303 -2.461951,-0.207594 -1.151352,-0.13457 -2.575079,-0.289671 -3.163776,-0.344692 -0.588749,-0.05501 -2.178299,-0.244309 -3.532389,-0.4206 -1.354091,-0.176291 -3.188507,-0.397996 -4.076533,-0.492664 -0.887978,-0.09467 -1.83128,-0.288103 -2.096273,-0.429955 -0.264993,-0.141801 -0.963986,-0.268836 -1.55329,-0.282237 -0.589355,-0.01366 -1.120858,-0.104227 -1.181138,-0.201728 -0.06018,-0.09756 -0.575296,-0.177352 -1.144474,-0.177352 -0.995187,0 -1.047428,-0.03085 -1.361019,-0.802817 -0.483965,-1.190999 -0.159299,-1.424364 1.905822,-1.371047 0.902996,0.02327 1.714206,0.08713 1.802706,0.141802 0.08849,0.05466 0.966969,0.160412 1.952245,0.234954 0.985276,0.07454 1.889841,0.213915 2.0102,0.309797 0.120359,0.09583 1.276413,0.281833 2.569011,0.413317 1.292596,0.131485 3.313567,0.421156 4.491013,0.643674 1.177497,0.222563 2.381695,0.398955 2.676069,0.392077 0.938497,-0.02224 3.923102,0.272477 5.030962,0.496456 0.588748,0.119045 2.563699,0.261251 4.38876,0.31602 3.057525,0.09178 4.612232,0.220185 8.991534,0.742428 0.883075,0.105339 2.424475,0.240819 3.42533,0.301101 1.00085,0.06028 2.156911,0.154897 2.569011,0.210223 1.01476,0.136188 9.55575,0.392431 12.74218,0.382217 1.88104,-0.006 2.79825,-0.102308 3.41,-0.357892 0.75715,-0.316372 1.50075,-0.326891 7.80989,-0.110903 3.83517,0.131333 7.61373,0.232172 8.39677,0.22408 1.56861,-0.01619 1.89359,0.221351 2.19778,1.60639 0.12339,0.562649 0.0602,0.71727 -0.42633,1.035893 -0.45917,0.300949 -0.82935,0.34722 -1.88335,0.235458 -0.72151,-0.07647 -2.90137,-0.174976 -4.84421,-0.218922 -1.94279,-0.04399 -3.73771,-0.144076 -3.98865,-0.222511 -0.31454,-0.09841 -0.58131,-0.0086 -0.85929,0.289923 -0.81987,0.880018 -2.58889,1.164672 -3.39428,0.546173 z m -7.47587,-5.838364 c -0.18712,-0.303022 -1.20648,-0.436378 -5.98105,-0.782608 -2.48934,-0.180538 -5.02225,-0.426516 -5.62859,-0.546652 -1.672241,-0.331292 -5.371255,-0.53441 -10.993294,-0.603616 -1.707329,-0.02123 -3.730424,-0.126479 -4.495767,-0.234398 -0.765342,-0.107918 -2.643956,-0.303831 -4.174641,-0.435417 -1.530686,-0.131585 -3.265021,-0.330431 -3.854072,-0.441889 -0.589052,-0.11146 -1.696912,-0.210831 -2.462001,-0.220844 -0.76504,-0.01009 -1.479912,-0.07231 -1.58864,-0.138413 -0.232121,-0.141094 -0.763725,-0.206634 -2.799514,-0.344996 -0.824207,-0.05604 -2.028405,-0.158287 -2.676018,-0.227267 -0.647613,-0.06897 -2.911579,-0.218264 -5.031011,-0.331696 -5.306018,-0.284006 -7.81404,-0.864364 -7.81404,-1.808208 0,-0.42328 1.308122,-1.033061 2.221941,-1.035752 2.082517,-0.006 9.100365,0.447404 9.354636,0.604522 0.153231,0.09457 0.814093,0.191817 1.469089,0.216091 0.654996,0.02427 1.913458,0.147415 2.79653,0.27364 1.981121,0.283147 6.626983,0.714012 8.764825,0.812844 0.876144,0.04046 2.610225,0.225192 3.853516,0.410434 1.283341,0.19121 3.741196,0.342265 5.685856,0.349447 1.883974,0.0071 3.59363,0.100685 3.799303,0.208302 0.205825,0.107615 1.747078,0.234245 3.425377,0.281376 1.678256,0.04703 4.111065,0.194851 5.406305,0.328157 3.88077,0.39946 6.91558,0.644988 9.67752,0.782885 2.15705,0.107666 2.68917,0.201627 3.0507,0.53843 0.55714,0.519062 0.55562,1.12328 -0.005,1.910363 -0.33881,0.475923 -0.6121,0.621775 -1.16478,0.621775 -0.397,0 -0.77396,-0.0839 -0.83731,-0.186454 z M 76.80384,56.149878 c -0.353492,-0.155404 -1.237475,-0.28689 -1.964989,-0.292199 -0.875993,-0.0065 -1.430555,-0.117477 -1.641942,-0.328865 -0.202284,-0.202284 -0.347423,-0.234296 -0.396477,-0.08733 -0.09507,0.285878 -0.230605,0.28699 -4.988077,0.04046 -2.119434,-0.109891 -4.624218,-0.13371 -5.566205,-0.0529 -2.269832,0.19475 -5.879241,0.05007 -6.240976,-0.250124 -0.363605,-0.301859 -0.37726,-1.559773 -0.02023,-1.856327 0.359054,-0.298015 9.9404,-0.465254 11.612887,-0.202689 0.706477,0.110902 1.846298,0.19131 2.532953,0.178617 0.686703,-0.01265 1.361069,0.04703 1.498621,0.133103 0.137555,0.08587 0.587283,0.177251 0.999387,0.203043 0.649484,0.04046 1.305643,0.05381 3.80001,0.07596 1.235502,0.01113 1.718001,0.142408 2.345386,0.638889 0.850251,0.672839 1.123537,1.588402 0.563513,1.887889 -0.546067,0.291997 -1.76756,0.249872 -2.534269,-0.08744 z m -0.624451,-3.887772 c -0.08849,-0.0883 -1.429037,-0.184534 -2.979345,-0.213763 -1.550305,-0.02933 -3.637575,-0.09002 -4.638428,-0.134975 -1.000852,-0.04501 -3.650169,-0.146151 -5.887332,-0.22489 -4.584216,-0.161321 -5.673214,-0.369927 -5.673214,-1.086574 0,-0.715489 0.612011,-1.102045 2.162116,-1.365622 1.494222,-0.254068 4.539916,-0.16031 6.040056,0.18595 0.493068,0.113785 1.263973,0.209264 1.713298,0.212145 0.44907,0.0029 1.023406,0.115758 1.275857,0.250884 0.307471,0.16466 1.908299,0.236723 4.856339,0.218518 4.371059,-0.0268 4.400896,-0.02377 4.986104,0.493371 0.323655,0.286282 0.588698,0.61194 0.588698,0.723707 0,0.274651 -1.428834,1.101838 -1.903293,1.101838 -0.209364,0 -0.452611,-0.07227 -0.540856,-0.160564 z m 48.044071,-4.876219 c -2.8291,-0.579565 -7.57272,-0.922553 -17.60814,-1.273157 -1.7366,-0.06069 -3.56702,-0.204812 -4.06757,-0.320317 -0.50065,-0.115504 -1.39182,-0.221956 -1.98056,-0.236572 -0.588761,-0.01466 -1.311271,-0.09568 -1.605641,-0.180083 -0.29432,-0.08445 -0.824358,-0.09037 -1.177797,-0.01315 -0.353495,0.07717 -1.509493,0.0091 -2.569008,-0.150954 -1.289413,-0.194953 -4.793482,-0.319914 -10.596816,-0.377818 -5.571667,-0.05564 -9.09126,-0.177554 -9.847904,-0.341101 -1.010057,-0.218365 -5.499099,-0.41883 -9.098544,-0.406339 -0.588749,0.0022 -2.545647,-0.09552 -4.348707,-0.216899 -4.00801,-0.269746 -4.30997,-0.464445 -3.651181,-2.354235 l 0.242235,-0.695327 1.202682,0.154091 c 0.661469,0.08476 4.189155,0.193383 7.839274,0.241425 3.650169,0.04804 7.118332,0.131435 7.707029,0.185293 0.588748,0.0539 2.371025,0.199098 3.960574,0.322694 1.589601,0.123596 3.564502,0.278646 4.388709,0.344642 0.824257,0.06599 3.48202,0.134771 5.906195,0.152826 3.122106,0.02327 4.50037,0.109435 4.725664,0.295385 0.23819,0.196823 0.379282,0.201324 0.562603,0.0177 0.240722,-0.240568 2.58317,-0.1021 8.287233,0.489831 1.05972,0.109991 2.50478,0.240112 3.21125,0.289165 0.70648,0.04906 1.83568,0.175532 2.50934,0.281023 0.82122,0.128602 1.29917,0.117477 1.45038,-0.03388 0.15828,-0.158034 0.33629,-0.157681 0.59492,0.0012 0.20329,0.124758 1.52531,0.237228 2.93828,0.250023 3.41389,0.03085 6.09249,0.204155 9.20565,0.595656 1.41296,0.177656 2.82313,0.276169 3.13373,0.218821 0.57292,-0.105744 1.25498,0.388386 1.25498,0.909217 0,0.137907 0.0861,0.250731 0.19116,0.250731 0.48649,0 0.39697,0.703009 -0.16487,1.290913 -0.67725,0.708668 -0.65611,0.706144 -2.5951,0.308939 z m 29.25667,-14.311798 c 0.72524,-0.01416 1.39157,-0.09831 1.48073,-0.186609 0.0891,-0.0883 0.34893,-0.160561 0.57701,-0.160561 0.84559,0 2.53118,-1.085483 4.10359,-2.642647 0.8902,-0.881575 1.61899,-1.683258 1.61948,-1.781518 4.1e-4,-0.09826 0.38586,-0.686376 0.85633,-1.306933 0.47031,-0.620553 0.85541,-1.190999 0.85541,-1.26765 0,-0.07666 0.15575,-0.311669 0.34641,-0.522303 0.25234,-0.278747 0.30798,-0.589188 0.20431,-1.140797 -0.0784,-0.416807 -0.21897,-0.757858 -0.31254,-0.757858 -0.0936,0 -0.3009,-0.409424 -0.46069,-0.90986 -0.57951,-1.813402 -0.89248,-2.020592 -3.31019,-2.191178 -0.58869,-0.04146 -2.41911,-0.177909 -4.06757,-0.303021 -1.64847,-0.125113 -4.49041,-0.275714 -6.31548,-0.334681 -1.8251,-0.05891 -3.75186,-0.198996 -4.28169,-0.311213 -1.51754,-0.32143 -2.75617,-0.418577 -2.82607,-0.221654 -0.0354,0.09932 -2.9542,0.08425 -6.4866,-0.03337 -3.53238,-0.11778 -6.75972,-0.211892 -7.17183,-0.209163 -0.41215,0.0027 -1.6645,0.0031 -2.78308,0.001 -3.39059,-0.0065 -7.3061,0.01922 -8.77747,0.05835 -0.76534,0.02023 -1.68052,0.0012 -2.03377,-0.04248 -0.35348,-0.0435 -2.37633,0.04905 -4.49577,0.205873 -2.11942,0.156721 -3.94985,0.266713 -4.06763,0.244461 -0.11783,-0.02225 -1.75545,-0.08227 -3.63938,-0.133407 -1.88392,-0.05113 -4.485046,-0.154343 -5.780272,-0.22939 -1.295226,-0.07505 -4.618861,-0.113734 -7.385908,-0.08601 -2.767045,0.02781 -5.175493,0.04552 -5.352087,0.03945 -0.176493,-0.006 -2.296078,-0.07025 -4.709886,-0.14251 -2.413757,-0.07231 -4.629528,-0.20729 -4.923902,-0.299937 -0.294324,-0.09269 -1.161415,-0.104126 -1.926757,-0.02528 -0.765342,0.07863 -2.499426,0.122332 -3.853516,0.09705 -2.543573,-0.04754 -6.966113,0.224737 -7.599414,0.467731 -0.266005,0.102006 -0.323655,0.284361 -0.221502,0.696638 0.07636,0.307168 0.133507,0.79931 0.127945,1.093679 -0.0051,0.294375 -0.01517,1.564063 -0.02023,2.821547 -0.0051,1.933964 -0.106199,2.59112 -0.643821,4.263864 -0.349446,1.087632 -0.587737,2.025372 -0.529226,2.083857 0.05866,0.05851 2.403643,0.129866 5.211449,0.158591 2.807807,0.02883 6.34854,0.159198 7.868302,0.289924 1.519711,0.130726 3.052115,0.232019 3.405354,0.225041 0.353492,-0.0071 1.46115,0.03945 2.462002,0.103015 1.000852,0.06367 2.542258,0.122684 3.42533,0.131231 0.883122,0.0086 3.833084,0.145746 6.555527,0.304993 2.722443,0.15925 5.275372,0.220137 5.673214,0.13533 0.919936,-0.196116 2.800519,-0.157984 3.159785,0.06402 0.151199,0.09341 0.993312,0.102506 1.871442,0.02023 0.941121,-0.08819 1.702971,-0.06529 1.855651,0.05577 0.16536,0.131183 1.25491,0.13012 3.01555,-0.003 1.73559,-0.131232 2.92487,-0.133508 3.2112,-0.006 0.25032,0.111306 0.7179,0.130017 1.03959,0.04146 0.32162,-0.0884 1.27212,-0.07439 2.11219,0.03085 0.84004,0.105491 1.60499,0.143824 1.69991,0.08515 0.0951,-0.05865 1.31201,-0.0022 2.70468,0.12577 1.39269,0.127793 3.11018,0.266914 3.81666,0.309191 0.70647,0.04249 2.63323,0.187569 4.2817,0.322998 1.64841,0.135428 3.23801,0.221602 3.53238,0.191563 0.9122,-0.09316 5.12451,-0.02276 7.70703,0.12845 1.35405,0.0794 4.36465,0.149741 6.69011,0.156366 2.3255,0.0065 4.22819,0.08849 4.22819,0.181904 0,0.260694 1.55926,0.344996 4.38871,0.23733 1.41295,-0.05376 3.16241,-0.109486 3.88769,-0.123799 z"
       id="path1129" />
  </g>
</svg>
