<?xml version="1.0" encoding="UTF-8" standalone="no"?>
<!-- Created with Inkscape (http://www.inkscape.org/) -->

<svg
   width="175.54639mm"
   height="175.54639mm"
   viewBox="0 0 175.5464 175.54639"
   version="1.1"
   id="svg5"
   inkscape:version="1.1 (c68e22c387, 2021-05-23)"
   sodipodi:docname="onas.svg"
   xmlns:inkscape="http://www.inkscape.org/namespaces/inkscape"
   xmlns:sodipodi="http://sodipodi.sourceforge.net/DTD/sodipodi-0.dtd"
   xmlns="http://www.w3.org/2000/svg"
   xmlns:svg="http://www.w3.org/2000/svg">
  <sodipodi:namedview
     id="namedview7"
     pagecolor="#ffffff"
     bordercolor="#666666"
     borderopacity="1.0"
     inkscape:pageshadow="2"
     inkscape:pageopacity="0.0"
     inkscape:pagecheckerboard="0"
     inkscape:document-units="mm"
     showgrid="false"
     inkscape:zoom="0.77771465"
     inkscape:cx="183.87207"
     inkscape:cy="494.39727"
     inkscape:window-width="1920"
     inkscape:window-height="1017"
     inkscape:window-x="295"
     inkscape:window-y="1432"
     inkscape:window-maximized="1"
     inkscape:current-layer="layer1" />
  <defs
     id="defs2" />
  <g
     inkscape:label="Vrstva 1"
     inkscape:groupmode="layer"
     id="layer1"
     transform="translate(-17.970665,-15.146566)">
    <path
       style="fill:#000000;stroke-width:0.207404"
       d="m 105.39342,188.09477 c -1.83254,-0.14159 -4.29028,-0.54422 -4.6666,-0.76469 -0.22831,-0.13375 -0.974819,-0.42036 -1.659253,-0.63744 -0.684435,-0.21705 -1.482877,-0.6113 -1.774288,-0.87645 -0.291509,-0.26505 -0.627113,-0.48209 -0.746019,-0.48209 -0.529029,0 -1.524081,-1.27402 -1.524081,-1.95139 0,-0.1759 0.29102,-0.46985 0.647298,-0.65416 0.544363,-0.28172 0.80001,-0.29641 1.607418,-0.0935 0.528049,0.13277 1.240508,0.41448 1.583313,0.62604 1.790992,1.10543 6.860622,2.06285 9.486842,1.79167 1.50218,-0.1553 2.94507,-0.62808 4.39567,-1.44093 0.95894,-0.53731 1.07839,-0.55701 1.86664,-0.30719 0.69193,0.219 0.85415,0.37137 0.90941,0.85356 0.10091,0.88271 -0.70565,1.89981 -1.92852,2.43143 -0.57331,0.24937 -1.29014,0.58209 -1.59291,0.7396 -0.30278,0.15776 -0.75224,0.28662 -0.99878,0.28662 -0.24643,0 -0.64578,0.10582 -0.88716,0.23467 -0.41694,0.22293 -3.15708,0.365 -4.71898,0.24448 z m -1.07114,-13.9223 c -0.34883,-0.36989 -0.6034,-0.93175 -0.69335,-1.53182 -0.15922,-1.06075 -0.35912,-20.57425 -0.27191,-26.50594 0.049,-3.20157 -0.24938,-10.17907 -0.46789,-11.0147 -0.1313,-0.5011 -0.267,-1.61105 -0.3018,-2.4666 -0.0868,-2.12493 -0.51094,-4.511 -0.85253,-4.79447 -0.1553,-0.12885 -0.2822,-0.44583 -0.2822,-0.70472 0,-0.53545 -1.11508,-2.00989 -1.814801,-2.39969 -0.256724,-0.14306 -0.466416,-0.38411 -0.466416,-0.53603 0,-0.15188 -0.144529,-0.27584 -0.321395,-0.27584 -0.176866,0 -0.603498,-0.14599 -0.948361,-0.32433 -0.344912,-0.17833 -1.795551,-0.44534 -3.2238,-0.59296 -2.546862,-0.26354 -2.880751,-0.24502 -5.565528,0.30915 -0.570378,0.11758 -1.503699,0.24153 -2.074077,0.27533 -1.667925,0.0985 -4.85885,0.5599 -6.45152,0.93333 -1.27353,0.29837 -1.568175,0.30718 -2.167851,0.0622 -0.776444,-0.31699 -1.215864,-0.79496 -1.225711,-1.33384 -0.0049,-0.37857 1.009896,-0.90536 2.127578,-1.10227 0.340502,-0.0601 0.769682,-0.18695 0.953603,-0.28215 0.183724,-0.0952 1.361031,-0.32521 2.615843,-0.51122 1.254765,-0.18597 2.8881,-0.44299 3.629563,-0.57114 0.741463,-0.12816 1.861447,-0.24447 2.488854,-0.25853 0.627407,-0.0142 1.234089,-0.0848 1.348145,-0.15721 0.819754,-0.52026 6.507372,-0.24748 7.160305,0.34339 0.186173,0.16868 0.538288,0.30674 0.781979,0.30674 0.812602,0 2.3796,0.6529 3.02979,1.26238 0.35324,0.33129 0.73593,0.60393 0.84999,0.60587 0.11414,0.002 0.41839,0.32903 0.67595,0.72689 0.25771,0.39782 0.56108,0.72333 0.67405,0.72333 0.11317,0 0.20528,0.1411 0.20528,0.31356 0,0.29151 0.3062,1.05497 1.24653,3.10881 0.2092,0.45612 0.43114,1.29627 0.49424,1.86665 0.33855,3.06902 0.54903,5.94951 0.51561,7.05171 -0.0196,0.68444 0.0147,1.61776 0.0789,2.07403 0.15139,1.07839 0.24154,7.04728 0.10975,7.28441 -0.0559,0.1 -0.0833,1.41369 -0.0612,2.91891 0.0245,1.50527 -0.0343,2.85351 -0.12052,2.99623 -0.0882,0.14257 -0.0622,0.44241 0.0574,0.66646 0.26603,0.49698 0.3797,5.39287 0.32532,14.02993 -0.002,0.39929 0.0588,1.14589 0.1357,1.6592 0.31798,2.11573 0.45809,4.89016 0.26702,5.28881 -0.61443,1.28181 -1.57224,1.49846 -2.46113,0.55672 z m 21.06256,-6.44794 c -0.35471,-0.21655 -0.85659,-0.69022 -1.11479,-1.05281 l -0.46935,-0.65931 0.79393,-0.81309 c 0.43653,-0.44731 0.91495,-0.81304 1.06291,-0.81304 0.14796,0 0.26896,-0.13424 0.26896,-0.29788 0,-0.16363 0.37333,-0.50767 0.82966,-0.7641 0.45612,-0.25672 0.82961,-0.5424 0.82961,-0.63548 0,-0.0931 0.18176,-0.16903 0.40468,-0.16903 0.22242,0 0.47915,-0.1171 0.57038,-0.25967 0.23859,-0.37381 2.34496,-1.94076 3.01763,-2.24506 0.31356,-0.14208 0.57038,-0.32678 0.57038,-0.41105 0,-0.19597 1.58096,-1.02465 1.95454,-1.02465 0.15531,0 0.33608,-0.14011 0.40174,-0.3111 0.0657,-0.17099 0.24203,-0.31111 0.39145,-0.31111 0.14944,0 0.57464,-0.3209 0.94459,-0.71309 1.00074,-1.06095 1.71314,-1.35991 2.58807,-1.08608 0.76223,0.2386 1.68051,1.34599 1.7371,2.09494 0.0196,0.23664 0.0926,0.61692 0.16609,0.84518 0.15384,0.4772 -0.97462,2.09961 -1.59807,2.29744 -0.20723,0.0657 -0.62093,0.34589 -0.91911,0.62207 -0.29837,0.27632 -0.75738,0.50243 -1.02057,0.50243 -0.55,0 -1.53501,0.40762 -1.53501,0.63499 0,0.18128 -1.38322,1.02426 -1.68105,1.02426 -0.27289,0 -2.55152,1.45529 -2.63985,1.68605 -0.0392,0.0994 -0.19156,0.18079 -0.34149,0.18079 -0.14991,0 -0.55543,0.32236 -0.90137,0.71642 -0.46985,0.53521 -0.94199,0.79751 -1.86625,1.03704 -1.56278,0.40517 -1.66361,0.40174 -2.44481,-0.0745 z m -50.367438,-0.49835 c -0.223409,-0.13621 -0.52413,-0.34051 -0.668415,-0.45467 -0.14453,-0.11414 -0.644554,-0.48747 -1.111655,-0.82959 -0.466905,-0.34247 -1.189065,-0.92554 -1.60438,-1.29627 -0.415462,-0.37087 -0.83793,-0.6741 -0.93915,-0.6741 -0.101415,0 -0.43163,-0.17588 -0.734555,-0.39047 -0.302778,-0.21459 -1.164225,-0.71525 -1.914262,-1.11239 -2.136739,-1.1313 -4.646023,-2.89265 -4.839546,-3.39705 -0.180295,-0.47032 0.123952,-1.06613 0.672823,-1.31844 0.304248,-0.13964 1.252755,-0.30229 2.108274,-0.36158 l 1.555534,-0.10778 0.829651,0.76336 c 0.794081,0.73074 1.240312,1.02974 2.385135,1.59831 0.28514,0.14158 1.094654,0.65915 1.798883,1.15001 1.253343,0.87365 4.779921,2.64868 6.360344,3.20137 1.09245,0.38214 1.258635,0.7782 0.850276,2.02679 -0.381656,1.16687 -0.513399,1.22997 -2.847533,1.36378 -0.939689,0.0539 -1.646268,-0.005 -1.901424,-0.16168 z m 46.881228,-5.50934 c -0.0612,-0.0994 -0.38264,-0.23467 -0.71422,-0.30131 -0.44045,-0.0882 -0.77673,-0.4037 -1.24878,-1.17064 -1.03695,-1.68522 -0.90457,-2.00608 1.41913,-3.44035 0.71614,-0.44192 1.44177,-1.01696 1.61261,-1.27765 0.17098,-0.26064 0.43506,-0.47377 0.58748,-0.47377 0.15236,0 0.35177,-0.11659 0.4429,-0.25917 0.0911,-0.14257 0.77252,-0.5765 1.51398,-0.96423 0.74146,-0.38753 1.49547,-0.83112 1.67557,-0.9852 0.1803,-0.15433 0.42233,-0.28024 0.53809,-0.28024 0.11612,0 0.48209,-0.23811 0.81329,-0.52908 0.33168,-0.29102 0.97594,-0.70325 1.43226,-0.91603 1.09177,-0.50914 3.19769,-1.78374 3.77165,-2.28278 0.25084,-0.21802 0.82465,-0.50679 1.27559,-0.64187 0.71613,-0.21459 0.88741,-0.19646 1.35382,0.14356 0.29348,0.21409 0.53688,0.58056 0.54045,0.81441 0.003,0.23369 0.10236,0.521 0.21949,0.63808 0.1455,0.14552 0.13718,0.56651 -0.0294,1.33164 -0.27093,1.2627 -1.03141,2.14007 -2.02818,2.33943 -0.33707,0.0677 -0.92361,0.39292 -1.30365,0.72372 -0.38018,0.3307 -1.31963,1.02955 -2.08784,1.55298 -1.64358,1.11984 -1.81006,1.24968 -2.91138,2.2703 -0.46151,0.42772 -0.92626,0.77777 -1.03258,0.77777 -0.10631,0 -0.57488,0.32678 -1.04135,0.72593 -0.46641,0.3993 -0.93557,0.72589 -1.04257,0.72589 -0.1068,0 -0.53353,0.28318 -0.94787,0.62945 -0.41448,0.34639 -0.86601,0.71953 -1.00377,0.82961 -0.31209,0.24937 -1.65597,0.26408 -1.80702,0.0196 z m -40.564146,-1.21469 c -0.28514,-0.052 -0.658517,-0.21753 -0.829602,-0.36842 -0.170986,-0.1509 -0.824456,-0.51894 -1.451863,-0.8182 -1.660869,-0.79221 -2.785214,-1.38885 -2.903631,-1.54073 -0.20969,-0.26897 -1.802606,-1.202 -3.214785,-1.88291 -0.798491,-0.38509 -1.91725,-1.01126 -2.486061,-1.39164 -0.56886,-0.38019 -1.120376,-0.6916 -1.225614,-0.6916 -0.105335,0 -0.689774,-0.37626 -1.299054,-0.83631 -0.786047,-0.5935 -1.107687,-0.97761 -1.107687,-1.32277 0,-0.64092 0.534173,-1.06051 1.25403,-0.98496 0.489932,0.0514 0.636422,-0.0583 0.943118,-0.70452 0.633433,-1.33486 1.804664,-1.54426 3.560139,-0.63652 0.358141,0.18519 0.838323,0.33707 1.066435,0.33707 0.228308,0 0.489442,0.12396 0.580667,0.27534 0.09113,0.15139 0.486502,0.45466 0.878202,0.67411 0.391946,0.21899 0.858459,0.52476 1.03704,0.67899 0.673509,0.58179 4.30846,2.9368 5.345891,3.46348 1.67836,0.85204 2.206456,1.42874 2.041644,2.22943 -0.07496,0.365 -0.127873,1.09103 -0.117584,1.61339 0.0098,0.52237 -0.07545,1.19906 -0.191563,1.5037 -0.216061,0.56818 -0.563471,0.64264 -1.880065,0.40322 z m 5.88075,-19.13625 c -0.244966,-0.0989 -0.790652,-0.52515 -1.213022,-0.94753 -0.671843,-0.67183 -0.749008,-0.8489 -0.616873,-1.41463 0.08329,-0.35569 0.209201,-1.06535 0.279751,-1.57698 0.123463,-0.89339 0.161677,-0.93597 0.958258,-1.07384 0.998725,-0.17294 2.372152,-0.005 2.799959,0.34099 0.170987,0.13866 0.474255,0.30964 0.674049,0.38069 0.21312,0.0754 0.363039,0.3405 0.363039,0.64151 0,0.2822 0.09309,0.57047 0.207242,0.64098 0.114153,0.0706 0.203811,0.56596 0.199402,1.10111 -0.0049,0.89658 -0.07251,1.01765 -0.832394,1.54329 -0.851355,0.58895 -1.92068,0.72716 -2.819558,0.36452 z m 31.537106,-1.39899 c -0.67621,-0.11612 -1.90109,-1.54398 -2.06242,-2.4041 -0.23516,-1.25442 0.0441,-2.17824 0.79605,-2.63706 0.97844,-0.59659 3.25535,-0.53663 3.25535,0.0857 0,0.1318 0.21654,0.40224 0.4816,0.60121 0.40616,0.30522 0.48601,0.56395 0.51208,1.6566 0.0294,1.13507 -0.0392,1.37553 -0.53329,1.94587 -0.56068,0.64705 -1.45707,0.92214 -2.44917,0.75169 z m -7.31968,-14.43941 c -0.13718,-0.16511 -0.32679,-0.57018 -0.42134,-0.89986 -0.2288,-0.79829 0.37529,-1.55372 1.69301,-2.11642 0.54186,-0.23139 0.98515,-0.50236 0.98515,-0.60217 0,-0.0998 0.25085,-0.29573 0.5571,-0.43531 0.30621,-0.13963 0.91142,-0.53444 1.34448,-0.87742 0.43309,-0.34295 0.88643,-0.56237 1.00749,-0.48753 0.12102,0.0748 0.33267,0.0465 0.47034,-0.0631 0.33805,-0.26907 1.54916,-0.42486 5.17544,-0.6657 2.82641,-0.18769 3.12556,-0.1729 3.94067,0.19514 1.38097,0.62356 4.69599,1.87836 4.96237,1.87836 0.13228,0 0.39292,0.1608 0.57963,0.35731 0.31406,0.33095 0.31209,0.41325 -0.0294,1.11577 -0.40224,0.83288 -0.70762,1.01581 -1.69414,1.01567 -0.59812,-1.1e-4 -2.30738,-0.54574 -3.20156,-1.02198 -0.19744,-0.10524 -1.05737,-0.34972 -1.91074,-0.54328 -2.09936,-0.47622 -5.22581,-0.18902 -7.19082,0.66055 -0.35961,0.15531 -0.752,0.28269 -0.87232,0.28269 -0.34296,0 -2.36099,1.23982 -2.90976,1.78747 -0.28367,0.28318 -0.74092,0.494 -1.07187,0.494 -0.31747,0 -0.70966,0.0509 -0.87184,0.11316 -0.16217,0.0622 -0.40713,-0.0245 -0.54416,-0.18714 z M 65.941855,109.35691 c -0.940669,-0.87177 -1.257851,-1.52818 -1.112636,-2.30244 0.131303,-0.69999 -0.190583,-2.5003 -0.524324,-2.93139 -0.09358,-0.12082 -0.21557,-1.98745 -0.271423,-4.148096 -0.158247,-6.134733 -0.691,-13.90952 -0.985351,-14.380825 -0.21459,-0.343638 -0.196952,-0.480525 0.104356,-0.813629 0.666062,-0.735982 3.04135,-0.296605 3.04135,0.562559 0,0.466268 0.833717,0.575444 3.323452,0.435108 1.75817,-0.09912 2.810348,-0.256529 3.256283,-0.48709 0.387537,-0.20048 1.15379,-0.34114 1.861693,-0.341826 0.661603,-6.22e-4 2.392435,-0.230169 3.846357,-0.510053 2.843122,-0.547366 4.209249,-0.690329 4.435401,-0.464162 0.07839,0.07815 0.280241,0.02792 0.448777,-0.112145 0.188625,-0.156582 1.072413,-0.265591 2.300524,-0.283719 1.096811,-0.01617 2.507471,-0.129832 3.134878,-0.252462 0.627407,-0.122679 2.120719,-0.279899 3.318456,-0.349468 1.197785,-0.06952 2.353387,-0.177552 2.568026,-0.240018 0.214591,-0.06247 1.754643,-0.132968 3.422174,-0.156631 1.667581,-0.02352 4.338542,-0.162118 5.935572,-0.307629 3.61241,-0.329184 3.27098,-0.325804 6.11842,-0.06031 1.31184,0.122286 5.79178,0.233061 9.95541,0.246142 4.16368,0.01323 8.80691,0.06481 10.3184,0.115035 2.64554,0.08784 2.74814,0.07564 2.74814,-0.32605 0,-0.229581 -0.2097,-0.515839 -0.46642,-0.636348 -0.825,-0.387193 -3.49101,-3.903585 -4.54471,-5.994203 -0.14355,-0.285188 -0.45809,-0.762363 -0.69869,-1.060403 -0.24056,-0.298026 -0.60668,-1.091362 -0.81363,-1.762936 -0.20675,-0.671579 -0.5037,-1.368395 -0.65955,-1.548489 -0.15579,-0.180098 -0.28318,-0.46475 -0.28318,-0.632581 0,-0.16785 -0.0745,-0.393806 -0.16559,-0.502179 -0.0911,-0.108373 -0.33267,-0.710362 -0.53737,-1.33776 -0.33315,-1.022815 -0.703,-1.940594 -1.18005,-2.929983 -0.0897,-0.185586 -0.22928,-0.692631 -0.31061,-1.126774 -0.0814,-0.434129 -0.41791,-1.384587 -0.74788,-2.112101 -0.32973,-0.727515 -0.69071,-1.802278 -0.80182,-2.388364 -0.11121,-0.586081 -0.2822,-1.117103 -0.38019,-1.18005 -0.18373,-0.118367 -0.67655,-3.523624 -0.75724,-5.234578 -0.0245,-0.534628 -0.12052,-1.794611 -0.21164,-2.799961 -0.0911,-1.005349 -0.15139,-1.891754 -0.13376,-1.969786 0.1034,-0.455538 0.29298,-5.000533 0.29739,-7.117283 0.003,-1.36887 0.076,-2.582186 0.16266,-2.696257 0.13717,-0.180981 0.39978,-2.548278 0.41399,-3.733281 0.005,-0.405418 1.12434,-4.262397 1.77595,-6.11843 0.18029,-0.513326 0.48455,-1.499059 0.6768,-2.190519 0.19205,-0.691461 0.51134,-1.504831 0.70966,-1.807491 0.19842,-0.30268 0.36059,-0.693577 0.36059,-0.868699 0,-0.17515 0.0931,-0.318406 0.20724,-0.318406 0.11416,0 0.21214,-0.163343 0.21753,-0.362942 0.009,-0.373034 0.30571,-0.984086 1.26863,-2.625001 0.30376,-0.517906 0.61448,-1.223002 0.68997,-1.566875 0.0755,-0.343884 0.36353,-0.803126 0.63991,-1.020557 0.27632,-0.217432 0.50261,-0.524772 0.50261,-0.682976 0,-0.788182 3.06241,-0.920502 3.26623,-0.141148 0.0554,0.211601 0.17882,0.384742 0.27387,0.384742 0.30621,0 1.67322,1.532631 1.94185,2.176704 0.14306,0.342805 0.38116,1.136583 0.52893,1.763981 0.14796,0.627396 0.44289,1.388461 0.65494,1.691254 0.21214,0.302778 0.38607,0.654049 0.38607,0.780579 0,0.126549 0.0843,0.392093 0.18764,0.590196 0.10339,0.19808 0.48748,1.34013 0.85463,2.537891 0.36696,1.197761 0.7959,2.484243 0.95322,2.858851 0.15726,0.374601 0.28612,0.897334 0.28612,1.161623 0,0.528043 0.38263,1.791475 0.62451,2.061589 0.19499,0.217873 1.48146,-2.457023 1.73652,-3.610645 0.0652,-0.294793 0.40076,-0.890927 0.74533,-1.324796 0.34491,-0.433884 0.62691,-0.90343 0.62691,-1.043472 0,-0.140022 0.18667,-0.49192 0.41498,-0.78196 0.22831,-0.290039 0.41497,-0.664524 0.41497,-0.832188 0,-0.167656 0.13767,-0.419186 0.30621,-0.558939 0.29592,-0.245652 1.56049,-2.737563 1.56049,-3.075199 0,-0.09147 0.32678,-0.522954 0.72592,-0.958836 0.3993,-0.435892 0.72594,-0.841973 0.72594,-0.90242 0,-0.06046 0.2332,-0.415805 0.51849,-0.789712 0.28514,-0.373866 0.51849,-0.779364 0.51849,-0.901043 0,-0.1217 0.0818,-0.221254 0.18177,-0.221254 0.1,0 0.49659,-0.463132 0.88149,-1.029223 l 0.69982,-1.029225 1.30145,0.01518 1.30145,0.01519 0.40126,0.880467 c 0.49488,1.08633 0.52163,1.662276 0.21704,4.673925 -0.13278,1.311832 -0.24056,2.525148 -0.23957,2.696256 0.0343,5.459673 0.27338,12.859682 0.43113,13.445632 0.19352,0.719361 0.13277,3.71527 -0.1166,5.714574 -0.0583,0.469894 -0.14257,1.864191 -0.18617,3.098462 -0.0441,1.234275 -0.18324,2.556728 -0.30915,2.938781 -0.12592,0.38205 -0.31209,1.938828 -0.41302,3.459487 -0.27729,4.168786 -0.63945,7.490133 -0.86321,7.914355 -0.13424,0.254372 -0.12297,0.471902 0.0343,0.66081 0.15875,0.190976 0.16805,0.40385 0.0294,0.661417 -0.1117,0.208907 -0.25672,0.984857 -0.32237,1.724345 -0.29836,3.368311 -1.24276,7.500499 -2.41615,10.574023 -0.23957,0.627396 -0.53883,1.420719 -0.66513,1.762936 -0.12641,0.342217 -0.47474,1.042207 -0.77463,1.555534 -0.29984,0.513326 -0.75837,1.353314 -1.01915,1.86664 -0.26065,0.513326 -0.60404,1.16665 -0.76283,1.45183 -0.15874,0.285189 -0.29004,0.717084 -0.29151,0.959776 -0.002,0.242712 -0.13277,0.548876 -0.29102,0.680398 -0.54975,0.456273 -0.545,1.316369 0.009,1.830846 0.38313,0.355201 0.47475,0.591029 0.36353,0.938684 -0.0814,0.255353 -0.1651,1.397624 -0.18568,2.538347 -0.0196,1.140723 -0.14649,3.058278 -0.27976,4.261226 -0.13325,1.202945 -0.20086,2.820945 -0.1504,3.595546 0.0505,0.774602 0.009,1.629072 -0.0946,1.898824 -0.12101,0.31768 -0.0857,0.987291 0.1,1.900681 0.499,2.45636 0.58014,3.99468 0.21803,4.13363 -0.17343,0.0665 -0.31502,0.30204 -0.31502,0.52344 0,0.92404 -2.288,2.01675 -2.99472,1.43023 -0.43653,-0.36241 -3.2652,-0.65474 -4.93831,-0.51041 -1.9512,0.16834 -7.56337,-0.28549 -8.14081,-0.65831 -0.40175,-0.25942 -1.47876,-0.21635 -5.28881,0.2116 -1.89859,0.21327 -4.71648,0.27853 -5.53809,0.12826 -0.91231,-0.16682 -5.25193,0.0497 -8.77282,0.43756 -1.19778,0.13199 -5.2577,0.25996 -9.022095,0.28436 -3.792611,0.0245 -7.399196,0.14463 -8.088775,0.26916 -0.684435,0.12362 -2.848317,0.26604 -4.808583,0.31646 -1.960315,0.0504 -3.682034,0.16456 -3.826074,0.25354 -0.14404,0.0891 -1.060114,0.17166 -2.035765,0.18372 -2.192297,0.0269 -9.187103,0.67681 -10.173728,0.94512 -0.399294,0.10857 -1.145901,0.47813 -1.659252,0.82123 -1.123462,0.75092 -1.246093,0.76013 -1.911371,0.1436 z m 4.611875,-3.97453 c 0.111705,0.069 0.203322,0.0382 0.203322,-0.068 0,-0.10646 0.396845,-0.20181 0.881485,-0.2119 0.485033,-0.0104 1.814806,-0.1191 2.955514,-0.24222 1.140709,-0.12311 2.715055,-0.25898 3.498505,-0.30184 0.783402,-0.0431 1.501985,-0.15561 1.596737,-0.25051 0.296409,-0.2967 0.482583,-1.93551 0.219979,-1.93551 -0.128852,0 -0.233697,-0.0886 -0.233697,-0.197 0,-0.10837 -0.280241,-0.61188 -0.622213,-1.11895 -0.342463,-0.50707 -0.622213,-0.98463 -0.622213,-1.061263 0,-0.07659 -0.233209,-0.445199 -0.518496,-0.819109 -0.28514,-0.373869 -0.520209,-0.764333 -0.522316,-0.867633 -0.0021,-0.103326 -0.282201,-0.598535 -0.622214,-1.10051 -0.340012,-0.501973 -0.61844,-1.03382 -0.61844,-1.181886 0,-0.148058 -0.240557,-0.528725 -0.534466,-0.845912 -0.29396,-0.317182 -0.822989,-1.021983 -1.175641,-1.566219 -0.667532,-1.030194 -1.123659,-1.246087 -1.323796,-0.626564 -0.06467,0.199647 -0.238597,0.642957 -0.386557,0.985175 -0.147959,0.342217 -0.383127,0.902209 -0.522512,1.244426 -0.13914,0.342218 -0.336583,0.762212 -0.437999,0.93332 -0.101414,0.171134 -0.239577,0.451081 -0.306207,0.622214 -0.06712,0.171133 -0.403704,0.964431 -0.748616,1.76294 -1.072902,2.484471 -1.615942,4.397441 -1.615942,5.692741 0,1.28096 0.207731,1.56656 0.885797,1.21769 0.201852,-0.10392 0.458576,-0.13248 0.570329,-0.0635 z m 21.240406,-1.75932 c 1.132871,-0.12009 2.36892,-0.16041 2.746755,-0.0895 1.352457,0.25374 2.139582,-0.27838 1.467444,-0.99204 -0.14257,-0.15139 -0.60291,-0.92805 -1.022978,-1.72589 -1.228945,-2.334114 -1.299005,-2.460189 -1.696242,-3.051244 -0.42673,-0.634707 -1.569497,-2.726132 -2.209102,-4.04257 -0.233208,-0.480084 -0.506737,-0.923928 -0.607663,-0.986321 -0.100926,-0.06237 -0.386556,-0.532923 -0.634853,-1.045612 -0.248396,-0.512694 -0.536231,-0.932174 -0.640146,-0.932174 -0.103866,0 -0.189113,-0.140022 -0.189113,-0.311107 0,-0.171132 -0.166577,-0.311106 -0.370389,-0.311106 -0.272402,0 -0.50365,0.384057 -0.87394,1.451829 -0.276812,0.798511 -0.561903,1.451835 -0.633335,1.451835 -0.07153,0 -0.246436,0.396649 -0.388516,0.881466 -0.264564,0.899965 -0.988731,2.518479 -1.358581,3.035481 -0.113174,0.158051 -0.212141,0.391357 -0.219979,0.518509 -0.03429,0.523036 -0.390966,1.489499 -0.649258,1.747591 -0.151879,0.151878 -0.276322,0.435348 -0.276322,0.629967 0,0.194596 -0.134731,0.546286 -0.299348,0.781506 -0.164618,0.23521 -0.35814,0.88596 -0.43016,1.44613 -0.104356,0.8125 -0.05389,1.11089 0.247905,1.47549 0.36255,0.43839 0.492431,0.45353 3.178188,0.37156 1.539954,-0.0471 3.726862,-0.18372 4.859732,-0.30381 z m 17.954774,-0.44044 c 2.78081,-0.25266 2.98712,-0.30141 2.7664,-0.65324 -0.0901,-0.1434 -0.13718,-0.42173 -0.10484,-0.61854 0.0666,-0.40444 -0.55064,-1.81992 -0.79349,-1.81992 -0.25624,0 -2.40998,-3.314483 -3.38162,-5.204533 -1.20963,-2.353089 -2.47458,-4.390989 -2.78898,-4.493272 -0.14208,-0.04606 -0.35814,0.180344 -0.48111,0.503292 -0.12248,0.322963 -0.4865,1.147214 -0.80819,1.83165 -0.32189,0.684434 -0.65421,1.477757 -0.73872,1.762936 -0.0843,0.28519 -0.31601,0.751839 -0.51404,1.037024 -0.19843,0.285189 -0.42526,0.75184 -0.50433,1.037019 -0.16168,0.582539 -0.49283,1.399666 -0.75631,1.866639 -0.88345,1.565527 -1.850426,3.888715 -1.850426,4.445575 0,0.45676 0.101903,0.51873 0.985156,0.59965 1.34912,0.12356 6.07932,-0.0318 8.97026,-0.29431 z m 30.19832,-0.50881 c 0.073,-0.29048 0.0808,-0.58009 0.0196,-0.64354 -0.0632,-0.0635 -0.0245,-0.35054 0.0832,-0.63795 0.1318,-0.34682 0.1171,-0.95003 -0.0441,-1.79346 -0.13374,-0.698989 -0.2528,-1.457547 -0.26504,-1.685693 -0.009,-0.228161 -0.10436,-0.542777 -0.20431,-0.699178 -0.1,-0.156385 -0.2043,-1.989093 -0.23125,-4.07265 -0.0245,-2.083553 -0.11856,-3.90048 -0.20332,-4.037617 -0.17882,-0.288913 -0.31894,-0.07183 -1.56846,2.430013 -0.46985,0.940135 -0.9396,1.762299 -1.04435,1.827024 -0.10484,0.06472 -0.19058,0.289893 -0.19058,0.500338 0,0.210427 -0.32679,0.960566 -0.72589,1.66692 -0.39928,0.706349 -0.72592,1.328201 -0.72592,1.381891 0,0.0537 -0.23322,0.403509 -0.51849,0.777419 -0.28515,0.373917 -0.51855,0.787661 -0.51855,0.919482 0,0.131842 -0.0848,0.239668 -0.18912,0.239668 -0.10382,0 -0.40076,0.443349 -0.65949,0.985172 -0.25869,0.541841 -0.6939,1.343991 -0.96679,1.782541 -0.27289,0.43854 -0.43653,0.85853 -0.36353,0.93331 0.18079,0.18515 4.37828,0.59066 6.47818,0.62586 1.66636,0.028 1.7103,0.0162 1.83969,-0.49955 z m -13.48278,-0.18186 c 2.18534,-0.0166 2.66322,-0.18138 2.97571,-1.02605 0.1896,-0.51316 -0.29641,-1.9466 -0.8881,-2.619402 -0.83892,-0.953482 -1.38117,-1.845903 -1.38117,-2.273055 0,-0.232767 -0.0917,-0.423203 -0.20333,-0.423203 -0.1117,0 -0.40419,-0.396649 -0.65008,-0.881471 -0.24595,-0.484787 -0.50434,-0.928136 -0.5746,-0.985169 -0.07,-0.05703 -0.36059,-0.565367 -0.64474,-1.129622 -0.28466,-0.564254 -0.79777,-1.376737 -1.14076,-1.805521 -0.34295,-0.428787 -0.87938,-1.157106 -1.19201,-1.61849 -0.31257,-0.461368 -0.64049,-0.838885 -0.72862,-0.838885 -0.0882,0 -0.48455,0.67666 -0.8811,1.503684 -0.39635,0.827025 -0.77179,1.550346 -0.83406,1.607383 -0.0623,0.05703 -0.43653,0.757028 -0.83195,1.555533 -0.39537,0.798506 -0.79207,1.506051 -0.88168,1.572314 -0.0897,0.06629 -0.33463,0.439616 -0.54427,0.829621 -0.20969,0.390035 -0.57806,1.035795 -0.81843,1.43505 -0.77277,1.283514 -1.48175,2.764793 -1.48175,3.095863 0,0.17705 0.16266,0.71534 0.36157,1.19614 0.43996,1.06404 0.59689,1.09248 5.13464,0.93151 1.71108,-0.0607 4.05315,-0.11749 5.20459,-0.12626 z M 107.31518,87.166218 c -0.12444,-0.587316 -0.22488,-0.709588 -0.46152,-0.562481 -0.26113,0.162069 -0.25378,0.242027 0.052,0.579927 0.19499,0.21557 0.35471,0.516825 0.35471,0.669443 0,0.152614 0.0491,0.229337 0.1068,0.170545 0.0588,-0.05884 0.0343,-0.444661 -0.052,-0.857414 z m -20.70075,-0.36353 c -0.06566,-0.106216 -0.323844,-0.190093 -0.57371,-0.186468 -0.439468,0.0063 -0.441428,0.01617 -0.06075,0.304444 0.405663,0.306893 0.846553,0.224878 0.634658,-0.117976 z m 4.560874,0.07163 c 0.194993,-0.507911 -0.515605,-1.028518 -0.773847,-0.567032 -0.113664,0.202636 -0.08819,0.43648 0.06761,0.624272 0.328745,0.39611 0.538583,0.37906 0.705992,-0.05723 z m 5.610797,-0.575836 c 0,-0.225025 -0.163146,-0.440596 -0.36304,-0.479006 -0.271911,-0.05238 -0.363039,0.06786 -0.363039,0.479006 0,0.411151 0.09113,0.531385 0.363039,0.479007 0.199894,-0.03821 0.36304,-0.25403 0.36304,-0.479007 z M 140.10406,74.194258 c -0.16903,-1.507564 -0.20431,-1.587559 -0.72794,-1.648145 -0.49513,-0.05732 -0.56411,0.01911 -0.68968,0.762241 -0.0769,0.454265 -0.0524,0.996233 0.0543,1.2044 0.10679,0.208171 0.41448,1.265136 0.68403,2.348826 l 0.49003,1.970339 0.18324,-1.526593 c 0.10392,-0.865097 0.10631,-2.213179 0.005,-3.111068 z m -6.87698,2.833242 c -0.13669,-0.136887 -0.24888,-0.491548 -0.24888,-0.788134 0,-0.296605 -0.0769,-0.627916 -0.17099,-0.736289 -0.0941,-0.108372 -0.34148,-0.757023 -0.55069,-1.441458 -0.20871,-0.684434 -0.50546,-1.538527 -0.65885,-1.897986 -0.15336,-0.359463 -0.27878,-0.797275 -0.27878,-0.972931 0,-0.175641 -0.0828,-0.370535 -0.18371,-0.433002 -0.10091,-0.06252 -0.24988,-0.463965 -0.32973,-0.892127 -0.0803,-0.42815 -0.20773,-0.872524 -0.2827,-0.987462 -0.2283,-0.348831 -0.68434,-2.653143 -0.66885,-3.379084 0.0148,-0.613194 -0.0774,-0.720607 -0.90466,-1.075248 -0.50556,-0.216697 -1.02239,-0.586797 -1.1485,-0.82244 -0.1259,-0.235657 -0.34246,-0.429131 -0.48111,-0.430013 -0.13865,-8.27e-4 -0.46788,-0.379942 -0.73215,-0.842389 -0.42722,-0.748047 -0.94038,-1.040859 -0.87443,-0.498961 0.0593,0.485327 0.25966,1.271402 0.42232,1.654054 0.097,0.228161 0.42379,1.184798 0.72681,2.125893 0.30278,0.9411 0.63627,1.711087 0.74097,1.711087 0.10485,0 0.19059,0.178923 0.19059,0.397628 0,0.373966 0.61104,2.018666 1.01058,2.720264 0.0995,0.174857 0.24545,0.611728 0.32434,0.970839 0.0789,0.35912 0.2773,0.764137 0.44094,0.900058 0.16363,0.135907 0.29787,0.361227 0.29787,0.500696 0,0.139484 0.17834,0.414924 0.39636,0.612082 0.21802,0.197197 0.45662,0.599059 0.53035,0.893048 0.074,0.294007 0.36206,0.713894 0.64083,0.933114 0.27877,0.219195 0.50673,0.494057 0.50673,0.610759 0,0.400715 0.85802,1.416942 1.19633,1.416942 0.26309,0 0.28317,-0.05532 0.0897,-0.248886 z m 10.50394,-0.191416 c 0.15139,-0.242174 0.58469,-1.338818 0.96326,-2.437 0.37872,-1.098182 0.84665,-2.416691 1.04028,-2.930017 0.86713,-2.299055 1.29273,-4.799945 0.87574,-5.146028 -0.21851,-0.181275 -0.52736,0.0049 -1.40791,0.849502 -0.6204,0.594968 -1.40669,1.491793 -1.7472,1.99295 -0.67992,1.000602 -0.71354,1.393606 -0.51144,5.984914 0.0946,2.148884 0.26701,2.518464 0.78727,1.685679 z m -7.22693,-0.688174 c 0,-0.05032 -0.0935,-0.149135 -0.20724,-0.219635 -0.11416,-0.0705 -0.20724,-0.0294 -0.20724,0.09147 0,0.120818 0.0931,0.219637 0.20724,0.219637 0.11415,0 0.20724,-0.04115 0.20724,-0.09147 z m -0.65901,-2.696535 c -0.0843,-0.576924 -0.30522,-1.748944 -0.49061,-2.604488 -0.1852,-0.855543 -0.36892,-1.835529 -0.40812,-2.177747 -0.19597,-1.715353 -0.53045,-3.639771 -0.71946,-4.136915 -0.31111,-0.818113 -0.25771,-1.892401 0.10876,-2.196688 0.23419,-0.194259 0.30376,-0.574112 0.25917,-1.40899 -0.072,-1.340983 -0.35176,-1.548273 -0.8195,-0.606761 -1.46162,2.942359 -1.47754,2.991597 -1.3045,4.02991 0.0917,0.550536 0.18765,1.327637 0.21312,1.726887 0.0245,0.399245 0.16267,1.052579 0.30474,1.451834 0.99701,2.797932 1.44114,4.259478 1.44114,4.742066 -5e-5,0.269658 0.17539,0.82964 0.38949,1.244427 0.2141,0.414776 0.5084,1.034148 0.65381,1.376365 l 0.26457,0.622213 0.13032,-0.506579 c 0.072,-0.278624 0.0612,-0.978614 -0.0245,-1.555534 z m 4.08118,-8.323153 v -4.336289 l -0.8296,-0.437263 c -0.61423,-0.323699 -0.81705,-0.551738 -0.78119,-0.878081 0.0294,-0.262702 -0.11759,-0.529764 -0.36304,-0.660982 -0.45516,-0.243594 -0.44143,-0.270393 -0.52937,1.038846 -0.0343,0.513327 -0.0789,1.119984 -0.0989,1.348131 -0.0603,0.684489 0.43115,4.923256 0.66113,5.703625 0.51966,1.762765 1.20268,2.803914 1.72539,2.630082 0.14011,-0.04655 0.21557,-1.589104 0.21557,-4.408064 z m 4.09588,0.06687 c 0.36109,-0.256675 0.85924,-0.66081 1.10656,-0.898109 0.24742,-0.237274 0.75494,-0.670387 1.12807,-0.962421 0.55294,-0.432758 0.72956,-0.775009 0.95478,-1.850003 0.15188,-0.725461 0.27828,-1.764562 0.28073,-2.309107 0.002,-0.544544 0.15482,-2.16277 0.33855,-3.596055 0.34833,-2.717363 0.27827,-3.150248 -0.46887,-2.893426 -0.21117,0.07256 -0.80384,0.731204 -1.31713,1.463677 -0.51335,0.732472 -0.99834,1.335711 -1.07781,1.340527 -0.21165,0.01274 -1.55538,2.088491 -1.92586,2.975248 -0.2484,0.594675 -0.29838,1.323879 -0.22587,3.305595 0.0872,2.387119 0.26653,3.890734 0.46397,3.890734 0.0489,0 0.38166,-0.209984 0.74308,-0.46666 z m -14.95409,-5.893718 c -0.009,-0.66544 -0.0196,-1.769879 -0.0245,-2.454313 -0.004,-0.684435 -0.11268,-2.310813 -0.24104,-3.614184 -0.21313,-2.15761 -0.28269,-2.410876 -0.77698,-2.829111 -1.13841,-0.963103 -1.6837,-1.529988 -1.6837,-1.750315 0,-0.12557 -0.40714,-0.853369 -0.90451,-1.61729 -0.49754,-0.763916 -0.97046,-1.598936 -1.05101,-1.855602 -0.15972,-0.508574 -0.27975,-0.555093 -0.7181,-0.277645 -0.219,0.138799 -0.28464,0.723385 -0.2719,2.43383 0.0343,4.734309 0.10533,5.429493 0.5887,5.768095 0.24349,0.170692 0.50144,0.543461 0.57292,0.828347 0.0715,0.284896 0.33904,0.844407 0.5941,1.243384 0.25525,0.398951 0.97737,1.575184 1.60476,2.613795 0.62741,1.038612 1.30406,2.064005 1.50371,2.278659 0.19989,0.214639 0.36303,0.506173 0.36303,0.647832 0,0.189604 0.0612,0.196463 0.23174,0.02597 0.12738,-0.127381 0.22341,-0.776027 0.21361,-1.441458 z m 3.49537,-1.634177 c 0,-0.148401 0.23321,-0.547098 0.5185,-0.886012 0.28513,-0.338936 0.51849,-0.805978 0.51849,-1.037906 0,-0.231935 0.27143,-0.63845 0.6037,-0.903381 0.57356,-0.457645 0.6127,-0.593278 0.7833,-2.716143 0.0989,-1.228945 0.11758,-2.302263 0.0441,-2.385149 -0.076,-0.0829 -0.0196,-0.833713 0.12689,-1.668508 0.42134,-2.417308 0.0147,-3.018278 -1.00054,-1.470947 -0.30523,0.466514 -0.55597,0.956524 -0.5567,1.088874 -0.003,0.589883 -0.84195,1.48881 -1.4822,1.588776 l -0.66415,0.103721 0.0343,2.799961 c 0.0343,2.875439 0.22341,5.783023 0.39488,6.076654 0.1313,0.224143 0.68218,-0.252364 0.68218,-0.589917 z m 7.74646,-2.738626 c 0.07,-0.884063 0.17833,-2.820699 0.24056,-4.303645 0.0622,-1.48294 0.14159,-3.256248 0.17588,-3.940683 0.0843,-1.678619 -0.0808,-2.23988 -0.70281,-2.386679 -0.28513,-0.06732 -0.5421,-0.299249 -0.58291,-0.526078 -0.10436,-0.57931 -0.40322,-0.844172 -0.66136,-0.586057 -0.31258,0.312773 -0.77234,4.698373 -0.68179,6.506177 0.11366,2.269687 1.40419,6.844348 1.93082,6.844348 0.0852,0 0.21165,-0.723321 0.28171,-1.607383 z m 4.54226,-3.224834 c 0.54181,-0.486748 0.98515,-0.998624 0.98515,-1.13747 0,-0.138847 0.0789,-0.252462 0.17491,-0.252462 0.0965,0 0.703,-0.511243 1.34815,-1.136103 1.03698,-1.004389 1.17294,-1.231326 1.17294,-1.957468 0,-0.451767 0.13619,-1.41049 0.30278,-2.130523 0.33118,-1.431312 0.56523,-4.766498 0.38655,-5.509088 -0.14061,-0.584434 -0.96404,-0.633188 -1.35177,-0.08006 -0.28563,0.40733 -2.13517,2.522458 -2.85498,3.264784 -0.23271,0.240164 -0.4233,0.53089 -0.4233,0.646092 0,0.115183 -0.17785,0.435745 -0.39538,0.712332 -0.45711,0.581289 -0.58825,1.420533 -0.74803,4.792278 -0.0637,1.34159 -0.16902,2.578236 -0.23418,2.74811 -0.15873,0.413797 0.0568,0.931851 0.38607,0.927819 0.146,-0.0019 0.70907,-0.401499 1.25093,-0.888281 z m -16.21934,-6.21207 c 0.005,-0.484788 0.0489,-1.581456 0.0911,-2.437 0.16314,-3.139199 0.18029,-3.054935 -0.80757,-4.014825 -0.94321,-0.916696 -1.87139,-2.490598 -2.40252,-4.07395 -0.23174,-0.690691 -0.42085,-0.933319 -0.7279,-0.933319 -0.3743,0 -0.4424,0.232276 -0.69682,2.38515 l -0.28221,2.385149 0.75691,1.555534 c 0.41643,0.855544 1.03503,1.928861 1.37499,2.385154 0.34001,0.456274 0.80672,1.183485 1.03738,1.615987 0.23076,0.432512 0.60213,0.969163 0.82553,1.192577 0.22342,0.223409 0.40616,0.499535 0.40616,0.61361 0,0.114056 0.0931,0.207389 0.20724,0.207389 0.11416,0 0.21214,-0.396649 0.21752,-0.881471 z m 3.3084,-0.06409 c 0,-0.164373 0.0877,-0.298859 0.19451,-0.298859 0.1068,0 0.49307,-0.606658 0.85806,-1.348131 0.36501,-0.741467 0.73289,-1.348125 0.81746,-1.348125 0.0848,0 0.26946,-0.303318 0.41105,-0.674069 0.14159,-0.37073 0.49498,-1.181989 0.78585,-1.802782 0.42722,-0.912077 0.52502,-1.424305 0.50909,-2.668723 -0.009,-0.847003 -0.11268,-1.785723 -0.22635,-2.086051 -0.11367,-0.300328 -0.26407,-0.892763 -0.33413,-1.316535 -0.07,-0.423791 -0.22145,-0.82847 -0.3361,-0.899329 -0.2964,-0.183283 -0.81249,0.300525 -0.81249,0.761894 0,0.214198 -0.0931,0.389397 -0.20725,0.389397 -0.11415,0 -0.20725,0.168341 -0.20725,0.374063 0,0.491544 -0.98098,2.476953 -1.58942,3.216726 -0.43702,0.531243 -0.47916,0.781745 -0.46985,2.79996 0.005,1.219083 -0.0392,2.589844 -0.0975,3.046132 -0.12298,0.950659 0.21263,2.457562 0.50747,2.275469 0.10877,-0.06721 0.19793,-0.256675 0.19793,-0.421096 z m 9.82294,-5.017315 c 0.11318,-0.399881 0.34492,-1.629998 0.86812,-4.61475 0.25378,-1.447582 0.29543,-2.24548 0.15628,-3.007363 l -0.18911,-1.037025 -0.43947,0.976401 c -0.24203,0.537023 -0.67337,1.657007 -0.95899,2.488853 -0.47916,1.394988 -0.5041,1.649375 -0.32385,3.27539 0.1073,0.969619 0.23811,1.879604 0.29005,2.022194 0.13717,0.376659 0.47767,0.317525 0.59731,-0.103721 z m 4.48165,-2.696261 c 0.31601,-0.313703 1.04321,-0.918945 1.61556,-1.34499 l 1.04061,-0.774631 -0.0578,-6.165812 c -0.0343,-3.70068 -0.13718,-6.192342 -0.25672,-6.232178 -0.29886,-0.09961 -0.59223,0.350645 -0.97973,1.502984 -0.38753,1.152378 -0.82867,2.207868 -1.27053,3.039365 -0.1607,0.302778 -0.29249,0.662002 -0.29249,0.798271 0,0.13625 -0.15041,0.565132 -0.33463,0.953025 -0.22585,0.475625 -0.28709,0.92478 -0.18813,1.379472 0.33757,1.554206 0.34638,3.431321 0.0196,4.391518 -0.45368,1.337039 -0.43212,3.023341 0.0392,3.023341 0.0495,0 0.34833,-0.256676 0.66454,-0.570365 z m -17.25657,-5.461147 c 0.14453,-1.416677 0.2528,-3.844221 0.24006,-5.394546 l -0.0245,-2.818779 0.58934,-0.239087 c 0.32433,-0.131498 0.86938,-0.216354 1.2116,-0.188575 0.54373,0.04409 0.63069,-0.02352 0.68953,-0.537518 0.0441,-0.365343 -0.0598,-0.681025 -0.26848,-0.833625 -0.1847,-0.135073 -0.35177,-0.456371 -0.37137,-0.713963 -0.0392,-0.553642 -0.79727,-1.33087 -1.09005,-1.121301 -0.24791,0.1776 -0.93014,1.447625 -0.93014,1.732031 0,0.112439 -0.2332,0.510347 -0.51849,0.884238 -0.28514,0.373867 -0.51854,0.776048 -0.51854,0.893675 0,0.335359 -1.04175,2.615428 -1.35501,2.965666 -0.3503,0.391651 -0.46788,2.047832 -0.15922,2.239714 0.12541,0.07784 0.2964,0.701508 0.38067,1.385943 0.0843,0.684435 0.35765,1.711087 0.6083,2.281451 0.25035,0.570358 0.52124,1.300313 0.60173,1.622115 0.30768,1.229851 0.64916,0.421979 0.9123,-2.15741 z m 3.56955,-2.158582 c 0.35128,-0.181764 0.7296,-0.274459 0.84033,-0.206016 0.22929,0.14164 0.28416,-1.614663 0.0578,-1.841178 -0.0789,-0.07898 -0.17001,-0.315174 -0.20185,-0.524805 -0.12004,-0.787262 -0.49577,-1.505541 -0.74475,-1.424193 -0.38018,0.124246 -0.7514,1.358331 -0.76478,2.543354 -0.005,0.571118 -0.0965,1.334079 -0.20038,1.695477 -0.20872,0.728416 -0.0196,1.154902 0.22145,0.501039 0.0843,-0.227279 0.44045,-0.561922 0.79187,-0.743667 z M 149.15575,21.2772 c 0,-0.114056 -0.0931,-0.207388 -0.20724,-0.207388 -0.11416,0 -0.20725,0.09333 -0.20725,0.207388 0,0.114056 0.0931,0.207388 0.20725,0.207388 0.11415,0 0.20724,-0.09333 0.20724,-0.207388 z"
       id="path2655" />
  </g>
</svg>
