<?xml version="1.0" encoding="UTF-8" standalone="no"?>
<!-- Created with Inkscape (http://www.inkscape.org/) -->

<svg
   width="175.54639mm"
   height="175.54639mm"
   viewBox="0 0 175.5464 175.54639"
   version="1.1"
   id="svg5"
   inkscape:version="1.1 (c68e22c387, 2021-05-23)"
   sodipodi:docname="search.svg"
   xmlns:inkscape="http://www.inkscape.org/namespaces/inkscape"
   xmlns:sodipodi="http://sodipodi.sourceforge.net/DTD/sodipodi-0.dtd"
   xmlns="http://www.w3.org/2000/svg"
   xmlns:svg="http://www.w3.org/2000/svg">
  <sodipodi:namedview
     id="namedview7"
     pagecolor="#ffffff"
     bordercolor="#666666"
     borderopacity="1.0"
     inkscape:pageshadow="2"
     inkscape:pageopacity="0.0"
     inkscape:pagecheckerboard="0"
     inkscape:document-units="mm"
     showgrid="false"
     inkscape:zoom="0.77771465"
     inkscape:cx="183.87207"
     inkscape:cy="494.39727"
     inkscape:window-width="2560"
     inkscape:window-height="1377"
     inkscape:window-x="-8"
     inkscape:window-y="-8"
     inkscape:window-maximized="1"
     inkscape:current-layer="layer1" />
  <defs
     id="defs2" />
  <g
     inkscape:label="Vrstva 1"
     inkscape:groupmode="layer"
     id="layer1"
     transform="translate(-17.970665,-15.146566)">
    <rect
       style="fill:none;stroke-width:2.3;stroke:none"
       id="rect1760"
       width="175.54639"
       height="175.54639"
       x="17.970665"
       y="15.146566" />
    <path
       style="fill:#000000;stroke-width:0.185367"
       d="m 178.79424,165.07185 c 0,-0.10204 -0.11604,-0.18523 -0.25834,-0.18523 -0.14188,0 -0.29908,-0.10684 -0.34943,-0.23777 -0.0503,-0.13048 -0.52392,-0.34854 -1.05283,-0.48398 -1.25998,-0.32271 -3.40902,-1.54666 -4.27134,-2.43221 -0.0508,-0.0525 -0.50977,-0.30039 -1.01949,-0.55098 -0.50978,-0.25091 -1.53773,-0.85433 -2.28435,-1.34143 -0.74667,-0.48709 -1.3931,-0.88561 -1.43663,-0.88561 -0.0438,0 -0.22506,-0.13048 -0.40328,-0.28943 -0.56424,-0.50372 -1.72063,-1.19338 -2.00091,-1.19338 -0.14844,0 -0.26973,-0.0796 -0.26973,-0.1769 0,-0.0972 -0.289,-0.2312 -0.64219,-0.29732 -0.35337,-0.0661 -0.73432,-0.23163 -0.84698,-0.36737 -0.11253,-0.13575 -0.47011,-0.30432 -0.7944,-0.37483 -0.32446,-0.0704 -0.63132,-0.18259 -0.68233,-0.24958 -0.0508,-0.067 -0.54266,-0.40679 -1.09267,-0.75468 -0.54997,-0.34812 -1.13769,-0.78073 -1.30597,-0.96135 -0.16814,-0.18085 -1.04761,-0.676 -1.95401,-1.10078 -0.90641,-0.42473 -2.20273,-1.16812 -2.88078,-1.65192 -0.67805,-0.48381 -1.40225,-0.93342 -1.60941,-0.99919 -0.20711,-0.0657 -0.52567,-0.28418 -0.70782,-0.48552 -0.18216,-0.20142 -0.46428,-0.36605 -0.62691,-0.3665 -0.16245,-1.7e-4 -0.86646,-0.37569 -1.56409,-0.83415 -0.69765,-0.45859 -1.37689,-0.83379 -1.50944,-0.83379 -0.13267,0 -0.28899,-0.1248 -0.34723,-0.27762 -0.0587,-0.15238 -0.63054,-0.51967 -1.27107,-0.81581 -0.64052,-0.296 -1.33143,-0.69534 -1.53535,-0.88717 -0.20405,-0.19179 -0.66268,-0.48723 -1.01951,-0.65638 -0.35687,-0.16901 -0.93609,-0.52093 -1.28722,-0.78173 -0.35117,-0.26098 -0.72731,-0.47423 -0.8359,-0.47423 -0.1086,0 -0.3017,-0.16682 -0.42911,-0.37087 -0.12743,-0.20405 -0.34198,-0.37088 -0.47668,-0.37088 -0.13486,0 -0.35686,-0.20843 -0.49318,-0.4634 -0.13617,-0.25484 -0.39058,-0.46341 -0.56472,-0.46341 -0.17428,0 -0.40897,-0.11122 -0.52213,-0.2474 -0.11297,-0.13618 -0.5381,-0.3573 -0.94471,-0.49151 -0.40679,-0.13443 -0.89107,-0.38533 -1.07656,-0.55815 -0.31789,-0.29645 -0.57041,-0.44647 -2.0358,-1.21121 -0.33148,-0.17296 -0.60248,-0.38445 -0.60248,-0.46971 0,-0.0854 -0.39627,-0.4265 -0.88047,-0.75787 -0.4843,-0.33148 -0.99075,-0.71076 -1.12544,-0.84309 -0.13486,-0.13224 -0.43525,-0.24039 -0.66731,-0.24039 -0.23208,0 -0.7521,-0.22945 -1.15507,-0.50973 -0.98762,-0.68711 -1.3476,-0.90885 -2.0571,-1.26725 -0.33146,-0.16727 -0.60243,-0.37833 -0.60243,-0.46853 0,-0.0902 -0.0977,-0.1642 -0.21717,-0.1642 -0.11954,0 -0.34899,-0.11342 -0.50974,-0.25135 -0.24302,-0.20886 -1.92235,-0.7393 -1.96084,-0.6195 -0.0175,0.06 -1.82953,2.24012 -2.06826,2.49107 -0.12041,0.12655 -0.27411,0.48223 -0.34198,0.79075 -0.0678,0.30871 -0.3306,0.70564 -0.58404,0.88241 -0.25352,0.17691 -0.65978,0.50916 -0.90302,0.73852 -0.24303,0.22945 -0.52944,0.41686 -0.63602,0.41686 -0.10641,0 -0.19397,0.071 -0.19397,0.15807 0,0.28418 -1.10814,1.32509 -1.41041,1.32509 -0.32796,0 -1.29294,0.9234 -1.80259,1.72458 -0.18172,0.28593 -0.47167,0.5723 -0.64416,0.63658 -0.17252,0.0644 -1.09963,0.7062 -2.06033,1.4266 -1.69742,1.27281 -2.98293,2.08274 -4.60206,2.89956 -0.4335,0.21849 -0.78783,0.46051 -0.78783,0.53758 0,0.17383 -2.49435,1.30197 -2.87881,1.30197 -0.15412,0 -0.59138,0.20274 -0.97151,0.45097 -0.38007,0.24783 -1.00395,0.50754 -1.3863,0.57672 -0.38227,0.0692 -0.69513,0.19968 -0.69513,0.29031 0,0.0907 -0.17209,0.16464 -0.38226,0.16464 -0.21019,0 -0.89852,0.23689 -1.52928,0.52651 -0.63076,0.28943 -1.47748,0.63509 -1.88155,0.76776 -0.40416,0.13268 -0.83542,0.34199 -0.958632,0.4652 -0.12305,0.12304 -0.874399,0.32884 -1.66936,0.45719 -0.794961,0.12829 -1.651531,0.31132 -1.903485,0.40722 -0.251778,0.096 -1.130372,0.21324 -1.952088,0.26141 -0.821715,0.0478 -2.165684,0.29206 -2.986611,0.54204 -1.862106,0.56753 -3.23274,0.66943 -9.165985,0.68138 -4.725806,0.009 -6.758376,-0.11472 -7.170196,-0.43874 -0.120416,-0.0945 -0.704335,-0.16289 -1.297576,-0.15195 -1.380527,0.0263 -2.321362,-0.16246 -2.581008,-0.51756 -0.112753,-0.15414 -0.334667,-0.23076 -0.493147,-0.16991 -0.338609,0.13006 -1.61912,-0.22769 -1.61912,-0.45219 0,-0.0849 -0.306863,-0.15413 -0.681969,-0.15413 -0.77453,0 -2.054108,-0.37306 -3.859522,-1.12573 -0.203919,-0.0849 -1.288301,-0.45373 -2.409769,-0.81944 -1.121471,-0.36563 -2.183882,-0.74499 -2.360915,-0.84282 -0.177032,-0.0977 -0.474108,-0.17778 -0.660173,-0.17778 -0.186054,0 -0.517367,-0.16683 -0.73623,-0.37088 -0.21885,-0.20405 -0.568256,-0.37087 -0.776422,-0.37087 -0.208165,0 -0.378499,-0.0753 -0.378499,-0.16771 0,-0.1931 -1.720374,-1.19488 -2.409768,-1.40348 -0.254887,-0.077 -0.728952,-0.33892 -1.053491,-0.58206 -0.324553,-0.24302 -0.679297,-0.44191 -0.788346,-0.44191 -0.10903,0 -1.053031,-0.56538 -2.097742,-1.25639 -1.044716,-0.69101 -2.212287,-1.40396 -2.594604,-1.58431 -0.382309,-0.18041 -0.695779,-0.38665 -0.696571,-0.45829 -7.45e-4,-0.0719 -0.188462,-0.22157 -0.417076,-0.33278 -1.363567,-0.66474 -2.732718,-1.69291 -2.732718,-2.05219 0,-0.0881 -0.187673,-0.24215 -0.417075,-0.34285 -0.229403,-0.10071 -0.499419,-0.37045 -0.600055,-0.60007 -0.100624,-0.22944 -0.313037,-0.41686 -0.472016,-0.41686 -0.334449,0 -2.588925,-2.07986 -2.588925,-2.38838 0,-0.11385 -0.16683,-0.20668 -0.370748,-0.20668 -0.203919,0 -0.370748,-0.0775 -0.370748,-0.17208 0,-0.0945 -0.116694,-0.28243 -0.25931,-0.4173 -1.605397,-1.51644 -2.706556,-2.64888 -2.706556,-2.78343 0,-0.0907 -0.08495,-0.26579 -0.18881,-0.38884 -0.741169,-0.8789 -0.923399,-1.13939 -0.923399,-1.32001 0,-0.11298 -0.208517,-0.43 -0.463416,-0.70498 -0.254887,-0.27499 -0.46342,-0.54879 -0.46342,-0.60865 0,-0.06 -0.20856,-0.33366 -0.463416,-0.60864 -0.254887,-0.27499 -0.463416,-0.60563 -0.463416,-0.73497 0,-0.12918 -0.202035,-0.46389 -0.44897,-0.74339 -0.246918,-0.27936 -0.758215,-0.96691 -1.136189,-1.52765 -0.377973,-0.56074 -0.875442,-1.22806 -1.105489,-1.48295 -0.230059,-0.25484 -0.545464,-0.71365 -0.700931,-1.01951 -0.155446,-0.30607 -0.540356,-0.80108 -0.855309,-1.10055 -0.314963,-0.29951 -0.572653,-0.68545 -0.572653,-0.8578 0,-0.17252 -0.125144,-0.41729 -0.278051,-0.5441 -0.152949,-0.12699 -0.27805,-0.3538 -0.27805,-0.50387 0,-0.15018 -0.161094,-0.4993 -0.357962,-0.77578 -0.196869,-0.27629 -0.503937,-0.86751 -0.682336,-1.3134 -0.17839,-0.44588 -0.474179,-0.96048 -0.657275,-1.1436 -0.377317,-0.37745 -0.924165,-1.58891 -0.856615,-1.89787 0.06074,-0.27762 -0.790066,-2.33628 -0.965614,-2.33628 -0.07706,0 -0.196168,-0.3503 -0.264608,-0.77819 -0.06844,-0.42781 -0.371055,-1.29494 -0.672475,-1.92652 -0.301433,-0.63155 -0.548035,-1.27216 -0.548035,-1.42349 0,-0.1515 -0.11389,-0.36957 -0.253135,-0.4853 -0.1392,-0.1156 -0.303885,-0.58049 -0.365932,-1.03321 -0.06204,-0.45271 -0.322494,-1.25779 -0.578778,-1.78901 -0.351263,-0.72815 -0.415324,-1.02691 -0.260141,-1.21388 0.11319,-0.13618 0.132545,-0.24784 0.04291,-0.24784 -0.421191,0 -1.292807,-2.90332 -1.446881,-4.81951 -0.06966,-0.866595 -0.188812,-2.113487 -0.264696,-2.770867 -0.07593,-0.657381 -0.07286,-1.658363 0.0066,-2.224403 0.07965,-0.566041 0.09436,-1.66099 0.03284,-2.433225 -0.0726,-0.910035 -0.03721,-1.543815 0.100583,-1.801329 0.116956,-0.2185 0.217755,-1.09819 0.224061,-1.954892 0.0062,-0.856701 0.15886,-2.218928 0.339002,-3.027157 0.231504,-1.038552 0.288384,-1.765817 0.193934,-2.480079 -0.07597,-0.574579 -0.05675,-1.158309 0.04453,-1.352944 0.09799,-0.188286 0.246743,-1.07345 0.330596,-1.967064 0.09077,-0.967659 0.299024,-1.916227 0.514918,-2.345475 0.340667,-0.677305 0.625614,-1.732057 0.695529,-2.574441 0.04939,-0.595377 0.778585,-2.573783 1.479132,-4.013251 0.356254,-0.732039 0.647747,-1.432113 0.647747,-1.555681 0,-0.12348 0.129087,-0.331909 0.286896,-0.462833 0.15781,-0.130925 0.550933,-0.787649 0.87363,-1.459305 0.322714,-0.671656 0.848531,-1.56584 1.168521,-1.987163 0.319998,-0.421235 0.678096,-1.148369 0.795784,-1.615757 0.117701,-0.467387 0.362736,-0.998573 0.544533,-1.180379 0.181805,-0.181718 0.545998,-0.667188 0.809328,-1.078572 0.263337,-0.411602 0.802255,-1.088557 1.197617,-1.5048 0.395357,-0.416419 0.921515,-0.997215 1.169235,-1.291029 0.247705,-0.293814 0.85248,-0.999493 1.343911,-1.56816 0.491431,-0.568625 0.89351,-1.099766 0.89351,-1.180248 0,-0.08057 0.354503,-0.515597 0.78781,-0.966827 0.433277,-0.451229 1.0172,-1.060663 1.297567,-1.354258 0.280372,-0.293376 0.509761,-0.590781 0.509761,-0.660446 0,-0.06962 0.208515,-0.29075 0.463416,-0.491121 0.254886,-0.200546 0.463416,-0.479428 0.463416,-0.619899 0,-0.140557 0.104257,-0.322275 0.231723,-0.40372 0.127421,-0.08144 0.605475,-0.607026 1.062305,-1.167768 0.456831,-0.560742 0.902832,-1.050023 0.991116,-1.087286 0.379593,-0.160262 3.738809,-3.001149 5.180586,-4.381242 0.532666,-0.509862 1.406365,-1.128841 1.941562,-1.375539 0.535197,-0.246523 1.111177,-0.601114 1.279956,-0.787605 0.168757,-0.186535 0.413091,-0.338915 0.542956,-0.338915 0.129829,0 0.3665,-0.130487 0.525931,-0.289873 0.15943,-0.159386 0.837633,-0.570376 1.507138,-0.913232 0.66951,-0.342855 1.316623,-0.696001 1.438032,-0.784758 0.121423,-0.08888 0.67953,-0.361685 1.240263,-0.606938 0.560737,-0.24521 1.144644,-0.547694 1.297571,-0.672488 0.152906,-0.124794 0.681377,-0.328406 1.174327,-0.452149 0.492955,-0.123918 0.93981,-0.338916 0.993012,-0.477327 0.05321,-0.138806 0.233781,-0.252216 0.401269,-0.252654 0.16753,-2.19e-4 0.80505,-0.264476 1.41676,-0.586883 1.174546,-0.619374 3.070491,-1.262567 3.728682,-1.264976 0.215653,-7.89e-4 0.591012,-0.151943 0.834151,-0.336288 0.449614,-0.340228 1.476355,-0.691929 2.481111,-0.849477 0.871401,-0.136616 2.632182,-0.612805 2.904536,-0.785459 0.220207,-0.139682 0.660844,-0.207991 1.683295,-0.260973 0.178434,-0.0088 0.324378,-0.0902 0.324378,-0.180405 0,-0.08976 0.626082,-0.163765 1.391289,-0.163765 0.765212,0 1.485393,-0.05824 1.600405,-0.129172 0.389665,-0.240831 2.841338,-0.632379 3.960808,-0.632598 0.612368,-1.32e-4 1.404833,-0.09195 1.761,-0.203612 0.355992,-0.112096 1.064604,-0.231198 1.574379,-0.264914 0.509773,-0.03503 1.907731,-0.141433 3.106589,-0.239079 2.490761,-0.203174 7.928069,-0.09415 8.191538,0.164202 0.09677,0.09502 0.349424,0.172523 0.56118,0.172523 0.211932,0 0.56372,0.125232 0.782044,0.278051 0.512094,0.358619 2.592744,0.892739 3.03123,0.778059 0.185659,-0.0486 0.489063,0.01752 0.674065,0.142747 0.184783,0.127422 0.655673,0.289873 1.045907,0.361247 0.390146,0.07137 1.237605,0.491601 1.882947,0.933461 1.44875,0.99183 2.70195,1.464953 4.67869,1.766342 0.83866,0.127859 1.62049,0.347673 1.73735,0.488624 0.11692,0.140996 0.37701,0.256157 0.5777,0.256157 0.20098,0 0.5772,0.16683 0.83642,0.370879 0.25922,0.20405 0.62691,0.37088 0.81708,0.37088 0.19003,0 0.34591,0.08319 0.34591,0.185221 0,0.102025 0.20319,0.185222 0.45093,0.185222 0.26667,0 0.49331,0.132675 0.55448,0.324464 0.10859,0.339791 1.88987,1.158529 2.52089,1.158529 0.20142,0 0.36649,0.07751 0.36649,0.171647 0,0.189162 1.04014,0.755027 1.38741,0.755027 0.11998,0 0.32973,0.208429 0.4663,0.463446 0.148,0.276737 0.41072,0.463403 0.65229,0.463403 0.22245,0 0.7627,0.271045 1.20079,0.602428 0.4381,0.331471 0.97196,0.727572 1.18633,0.880522 0.21457,0.152818 0.41774,0.340667 0.45164,0.417294 0.035,0.07663 0.14493,0.138807 0.24608,0.138807 0.10158,0 0.50495,0.33366 0.89668,0.741278 0.44347,0.461563 0.81733,0.700949 0.99078,0.634392 0.16814,-0.06437 0.35993,0.04554 0.48464,0.278051 0.1134,0.211931 0.31307,0.385329 0.44422,0.385329 0.13092,0 0.40984,0.187849 0.61999,0.416856 0.21017,0.229447 0.66302,0.624892 1.00658,0.878903 0.8123,0.600544 1.91741,1.785565 2.23084,2.392283 0.13618,0.263601 0.47247,0.671219 0.74741,0.90605 0.27498,0.234701 0.55426,0.598312 0.62073,0.807792 0.0666,0.209304 0.25878,0.524705 0.42692,0.700468 1.25741,1.312748 1.8181,2.17466 1.98157,3.045987 0.0696,0.371755 0.20098,0.675903 0.29162,0.675903 0.28506,0 1.53917,1.383684 1.92012,2.118787 0.20098,0.387519 0.4719,0.745613 0.60244,0.795662 0.13048,0.04992 0.23731,0.28637 0.23731,0.52545 0,0.239079 0.11386,0.501104 0.2531,0.582636 0.13925,0.08144 0.3989,0.440151 0.57777,0.797019 0.17866,0.356867 0.46819,0.815585 0.64333,1.019504 0.17515,0.204049 0.50794,0.829509 0.73953,1.390252 0.23163,0.560742 0.56762,1.186333 0.7467,1.390251 0.17909,0.20405 0.55759,0.99634 0.84103,1.761001 0.2833,0.764616 0.58706,1.482555 0.67472,1.595351 0.0875,0.112973 0.23602,0.571602 0.33016,1.019504 0.1607,0.766981 0.56701,2.021579 0.92426,2.853453 0.0876,0.20405 0.26536,0.725253 0.3954,1.158529 0.13006,0.433496 0.30608,0.787824 0.3919,0.787824 0.0858,0 0.15588,0.153694 0.15588,0.341104 0,0.187411 0.25004,1.063291 0.55611,1.946003 0.30607,0.882711 0.5561,1.738449 0.5561,1.901645 0,0.163328 0.11472,0.559603 0.25528,0.880873 0.28944,0.663204 1.03233,4.377519 1.15468,5.774383 0.0446,0.50973 0.17208,1.154719 0.28374,1.433251 0.11121,0.278488 0.15413,0.633035 0.0945,0.787824 -0.0595,0.154569 -0.0262,0.281553 0.0719,0.281553 0.22988,0 0.22419,1.52792 -0.009,2.539673 -0.11822,0.511481 -0.11602,0.946554 0.004,1.267909 0.12611,0.331472 0.11954,1.095956 -0.0219,2.37258 -0.11341,1.035792 -0.23733,2.967695 -0.27586,4.293054 -0.0696,2.392371 -0.34023,4.965231 -0.65379,6.209801 -0.0898,0.35687 -0.16377,1.10165 -0.16421,1.65513 -9.2e-4,0.92234 -0.303,2.19769 -0.57396,2.42293 -0.0613,0.0508 -0.16902,0.34285 -0.23908,0.6488 -0.07,0.30607 -0.2404,0.80635 -0.37833,1.11219 -0.13793,0.30608 -0.39934,1.03715 -0.58088,1.62514 -0.18172,0.58797 -0.44138,1.16124 -0.57716,1.27395 -0.13575,0.11253 -0.24697,0.31745 -0.24697,0.45455 0,0.1375 -0.16989,0.55225 -0.37744,0.92199 -0.48569,0.86463 -0.34023,1.37804 0.39015,1.37804 0.33059,0 0.54357,0.0972 0.54357,0.24827 0,0.13662 0.21106,0.34417 0.46867,0.46183 0.2579,0.11735 0.5169,0.33936 0.57588,0.49318 0.0613,0.16026 0.33673,0.2798 0.64359,0.2798 0.29512,0 0.53627,0.0757 0.53627,0.16901 0,0.0928 0.39627,0.3525 0.88051,0.57739 2.35586,1.09311 4.41177,2.11205 4.49514,2.22773 0.0508,0.0709 0.52471,0.34636 1.05274,0.6129 0.52803,0.26622 1.01259,0.56918 1.07682,0.67305 0.0644,0.10378 0.27849,0.18873 0.47654,0.18873 0.19791,0 0.35993,0.0753 0.35993,0.1677 0,0.0924 0.47965,0.437 1.06587,0.76575 0.58624,0.32885 1.13257,0.71225 1.2141,0.85184 0.0815,0.13969 0.30082,0.25397 0.48705,0.25397 0.18654,0 0.44002,0.12174 0.56363,0.27105 0.12349,0.14887 0.4011,0.32665 0.61653,0.39496 0.21543,0.0683 0.50578,0.23864 0.64525,0.37789 0.13968,0.13925 0.47856,0.25352 0.75345,0.25352 0.27499,0 0.79536,0.20099 1.1566,0.44629 0.36126,0.24565 0.97187,0.57795 1.35694,0.73882 0.38488,0.16114 1.00562,0.53062 1.37894,0.82155 0.69746,0.54353 1.64992,1.0188 4.15443,2.07294 0.79011,0.33278 1.43658,0.66636 1.43658,0.7418 0,0.0753 0.26272,0.1896 0.58338,0.25397 0.32096,0.0644 1.85518,0.74194 3.40969,1.50611 1.55445,0.76418 2.91851,1.38942 3.03127,1.38942 0.11253,0 0.20492,0.10422 0.20492,0.23164 10e-5,0.12742 0.20537,0.24345 0.45662,0.25791 0.2509,0.0131 0.59065,0.16025 0.75459,0.32446 0.16376,0.16377 0.45404,0.2982 0.64464,0.2982 0.19048,0 0.39803,0.0832 0.46112,0.18521 0.0631,0.10203 0.2763,0.18523 0.47436,0.18523 0.19792,0 0.35992,0.0736 0.35992,0.16332 0,0.0898 0.37526,0.25791 0.83416,0.37351 0.45876,0.11559 0.83415,0.29206 0.83415,0.39277 0,0.1003 0.16946,0.18259 0.37657,0.18259 0.20711,0 0.42299,0.12086 0.47983,0.26886 0.0569,0.148 0.40853,0.36694 0.78199,0.48687 0.37351,0.11954 0.80386,0.31965 0.95676,0.44419 0.15282,0.12435 0.65344,0.33103 1.1122,0.45845 0.4588,0.12742 1.33464,0.51498 1.94636,0.86077 0.61171,0.34592 1.37759,0.75328 1.70197,0.90552 0.32446,0.15239 0.64075,0.3595 0.70301,0.46004 0.0621,0.1007 0.42254,0.32402 0.80048,0.49632 0.37788,0.17209 0.8958,0.5015 1.15068,0.7317 0.25485,0.23032 1.04731,0.64634 1.76096,0.9247 1.6899,0.65913 2.13175,1.06184 2.13175,1.94285 0,0.50514 0.10947,0.75928 0.41467,0.96184 0.57213,0.37963 0.51651,1.29264 -0.20625,3.38459 -0.31701,0.91757 -0.57698,1.77602 -0.57773,1.90773 -7.4e-4,0.1318 -0.25177,0.77469 -0.55745,1.42888 -0.30608,0.65418 -0.5561,1.26335 -0.5561,1.35377 0,0.0902 -0.1572,0.30652 -0.34898,0.48022 -0.1918,0.17384 -0.49804,0.708 -0.68024,1.18725 -0.18216,0.4793 -0.48285,1.12166 -0.6682,1.42752 -0.18522,0.30607 -0.42168,0.75008 -0.52536,0.98714 -0.10378,0.23689 -0.31309,0.5557 -0.46542,0.70809 -0.15238,0.15238 -0.33234,0.49813 -0.40022,0.76829 -0.0679,0.27017 -0.31833,0.70143 -0.5564,0.95833 -0.23821,0.25704 -0.43306,0.53631 -0.43306,0.62091 0,0.22551 -1.02568,1.67829 -1.61909,2.2932 -0.28199,0.29206 -1.02699,1.09231 -1.65565,1.77812 -0.93713,1.02239 -1.24592,1.24694 -1.71462,1.24694 -0.3144,0 -0.57165,-0.0836 -0.57165,-0.18523 z m -99.426916,-20.0452 c 0.11954,-0.095 0.392774,-0.0972 0.643063,-0.004 0.287683,0.1064 0.96779,0.0446 2.007217,-0.18259 0.864539,-0.18873 1.842314,-0.34373 2.172821,-0.34373 0.330595,0 0.652433,-0.0832 0.715443,-0.18522 0.06568,-0.10597 1.017183,-0.18523 2.222476,-0.18523 2.044831,0 2.109636,0.0132 2.167129,0.41686 0.03065,0.22945 0.142748,0.37526 0.244772,0.32446 0.102025,-0.0508 0.164203,-0.25965 0.138369,-0.4634 -0.03941,-0.30301 -0.01314,-0.32008 0.136179,-0.0928 0.100715,0.15282 0.184345,0.18478 0.186096,0.0704 0.0029,-0.21544 1.451861,-0.55571 3.0614,-0.71929 1.194478,-0.1213 2.176631,-0.39672 3.357842,-0.94048 1.18664,-0.54641 2.307117,-0.80892 3.500717,-0.82005 0.628042,-0.004 1.076252,-0.12567 1.390252,-0.37131 0.25485,-0.19923 0.65112,-0.36432 0.88052,-0.3665 0.22945,-0.002 0.41686,-0.0815 0.41686,-0.17603 0,-0.17909 1.03242,-0.75502 1.3533,-0.75502 0.20886,0 1.51426,-1.04258 2.60736,-2.08245 0.79129,-0.75275 0.96223,-0.82474 1.10682,-0.46638 0.0517,0.12742 0.1003,0.0495 0.10816,-0.17296 0.009,-0.23514 0.26666,-0.58141 0.61705,-0.82745 0.33146,-0.23251 0.63028,-0.48859 0.66426,-0.56871 0.035,-0.0802 0.14931,-0.14582 0.25659,-0.14582 0.10728,0 0.52632,-0.31264 0.93175,-0.69513 0.40547,-0.38226 0.97812,-0.92172 1.27282,-1.19862 0.29469,-0.27675 0.53578,-0.56938 0.53578,-0.6499 0,-0.0806 0.26535,-0.26404 0.59012,-0.40767 0.32447,-0.14361 1.26143,-0.91476 2.08197,-1.71353 0.82053,-0.79877 1.55077,-1.45234 1.62276,-1.45234 0.25134,0 3.11981,-2.97803 3.11981,-3.23913 0,-0.046 0.32228,-0.39978 0.71649,-0.78573 0.39409,-0.3862 0.87347,-0.95224 1.06531,-1.2581 0.19179,-0.30607 0.66185,-0.84089 1.04446,-1.18896 0.3827,-0.34811 0.6957,-0.70012 0.6957,-0.7824 0,-0.0823 0.24258,-0.50648 0.53854,-0.94273 1.23839,-1.82407 2.42736,-3.72934 2.42736,-3.88987 0,-0.0946 0.20842,-0.44545 0.4634,-0.77959 0.25484,-0.33409 0.46341,-0.65847 0.46341,-0.7207 0,-0.0621 0.20842,-0.32184 0.46344,-0.5765 0.25484,-0.25484 0.4634,-0.63404 0.4634,-0.8426 0,-0.20843 0.067,-0.3792 0.14887,-0.3792 0.0819,0 0.29907,-0.43792 0.48242,-0.97318 0.47605,-1.38845 1.4156,-3.4551 2.33859,-5.14393 0.5241,-0.95898 0.92366,-2.28075 1.20464,-3.98535 0.067,-0.40767 0.18435,-0.82492 0.26054,-0.92685 0.33191,-0.44528 0.87916,-3.14705 1.1453,-5.653709 0.0919,-0.866554 0.26448,-2.45144 0.38358,-3.521956 0.35292,-3.176211 0.31089,-4.055595 -0.40153,-8.434209 -0.0994,-0.611711 -0.21499,-1.487548 -0.25616,-1.946353 -0.0394,-0.458761 -0.20667,-1.167811 -0.36737,-1.575604 -0.49393,-1.253416 -1.04613,-3.477556 -1.04613,-4.21336 0,-0.384454 -0.0731,-0.698849 -0.16201,-0.698849 -0.0894,0 -0.21018,-0.239954 -0.26886,-0.533768 -0.0587,-0.293376 -0.222,-0.648931 -0.36256,-0.789663 -0.14056,-0.140558 -0.31307,-0.484421 -0.38314,-0.763784 -0.07,-0.279365 -0.20536,-0.507935 -0.30082,-0.507935 -0.095,0 -0.34329,-0.354679 -0.55137,-0.787825 -0.208,-0.433495 -0.54612,-1.038025 -0.75135,-1.34388 -0.20536,-0.306075 -0.53942,-0.889761 -0.74259,-1.297597 -0.20317,-0.407662 -0.49458,-0.90338 -0.64758,-1.101255 -0.15281,-0.19792 -0.28111,-0.489895 -0.28505,-0.648799 -0.004,-0.158948 -0.41773,-0.82894 -0.91993,-1.488905 -0.50229,-0.659965 -1.06228,-1.494116 -1.24448,-1.853654 -0.18216,-0.359495 -0.37307,-0.695433 -0.42387,-0.746445 -0.0508,-0.0508 -0.24258,-0.384455 -0.42605,-0.741453 -1.08378,-2.108104 -1.64659,-2.977241 -2.4933,-3.850275 -0.22945,-0.236453 -0.41992,-0.4888 -0.42342,-0.560611 -0.004,-0.07181 -0.52313,-0.58938 -1.15455,-1.150122 -0.63137,-0.560742 -1.56685,-1.437892 -2.07881,-1.949199 -0.51196,-0.511305 -1.16023,-1.076296 -1.44061,-1.255518 -0.28024,-0.17909 -0.50995,-0.428241 -0.51016,-0.553253 -1.8e-4,-0.125233 -0.37394,-0.477678 -0.83008,-0.783534 -0.45631,-0.305636 -0.83153,-0.646653 -0.83375,-0.757391 -0.004,-0.269731 -1.39591,-1.505763 -1.85957,-1.652933 -0.20274,-0.06437 -0.36914,-0.194854 -0.36914,-0.289873 0,-0.09502 -0.15675,-0.17296 -0.3481,-0.17296 -0.19135,0 -0.45189,-0.125232 -0.57883,-0.27805 -0.12699,-0.152819 -0.33541,-0.278051 -0.4634,-0.278051 -0.12786,0 -0.33629,-0.125232 -0.4634,-0.27805 -0.12699,-0.152818 -0.34155,-0.278051 -0.47685,-0.278051 -0.13531,0 -0.63491,-0.271044 -1.11019,-0.602471 -1.98212,-1.381801 -3.14175,-1.99268 -3.78266,-1.99268 -0.21106,0 -0.37658,-0.122167 -0.37658,-0.27805 0,-0.164641 -0.16989,-0.278051 -0.41685,-0.278051 -0.22945,-8.8e-5 -0.94616,-0.250464 -1.59286,-0.556364 -0.64666,-0.306073 -1.25193,-0.509203 -1.34498,-0.451667 -0.17821,0.110344 -1.432892,-0.260973 -1.733412,-0.512576 -0.0968,-0.08101 -0.313517,-0.147563 -0.481836,-0.147563 -0.168143,0 -0.672838,-0.248714 -1.121484,-0.55273 -0.448647,-0.303884 -0.957545,-0.554261 -1.130899,-0.5561 -0.173398,-0.0019 -0.381827,-0.107717 -0.463402,-0.23514 -0.167707,-0.261848 -0.970024,-0.597391 -2.465322,-1.030756 -0.560742,-0.162451 -1.061233,-0.345921 -1.112201,-0.407661 -0.0508,-0.06174 -0.384016,-0.229884 -0.740009,-0.374382 -0.999711,-0.405035 -11.329786,-0.347235 -12.000259,0.06699 -0.09983,0.06174 -0.944451,0.124357 -1.876818,0.139244 -0.932366,0.01314 -1.695188,0.08889 -1.695188,0.16464 0,0.07576 -0.229446,0.136618 -0.509774,0.135742 -1.340057,-0.0042 -3.712024,0.27411 -4.439294,0.521158 -0.445651,0.151067 -1.18273,0.274986 -1.637949,0.274986 -0.455219,0 -0.827671,0.08319 -0.827671,0.185221 0,0.102024 -0.33366,0.18522 -0.74147,0.18522 -0.407793,0 -0.741466,0.0832 -0.741466,0.185221 0,0.102025 -0.130049,0.185221 -0.288998,0.185221 -0.276079,0 -3.291034,0.953122 -4.067145,1.285775 -0.203918,0.08758 -0.829518,0.343294 -1.390252,0.569018 -1.008569,0.40591 -3.083115,1.346859 -3.800024,1.723868 -0.86831,0.456661 -3.580483,1.775977 -4.263436,2.073906 -0.407793,0.177778 -1.166857,0.522034 -1.686781,0.764748 -0.519919,0.242583 -1.037119,0.441247 -1.149334,0.441247 -0.112226,0 -0.270737,0.112971 -0.352269,0.250901 -0.08153,0.137931 -0.497246,0.469358 -0.923815,0.736111 -0.426577,0.266667 -0.843644,0.591656 -0.926836,0.722099 -0.08319,0.130487 -0.318072,0.326655 -0.521986,0.436123 -0.203918,0.109469 -0.515133,0.48232 -0.691614,0.828284 -0.176507,0.345921 -0.594363,0.76939 -0.928618,0.940861 -0.639757,0.328406 -1.817263,1.634192 -2.528909,2.804762 -0.232425,0.382264 -0.501819,0.695126 -0.598654,0.695126 -0.09682,0 -0.230629,0.145812 -0.297317,0.324465 -0.06669,0.178653 -0.678075,0.866598 -1.358651,1.529277 -0.680575,0.662723 -1.575853,1.705391 -1.989505,2.317101 -0.413659,0.611711 -0.968911,1.300619 -1.233912,1.530854 -0.265002,0.230321 -0.699759,0.89519 -0.966144,1.477519 -0.26636,0.582373 -0.711582,1.353252 -0.989339,1.713053 -0.277744,0.359933 -0.616667,0.94616 -0.753135,1.302984 -0.136486,0.356867 -0.294559,0.690528 -0.351351,0.741497 -0.36904,0.331471 -2.110323,5.817252 -2.42705,7.646385 -0.11919,0.688164 -0.282255,1.251227 -0.362386,1.251227 -0.08013,0 -0.203875,0.310014 -0.274897,0.688688 -0.07107,0.378762 -0.247969,0.918442 -0.393168,1.199163 -0.145155,0.280678 -0.301783,0.867561 -0.347979,1.303991 -0.04619,0.436561 -0.1755,1.210592 -0.287333,1.720365 -0.431614,1.96759 -0.601294,3.189173 -0.577732,4.159459 0.01357,0.554525 -0.05233,1.263574 -0.146162,1.575648 -0.25572,0.850177 -0.775061,4.375899 -0.767652,5.211496 0.0035,0.402406 0.0039,0.898343 9.24e-4,1.102261 -0.0079,0.508154 0.331602,2.233992 0.874628,4.44881 0.249983,1.0195 0.493905,2.22414 0.542098,2.67699 0.07615,0.71548 0.708612,2.33501 1.0177,2.60596 0.05814,0.0508 0.211493,0.69587 0.340753,1.43308 0.132413,0.75498 0.512318,1.88842 0.869904,2.59515 0.349161,0.69009 0.720457,1.56755 0.825083,1.94985 0.104608,0.38227 0.270431,0.69513 0.368471,0.69513 0.09804,0 0.178215,0.0924 0.178215,0.20493 0,0.11253 0.229402,0.55057 0.50976,0.97317 0.280371,0.42255 0.624926,1.102 0.76569,1.50979 0.140776,0.40767 0.495275,1.07074 0.787806,1.47314 0.292545,0.40241 0.534532,0.86117 0.537775,1.01951 0.0032,0.15851 0.128385,0.44978 0.278051,0.6477 0.149665,0.19792 0.272139,0.49796 0.272139,0.66676 0,0.16857 0.175325,0.50741 0.389621,0.7524 0.214296,0.24477 0.707561,1.07568 1.096166,1.84603 0.388614,0.77031 0.838894,1.5104 1.00064,1.64466 0.161751,0.13443 0.294077,0.3468 0.294077,0.47233 0,0.12567 0.187673,0.43262 0.417076,0.68212 0.229402,0.24959 0.637006,0.74141 0.905813,1.09289 0.268811,0.35162 0.665031,0.83959 0.880496,1.08458 0.215478,0.2452 0.391767,0.52996 0.391767,0.6332 0,0.10334 0.123743,0.32009 0.274941,0.4814 0.851403,0.90916 1.577061,1.79564 1.577833,1.92753 5.55e-4,0.0832 0.251121,0.36168 0.556989,0.61894 0.305855,0.25747 0.5579,0.56476 0.560103,0.68317 0.0022,0.11822 0.303622,0.46546 0.669847,0.77132 1.071895,0.89523 2.477386,2.31994 2.477386,2.51129 0,0.0973 0.15343,0.17646 0.340972,0.17646 0.187542,0 0.427629,0.19004 0.533506,0.42256 0.105879,0.23251 0.557209,0.66854 1.00293,0.96923 0.445722,0.30082 1.152657,0.81957 1.570963,1.15306 0.418301,0.33366 0.839936,0.60636 0.936951,0.60636 0.09703,0 0.489653,0.28681 0.87253,0.63764 0.647863,0.59345 1.041302,0.8147 2.990969,1.68218 0.407793,0.18128 0.977257,0.52615 1.265449,0.76602 0.288209,0.23995 0.679489,0.43612 0.869552,0.43612 0.190082,0 0.397109,0.0832 0.460132,0.18522 0.06301,0.10202 0.225244,0.18522 0.360546,0.18522 0.135304,0 0.745653,0.33366 1.356348,0.7415 0.610695,0.40766 1.201729,0.74145 1.313404,0.74145 0.111659,0 0.677034,0.20974 1.256346,0.46581 0.579317,0.25616 1.096381,0.42255 1.149031,0.37 0.05263,-0.0525 0.269205,0.0175 0.481268,0.15457 0.344782,0.22376 0.793315,0.31309 3.047161,0.60554 0.342417,0.0442 0.759502,0.15195 0.926831,0.23908 0.40499,0.21062 2.291187,0.38446 4.567518,0.42124 1.019398,0.0175 2.228939,0.13267 2.687788,0.25834 0.82894,0.22726 1.385611,0.18654 1.783595,-0.13092 z m 27.688656,-33.15687 c -0.18566,-0.26097 -0.39803,-0.79724 -0.47234,-1.19216 -0.074,-0.39497 -0.2474,-0.93425 -0.38533,-1.19859 -0.13793,-0.26449 -0.25134,-0.5861 -0.25178,-0.71497 -9.2e-4,-0.18697 -1.07388,-2.33404 -2.05183,-4.10577 -0.0894,-0.16157 -0.46065,-0.9406 -0.82527,-1.7307 -0.36475,-0.79014 -0.74255,-1.43658 -0.83984,-1.43658 -0.0972,0 -0.1769,-0.17252 -0.1769,-0.38314 0,-0.21061 -0.20843,-0.65655 -0.46345,-0.99069 -0.25484,-0.334095 -0.4634,-0.757344 -0.4634,-0.940376 0,-0.183032 -0.1121,-0.425177 -0.24871,-0.538585 -0.13662,-0.112973 -0.43393,-0.664607 -0.65983,-1.225349 -0.553922,-1.373832 -0.789882,-1.892407 -1.600484,-3.517403 -0.93079,-1.866002 -0.933943,-1.872439 -1.222677,-2.507007 -0.139245,-0.306074 -0.304761,-0.59783 -0.367815,-0.648798 -0.06305,-0.0508 -0.302134,-0.609829 -0.531491,-1.2419 -0.229447,-0.632029 -0.574055,-1.291424 -0.76615,-1.465304 -0.192227,-0.173836 -0.349424,-0.420797 -0.349424,-0.549139 0,-0.128296 -0.33366,-0.811775 -0.741497,-1.519118 -0.407661,-0.707342 -0.741453,-1.413459 -0.741453,-1.569211 0,-0.155883 -0.107717,-0.372631 -0.239517,-0.481924 -0.215435,-0.178654 -0.644683,-1.041266 -1.505851,-3.025845 -0.161575,-0.372194 -0.293813,-0.812784 -0.293813,-0.979 0,-0.166393 -0.125232,-0.3503 -0.278051,-0.408975 -0.152819,-0.05867 -0.27805,-0.211494 -0.27805,-0.339354 0,-0.127858 -0.33585,-0.843959 -0.746796,-1.591191 -0.410726,-0.747277 -0.799296,-1.572102 -0.863445,-1.833031 -0.130486,-0.531011 -1.161593,-2.647653 -1.359731,-2.791406 -0.07006,-0.0508 -0.182157,-0.389271 -0.248713,-0.751875 -0.06656,-0.362561 -0.287246,-0.984955 -0.490157,-1.383115 -0.203174,-0.398027 -0.369129,-0.829378 -0.369129,-0.958288 0,-0.128735 -0.166391,-0.507497 -0.370003,-0.841288 -0.203612,-0.333661 -0.370442,-0.758137 -0.37088,-0.943008 -3.94e-4,-0.184782 -0.2474,-0.852147 -0.549182,-1.482905 -0.301696,-0.630803 -0.651733,-1.563957 -0.777928,-2.073731 -0.126108,-0.50973 -0.380075,-1.099021 -0.563764,-1.309507 -0.183907,-0.210618 -0.334098,-0.510518 -0.334098,-0.666752 0,-0.156321 -0.165517,-0.484552 -0.367377,-0.729543 -0.20186,-0.244772 -0.433057,-0.528821 -0.513626,-0.630802 -0.08057,-0.102025 -0.236015,-0.631721 -0.345922,-1.17727 -0.1896,-0.942918 -0.176901,-1.012978 0.261849,-1.419632 l 0.461345,-0.427804 0.467081,0.555137 c 0.257032,0.305199 0.662241,0.629314 0.900664,0.719954 0.317021,0.120415 0.433496,0.309576 0.433496,0.702789 0,0.296003 0.125232,0.641836 0.27805,0.768776 0.152818,0.126984 0.27805,0.353365 0.27805,0.503206 0,0.149752 0.166831,0.484551 0.37088,0.743772 0.204049,0.259223 0.37088,0.59319 0.37088,0.74211 0,0.148879 0.115161,0.492216 0.255718,0.762822 0.398029,0.766937 0.638422,1.362973 0.833276,2.0676 0.09852,0.356868 0.359933,1.107604 0.580491,1.668303 0.220689,0.560742 0.447507,1.186376 0.504256,1.390251 0.05692,0.20405 0.21018,0.495893 0.340667,0.648799 0.130486,0.152818 0.295565,0.528295 0.3665,0.834151 0.07094,0.306074 0.227695,0.722931 0.348549,0.926849 0.120415,0.204049 0.337162,0.746094 0.48118,1.204855 0.144061,0.458806 0.419045,1.105284 0.611142,1.436623 0.192226,0.331471 0.278488,0.603698 0.191789,0.605274 -0.0867,0.0015 -0.0521,0.06962 0.07619,0.151067 0.128298,0.08145 0.387519,0.585264 0.575456,1.119471 0.188285,0.534207 0.437436,1.066837 0.554392,1.183619 0.116913,0.116911 0.210181,0.299943 0.207553,0.406785 -0.0088,0.282867 3.984703,8.140569 4.840003,9.527932 0.399341,0.647441 0.727135,1.231347 0.728842,1.297554 0.0088,0.287245 1.271803,3.196484 1.902525,4.377782 0.3792,0.710364 0.68952,1.388281 0.68952,1.506595 0,0.118226 0.11954,0.314394 0.26622,0.436123 0.14625,0.121291 0.31966,0.465067 0.38533,0.763479 0.11692,0.532061 1.21169,2.961915 1.58147,3.509871 0.10335,0.152818 0.23646,0.423862 0.29645,0.602427 0.06,0.178653 0.18259,0.324466 0.27279,0.324466 0.0902,0 0.16377,0.208428 0.16377,0.463404 0,0.25484 0.0832,0.4634 0.18522,0.4634 0.10203,0 0.18522,0.12523 0.18522,0.27805 0,0.15282 0.07,0.27805 0.15544,0.27805 0.19573,0 0.58584,0.83976 0.58584,1.26174 0,0.17471 0.16683,0.42167 0.37088,0.54892 0.20405,0.12742 0.37087,0.39277 0.37087,0.58977 0,0.19704 0.0836,0.40985 0.18523,0.47277 0.10202,0.0631 0.18522,0.2566 0.18522,0.43 0,0.17339 0.20843,0.54025 0.4634,0.81514 0.25485,0.27499 0.46344,0.65353 0.46344,0.84151 0,0.18785 0.0867,0.42868 0.19267,0.53447 0.56942,0.56941 1.76332,3.105 1.93195,4.10301 0.11122,0.65813 0.0661,0.79948 -0.38927,1.22189 -0.63645,0.59017 -1.2852,0.56416 -1.73648,-0.0696 z M 90.930322,75.724986 c 0,-0.102025 -0.03503,-0.185221 -0.08188,-0.185221 -0.0451,0 -0.133115,0.0832 -0.196168,0.185221 -0.06305,0.102025 -0.02627,0.185221 0.08188,0.185221 0.107717,0 0.196168,-0.08363 0.196168,-0.185221 z m 29.191038,24.26968 c -0.0732,-0.230759 -0.22594,-0.344169 -0.38313,-0.283742 -0.15589,0.05999 -0.26142,-0.01752 -0.26142,-0.189162 0,-0.158949 -0.16683,-0.501454 -0.37088,-0.760676 -0.20405,-0.259221 -0.37087,-0.613944 -0.37087,-0.788306 0,-0.174274 -0.16684,-0.468 -0.37089,-0.65252 -0.20404,-0.184346 -0.3757,-0.468526 -0.38183,-0.631153 -0.004,-0.162451 -0.2128,-0.671043 -0.45959,-1.129804 -0.24696,-0.458805 -0.55211,-1.063553 -0.67848,-1.343925 -0.12655,-0.280239 -0.33673,-0.509773 -0.46721,-0.509773 -0.13049,0 -0.23733,-0.109469 -0.23733,-0.243459 0,-0.229007 -0.53097,-1.366212 -0.92489,-1.981163 -0.16376,-0.255719 -0.44645,-0.884113 -1.29242,-2.873201 -0.38796,-0.912488 -0.87694,-1.94631 -1.09566,-2.317058 -0.31832,-0.539724 -0.76509,-1.684371 -0.76509,-1.960408 0,-0.153694 -0.16683,-0.458586 -0.37089,-0.677436 -0.20404,-0.218937 -0.37087,-0.583818 -0.37087,-0.810943 0,-0.227257 -0.0744,-0.440852 -0.16508,-0.474832 -0.19661,-0.07356 -1.31774,-2.115372 -1.31774,-2.400166 0,-0.10903 -0.16683,-0.410288 -0.37088,-0.669597 -0.20405,-0.259222 -0.37088,-0.616659 -0.37088,-0.794348 0,-0.177778 -0.1191,-0.421674 -0.26403,-0.542308 -0.26011,-0.215872 -1.67112,-3.008812 -2.1596,-4.274926 -0.13793,-0.356868 -0.31527,-0.732214 -0.39453,-0.834151 -1.75373,-2.251989 -1.69598,-2.138185 -1.3991,-2.757866 0.37044,-0.772892 1.22649,-1.104844 1.75207,-0.679274 0.20843,0.168582 0.43657,0.489631 0.50772,0.713341 0.0709,0.223754 0.20667,0.406785 0.30213,0.406785 0.095,0 0.17296,0.102026 0.17296,0.226382 0,0.180842 1.144,2.655228 2.05933,4.453885 0.0907,0.178653 0.23469,0.470409 0.32009,0.648799 0.0854,0.178652 0.43935,0.908283 0.7869,1.621975 0.34767,0.713648 0.63233,1.357411 0.63281,1.430579 5.7e-4,0.07312 0.14713,0.303448 0.32534,0.511876 0.17866,0.208428 0.32446,0.625197 0.32446,0.926324 0,0.345045 0.12831,0.616046 0.3468,0.732958 0.19048,0.102025 0.53395,0.647179 0.76296,1.211424 0.22901,0.564245 0.49011,1.025896 0.58022,1.025896 0.0902,0 0.16377,0.208428 0.16377,0.463403 0,0.254843 0.0797,0.463402 0.17734,0.463402 0.15501,0 1.10107,1.81521 1.49762,2.873202 0.12786,0.341542 0.303,0.731426 1.48365,3.305209 0.22594,0.492478 0.52518,0.939328 0.66504,0.993012 0.13968,0.05385 0.25441,0.178653 0.25441,0.277613 0,0.255718 1.28367,2.892862 1.44314,2.964629 0.0727,0.03066 0.37921,0.601815 0.68116,1.264495 0.3017,0.662678 0.64999,1.33 0.77386,1.48295 0.12392,0.152818 0.32841,0.687945 0.4542,1.188917 0.22332,0.887878 0.21632,0.921857 -0.27454,1.343924 -0.6192,0.532591 -0.79404,0.541611 -0.95041,0.04905 z m -9.72751,-1.540618 c 0,-0.16464 -0.0836,-0.299506 -0.18523,-0.299506 -0.10202,0 -0.18521,-0.121729 -0.18521,-0.270607 0,-0.342417 -1.60735,-3.562678 -1.85462,-3.715496 -0.10159,-0.06262 -0.18435,-0.265791 -0.18435,-0.451799 0,-0.185659 -0.23076,-0.577076 -0.51292,-0.869531 -0.97948,-1.015389 -1.20306,-1.357938 -1.27181,-1.94828 -0.0394,-0.326655 -0.19398,-0.731732 -0.34723,-0.900664 -0.15282,-0.16902 -0.27806,-0.405035 -0.27806,-0.524268 0,-0.119539 -0.0635,-0.217185 -0.14143,-0.217185 -0.13925,0 -0.29732,-0.265353 -0.84295,-1.413985 -0.15151,-0.318772 -0.36738,-0.636626 -0.47969,-0.706029 -0.11254,-0.06962 -0.20405,-0.272358 -0.20405,-0.451098 0,-0.178653 -0.16683,-0.503906 -0.37088,-0.7228 -0.20405,-0.218937 -0.37088,-0.439451 -0.37088,-0.4902 0,-0.0508 -0.23295,-0.492171 -0.51748,-0.980927 -0.28462,-0.488755 -0.74526,-1.419764 -1.02362,-2.06887 -0.27849,-0.649105 -0.78896,-1.510624 -1.13462,-1.914431 -0.34592,-0.403721 -0.740052,-1.113603 -0.876412,-1.577269 -0.13618,-0.463621 -0.352043,-0.883149 -0.479601,-0.932191 -0.127421,-0.04904 -0.231635,-0.177339 -0.231635,-0.285056 0,-0.107717 -0.240831,-0.578345 -0.534776,-1.046039 -0.294252,-0.467737 -0.589861,-1.163213 -0.657162,-1.545522 -0.0867,-0.492478 -0.217186,-0.695126 -0.447508,-0.695126 -0.358619,0 -0.770309,-0.917828 -0.770309,-1.716862 0,-0.267104 -0.07269,-0.530704 -0.162013,-0.585789 -0.374383,-0.231198 -2.389789,-5.11201 -2.111082,-5.11201 0.05167,0 -0.01314,-0.12786 -0.141871,-0.284181 -0.186535,-0.224629 -0.189162,-0.372194 -0.01314,-0.703884 0.58373,-1.090657 1.664404,-0.939109 2.070139,0.290311 0.126546,0.384016 0.292501,0.697929 0.368691,0.697929 0.07619,0 0.0937,0.170771 0.03941,0.379637 -0.05955,0.227257 0.04378,0.543446 0.257032,0.78778 0.19573,0.22463 0.49725,0.721004 0.669729,1.103313 0.172523,0.382264 0.385329,0.695126 0.47251,0.695126 0.08758,0 0.264915,0.479647 0.394525,1.065874 0.129612,0.586226 0.297317,1.149246 0.372632,1.251227 0.07531,0.102025 0.291187,0.62327 0.479385,1.158528 0.188294,0.535258 0.398914,0.973176 0.468404,0.973176 0.0696,0 0.22988,0.250464 0.356422,0.556101 0.12655,0.305636 0.30213,0.556101 0.38971,0.556101 0.0875,0 0.21499,0.229446 0.28243,0.509773 0.0679,0.280241 0.26316,0.71829 0.43437,0.973176 0.17121,0.254844 0.42562,0.755335 0.56491,1.112202 0.13924,0.356868 0.30825,0.690484 0.37526,0.741453 0.067,0.0508 0.48569,0.843434 0.93065,1.761 0.44501,0.917566 0.8758,1.751717 0.95728,1.853655 0.95487,1.194522 1.43755,1.893983 1.43904,2.085378 9.1e-4,0.127421 0.0687,0.231635 0.15062,0.231635 0.0819,0 0.29513,0.407662 0.47448,0.905788 0.1791,0.498213 0.53657,1.186377 0.79427,1.529277 0.2579,0.342856 0.65632,1.040564 0.88581,1.550338 0.22945,0.50973 0.55584,1.04131 0.72525,1.181211 0.16947,0.140119 0.30827,0.358619 0.30827,0.486216 0,0.408537 1.01333,2.422585 1.51517,3.011788 0.38183,0.448253 0.76826,1.470471 0.63646,1.683673 -0.0595,0.09633 0.0473,0.216309 0.23733,0.265789 0.19485,0.0508 0.54498,0.525274 0.80227,1.086936 0.53364,1.164922 0.4116,2.014091 -0.28987,2.018558 -0.21938,0.0015 -0.58667,0.05298 -0.81602,0.114285 -0.30652,0.08232 -0.41686,0.03065 -0.41686,-0.187847 z"
       id="path3069" />
  </g>
</svg>
