<?xml version="1.0" encoding="UTF-8" standalone="no"?>
<!-- Created with Inkscape (http://www.inkscape.org/) -->

<svg
   width="175.54639mm"
   height="175.54639mm"
   viewBox="0 0 175.5464 175.54639"
   version="1.1"
   id="svg5"
   inkscape:version="1.1 (c68e22c387, 2021-05-23)"
   sodipodi:docname="taborovazakladna.svg"
   xmlns:inkscape="http://www.inkscape.org/namespaces/inkscape"
   xmlns:sodipodi="http://sodipodi.sourceforge.net/DTD/sodipodi-0.dtd"
   xmlns="http://www.w3.org/2000/svg"
   xmlns:svg="http://www.w3.org/2000/svg">
  <sodipodi:namedview
     id="namedview7"
     pagecolor="#ffffff"
     bordercolor="#666666"
     borderopacity="1.0"
     inkscape:pageshadow="2"
     inkscape:pageopacity="0.0"
     inkscape:pagecheckerboard="0"
     inkscape:document-units="mm"
     showgrid="false"
     inkscape:zoom="0.77771465"
     inkscape:cx="183.87207"
     inkscape:cy="494.39727"
     inkscape:window-width="1920"
     inkscape:window-height="1017"
     inkscape:window-x="295"
     inkscape:window-y="1432"
     inkscape:window-maximized="1"
     inkscape:current-layer="layer1" />
  <defs
     id="defs2" />
  <g
     inkscape:label="Vrstva 1"
     inkscape:groupmode="layer"
     id="layer1"
     transform="translate(-17.970665,-15.146566)">
    <path
       style="fill:#000000;stroke-width:0.194224"
       d="m 139.3348,188.75716 c -0.16747,-0.16747 -2.02578,-0.22802 -10.03166,-0.32849 -2.83083,-0.0367 -9.4733,-0.12343 -14.76104,-0.19591 -5.28778,-0.072 -14.858153,-0.17251 -21.267553,-0.22252 -6.40941,-0.0505 -12.96448,-0.14545 -14.56683,-0.2115 -1.60235,-0.0661 -3.13189,-0.10277 -3.39896,-0.0817 -0.26702,0.0229 -0.70402,0.0367 -0.97109,0.0275 -0.26702,-0.005 -2.84541,0.004 -5.72965,0.0183 -2.88423,0.0138 -5.59366,0.0138 -6.02094,-0.005 -0.42714,-0.0183 -3.90257,-0.0619 -7.72284,-0.0959 -8.47459,-0.0748 -8.0247,0.0652 -7.98217,-2.48627 0.0229,-1.37455 0.0459,-5.21754 0.0514,-9.20371 9.7e-4,-0.53408 0.0138,-3.47768 0.0275,-6.54126 0.0138,-3.21268 -0.0523,-5.70983 -0.15874,-5.90009 -0.20417,-0.3652 0.0844,-1.84551 0.40099,-2.05518 0.10277,-0.0684 0.12066,-0.2317 0.0413,-0.36291 -0.19224,-0.31061 -0.26289,-3.48898 -0.0803,-3.60185 0.16104,-0.0996 0.0459,-2.74631 -0.13443,-3.03434 -0.0651,-0.10553 -0.0908,-2.04183 -0.0573,-4.30325 0.0968,-6.52314 -0.0138,-14.73543 -0.20462,-15.43427 -0.12067,-0.4377 -0.095,-0.92916 0.0812,-1.55381 0.17342,-0.61479 0.23215,-1.67558 0.17985,-3.24421 -0.0982,-2.9463 -0.0762,-5.57113 0.0491,-5.77383 0.0532,-0.0858 0.0895,-1.50958 0.0807,-3.16364 -0.0138,-2.74686 0.0138,-3.00783 0.32666,-3.0132 0.32621,-0.005 0.32621,-0.0138 -10e-4,-0.206 -0.23857,-0.13901 -0.33676,-0.41888 -0.3207,-0.91663 0.0138,-0.39411 -0.0367,-2.5083 -0.10873,-4.69819 -0.0725,-2.18984 -0.11837,-4.41859 -0.10232,-4.95272 0.0183,-0.53409 0.0459,-2.45691 0.0642,-4.27292 0.0183,-1.81601 0.10507,-3.411056 0.19178,-3.544566 0.0863,-0.13351 0.10323,-0.33034 0.0367,-0.43724 -0.18077,-0.29271 -0.6798,-0.23307 -0.6798,0.0808 0,0.15141 -0.0661,0.30418 -0.14727,0.33997 -0.0807,0.0367 -0.45008,0.45788 -0.82043,0.938746 -0.37025,0.48072 -0.72967,0.91773 -0.79853,0.97113 -0.0688,0.0532 -0.34731,0.53409 -0.61901,1.06822 -0.27161,0.53413 -0.65741,1.14594 -0.85731,1.35955 -0.20004,0.2138 -0.51537,0.78936 -0.701,1.27931 -0.50582,1.33533 -0.73954,1.57051 -1.58473,1.59446 -0.64723,0.0183 -0.84254,-0.0872 -1.44599,-0.7822 -0.38356,-0.44182 -0.93811,-0.86236 -1.23188,-0.93439 -0.45512,-0.11149 -0.53408,-0.23077 -0.53408,-0.8062 0,-0.50899 0.22206,-0.95774 0.90264,-1.82403 0.49646,-0.63191 0.9553,-1.15264 1.01967,-1.15714 0.0642,-0.004 0.46665,-0.48784 0.89392,-1.07409 0.42715,-0.586196 1.14838,-1.473426 1.60236,-1.971586 0.45421,-0.49816 0.82546,-1.00334 0.82546,-1.12263 0,-0.25831 1.13723,-1.456 1.38259,-1.456 0.0941,0 0.17113,-0.12204 0.17113,-0.27069 0,-0.14911 0.27574,-0.56413 0.61305,-0.92259 0.33721,-0.35832 0.91089,-1.11525 1.275,-1.68177 0.36428,-0.56648 0.9186,-1.275185 1.23214,-1.574826 0.31336,-0.299594 0.57011,-0.64461 0.57011,-0.766559 0,-0.12204 0.0789,-0.221599 0.17526,-0.221599 0.0964,0 0.25968,-0.242245 0.36291,-0.538307 0.10322,-0.295925 0.92782,-1.302206 1.83253,-2.235859 0.90465,-0.933607 1.76724,-1.93686 1.91681,-2.229344 0.32528,-0.635893 1.22132,-1.818628 2.02481,-2.672312 0.3207,-0.340428 0.8886,-0.994995 1.26247,-1.454527 0.37392,-0.459486 0.78904,-0.946729 0.92255,-1.082716 0.13351,-0.136263 0.24271,-0.290419 0.24271,-0.343181 0,-0.106441 2.21264,-3.118218 3.11505,-4.2403 0.31657,-0.393648 0.57524,-0.769036 0.57524,-0.834736 0,-0.06561 0.21839,-0.322076 0.48554,-0.56946 0.26702,-0.247751 0.48555,-0.539867 0.48555,-0.649749 0,-0.109653 0.13122,-0.250045 0.29134,-0.311524 0.16012,-0.06148 0.29133,-0.227105 0.29133,-0.367955 0,-0.140851 0.37163,-0.658146 0.82547,-1.14961 2.06087,-2.230995 3.25324,-3.782649 3.25324,-4.233601 0,-0.287666 0.59172,-0.882635 1.03813,-1.043581 0.19728,-0.07111 0.40098,-0.292713 0.45329,-0.492565 0.0523,-0.200036 0.31978,-0.483527 0.59428,-0.630251 0.27436,-0.146815 0.61882,-0.552943 0.765,-0.902592 0.26885,-0.643189 0.46191,-0.90062 1.52665,-2.036603 0.32437,-0.346392 0.81546,-1.066475 1.09097,-1.600608 0.27528,-0.534132 0.69283,-1.069319 0.92741,-1.189341 0.23445,-0.120205 0.42118,-0.272984 0.4143,-0.339969 -0.0138,-0.137639 0.12892,-0.309688 1.6887,-2.035547 0.61345,-0.678792 1.28546,-1.530916 1.49343,-1.893688 0.20783,-0.362909 0.49197,-0.659613 0.63121,-0.659613 0.13902,0 0.25326,-0.126628 0.25326,-0.281702 0,-0.155073 0.11057,-0.351439 0.24545,-0.436775 0.3542,-0.223894 1.80331,-2.03619 1.9493,-2.4375 0.0679,-0.186731 0.2138,-0.33997 0.32391,-0.33997 0.11011,0 0.20049,-0.09681 0.20049,-0.214717 0,-0.117911 0.20876,-0.378967 0.46371,-0.579599 0.25509,-0.200495 0.51748,-0.578865 0.58313,-0.840471 0.0656,-0.261515 0.29409,-0.531105 0.50739,-0.598823 0.21334,-0.0679 0.38814,-0.24408 0.38814,-0.391813 0,-0.147733 0.10919,-0.338593 0.2427,-0.423929 0.13351,-0.08534 0.35328,-0.330335 0.48835,-0.543813 0.70292,-1.111759 1.03243,-1.541056 1.82854,-2.381986 0.47894,-0.50587 0.97361,-1.111896 1.09923,-1.346663 0.12571,-0.234904 0.49004,-0.581434 0.80992,-0.770367 0.31978,-0.189025 0.63685,-0.517937 0.70452,-0.731094 0.0674,-0.213341 0.32988,-0.550236 0.58245,-0.748987 0.2528,-0.19866 0.45939,-0.486142 0.45939,-0.638601 0,-0.15232 0.0798,-0.277113 0.17756,-0.277113 0.27849,0 1.9587,-2.328857 1.9587,-2.714844 0,-0.200953 0.24408,-0.446869 0.58267,-0.586986 0.3207,-0.132592 0.58267,-0.329416 0.58267,-0.437234 0,-0.327581 1.4209,-2.233289 2.49398,-3.344772 0.25005,-0.258762 0.40787,-0.546291 0.35098,-0.638509 -0.18857,-0.305559 1.14558,-1.592349 1.78349,-1.719941 0.33859,-0.0679 0.61561,-0.180307 0.61561,-0.250044 0,-0.288584 1.50312,-1.650112 2.09634,-1.89901 0.3519,-0.147733 0.68893,-0.39686 0.74913,-0.553539 0.0601,-0.156909 0.22068,-0.285372 0.35602,-0.285372 0.135813,0 0.354203,-0.129381 0.485233,-0.287208 0.42026,-0.506329 4.69243,-3.011685 5.13903,-3.013658 0.20141,0 3.1596,-1.89176 3.56972,-2.281693 0.14131,-0.134427 0.32712,-0.24408 0.41337,-0.24408 0.23262,0 2.34588,-1.298214 2.81147,-1.727098 0.2216,-0.204165 0.83992,-0.589417 1.37401,-0.856116 2.00751,-1.002336 2.89836,-1.508298 3.02967,-1.720767 0.16425,-0.266102 1.47118,-0.738893 2.05298,-0.742931 0.57758,-0.0041 1.57739,0.597263 1.6864,1.014218 0.0528,0.201871 0.2762,0.344557 0.54473,0.347769 0.25051,0.0029 0.73371,0.243163 1.07414,0.534132 0.69196,0.591299 3.75113,4.667211 3.75113,4.997821 0,0.116534 0.48068,0.708292 1.06822,1.314914 0.58754,0.606576 1.06822,1.279541 1.06822,1.495451 0,0.216093 0.0785,0.392731 0.17434,0.392731 0.23353,0 1.37956,1.014401 1.37956,1.220998 0,0.08992 0.21839,0.398236 0.48527,0.685122 0.88231,0.94861 1.85561,2.217966 2.35808,3.075367 0.27253,0.4649 0.57446,0.845243 0.67113,0.845243 0.0968,0 0.17572,0.128004 0.17572,0.284454 0,0.15645 0.26243,0.583224 0.58267,0.948198 0.3207,0.365203 0.58268,0.757016 0.58268,0.871119 0,0.11424 0.10919,0.277572 0.2427,0.362909 0.13351,0.08534 0.58497,0.592307 1.00316,1.12644 0.41843,0.534132 0.86424,1.058767 0.9911,1.165896 0.48981,0.413377 2.23012,2.850831 2.23012,3.123403 0,0.157826 0.1303,0.337216 0.2895,0.398236 0.1592,0.06102 0.61612,0.560926 1.01532,1.110704 0.39915,0.549777 0.82354,1.086983 0.94311,1.193791 0.11974,0.1069 0.42392,0.543813 0.67608,0.971137 0.25234,0.427141 0.55473,0.864283 0.67214,0.971091 0.11745,0.1069 0.45008,0.565698 0.73921,1.019678 0.28905,0.45421 0.61186,0.825469 0.7172,0.825469 0.10506,0 0.19131,0.153697 0.19131,0.341804 0,0.188107 0.26198,0.558632 0.58268,0.823312 0.3207,0.264727 0.58267,0.58717 0.58267,0.716551 0,0.129381 0.10965,0.3051 0.24408,0.390436 0.29684,0.189025 1.30987,1.528714 1.30987,1.732237 0,0.08029 0.3496,0.560742 0.77688,1.067484 0.42714,0.506742 0.77688,0.961962 0.77688,1.011649 0,0.04955 0.25785,0.366121 0.57276,0.703383 0.3152,0.337216 0.62663,0.78303 0.69256,0.990774 0.0661,0.207835 0.46004,0.749537 0.8758,1.204022 1.54844,1.692688 1.94466,2.196723 2.0561,2.615927 0.0629,0.236739 0.25922,0.476094 0.43678,0.532343 0.17709,0.05643 0.40878,0.273902 0.51481,0.483114 0.47793,0.945536 2.50288,4.008377 2.74247,4.148127 0.14635,0.08534 0.2661,0.277114 0.2661,0.425764 0,0.14911 0.16012,0.384932 0.35648,0.524498 0.43907,0.3129 2.1686,2.573809 2.1686,2.835186 0,0.104606 0.21839,0.333546 0.48555,0.508302 0.26702,0.174802 0.48559,0.434022 0.48559,0.575883 0,0.141768 0.26197,0.619698 0.58267,1.06207 0.3207,0.442281 0.58268,0.892545 0.58268,1.000271 0,0.107817 0.0872,0.195907 0.19407,0.195907 0.1069,0 0.19407,0.128004 0.19407,0.284454 0,0.15645 0.1748,0.378049 0.3886,0.492382 0.2138,0.11424 0.3886,0.298218 0.3886,0.408788 0,0.186272 1.09258,1.896853 1.35148,2.116067 0.0633,0.05322 0.33125,0.518625 0.59552,1.033763 0.26427,0.515184 0.74559,1.214391 1.06918,1.55381 0.32346,0.33951 0.84805,0.963842 1.16535,1.387588 0.80767,1.078587 0.92104,1.211547 2.22916,2.614045 0.64021,0.686407 1.16406,1.314685 1.16406,1.396121 0,0.08167 0.26243,0.434941 0.58267,0.786058 0.32025,0.350981 0.58268,0.742289 0.58268,0.869789 0,0.127546 0.20646,0.392272 0.45834,0.587949 0.25234,0.195907 0.73696,0.771239 1.07753,1.278669 0.34043,0.507385 0.69095,0.922551 0.77867,0.922551 0.27803,0 0.38998,1.343084 0.16563,1.986731 -0.11883,0.340428 -0.47059,0.83336 -0.78207,1.095471 -0.31152,0.261974 -0.64067,0.672001 -0.73151,0.910943 -0.0908,0.239034 -0.5795,0.640023 -1.08593,0.891215 -0.50642,0.251421 -1.58266,1.120889 -2.39162,1.932589 -0.8089,0.81166 -1.967,1.83671 -2.57344,2.27784 -0.60648,0.44091 -1.14695,0.87369 -1.20108,0.96128 -0.0541,0.0876 -0.14498,0.63575 -0.20188,1.2182 -0.0569,0.58244 -0.23536,1.65919 -0.39594,2.392806 -0.18673,0.85222 -0.22848,1.45287 -0.11561,1.6636 0.0995,0.18627 0.1069,0.63814 0.0183,1.03853 -0.2216,0.98343 -0.23399,9.65237 -0.0138,10.41737 0.11837,0.41246 0.1069,0.78298 -0.0321,1.09152 -0.15462,0.33905 -0.15416,0.53776 0.002,0.72499 0.14085,0.16976 0.18627,1.0858 0.13305,2.67636 -0.0959,2.87437 -0.0968,2.43732 0.0138,6.30297 0.12938,4.5381 0.25233,11.89075 0.21792,13.01301 -0.0459,1.4387 -0.0138,4.03337 0.0927,8.00648 0.0523,1.94658 0.0275,3.64798 -0.0541,3.78085 -0.0821,0.13305 -0.0688,0.3386 0.0275,0.45743 0.0986,0.11883 0.21701,1.65117 0.26335,3.40543 0.1303,4.9456 0.27161,7.72508 0.40328,7.93838 0.0661,0.10736 0.0275,0.5451 -0.089,0.97311 -0.16838,0.62534 -0.15095,0.89144 0.0885,1.35442 0.50926,0.98485 0.3886,1.81032 -0.36567,2.49641 -0.36474,0.33216 -0.72467,0.80496 -0.79945,1.05087 -0.0748,0.24593 -0.41521,0.70935 -0.75683,1.02982 -1.53785,1.44315 -2.66254,2.36735 -3.42731,2.81624 -0.45513,0.26702 -1.17641,0.81331 -1.60327,1.21388 -0.42668,0.40053 -0.84002,0.72834 -0.91815,0.72834 -0.078,0 -0.42301,0.26198 -0.76582,0.58268 -0.34318,0.3207 -0.74133,0.58267 -0.88498,0.58267 -0.1436,0 -1.79321,1.52954 -3.66561,3.39896 -1.87244,1.86941 -3.45144,3.39891 -3.50888,3.39891 -0.0574,0 -0.47564,0.37162 -0.92921,0.82547 -2.14419,2.14607 -5.08958,4.80705 -5.32081,4.80705 -0.14177,0 -0.25739,0.13857 -0.25739,0.30831 0,0.39045 -1.16085,2.02165 -1.44108,2.02523 -0.11562,0.002 -0.38677,0.05 -0.60323,0.10827 -0.21655,0.0583 -0.46324,0.0367 -0.54863,-0.0496 z m -2.93278,-3.08968 c 1.24665,-0.10735 1.38865,-0.16426 1.58602,-0.63277 0.13856,-0.32896 0.22114,-2.23421 0.22848,-5.27337 0.005,-2.61717 0.0275,-5.37028 0.0491,-6.11807 0.0229,-0.74775 0.009,-2.02412 -0.0229,-2.83638 -0.0321,-0.81226 -0.009,-1.56468 0.0592,-1.67213 0.15783,-0.25555 0.20141,-1.98641 0.0872,-3.45466 -0.05,-0.64094 -0.0367,-1.82087 0.0321,-2.62203 0.0697,-0.81556 0.0275,-2.01623 -0.0909,-2.72801 -0.16287,-0.96251 -0.15782,-1.5261 0.0229,-2.32014 0.14774,-0.65626 0.17205,-1.21756 0.0647,-1.49962 -0.0945,-0.24775 -0.12525,-0.90824 -0.0688,-1.46724 0.0564,-0.55904 0.089,-1.32235 0.072,-1.69622 -0.0367,-0.81037 -0.009,-25.89275 0.0321,-27.91976 0.0138,-0.77445 0.0229,-1.73587 0.0229,-2.13644 -0.004,-0.40053 0.003,-1.42755 0.0183,-2.28215 0.0138,-0.85461 0.0138,-1.94709 0.005,-2.42782 -0.009,-0.48068 -0.0275,-2.35983 -0.0367,-4.17581 -0.0138,-1.81601 -0.0587,-4.52351 -0.10461,-6.01667 -0.0459,-1.49315 -0.0367,-2.78953 0.0183,-2.88083 0.30235,-0.48913 0.19637,-2.02137 -0.18719,-2.70741 -0.22389,-0.40053 -0.47072,-0.72834 -0.5483,-0.72834 -0.0775,0 -0.33676,-0.41521 -0.57612,-0.92255 -0.23903,-0.50743 -0.94622,-1.600376 -1.5711,-2.428786 -0.62493,-0.8284 -1.13617,-1.62616 -1.13617,-1.77279 0,-0.14682 -0.13122,-0.3753 -0.29134,-0.50839 -0.16012,-0.13306 -0.29133,-0.34273 -0.29133,-0.46614 0,-0.12342 -0.15278,-0.36888 -0.33997,-0.54524 -0.58772,-0.55478 -0.82547,-0.90456 -0.82547,-1.21448 0,-0.16517 -0.3496,-0.61589 -0.77688,-1.00192 -0.42714,-0.38585 -0.77693,-0.822811 -0.77693,-0.970636 0,-0.147733 -0.0835,-0.268855 -0.1849,-0.268855 -0.10185,0 -0.36245,-0.40099 -0.57941,-0.891353 -0.22022,-0.497703 -0.55854,-0.934295 -0.76629,-0.988617 -0.34914,-0.0913 -0.99407,-1.382541 -0.99407,-1.989989 0,-0.14498 -0.26243,-0.514404 -0.58268,-0.820651 -0.3207,-0.306018 -0.58267,-0.613367 -0.58267,-0.682462 0,-0.06928 -0.19682,-0.395942 -0.43677,-0.726689 -0.24041,-0.330335 -0.68682,-1.09382 -0.99215,-1.696221 -0.30556,-0.602355 -0.76418,-1.207097 -1.01968,-1.343818 -0.25555,-0.136722 -0.46453,-0.361992 -0.46453,-0.500319 0,-0.138557 -0.17481,-0.345016 -0.38861,-0.459578 -0.2138,-0.11424 -0.3886,-0.338593 -0.3886,-0.498484 0,-0.159661 -0.12112,-0.337216 -0.26977,-0.394107 -0.14819,-0.05689 -0.31657,-0.339051 -0.37438,-0.626717 -0.10873,-0.542437 -1.78715,-3.189929 -2.09492,-3.303986 -0.0959,-0.0367 -0.1748,-0.233069 -0.1748,-0.439069 0,-0.205542 -0.1748,-0.523809 -0.3886,-0.706732 -0.2138,-0.18306 -0.3886,-0.471506 -0.3886,-0.641307 0,-0.169756 -0.18352,-0.505687 -0.40787,-0.746556 -0.22435,-0.240869 -0.35878,-0.486922 -0.29914,-0.546795 0.0601,-0.0601 -0.0321,-0.38172 -0.20462,-0.715495 -0.31565,-0.610476 -0.78156,-1.142681 -2.81734,-3.217227 -0.60887,-0.620432 -1.16457,-1.357536 -1.23499,-1.637999 -0.0702,-0.280326 -0.206,-0.509908 -0.30097,-0.509908 -0.0954,0 -0.17297,-0.165626 -0.17297,-0.367497 0,-0.20233 -0.13122,-0.417965 -0.29134,-0.479489 -0.16012,-0.06148 -0.29133,-0.235364 -0.29133,-0.386308 0,-0.150944 -0.33447,-0.612632 -0.74284,-1.02578 -1.03051,-1.042067 -1.79482,-2.519441 -1.8234,-3.524575 -0.009,-0.393649 -0.13443,-0.655117 -0.33905,-0.720083 -0.17664,-0.05597 -0.56611,-0.560376 -0.86511,-1.120568 -0.90989,-1.704708 -1.8674,-3.05784 -2.16383,-3.05784 -0.15461,0 -0.28078,-0.110111 -0.28078,-0.244539 0,-0.134428 -0.21839,-0.480407 -0.48555,-0.768395 -0.26702,-0.288124 -0.48559,-0.584783 -0.48559,-0.659475 0,-0.07478 -0.19682,-0.406036 -0.43678,-0.736829 -0.24041,-0.330335 -0.60373,-0.928744 -0.80748,-1.329367 -0.20371,-0.40053 -0.44412,-0.728341 -0.53409,-0.728341 -0.0899,0 -0.16379,-0.136263 -0.16379,-0.302806 0,-0.323453 -0.94034,-1.645065 -2.04526,-2.874781 -0.37071,-0.412459 -0.6754,-0.849509 -0.67723,-0.971137 -0.002,-0.121581 -0.22114,-0.427599 -0.48743,-0.680305 -0.2661,-0.252338 -0.53643,-0.667688 -0.60038,-0.92255 -0.0638,-0.255092 -0.19407,-0.463386 -0.2895,-0.463386 -0.0954,0 -0.17297,-0.08167 -0.17297,-0.181225 0,-0.284913 -1.204483,-2.149375 -1.388603,-2.149375 -0.0908,0 -0.16516,-0.09727 -0.16516,-0.215635 0,-0.118829 -0.34961,-0.633416 -0.77693,-1.143783 -0.42714,-0.51032 -0.77688,-0.980542 -0.77688,-1.044911 0,-0.215176 -1.40489,-1.960718 -1.80179,-2.238703 -0.33906,-0.237199 -0.42072,-0.235822 -0.60598,0.0092 -1.21963,1.624969 -2.56937,3.078302 -2.85887,3.078302 -0.0881,0 -0.35924,0.349604 -0.60286,0.777112 -0.24362,0.427599 -0.58175,0.822165 -0.7516,0.877221 -0.16975,0.05506 -0.42485,0.317029 -0.56694,0.58249 -0.14222,0.265185 -0.33079,0.482334 -0.41934,0.482334 -0.089,0 -0.16149,0.131216 -0.16149,0.291336 0,0.16012 -0.15416,0.445493 -0.34273,0.633829 -0.18856,0.188566 -0.55693,0.647272 -0.81904,1.019678 -0.26197,0.372544 -0.58868,0.792665 -0.72573,0.933837 -0.13718,0.141309 -0.24912,0.381719 -0.24912,0.534132 0,0.152779 -0.13122,0.277572 -0.29134,0.277572 -0.16012,0 -0.29134,0.06699 -0.29134,0.14911 0,0.162414 -1.17989,1.641394 -2.26155,2.834681 -0.37392,0.412918 -0.77523,0.958933 -0.8914,1.213887 -0.11607,0.255091 -0.30647,0.465955 -0.42301,0.468799 -0.11653,0.0029 -0.41613,0.337217 -0.66608,0.742748 -0.25004,0.405577 -0.9186,1.23623 -1.48586,1.845743 -0.56731,0.609558 -1.16613,1.392084 -1.33074,1.739026 -0.32116,0.676544 -0.98555,1.500223 -2.60194,3.225027 -0.95232,1.016237 -1.3474,1.534586 -3.04733,3.998605 -0.36842,0.534086 -1.35272,1.678741 -2.18714,2.543574 -0.83441,0.864834 -1.73558,1.867031 -2.00265,2.227004 -0.63438,0.855153 -1.12341,1.347489 -1.33854,1.347489 -0.0954,0 -0.22802,0.218388 -0.29501,0.485545 -0.067,0.267021 -0.20783,0.485546 -0.31244,0.485546 -0.1046,0 -0.1904,0.0913 -0.1904,0.20233 0,0.228481 -0.20783,0.498392 -1.12323,1.459068 -0.35052,0.367956 -0.70118,0.669202 -0.77876,0.669202 -0.0775,0 -0.25005,0.174802 -0.38356,0.388602 -0.13351,0.2138 -0.373,0.388602 -0.53225,0.388602 -0.1592,0 -0.2895,0.131216 -0.2895,0.291336 0,0.16012 -0.0766,0.291337 -0.17067,0.291337 -0.0941,0 -0.54661,0.502521 -1.00614,1.116759 -0.45958,0.614238 -1.06175,1.335285 -1.33827,1.602351 -0.57455,0.554961 -2.53486,3.040773 -2.53486,3.214428 0,0.06331 -0.10919,0.230316 -0.2427,0.370709 -0.55368,0.583361 -0.92255,1.092167 -0.92255,1.272475 0,0.105523 -0.0789,0.191777 -0.17572,0.191777 -0.0968,0 -0.6147,0.589968 -1.15108,1.311015 -0.53643,0.721046 -1.15649,1.439569 -1.378,1.596661 -0.2216,0.157368 -0.40282,0.390437 -0.40282,0.517937 0,0.128005 -0.0656,0.261515 -0.14544,0.296842 -0.0803,0.0367 -0.40787,0.45788 -0.72779,0.938746 -0.32024,0.480682 -0.62608,0.917687 -0.67976,0.971137 -0.0537,0.05322 -0.4019,0.534086 -0.77426,1.068219 -0.37209,0.534132 -0.91081,1.1692 -1.19714,1.411307 -0.28629,0.242245 -0.8001,0.935486 -1.14177,1.540876 -0.3418,0.60538 -0.74022,1.21971 -0.88566,1.36515 -0.54739,0.54744 -0.67164,1.85506 -0.67925,7.151456 -0.005,3.801 -0.0752,5.48428 -0.23858,5.74777 -0.18352,0.29638 -0.17526,0.40695 0.0413,0.54124 0.20325,0.12663 0.23491,0.37988 0.12709,1.01376 -0.13672,0.8023 -0.13947,1.27073 -0.0229,4.24401 0.0275,0.69435 -0.0367,2.02683 -0.14498,2.96109 -0.14819,1.29849 -0.13351,1.95136 0.0633,2.77151 0.23766,0.99082 0.22986,1.09304 -0.10323,1.33671 -0.33905,0.24775 -0.34089,0.28353 -0.0321,0.59272 0.38172,0.38172 0.4042,0.57432 0.12801,1.09083 -0.13351,0.25005 -0.13535,0.37576 -0.005,0.37576 0.12433,0 0.13442,0.16287 0.0275,0.44457 -0.2216,0.58341 -0.24271,7.32457 -0.0229,7.32457 0.21517,0 0.20783,2.19819 -0.009,2.33625 -0.0881,0.0564 -0.0665,0.73403 0.0477,1.50559 0.16333,1.09992 0.15461,1.46746 -0.0413,1.70213 -0.17343,0.20922 -0.18673,0.36062 -0.0459,0.5034 0.13396,0.13397 0.1436,0.42393 0.0275,0.84451 -0.11103,0.40236 -0.10461,0.83014 0.0183,1.15098 0.18489,0.48642 0.11148,2.31262 -0.10736,2.66649 -0.0569,0.0918 -0.009,0.16746 0.10231,0.16746 0.11332,0 0.20554,0.30602 0.20554,0.67975 0,0.41292 -0.0954,0.68095 -0.2427,0.68279 -0.16517,0.002 -0.17526,0.0486 -0.0321,0.14544 0.22389,0.15186 0.35144,2.48374 0.15369,2.80408 -0.18214,0.29454 -0.20508,1.90286 -0.0275,1.90286 0.0872,0 0.13397,0.3496 0.10507,0.77661 -0.0275,0.42714 -0.0991,0.77674 -0.15553,0.77692 -0.1615,0 -0.0977,1.42943 0.0762,1.70824 0.089,0.14223 0.0551,0.37392 -0.078,0.53414 -0.15554,0.18719 -0.17114,0.36474 -0.0463,0.5256 0.21334,0.27482 0.18306,4.2864 -0.0367,4.98194 -0.0867,0.27299 -0.0413,0.64333 0.11011,0.92911 0.20967,0.39136 0.20967,0.50271 -4.2e-4,0.63236 -0.14589,0.0904 -0.17572,0.206 -0.0697,0.27161 0.28308,0.1748 0.28446,5.22823 10e-4,5.40322 -0.17572,0.10873 -0.17847,0.3418 -0.009,0.97857 0.27666,1.05463 0.33539,5.35894 0.0817,6.02525 -0.1046,0.27528 -0.13029,0.56033 -0.0569,0.6336 0.15875,0.15874 0.18719,0.87222 0.28308,7.09301 0.0486,3.14359 0.15095,4.90244 0.30189,5.18271 0.12571,0.23307 0.20646,0.62658 0.17985,0.87401 l -0.0486,0.44963 11.39387,0.0546 11.39392,0.0546 0.12847,-0.58465 c 0.0707,-0.32161 0.0748,-1.04541 0.009,-1.60854 -0.0656,-0.56313 -0.15645,-3.1652 -0.20279,-5.78241 -0.0459,-2.61717 -0.1069,-4.88959 -0.13489,-5.0498 -0.0275,-0.16012 0.0183,-0.77854 0.10094,-1.37401 0.10414,-0.74068 0.0624,-1.51165 -0.13122,-2.4408 -0.2372,-1.1381 -0.24362,-1.59217 -0.0367,-2.80188 0.1826,-1.0746 0.19728,-2.01463 0.0564,-3.67722 -0.10369,-1.22848 -0.18352,-2.49577 -0.17756,-2.81624 0.0183,-0.92085 0.23812,-24.77319 0.23674,-25.63761 -5.9e-4,-0.42714 -0.004,-2.87455 -0.005,-5.43831 -0.009,-9.11838 -0.0459,-14.57633 -0.0936,-15.24659 -0.1881,-2.51857 -0.38447,-3.94612 -0.5689,-4.14262 -0.21839,-0.23261 -0.23399,-1.82547 -0.0183,-2.03968 0.0651,-0.0652 1.27206,-0.14452 2.68167,-0.17572 1.40961,-0.0321 2.78141,-0.0693 3.04848,-0.0844 0.26702,-0.0138 0.96627,-0.0229 1.55381,-0.0138 4.83513,0.0707 14.05439,-0.10828 16.50906,-0.31978 2.60624,-0.22482 5.287503,-0.284 10.223833,-0.22619 2.22747,0.0275 3.95782,0.33263 4.44112,0.78661 0.41108,0.38585 0.72545,1.62506 0.64057,2.52393 -0.0138,0.16012 -0.0183,1.36626 -0.009,2.68007 0.0138,1.78229 0.0913,2.5026 0.3106,2.83698 0.24133,0.36841 0.27574,0.96352 0.19316,3.34088 -0.156,4.47901 -0.14957,8.38599 0.0138,9.93902 0.10873,1.02046 0.0849,1.49334 -0.0863,1.69948 -0.1303,0.15691 -0.15737,0.28537 -0.0606,0.28537 0.17985,0 0.16104,4.82408 -0.0275,6.37656 -0.0555,0.4626 -0.0275,0.98701 0.0628,1.16534 0.0899,0.17848 0.0927,0.97972 0.005,1.78087 -0.26106,2.41227 -0.22114,6.45258 0.0656,6.63798 0.1959,0.12663 0.18948,0.19728 -0.0321,0.33997 -0.23169,0.14911 -0.27115,0.87428 -0.22756,4.22438 0.1069,8.24166 0.18031,10.47696 0.37438,11.42484 0.18673,0.91232 0.32987,4.89739 0.19866,5.53539 -0.0321,0.16012 0.0183,1.34015 0.10965,2.62203 0.0936,1.28188 0.18948,3.22512 0.21334,4.31834 0.0229,1.15067 0.1381,2.1013 0.26748,2.25752 0.12296,0.14865 0.17755,0.38998 0.12112,0.5373 -0.0986,0.25692 0.61479,8.24532 0.74587,8.3519 0.0183,0.0138 4.43387,0.0546 9.81662,0.0918 5.3827,0.0367 9.83974,0.12067 9.90443,0.18536 0.0647,0.0647 0.59887,0.0679 1.18691,0.005 0.58809,-0.061 1.68535,-0.16379 2.43846,-0.22848 z m -30.4058,-0.27344 c 0,-0.1069 -0.13122,-0.19408 -0.29134,-0.19408 -0.16012,0 -0.29134,0.0872 -0.29134,0.19408 0,0.1069 0.13122,0.19407 0.29134,0.19407 0.16012,0 0.29134,-0.0872 0.29134,-0.19407 z m 36.8821,-3.01049 c 0.39594,-0.42715 1.10873,-1.08198 1.58404,-1.45485 0.77239,-0.60589 3.41997,-3.14663 8.24937,-7.91646 0.89232,-0.88132 1.75889,-1.60235 1.92571,-1.60235 0.167,0 0.30327,-0.10965 0.30327,-0.24408 0,-0.13397 0.25234,-0.35557 0.56033,-0.49193 0.30831,-0.13626 0.76701,-0.41567 1.01967,-0.62057 0.63604,-0.51587 1.88337,-1.58542 2.32524,-1.99393 0.20233,-0.18673 0.40787,-0.33997 0.45696,-0.33997 0.21334,0 1.85308,-1.08024 1.85308,-1.22063 0,-0.0853 0.1748,-0.34272 0.3886,-0.57217 0.24592,-0.26381 0.39549,-0.70641 0.40788,-1.20576 0.009,-0.43403 0.0844,-1.00734 0.16379,-1.2744 0.0927,-0.31107 0.0528,-0.59378 -0.11149,-0.78671 -0.18719,-0.22022 -0.20784,-0.4815 -0.0775,-0.97109 0.29226,-1.09772 0.15553,-9.77275 -0.16058,-10.15337 -0.21426,-0.25831 -0.21976,-0.49647 -0.0275,-1.29092 0.21426,-0.89232 0.19453,-3.81619 -0.0551,-8.25969 -0.0367,-0.64094 0.0183,-1.27399 0.11516,-1.40681 0.10231,-0.13626 0.1225,-0.81244 0.0468,-1.55381 -0.22022,-2.15231 -0.17204,-4.3973 0.10507,-4.9285 0.0904,-0.17296 0.10277,-0.37576 0.0275,-0.45054 -0.0748,-0.0748 -0.14911,-0.41383 -0.16517,-0.75389 -0.23123,-4.85973 -0.3129,-6.0153 -0.4861,-6.89628 -0.17113,-0.86892 -0.15415,-1.08887 0.10507,-1.37529 0.16975,-0.18766 0.24316,-0.4065 0.16333,-0.48633 -0.0798,-0.0798 -0.15461,-1.7772 -0.16654,-3.77164 -0.009,-1.99444 -0.0885,-5.20649 -0.17113,-7.13789 -0.11287,-2.64969 -0.0913,-3.62111 0.089,-3.95773 0.14406,-0.26931 0.16609,-0.49412 0.056,-0.56712 -0.10048,-0.0665 -0.19408,-0.77646 -0.20784,-1.57762 -0.0707,-4.1094 -0.0413,-5.45542 0.11837,-5.77121 0.33171,-0.6481 0.412,-1.554816 0.16746,-1.889006 -0.21885,-0.29913 -0.30648,-0.27436 -1.01004,0.28675 -0.42393,0.338136 -1.08974,0.742886 -1.47995,0.899836 -0.38997,0.15691 -0.96888,0.56336 -1.28601,0.90305 -0.75004,0.80359 -1.32257,1.27926 -2.28256,1.89644 -0.42989,0.27665 -1.3908,1.08515 -2.13488,1.79702 -0.74408,0.71187 -1.4414,1.29431 -1.54959,1.29431 -0.10827,0 -0.50224,0.38814 -0.87561,0.86231 -0.37346,0.47422 -0.98481,1.02051 -1.35869,1.21389 -0.37392,0.19315 -0.73008,0.41934 -0.79151,0.50238 -0.0615,0.083 -0.56405,0.20463 -1.11681,0.26978 -0.93026,0.11011 -1.00504,0.15782 -1.00504,0.63827 0,0.73261 -0.88273,1.5133 -1.89383,1.67498 -0.57528,0.0922 -0.82528,0.0633 -0.82528,-0.095 0,-0.35786 -0.82221,-1.37653 -1.11102,-1.37653 -0.28171,0 -0.65214,-0.77133 -0.49675,-1.03404 0.0519,-0.0881 -0.0766,-0.35006 -0.28583,-0.58267 -0.20921,-0.23261 -0.54615,-0.79184 -0.74871,-1.24307 -0.20279,-0.45145 -0.42117,-0.82271 -0.48545,-0.82546 -0.0642,-0.003 -0.1381,0.49756 -0.16379,1.11175 -0.0413,0.99651 -0.2005,42.67383 -0.18857,49.47867 0.0183,9.5807 0.17847,22.41162 0.28721,22.82138 0.0711,0.26702 0.14131,1.20976 0.15599,2.09491 0.0321,1.8403 0.33079,2.32034 0.96751,1.54565 0.19683,-0.23996 0.6821,-0.78547 1.07795,-1.21279 z m -42.61376,-45.2147 c 0.21472,-0.10827 0.52161,-0.25784 0.68182,-0.33216 0.38722,-0.17985 0.47375,-0.87759 0.19315,-1.55501 -0.12479,-0.30143 -0.25188,-1.05812 -0.28216,-1.68103 -0.0321,-0.62291 -0.16287,-1.70067 -0.29455,-2.39502 -0.13167,-0.69434 -0.23398,-2.57349 -0.2271,-4.17584 0.0183,-4.65046 0.0138,-6.13219 -0.0321,-7.47693 l -0.0413,-1.26174 -2.135653,0.0853 c -3.16337,0.12617 -10.93091,0.0138 -11.30584,-0.16425 -0.26931,-0.12755 -4.49787,-0.13672 -4.73424,-0.009 -0.44595,0.23858 -0.55322,1.36846 -0.56992,6.01163 -0.0138,3.92093 0.0899,6.23208 0.323,7.18633 0.23307,0.95384 0.30097,1.47531 0.36658,2.81624 0.0835,1.70897 0.27115,2.62836 0.55927,2.73888 1.103,0.42347 16.70377,0.61406 17.496763,0.2138 z M 87.156477,115.0085 c 0,-0.0413 -0.13122,-0.12662 -0.29134,-0.1881 -0.16012,-0.0615 -0.29133,-0.0275 -0.29133,0.0762 0,0.10323 0.13121,0.18811 0.29133,0.18811 0.16012,0 0.29134,-0.0321 0.29134,-0.0762 z M 146.78333,52.544587 c 0,-0.1069 -0.0927,-0.194072 -0.20554,-0.194072 -0.11332,0 -0.15186,0.08717 -0.0858,0.194072 0.0661,0.1069 0.15875,0.194071 0.20554,0.194071 0.0473,0 0.0858,-0.08717 0.0858,-0.194071 z"
       id="path1436"
       sodipodi:nodetypes="ccccscccscsscsscsssssssscccsscssscsssssssssssssssssssssssssscscscssssssssssscssssscssssscsscsssssssssscscsssscccssssssssssssssssscsssssssssscsssscsssssssccsssssssssssscssssssscssssscscsssscsscscsssssssssssssssssscsscscccsscssssssssssscssssssssssscssssssscscssscssscsssscsssssssscsssssscssssscsssssssscsssssssssssscsssssssssssssssssssssscssscscscsssssssscssscsscssscsccsssscssscsssscccssssssscccscsccssssscsssccccccscssssssscsssssssscccscccssssscsssssscsscssssscccssscsssssssccsssssssscscscsssssssssssccccssscsccccssssccssssssssss" />
  </g>
</svg>
